<svg xmlns="http://www.w3.org/2000/svg" width="513.692" height="141.096" viewBox="0 0 513.692 141.096"><rect x="0" y="0" width="513.692" height="141.096" fill="#FFFFFF"/><defs><marker id="arrow-0" viewBox="0 0 10 10" refX="5" refY="5" markerUnits="userSpaceOnUse" markerWidth="8" markerHeight="8" orient="auto"><path d="M 0 0 L 10 5 L 0 10 z" fill="#2F3B4D" stroke="#2F3B4D" stroke-width="1" stroke-dasharray="1,0"/></marker><marker id="arrow-start-0" viewBox="0 0 10 10" refX="4.5" refY="5" markerUnits="userSpaceOnUse" markerWidth="8" markerHeight="8" orient="auto"><path d="M 0 5 L 10 10 L 10 0 z" fill="#2F3B4D" stroke="#2F3B4D" stroke-width="1" stroke-dasharray="1,0"/></marker></defs><path id="edge-0" class="edgePath" data-edge-id="edge-0" d="M 78.600,70.548 L 92.095,70.548 L 103.661,70.548 L 117.156,70.548" fill="none" stroke="#2F3B4D" stroke-width="2"    stroke-linecap="round" stroke-linejoin="round" /><path id="edge-1" class="edgePath" data-edge-id="edge-1" d="M 226.252,54.548 L 239.747,54.548 L 287.650,37.620 L 301.145,37.620" fill="none" stroke="#2F3B4D" stroke-width="2"    stroke-linecap="round" stroke-linejoin="round" /><rect data-edge-id="edge-1" data-label-kind="center" x="245.76" y="31.88" width="35.88" height="28.40" rx="2" ry="2" fill="rgba(248,250,252, 0.92)" fill-opacity="0.95" stroke="#7B88A8" stroke-opacity="0.45" stroke-width="0.8"/><g class="edgeLabel" data-edge-id="edge-1" data-label-kind="center"><text x="263.70" y="50.08" text-anchor="middle" font-family="'trebuchet ms', verdana, arial, sans-serif" font-size="16" fill="#333333"><tspan x="263.70" dy="0.00">yes</tspan></text></g><path id="edge-2" class="edgePath" data-edge-id="edge-2" d="M 226.252,86.548 L 239.747,86.548 L 279.057,103.476 L 292.551,103.476" fill="none" stroke="#2F3B4D" stroke-width="2"    stroke-linecap="round" stroke-linejoin="round" /><rect data-edge-id="edge-2" data-label-kind="center" x="245.63" y="80.81" width="27.54" height="28.40" rx="2" ry="2" fill="rgba(248,250,252, 0.92)" fill-opacity="0.95" stroke="#7B88A8" stroke-opacity="0.45" stroke-width="0.8"/><g class="edgeLabel" data-edge-id="edge-2" data-label-kind="center"><text x="259.40" y="99.01" text-anchor="middle" font-family="'trebuchet ms', verdana, arial, sans-serif" font-size="16" fill="#333333"><tspan x="259.40" dy="0.00">no</tspan></text></g><path id="edge-3" class="edgePath" data-edge-id="edge-3" d="M 403.907,37.620 L 417.402,37.620 L 431.189,59.726 L 444.684,59.726" fill="none" stroke="#2F3B4D" stroke-width="2"    stroke-linecap="round" stroke-linejoin="round" /><path id="edge-4" class="edgePath" data-edge-id="edge-4" d="M 381.111,103.476 L 394.606,103.476 L 431.189,81.371 L 444.684,81.371" fill="none" stroke="#2F3B4D" stroke-width="2"    stroke-linecap="round" stroke-linejoin="round" /><rect x="8.00" y="51.05" width="70.60" height="39.00" rx="19.50" ry="19.50" fill="#ECECFF" stroke="#7B88A8" stroke-width="1" stroke-linejoin="round" stroke-linecap="round"/><text x="43.30" y="74.55" text-anchor="middle" font-family="'trebuchet ms', verdana, arial, sans-serif" font-size="16" fill="#333333"><tspan x="43.30" dy="0.00">Start</tspan></text><polygon points="179.70,8.00 242.25,70.55 179.70,133.10 117.16,70.55" fill="#ECECFF" stroke="#7B88A8" stroke-width="1" stroke-linejoin="round" stroke-linecap="round"/><text x="179.70" y="74.55" text-anchor="middle" font-family="'trebuchet ms', verdana, arial, sans-serif" font-size="16" fill="#333333"><tspan x="179.70" dy="0.00">Decision</tspan></text><polygon points="315.81,12.27 418.57,12.27 396.01,51.27 293.25,51.27" fill="#ECECFF" stroke="#7B88A8" stroke-width="1" stroke-linejoin="round" stroke-linecap="round"/><text x="355.91" y="35.77" text-anchor="middle" font-family="'trebuchet ms', verdana, arial, sans-serif" font-size="16" fill="#333333"><tspan x="355.91" dy="0.00">Do thing</tspan></text><polygon points="285.75,89.83 374.31,89.83 393.75,128.83 305.19,128.83" fill="#ECECFF" stroke="#7B88A8" stroke-width="1" stroke-linejoin="round" stroke-linecap="round"/><text x="339.75" y="113.33" text-anchor="middle" font-family="'trebuchet ms', verdana, arial, sans-serif" font-size="16" fill="#333333"><tspan x="339.75" dy="0.00">\Skip\</tspan></text><rect x="444.68" y="51.05" width="61.01" height="39.00" rx="6" ry="6" fill="#ECECFF" stroke="#7B88A8" stroke-width="1" stroke-linejoin="round" stroke-linecap="round"/><line x1="450.68" y1="53.05" x2="450.68" y2="88.05" stroke="#7B88A8" stroke-width="1" stroke-linejoin="round" stroke-linecap="round"/><line x1="499.69" y1="53.05" x2="499.69" y2="88.05" stroke="#7B88A8" stroke-width="1" stroke-linejoin="round" stroke-linecap="round"/><text x="475.19" y="74.55" text-anchor="middle" font-family="'trebuchet ms', verdana, arial, sans-serif" font-size="16" fill="#333333"><tspan x="475.19" dy="0.00">End</tspan></text><g transform="translate(117.16 70.55) rotate(0.00)"><polygon points="0,0 -10.40,6.24 -10.40,-6.24" fill="#2F3B4D" stroke="#2F3B4D" stroke-width="2" stroke-linejoin="round" stroke-linecap="round"/></g><g transform="translate(301.14 37.62) rotate(0.00)"><polygon points="0,0 -10.40,6.24 -10.40,-6.24" fill="#2F3B4D" stroke="#2F3B4D" stroke-width="2" stroke-linejoin="round" stroke-linecap="round"/></g><g transform="translate(292.55 103.48) rotate(0.00)"><polygon points="0,0 -10.40,6.24 -10.40,-6.24" fill="#2F3B4D" stroke="#2F3B4D" stroke-width="2" stroke-linejoin="round" stroke-linecap="round"/></g><g transform="translate(444.68 59.73) rotate(0.00)"><polygon points="0,0 -10.40,6.24 -10.40,-6.24" fill="#2F3B4D" stroke="#2F3B4D" stroke-width="2" stroke-linejoin="round" stroke-linecap="round"/></g><g transform="translate(444.68 81.37) rotate(0.00)"><polygon points="0,0 -10.40,6.24 -10.40,-6.24" fill="#2F3B4D" stroke="#2F3B4D" stroke-width="2" stroke-linejoin="round" stroke-linecap="round"/></g></svg>