<svg xmlns="http://www.w3.org/2000/svg" width="1152.2751" height="45" viewBox="0 0 1152.2751 45"><rect x="0" y="0" width="1152.2751" height="45" fill="#FFFFFF"/><defs><marker id="arrow-0" viewBox="0 0 10 10" refX="5" refY="5" markerUnits="userSpaceOnUse" markerWidth="8" markerHeight="8" orient="auto"><path d="M 0 0 L 10 5 L 0 10 z" fill="#2F3B4D" stroke="#2F3B4D" stroke-width="1" stroke-dasharray="1,0"/></marker><marker id="arrow-start-0" viewBox="0 0 10 10" refX="4.5" refY="5" markerUnits="userSpaceOnUse" markerWidth="8" markerHeight="8" orient="auto"><path d="M 0 5 L 10 10 L 10 0 z" fill="#2F3B4D" stroke="#2F3B4D" stroke-width="1" stroke-dasharray="1,0"/></marker></defs><polygon points="855.17,8.00 928.30,8.00 948.87,39.00 834.61,39.00" fill="#ECECFF" stroke="#7B88A8" stroke-width="1" stroke-linejoin="round" stroke-linecap="round"/><text x="891.74" y="27.50" text-anchor="middle" font-family="trebuchet ms,verdana,arial,sans-serif" font-size="16" fill="#333333"><tspan x="891.74" dy="0.00">Christmas</tspan></text><rect x="956.07" y="8.00" width="70.78" height="31.00" rx="0" ry="0" fill="#ECECFF" stroke="#7B88A8" stroke-width="1" stroke-linejoin="round" stroke-linecap="round"/><text x="991.46" y="27.50" text-anchor="middle" font-family="trebuchet ms,verdana,arial,sans-serif" font-size="16" fill="#333333"><tspan x="991.46" dy="0.00">B[\&quot;Go</tspan></text><rect x="345.60" y="8.00" width="70.75" height="31.00" rx="0" ry="0" fill="#ECECFF" stroke="#7B88A8" stroke-width="1" stroke-linejoin="round" stroke-linecap="round"/><text x="380.98" y="27.50" text-anchor="middle" font-family="trebuchet ms,verdana,arial,sans-serif" font-size="16" fill="#333333"><tspan x="380.98" dy="0.00">box&quot;/]</tspan></text><rect x="760.61" y="8.00" width="66.80" height="31.00" rx="0" ry="0" fill="#ECECFF" stroke="#7B88A8" stroke-width="1" stroke-linejoin="round" stroke-linecap="round"/><text x="794.01" y="27.50" text-anchor="middle" font-family="trebuchet ms,verdana,arial,sans-serif" font-size="16" fill="#333333"><tspan x="794.01" dy="0.00">box&quot;\]</tspan></text><rect x="8.00" y="8.00" width="94.46" height="31.00" rx="0" ry="0" fill="#ECECFF" stroke="#7B88A8" stroke-width="1" stroke-linejoin="round" stroke-linecap="round"/><text x="55.23" y="27.50" text-anchor="middle" font-family="trebuchet ms,verdana,arial,sans-serif" font-size="16" fill="#333333"><tspan x="55.23" dy="0.00">id1[/&quot;This</tspan></text><rect x="423.55" y="8.00" width="93.92" height="31.00" rx="0" ry="0" fill="#ECECFF" stroke="#7B88A8" stroke-width="1" stroke-linejoin="round" stroke-linecap="round"/><text x="470.51" y="27.50" text-anchor="middle" font-family="trebuchet ms,verdana,arial,sans-serif" font-size="16" fill="#333333"><tspan x="470.51" dy="0.00">id2[\&quot;This</tspan></text><rect x="669.49" y="8.00" width="33.12" height="31.00" rx="0" ry="0" fill="#ECECFF" stroke="#7B88A8" stroke-width="1" stroke-linejoin="round" stroke-linecap="round"/><text x="686.05" y="27.50" text-anchor="middle" font-family="trebuchet ms,verdana,arial,sans-serif" font-size="16" fill="#333333"><tspan x="686.05" dy="0.00">in</tspan></text><rect x="524.67" y="8.00" width="32.13" height="31.00" rx="0" ry="0" fill="#ECECFF" stroke="#7B88A8" stroke-width="1" stroke-linejoin="round" stroke-linecap="round"/><text x="540.74" y="27.50" text-anchor="middle" font-family="trebuchet ms,verdana,arial,sans-serif" font-size="16" fill="#333333"><tspan x="540.74" dy="0.00">is</tspan></text><rect x="1034.05" y="8.00" width="112.22" height="31.00" rx="0" ry="0" fill="#ECECFF" stroke="#7B88A8" stroke-width="1" stroke-linejoin="round" stroke-linecap="round"/><text x="1090.16" y="27.50" text-anchor="middle" font-family="trebuchet ms,verdana,arial,sans-serif" font-size="16" fill="#333333"><tspan x="1090.16" dy="0.00">shopping&quot;/]</tspan></text><rect x="614.80" y="8.00" width="47.49" height="31.00" rx="0" ry="0" fill="#ECECFF" stroke="#7B88A8" stroke-width="1" stroke-linejoin="round" stroke-linecap="round"/><text x="638.54" y="27.50" text-anchor="middle" font-family="trebuchet ms,verdana,arial,sans-serif" font-size="16" fill="#333333"><tspan x="638.54" dy="0.00">text</tspan></text><rect x="709.81" y="8.00" width="43.60" height="31.00" rx="0" ry="0" fill="#ECECFF" stroke="#7B88A8" stroke-width="1" stroke-linejoin="round" stroke-linecap="round"/><text x="731.61" y="27.50" text-anchor="middle" font-family="trebuchet ms,verdana,arial,sans-serif" font-size="16" fill="#333333"><tspan x="731.61" dy="0.00">the</tspan></text></svg>