<svg xmlns="http://www.w3.org/2000/svg" width="408.12802" height="45" viewBox="0 0 408.12802 45"><rect x="0" y="0" width="408.12802" height="45" fill="#FFFFFF"/><defs><marker id="arrow-0" viewBox="0 0 10 10" refX="5" refY="5" markerUnits="userSpaceOnUse" markerWidth="8" markerHeight="8" orient="auto"><path d="M 0 0 L 10 5 L 0 10 z" fill="#2F3B4D" stroke="#2F3B4D" stroke-width="1" stroke-dasharray="1,0"/></marker><marker id="arrow-start-0" viewBox="0 0 10 10" refX="4.5" refY="5" markerUnits="userSpaceOnUse" markerWidth="8" markerHeight="8" orient="auto"><path d="M 0 5 L 10 10 L 10 0 z" fill="#2F3B4D" stroke="#2F3B4D" stroke-width="1" stroke-dasharray="1,0"/></marker></defs><rect x="340.46" y="8.00" width="61.66" height="31.00" rx="0" ry="0" fill="#ECECFF" stroke="#7B88A8" stroke-width="1" stroke-linejoin="round" stroke-linecap="round"/><text x="371.30" y="27.50" text-anchor="middle" font-family="trebuchet ms,verdana,arial,sans-serif" font-size="16" fill="#333333"><tspan x="371.30" dy="0.00">box&quot;]</tspan></text><rect x="8.00" y="8.00" width="89.33" height="31.00" rx="0" ry="0" fill="#ECECFF" stroke="#7B88A8" stroke-width="1" stroke-linejoin="round" stroke-linecap="round"/><text x="52.66" y="27.50" text-anchor="middle" font-family="trebuchet ms,verdana,arial,sans-serif" font-size="16" fill="#333333"><tspan x="52.66" dy="0.00">id1&gt;&quot;This</tspan></text><rect x="249.34" y="8.00" width="33.12" height="31.00" rx="0" ry="0" fill="#ECECFF" stroke="#7B88A8" stroke-width="1" stroke-linejoin="round" stroke-linecap="round"/><text x="265.90" y="27.50" text-anchor="middle" font-family="trebuchet ms,verdana,arial,sans-serif" font-size="16" fill="#333333"><tspan x="265.90" dy="0.00">in</tspan></text><rect x="104.53" y="8.00" width="32.13" height="31.00" rx="0" ry="0" fill="#ECECFF" stroke="#7B88A8" stroke-width="1" stroke-linejoin="round" stroke-linecap="round"/><text x="120.59" y="27.50" text-anchor="middle" font-family="trebuchet ms,verdana,arial,sans-serif" font-size="16" fill="#333333"><tspan x="120.59" dy="0.00">is</tspan></text><rect x="194.66" y="8.00" width="47.49" height="31.00" rx="0" ry="0" fill="#ECECFF" stroke="#7B88A8" stroke-width="1" stroke-linejoin="round" stroke-linecap="round"/><text x="218.40" y="27.50" text-anchor="middle" font-family="trebuchet ms,verdana,arial,sans-serif" font-size="16" fill="#333333"><tspan x="218.40" dy="0.00">text</tspan></text><rect x="289.66" y="8.00" width="43.60" height="31.00" rx="0" ry="0" fill="#ECECFF" stroke="#7B88A8" stroke-width="1" stroke-linejoin="round" stroke-linecap="round"/><text x="311.46" y="27.50" text-anchor="middle" font-family="trebuchet ms,verdana,arial,sans-serif" font-size="16" fill="#333333"><tspan x="311.46" dy="0.00">the</tspan></text></svg>