<svg xmlns="http://www.w3.org/2000/svg" xmlns:xlink="http://www.w3.org/1999/xlink" width="100%" viewBox="0 -8 1248 685" style="max-width: 1248.000px;"><rect x="0" y="-8" width="1248" height="685" fill="#FFFFFF"/><defs><symbol id="computer" width="24" height="24"><path transform="scale(.5)" d="M2 2v13h20v-13h-20zm18 11h-16v-9h16v9zm-10.228 6l.466-1h3.524l.467 1h-4.457zm14.228 3h-24l2-6h2.104l-1.33 4h18.45l-1.297-4h2.073l2 6zm-5-10h-14v-7h14v7z"/></symbol></defs><defs><symbol id="database" fill-rule="evenodd" clip-rule="evenodd"><path transform="scale(.5)" d="M12.258.001l.256.004.255.005.253.008.251.01.249.012.247.015.246.016.242.019.241.02.239.023.236.024.233.027.231.028.229.031.225.032.223.034.22.036.217.038.214.04.211.041.208.043.205.045.201.046.198.048.194.05.191.051.187.053.183.054.18.056.175.057.172.059.168.06.163.061.16.063.155.064.15.066.074.033.073.033.071.034.07.034.069.035.068.035.067.035.066.035.064.036.064.036.062.036.06.036.06.037.058.037.058.037.055.038.055.038.053.038.052.038.051.039.05.039.048.039.047.039.045.04.044.04.043.04.041.04.04.041.039.041.037.041.036.041.034.041.033.042.032.042.03.042.029.042.027.042.026.043.024.043.023.043.021.043.02.043.018.044.017.043.015.044.013.044.012.044.011.045.009.044.007.045.006.045.004.045.002.045.001.045v17l-.001.045-.002.045-.004.045-.006.045-.007.045-.009.044-.011.045-.012.044-.013.044-.015.044-.017.043-.018.044-.02.043-.021.043-.023.043-.024.043-.026.043-.027.042-.029.042-.03.042-.032.042-.033.042-.034.041-.036.041-.037.041-.039.041-.04.041-.041.04-.043.04-.044.04-.045.04-.047.039-.048.039-.05.039-.051.039-.052.038-.053.038-.055.038-.055.038-.058.037-.058.037-.06.037-.06.036-.062.036-.064.036-.064.036-.066.035-.067.035-.068.035-.069.035-.07.034-.071.034-.073.033-.074.033-.15.066-.155.064-.16.063-.163.061-.168.06-.172.059-.175.057-.18.056-.183.054-.187.053-.191.051-.194.05-.198.048-.201.046-.205.045-.208.043-.211.041-.214.04-.217.038-.22.036-.223.034-.225.032-.229.031-.231.028-.233.027-.236.024-.239.023-.241.02-.242.019-.246.016-.247.015-.249.012-.251.01-.253.008-.255.005-.256.004-.258.001-.258-.001-.256-.004-.255-.005-.253-.008-.251-.01-.249-.012-.247-.015-.245-.016-.243-.019-.241-.02-.238-.023-.236-.024-.234-.027-.231-.028-.228-.031-.226-.032-.223-.034-.22-.036-.217-.038-.214-.04-.211-.041-.208-.043-.204-.045-.201-.046-.198-.048-.195-.05-.19-.051-.187-.053-.184-.054-.179-.056-.176-.057-.172-.059-.167-.06-.164-.061-.159-.063-.155-.064-.151-.066-.074-.033-.072-.033-.072-.034-.07-.034-.069-.035-.068-.035-.067-.035-.066-.035-.064-.036-.063-.036-.062-.036-.061-.036-.06-.037-.058-.037-.057-.037-.056-.038-.055-.038-.053-.038-.052-.038-.051-.039-.049-.039-.049-.039-.046-.039-.046-.04-.044-.04-.043-.04-.041-.04-.04-.041-.039-.041-.037-.041-.036-.041-.034-.041-.033-.042-.032-.042-.03-.042-.029-.042-.027-.042-.026-.043-.024-.043-.023-.043-.021-.043-.02-.043-.018-.044-.017-.043-.015-.044-.013-.044-.012-.044-.011-.045-.009-.044-.007-.045-.006-.045-.004-.045-.002-.045-.001-.045v-17l.001-.045.002-.045.004-.045.006-.045.007-.045.009-.044.011-.045.012-.044.013-.044.015-.044.017-.043.018-.044.02-.043.021-.043.023-.043.024-.043.026-.043.027-.042.029-.042.03-.042.032-.042.033-.042.034-.041.036-.041.037-.041.039-.041.04-.041.041-.04.043-.04.044-.04.046-.04.046-.039.049-.039.049-.039.051-.039.052-.038.053-.038.055-.038.056-.038.057-.037.058-.037.06-.037.061-.036.062-.036.063-.036.064-.036.066-.035.067-.035.068-.035.069-.035.07-.034.072-.034.072-.033.074-.033.151-.066.155-.064.159-.063.164-.061.167-.06.172-.059.176-.057.179-.056.184-.054.187-.053.19-.051.195-.05.198-.048.201-.046.204-.045.208-.043.211-.041.214-.04.217-.038.22-.036.223-.034.226-.032.228-.031.231-.028.234-.027.236-.024.238-.023.241-.02.243-.019.245-.016.247-.015.249-.012.251-.01.253-.008.255-.005.256-.004.258-.001.258.001z"/></symbol></defs><defs><symbol id="clock" width="24" height="24"><path transform="scale(.5)" d="M12 2c5.514 0 10 4.486 10 10s-4.486 10-10 10-10-4.486-10-10 4.486-10 10-10zm0-2c-6.627 0-12 5.373-12 12s5.373 12 12 12 12-5.373 12-12-5.373-12-12-12zm5.848 12.459c.202.038.202.333.001.372-1.907.361-6.045 1.111-6.547 1.111-.719 0-1.301-.582-1.301-1.301 0-.512.77-5.447 1.125-7.445.034-.192.312-.181.343.014l.985 6.238 5.394 1.011z"/></symbol></defs><g class="person-man"><rect x="96" y="126" fill="#438DD5" stroke="#3C7FC0" width="200" height="153" rx="2.5" ry="2.5" stroke-width="0.5"/><text fill="#FFFFFF" font-family="Open Sans,sans-serif" font-size="12" font-style="italic" lengthAdjust="spacing" textLength="64" x="164" y="142">&lt;&lt;container&gt;&gt;</text><text x="196.00" y="160.00" dominant-baseline="middle" fill="#FFFFFF" style="text-anchor: middle; font-size: 16px; font-weight: bold; font-family: Open Sans,sans-serif"><tspan dy="-8.00" alignment-baseline="mathematical">Single Page</tspan></text><text x="196.00" y="160.00" dominant-baseline="middle" fill="#FFFFFF" style="text-anchor: middle; font-size: 16px; font-weight: bold; font-family: Open Sans,sans-serif"><tspan dy="8.00" alignment-baseline="mathematical">Application</tspan></text><text x="196.00" y="199.00" dominant-baseline="middle" fill="#FFFFFF" style="text-anchor: middle; font-size: 14px; font-weight: normal; font-family: Open Sans,sans-serif" font-style="italic"><tspan dy="0.00" alignment-baseline="mathematical">[javascript and angular]</tspan></text><text x="196.00" y="235.00" dominant-baseline="middle" fill="#FFFFFF" style="text-anchor: middle; font-size: 14px; font-weight: normal; font-family: Open Sans,sans-serif"><tspan dy="-21.00" alignment-baseline="mathematical">Provides all the internet</tspan></text><text x="196.00" y="235.00" dominant-baseline="middle" fill="#FFFFFF" style="text-anchor: middle; font-size: 14px; font-weight: normal; font-family: Open Sans,sans-serif"><tspan dy="-7.00" alignment-baseline="mathematical">banking functionality to</tspan></text><text x="196.00" y="235.00" dominant-baseline="middle" fill="#FFFFFF" style="text-anchor: middle; font-size: 14px; font-weight: normal; font-family: Open Sans,sans-serif"><tspan dy="7.00" alignment-baseline="mathematical">customers via their web</tspan></text><text x="196.00" y="235.00" dominant-baseline="middle" fill="#FFFFFF" style="text-anchor: middle; font-size: 14px; font-weight: normal; font-family: Open Sans,sans-serif"><tspan dy="21.00" alignment-baseline="mathematical">browser.</tspan></text></g><g class="person-man"><rect x="360" y="126" fill="#438DD5" stroke="#3C7FC0" width="200" height="136" rx="2.5" ry="2.5" stroke-width="0.5"/><text fill="#FFFFFF" font-family="Open Sans,sans-serif" font-size="12" font-style="italic" lengthAdjust="spacing" textLength="64" x="428" y="142">&lt;&lt;container&gt;&gt;</text><text x="460.00" y="160.00" dominant-baseline="middle" fill="#FFFFFF" style="text-anchor: middle; font-size: 16px; font-weight: bold; font-family: Open Sans,sans-serif"><tspan dy="0.00" alignment-baseline="mathematical">Mobile App</tspan></text><text x="460.00" y="182.00" dominant-baseline="middle" fill="#FFFFFF" style="text-anchor: middle; font-size: 14px; font-weight: normal; font-family: Open Sans,sans-serif" font-style="italic"><tspan dy="0.00" alignment-baseline="mathematical">[Xamarin]</tspan></text><text x="460.00" y="218.00" dominant-baseline="middle" fill="#FFFFFF" style="text-anchor: middle; font-size: 14px; font-weight: normal; font-family: Open Sans,sans-serif"><tspan dy="-21.00" alignment-baseline="mathematical">Provides a limited subset</tspan></text><text x="460.00" y="218.00" dominant-baseline="middle" fill="#FFFFFF" style="text-anchor: middle; font-size: 14px; font-weight: normal; font-family: Open Sans,sans-serif"><tspan dy="-7.00" alignment-baseline="mathematical">to the internet banking</tspan></text><text x="460.00" y="218.00" dominant-baseline="middle" fill="#FFFFFF" style="text-anchor: middle; font-size: 14px; font-weight: normal; font-family: Open Sans,sans-serif"><tspan dy="7.00" alignment-baseline="mathematical">functionality to customers</tspan></text><text x="460.00" y="218.00" dominant-baseline="middle" fill="#FFFFFF" style="text-anchor: middle; font-size: 14px; font-weight: normal; font-family: Open Sans,sans-serif"><tspan dy="21.00" alignment-baseline="mathematical">via their mobile device.</tspan></text></g><g class="person-man"><path fill="#438DD5" stroke-width="0.5" stroke="#3C7FC0" d="M624,126c0,-10 100,-10 100,-10c0,0 100,0 100,10l0,163c0,10 -100,10 -100,10c0,0 -100,0 -100,-10l0,-163"/><path fill="none" stroke-width="0.5" stroke="#3C7FC0" d="M624,126c0,10 100,10 100,10c0,0 100,0 100,-10"/><text fill="#FFFFFF" font-family="Open Sans,sans-serif" font-size="12" font-style="italic" lengthAdjust="spacing" textLength="84" x="682" y="142">&lt;&lt;container_db&gt;&gt;</text><text x="724.00" y="160.00" dominant-baseline="middle" fill="#FFFFFF" style="text-anchor: middle; font-size: 16px; font-weight: bold; font-family: Open Sans,sans-serif"><tspan dy="0.00" alignment-baseline="mathematical">Database</tspan></text><text x="724.00" y="182.00" dominant-baseline="middle" fill="#FFFFFF" style="text-anchor: middle; font-size: 14px; font-weight: normal; font-family: Open Sans,sans-serif" font-style="italic"><tspan dy="-7.00" alignment-baseline="mathematical">[Relational Database</tspan></text><text x="724.00" y="182.00" dominant-baseline="middle" fill="#FFFFFF" style="text-anchor: middle; font-size: 14px; font-weight: normal; font-family: Open Sans,sans-serif" font-style="italic"><tspan dy="7.00" alignment-baseline="mathematical">Schema]</tspan></text><text x="724.00" y="234.00" dominant-baseline="middle" fill="#FFFFFF" style="text-anchor: middle; font-size: 14px; font-weight: normal; font-family: Open Sans,sans-serif"><tspan dy="-28.00" alignment-baseline="mathematical">Stores user registration</tspan></text><text x="724.00" y="234.00" dominant-baseline="middle" fill="#FFFFFF" style="text-anchor: middle; font-size: 14px; font-weight: normal; font-family: Open Sans,sans-serif"><tspan dy="-14.00" alignment-baseline="mathematical">information, hashed</tspan></text><text x="724.00" y="234.00" dominant-baseline="middle" fill="#FFFFFF" style="text-anchor: middle; font-size: 14px; font-weight: normal; font-family: Open Sans,sans-serif"><tspan dy="0.00" alignment-baseline="mathematical">authentication</tspan></text><text x="724.00" y="234.00" dominant-baseline="middle" fill="#FFFFFF" style="text-anchor: middle; font-size: 14px; font-weight: normal; font-family: Open Sans,sans-serif"><tspan dy="14.00" alignment-baseline="mathematical">credentials, access logs,</tspan></text><text x="724.00" y="234.00" dominant-baseline="middle" fill="#FFFFFF" style="text-anchor: middle; font-size: 14px; font-weight: normal; font-family: Open Sans,sans-serif"><tspan dy="28.00" alignment-baseline="mathematical">etc.</tspan></text></g><g class="person-man"><rect x="888" y="126" fill="#999999" stroke="#8A8A8A" width="200" height="153" rx="2.5" ry="2.5" stroke-width="0.5"/><text fill="#FFFFFF" font-family="Open Sans,sans-serif" font-size="12" font-style="italic" lengthAdjust="spacing" textLength="102" x="937" y="142">&lt;&lt;external_system&gt;&gt;</text><text x="988.00" y="160.00" dominant-baseline="middle" fill="#FFFFFF" style="text-anchor: middle; font-size: 16px; font-weight: bold; font-family: Open Sans,sans-serif"><tspan dy="-8.00" alignment-baseline="mathematical">Mainframe Banking</tspan></text><text x="988.00" y="160.00" dominant-baseline="middle" fill="#FFFFFF" style="text-anchor: middle; font-size: 16px; font-weight: bold; font-family: Open Sans,sans-serif"><tspan dy="8.00" alignment-baseline="mathematical">System</tspan></text><text x="988.00" y="199.00" dominant-baseline="middle" fill="#FFFFFF" style="text-anchor: middle; font-size: 14px; font-weight: normal; font-family: Open Sans,sans-serif" font-style="italic"><tspan dy="-28.00" alignment-baseline="mathematical">[Stores all of the core</tspan></text><text x="988.00" y="199.00" dominant-baseline="middle" fill="#FFFFFF" style="text-anchor: middle; font-size: 14px; font-weight: normal; font-family: Open Sans,sans-serif" font-style="italic"><tspan dy="-14.00" alignment-baseline="mathematical">banking information</tspan></text><text x="988.00" y="199.00" dominant-baseline="middle" fill="#FFFFFF" style="text-anchor: middle; font-size: 14px; font-weight: normal; font-family: Open Sans,sans-serif" font-style="italic"><tspan dy="0.00" alignment-baseline="mathematical">about customers,</tspan></text><text x="988.00" y="199.00" dominant-baseline="middle" fill="#FFFFFF" style="text-anchor: middle; font-size: 14px; font-weight: normal; font-family: Open Sans,sans-serif" font-style="italic"><tspan dy="14.00" alignment-baseline="mathematical">accounts, transactions,</tspan></text><text x="988.00" y="199.00" dominant-baseline="middle" fill="#FFFFFF" style="text-anchor: middle; font-size: 14px; font-weight: normal; font-family: Open Sans,sans-serif" font-style="italic"><tspan dy="28.00" alignment-baseline="mathematical">etc.]</tspan></text></g><g class="person-man"><rect x="128" y="439" fill="#85BBF0" stroke="#78A8D8" width="200" height="125" rx="2.5" ry="2.5" stroke-width="0.5"/><text fill="#FFFFFF" font-family="Open Sans,sans-serif" font-size="12" font-style="italic" lengthAdjust="spacing" textLength="74" x="191" y="455">&lt;&lt;component&gt;&gt;</text><text x="228.00" y="473.00" dominant-baseline="middle" fill="#FFFFFF" style="text-anchor: middle; font-size: 16px; font-weight: bold; font-family: Open Sans,sans-serif"><tspan dy="0.00" alignment-baseline="mathematical">Sign In Controller</tspan></text><text x="228.00" y="495.00" dominant-baseline="middle" fill="#FFFFFF" style="text-anchor: middle; font-size: 14px; font-weight: normal; font-family: Open Sans,sans-serif" font-style="italic"><tspan dy="0.00" alignment-baseline="mathematical">[MVC Rest Controller]</tspan></text><text x="228.00" y="531.00" dominant-baseline="middle" fill="#FFFFFF" style="text-anchor: middle; font-size: 14px; font-weight: normal; font-family: Open Sans,sans-serif"><tspan dy="-14.00" alignment-baseline="mathematical">Allows users to sign in to</tspan></text><text x="228.00" y="531.00" dominant-baseline="middle" fill="#FFFFFF" style="text-anchor: middle; font-size: 14px; font-weight: normal; font-family: Open Sans,sans-serif"><tspan dy="0.00" alignment-baseline="mathematical">the internet banking</tspan></text><text x="228.00" y="531.00" dominant-baseline="middle" fill="#FFFFFF" style="text-anchor: middle; font-size: 14px; font-weight: normal; font-family: Open Sans,sans-serif"><tspan dy="14.00" alignment-baseline="mathematical">system</tspan></text></g><g class="person-man"><rect x="392" y="439" fill="#85BBF0" stroke="#78A8D8" width="200" height="142" rx="2.5" ry="2.5" stroke-width="0.5"/><text fill="#FFFFFF" font-family="Open Sans,sans-serif" font-size="12" font-style="italic" lengthAdjust="spacing" textLength="74" x="455" y="455">&lt;&lt;component&gt;&gt;</text><text x="492.00" y="473.00" dominant-baseline="middle" fill="#FFFFFF" style="text-anchor: middle; font-size: 16px; font-weight: bold; font-family: Open Sans,sans-serif"><tspan dy="-8.00" alignment-baseline="mathematical">Accounts Summary</tspan></text><text x="492.00" y="473.00" dominant-baseline="middle" fill="#FFFFFF" style="text-anchor: middle; font-size: 16px; font-weight: bold; font-family: Open Sans,sans-serif"><tspan dy="8.00" alignment-baseline="mathematical">Controller</tspan></text><text x="492.00" y="512.00" dominant-baseline="middle" fill="#FFFFFF" style="text-anchor: middle; font-size: 14px; font-weight: normal; font-family: Open Sans,sans-serif" font-style="italic"><tspan dy="0.00" alignment-baseline="mathematical">[MVC Rest Controller]</tspan></text><text x="492.00" y="548.00" dominant-baseline="middle" fill="#FFFFFF" style="text-anchor: middle; font-size: 14px; font-weight: normal; font-family: Open Sans,sans-serif"><tspan dy="-14.00" alignment-baseline="mathematical">Provides customers with</tspan></text><text x="492.00" y="548.00" dominant-baseline="middle" fill="#FFFFFF" style="text-anchor: middle; font-size: 14px; font-weight: normal; font-family: Open Sans,sans-serif"><tspan dy="0.00" alignment-baseline="mathematical">a summary of their bank</tspan></text><text x="492.00" y="548.00" dominant-baseline="middle" fill="#FFFFFF" style="text-anchor: middle; font-size: 14px; font-weight: normal; font-family: Open Sans,sans-serif"><tspan dy="14.00" alignment-baseline="mathematical">accounts</tspan></text></g><g class="person-man"><rect x="656" y="439" fill="#85BBF0" stroke="#78A8D8" width="200" height="136" rx="2.5" ry="2.5" stroke-width="0.5"/><text fill="#FFFFFF" font-family="Open Sans,sans-serif" font-size="12" font-style="italic" lengthAdjust="spacing" textLength="74" x="719" y="455">&lt;&lt;component&gt;&gt;</text><text x="756.00" y="473.00" dominant-baseline="middle" fill="#FFFFFF" style="text-anchor: middle; font-size: 16px; font-weight: bold; font-family: Open Sans,sans-serif"><tspan dy="0.00" alignment-baseline="mathematical">Security Component</tspan></text><text x="756.00" y="495.00" dominant-baseline="middle" fill="#FFFFFF" style="text-anchor: middle; font-size: 14px; font-weight: normal; font-family: Open Sans,sans-serif" font-style="italic"><tspan dy="0.00" alignment-baseline="mathematical">[Spring Bean]</tspan></text><text x="756.00" y="531.00" dominant-baseline="middle" fill="#FFFFFF" style="text-anchor: middle; font-size: 14px; font-weight: normal; font-family: Open Sans,sans-serif"><tspan dy="-21.00" alignment-baseline="mathematical">Provides functionality</tspan></text><text x="756.00" y="531.00" dominant-baseline="middle" fill="#FFFFFF" style="text-anchor: middle; font-size: 14px; font-weight: normal; font-family: Open Sans,sans-serif"><tspan dy="-7.00" alignment-baseline="mathematical">related to singing in,</tspan></text><text x="756.00" y="531.00" dominant-baseline="middle" fill="#FFFFFF" style="text-anchor: middle; font-size: 14px; font-weight: normal; font-family: Open Sans,sans-serif"><tspan dy="7.00" alignment-baseline="mathematical">changing passwords,</tspan></text><text x="756.00" y="531.00" dominant-baseline="middle" fill="#FFFFFF" style="text-anchor: middle; font-size: 14px; font-weight: normal; font-family: Open Sans,sans-serif"><tspan dy="21.00" alignment-baseline="mathematical">etc.</tspan></text></g><g class="person-man"><rect x="920" y="439" fill="#85BBF0" stroke="#78A8D8" width="200" height="142" rx="2.5" ry="2.5" stroke-width="0.5"/><text fill="#FFFFFF" font-family="Open Sans,sans-serif" font-size="12" font-style="italic" lengthAdjust="spacing" textLength="74" x="983" y="455">&lt;&lt;component&gt;&gt;</text><text x="1020.00" y="473.00" dominant-baseline="middle" fill="#FFFFFF" style="text-anchor: middle; font-size: 16px; font-weight: bold; font-family: Open Sans,sans-serif"><tspan dy="-8.00" alignment-baseline="mathematical">Mainframe Banking</tspan></text><text x="1020.00" y="473.00" dominant-baseline="middle" fill="#FFFFFF" style="text-anchor: middle; font-size: 16px; font-weight: bold; font-family: Open Sans,sans-serif"><tspan dy="8.00" alignment-baseline="mathematical">System Facade</tspan></text><text x="1020.00" y="512.00" dominant-baseline="middle" fill="#FFFFFF" style="text-anchor: middle; font-size: 14px; font-weight: normal; font-family: Open Sans,sans-serif" font-style="italic"><tspan dy="0.00" alignment-baseline="mathematical">[Spring Bean]</tspan></text><text x="1020.00" y="548.00" dominant-baseline="middle" fill="#FFFFFF" style="text-anchor: middle; font-size: 14px; font-weight: normal; font-family: Open Sans,sans-serif"><tspan dy="-14.00" alignment-baseline="mathematical">A facade onto the</tspan></text><text x="1020.00" y="548.00" dominant-baseline="middle" fill="#FFFFFF" style="text-anchor: middle; font-size: 14px; font-weight: normal; font-family: Open Sans,sans-serif"><tspan dy="0.00" alignment-baseline="mathematical">mainframe banking</tspan></text><text x="1020.00" y="548.00" dominant-baseline="middle" fill="#FFFFFF" style="text-anchor: middle; font-size: 14px; font-weight: normal; font-family: Open Sans,sans-serif"><tspan dy="14.00" alignment-baseline="mathematical">system.</tspan></text></g><g><rect x="96" y="375" fill="none" stroke="#444444" width="1056" height="238" rx="2.5" ry="2.5" stroke-width="1" stroke-dasharray="7.0,7.0"/><text x="624.00" y="383.00" dominant-baseline="middle" fill="#444444" style="text-anchor: middle; font-size: 16px; font-weight: bold; font-family: Open Sans,sans-serif"><tspan dy="0.00" alignment-baseline="mathematical">API Application</tspan></text><text x="624.00" y="405.00" dominant-baseline="middle" fill="#444444" style="text-anchor: middle; font-size: 14px; font-weight: normal; font-family: Open Sans,sans-serif"><tspan dy="0.00" alignment-baseline="mathematical">[container]</tspan></text></g><defs><marker id="arrowhead" refX="9" refY="5" markerUnits="userSpaceOnUse" markerWidth="12" markerHeight="12" orient="auto"><path d="M 0 0 L 10 5 L 0 10 z"/></marker></defs><defs><marker id="arrowend" refX="1" refY="5" markerUnits="userSpaceOnUse" markerWidth="12" markerHeight="12" orient="auto"><path d="M 10 0 L 0 5 L 10 10 z"/></marker></defs><defs><marker id="crosshead" markerWidth="15" markerHeight="8" orient="auto" refX="16" refY="4"><path fill="black" stroke="#000000" stroke-width="1px" d="M 9,2 V 6 L16,4 Z" style="stroke-dasharray: 0, 0;"/><path fill="none" stroke="#000000" stroke-width="1px" d="M 0,1 L 6,7 M 6,1 L 0,7" style="stroke-dasharray: 0, 0;"/></marker></defs><defs><marker id="filled-head" refX="18" refY="7" markerWidth="20" markerHeight="28" orient="auto"><path d="M 18,7 L9,13 L14,7 L9,1 Z"/></marker></defs><g><line x1="328.00" y1="512.33" x2="656.00" y2="521.60" stroke-width="1" stroke="#444444" style="fill: none;" marker-end="url(#arrowhead)" /><text x="489.96" y="588.94" dominant-baseline="middle" fill="#444444" style="text-anchor: middle; font-size: 12px; font-weight: normal; font-family: Open Sans,sans-serif"><tspan dy="0.00" alignment-baseline="mathematical">Uses</tspan></text><path fill="none" stroke-width="1" stroke="#444444" d="M592.00,521.31 Q674.00,523.95 920.00,526.59" marker-end="url(#arrowhead)"/><text x="754.84" y="595.94" dominant-baseline="middle" fill="#444444" style="text-anchor: middle; font-size: 12px; font-weight: normal; font-family: Open Sans,sans-serif"><tspan dy="0.00" alignment-baseline="mathematical">Uses</tspan></text><path fill="none" stroke-width="1" stroke="#444444" d="M775.97,439.00 Q770.04,364.00 752.24,289.00" marker-end="url(#arrowhead)"/><text x="764.11" y="364.00" dominant-baseline="middle" fill="#444444" style="text-anchor: middle; font-size: 12px; font-weight: normal; font-family: Open Sans,sans-serif"><tspan dy="0.00" alignment-baseline="mathematical">Read &amp; write to</tspan></text><text x="764.11" y="381.00" dominant-baseline="middle" fill="#444444" style="text-anchor: middle; font-size: 12px; font-weight: normal; font-family: Open Sans,sans-serif" font-style="italic"><tspan dy="0.00" alignment-baseline="mathematical">JDBC</tspan></text><path fill="none" stroke-width="1" stroke="#444444" d="M1040.41,439.00 Q1033.89,359.00 1014.30,279.00" marker-end="url(#arrowhead)"/><text x="1027.36" y="359.00" dominant-baseline="middle" fill="#444444" style="text-anchor: middle; font-size: 12px; font-weight: normal; font-family: Open Sans,sans-serif"><tspan dy="0.00" alignment-baseline="mathematical">Uses</tspan></text><text x="1027.36" y="376.00" dominant-baseline="middle" fill="#444444" style="text-anchor: middle; font-size: 12px; font-weight: normal; font-family: Open Sans,sans-serif" font-style="italic"><tspan dy="0.00" alignment-baseline="mathematical">XML/HTTPS</tspan></text><path fill="none" stroke-width="1" stroke="#444444" d="M222.89,279.00 Q228.66,359.00 245.97,439.00" marker-start="url(#arrowend)"/><text x="234.43" y="359.00" dominant-baseline="middle" fill="#444444" style="text-anchor: middle; font-size: 12px; font-weight: normal; font-family: Open Sans,sans-serif"><tspan dy="0.00" alignment-baseline="mathematical">Uses</tspan></text><text x="234.43" y="376.00" dominant-baseline="middle" fill="#444444" style="text-anchor: middle; font-size: 12px; font-weight: normal; font-family: Open Sans,sans-serif" font-style="italic"><tspan dy="0.00" alignment-baseline="mathematical">JSON/HTTPS</tspan></text><path fill="none" stroke-width="1" stroke="#444444" d="M274.89,279.00 Q314.46,359.00 433.16,439.00" marker-end="url(#arrowhead)"/><text x="354.02" y="359.00" dominant-baseline="middle" fill="#444444" style="text-anchor: middle; font-size: 12px; font-weight: normal; font-family: Open Sans,sans-serif"><tspan dy="0.00" alignment-baseline="mathematical">Uses</tspan></text><text x="354.02" y="376.00" dominant-baseline="middle" fill="#444444" style="text-anchor: middle; font-size: 12px; font-weight: normal; font-family: Open Sans,sans-serif" font-style="italic"><tspan dy="0.00" alignment-baseline="mathematical">JSON/HTTPS</tspan></text><path fill="none" stroke-width="1" stroke="#444444" d="M436.10,262.00 Q405.25,350.50 312.69,439.00" marker-end="url(#arrowhead)"/><text x="363.12" y="316.31" dominant-baseline="middle" fill="#444444" style="text-anchor: middle; font-size: 12px; font-weight: normal; font-family: Open Sans,sans-serif"><tspan dy="0.00" alignment-baseline="mathematical">Uses</tspan></text><text x="363.12" y="333.31" dominant-baseline="middle" fill="#444444" style="text-anchor: middle; font-size: 12px; font-weight: normal; font-family: Open Sans,sans-serif" font-style="italic"><tspan dy="0.00" alignment-baseline="mathematical">JSON/HTTPS</tspan></text><path fill="none" stroke-width="1" stroke="#444444" d="M483.38,262.00 Q490.46,350.50 511.71,439.00" marker-end="url(#arrowhead)"/><text x="497.54" y="350.50" dominant-baseline="middle" fill="#444444" style="text-anchor: middle; font-size: 12px; font-weight: normal; font-family: Open Sans,sans-serif"><tspan dy="0.00" alignment-baseline="mathematical">Uses</tspan></text><text x="497.54" y="367.50" dominant-baseline="middle" fill="#444444" style="text-anchor: middle; font-size: 12px; font-weight: normal; font-family: Open Sans,sans-serif" font-style="italic"><tspan dy="0.00" alignment-baseline="mathematical">JSON/HTTPS</tspan></text></g></svg>