<svg id="my-svg" width="100%" xmlns="http://www.w3.org/2000/svg" xmlns:xlink="http://www.w3.org/1999/xlink" class="classDiagram" style="max-width: 220.266px; background-color: white;" viewBox="0 0 220.265625 100" role="graphics-document document" aria-roledescription="class"><style>#my-svg{font-family:"trebuchet ms",verdana,arial,sans-serif;font-size:16px;fill:#333;}@keyframes edge-animation-frame{from{stroke-dashoffset:0;}}@keyframes dash{to{stroke-dashoffset:0;}}#my-svg .edge-animation-slow{stroke-dasharray:9,5!important;stroke-dashoffset:900;animation:dash 50s linear infinite;stroke-linecap:round;}#my-svg .edge-animation-fast{stroke-dasharray:9,5!important;stroke-dashoffset:900;animation:dash 20s linear infinite;stroke-linecap:round;}#my-svg .error-icon{fill:#552222;}#my-svg .error-text{fill:#552222;stroke:#552222;}#my-svg .edge-thickness-normal{stroke-width:1px;}#my-svg .edge-thickness-thick{stroke-width:3.5px;}#my-svg .edge-pattern-solid{stroke-dasharray:0;}#my-svg .edge-thickness-invisible{stroke-width:0;fill:none;}#my-svg .edge-pattern-dashed{stroke-dasharray:3;}#my-svg .edge-pattern-dotted{stroke-dasharray:2;}#my-svg .marker{fill:#333333;stroke:#333333;}#my-svg .marker.cross{stroke:#333333;}#my-svg svg{font-family:"trebuchet ms",verdana,arial,sans-serif;font-size:16px;}#my-svg p{margin:0;}#my-svg g.classGroup text{fill:#9370DB;stroke:none;font-family:"trebuchet ms",verdana,arial,sans-serif;font-size:10px;}#my-svg g.classGroup text .title{font-weight:bolder;}#my-svg .cluster-label text{fill:#333;}#my-svg .cluster-label span{color:#333;}#my-svg .cluster-label span p{background-color:transparent;}#my-svg .cluster rect{fill:#ffffde;stroke:#aaaa33;stroke-width:1px;}#my-svg .cluster text{fill:#333;}#my-svg .cluster span{color:#333;}#my-svg .nodeLabel,#my-svg .edgeLabel{color:#131300;}#my-svg .edgeLabel .label rect{fill:#ECECFF;}#my-svg .label text{fill:#131300;}#my-svg .labelBkg{background:#ECECFF;}#my-svg .edgeLabel .label span{background:#ECECFF;}#my-svg .classTitle{font-weight:bolder;}#my-svg .node rect,#my-svg .node circle,#my-svg .node ellipse,#my-svg .node polygon,#my-svg .node path{fill:#ECECFF;stroke:#9370DB;stroke-width:1px;}#my-svg .divider{stroke:#9370DB;stroke-width:1;}#my-svg g.clickable{cursor:pointer;}#my-svg g.classGroup rect{fill:#ECECFF;stroke:#9370DB;}#my-svg g.classGroup line{stroke:#9370DB;stroke-width:1;}#my-svg .classLabel .box{stroke:none;stroke-width:0;fill:#ECECFF;opacity:0.5;}#my-svg .classLabel .label{fill:#9370DB;font-size:10px;}#my-svg .relation{stroke:#333333;stroke-width:1;fill:none;}#my-svg .dashed-line{stroke-dasharray:3;}#my-svg .dotted-line{stroke-dasharray:1 2;}#my-svg #compositionStart,#my-svg .composition{fill:#333333!important;stroke:#333333!important;stroke-width:1;}#my-svg #compositionEnd,#my-svg .composition{fill:#333333!important;stroke:#333333!important;stroke-width:1;}#my-svg #dependencyStart,#my-svg .dependency{fill:#333333!important;stroke:#333333!important;stroke-width:1;}#my-svg #dependencyStart,#my-svg .dependency{fill:#333333!important;stroke:#333333!important;stroke-width:1;}#my-svg #extensionStart,#my-svg .extension{fill:transparent!important;stroke:#333333!important;stroke-width:1;}#my-svg #extensionEnd,#my-svg .extension{fill:transparent!important;stroke:#333333!important;stroke-width:1;}#my-svg #aggregationStart,#my-svg .aggregation{fill:transparent!important;stroke:#333333!important;stroke-width:1;}#my-svg #aggregationEnd,#my-svg .aggregation{fill:transparent!important;stroke:#333333!important;stroke-width:1;}#my-svg #lollipopStart,#my-svg .lollipop{fill:#ECECFF!important;stroke:#333333!important;stroke-width:1;}#my-svg #lollipopEnd,#my-svg .lollipop{fill:#ECECFF!important;stroke:#333333!important;stroke-width:1;}#my-svg .edgeTerminals{font-size:11px;line-height:initial;}#my-svg .classTitleText{text-anchor:middle;font-size:18px;fill:#333;}#my-svg .label-icon{display:inline-block;height:1em;overflow:visible;vertical-align:-0.125em;}#my-svg .node .label-icon path{fill:currentColor;stroke:revert;stroke-width:revert;}#my-svg :root{--mermaid-font-family:"trebuchet ms",verdana,arial,sans-serif;}#my-svg .Animal&gt;*{fill:#f9f!important;stroke:#333!important;stroke-width:4px!important;}#my-svg .Animal span{fill:#f9f!important;stroke:#333!important;stroke-width:4px!important;}#my-svg .Mineral&gt;*{fill:#f9f!important;stroke:#333!important;stroke-width:4px!important;}#my-svg .Mineral span{fill:#f9f!important;stroke:#333!important;stroke-width:4px!important;}</style><g><defs><marker id="my-svg_class-aggregationStart" class="marker aggregation class" refX="18" refY="7" markerWidth="190" markerHeight="240" orient="auto"><path d="M 18,7 L9,13 L1,7 L9,1 Z"/></marker></defs><defs><marker id="my-svg_class-aggregationEnd" class="marker aggregation class" refX="1" refY="7" markerWidth="20" markerHeight="28" orient="auto"><path d="M 18,7 L9,13 L1,7 L9,1 Z"/></marker></defs><defs><marker id="my-svg_class-extensionStart" class="marker extension class" refX="18" refY="7" markerWidth="190" markerHeight="240" orient="auto"><path d="M 1,7 L18,13 V 1 Z"/></marker></defs><defs><marker id="my-svg_class-extensionEnd" class="marker extension class" refX="1" refY="7" markerWidth="20" markerHeight="28" orient="auto"><path d="M 1,1 V 13 L18,7 Z"/></marker></defs><defs><marker id="my-svg_class-compositionStart" class="marker composition class" refX="18" refY="7" markerWidth="190" markerHeight="240" orient="auto"><path d="M 18,7 L9,13 L1,7 L9,1 Z"/></marker></defs><defs><marker id="my-svg_class-compositionEnd" class="marker composition class" refX="1" refY="7" markerWidth="20" markerHeight="28" orient="auto"><path d="M 18,7 L9,13 L1,7 L9,1 Z"/></marker></defs><defs><marker id="my-svg_class-dependencyStart" class="marker dependency class" refX="6" refY="7" markerWidth="190" markerHeight="240" orient="auto"><path d="M 5,7 L9,13 L1,7 L9,1 Z"/></marker></defs><defs><marker id="my-svg_class-dependencyEnd" class="marker dependency class" refX="13" refY="7" markerWidth="20" markerHeight="28" orient="auto"><path d="M 18,7 L9,13 L14,7 L9,1 Z"/></marker></defs><defs><marker id="my-svg_class-lollipopStart" class="marker lollipop class" refX="13" refY="7" markerWidth="190" markerHeight="240" orient="auto"><circle fill="transparent" cx="7" cy="7" r="6"/></marker></defs><defs><marker id="my-svg_class-lollipopEnd" class="marker lollipop class" refX="1" refY="7" markerWidth="190" markerHeight="240" orient="auto"><circle fill="transparent" cx="7" cy="7" r="6"/></marker></defs><g class="root"><g class="clusters"/><g class="edgePaths"/><g class="edgeLabels"/><g class="nodes"><g class="node default" id="classId-Animal-0" transform="translate(45.671875, 50)"><g class="basic label-container"><path d="M-37.671875 -42 L37.671875 -42 L37.671875 42 L-37.671875 42" stroke="none" stroke-width="0" fill="#f9f" style="fill:#f9f;stroke:#333;stroke-width:4px"/><path d="M-37.671875 -42 C-11.248118076294755 -42, 15.17563884741049 -42, 37.671875 -42 M-37.671875 -42 C-20.719801125190177 -42, -3.7677272503803536 -42, 37.671875 -42 M37.671875 -42 C37.671875 -16.805053260294088, 37.671875 8.389893479411825, 37.671875 42 M37.671875 -42 C37.671875 -10.193802480378658, 37.671875 21.612395039242685, 37.671875 42 M37.671875 42 C14.732265185682554 42, -8.207344628634893 42, -37.671875 42 M37.671875 42 C11.354568197345085 42, -14.96273860530983 42, -37.671875 42 M-37.671875 42 C-37.671875 17.240422009589974, -37.671875 -7.519155980820052, -37.671875 -42 M-37.671875 42 C-37.671875 8.673030319366902, -37.671875 -24.653939361266197, -37.671875 -42" stroke="#333" stroke-width="4" fill="none" stroke-dasharray="0 0" style="fill:#f9f;stroke:#333;stroke-width:4px"/></g><g class="annotation-group text" transform="translate(0, -18)"/><g class="label-group text" transform="translate(-25.671875, -18)"><g class="label" style="font-weight: bolder" transform="translate(0,-12)"><foreignObject width="51.34375" height="24"><div xmlns="http://www.w3.org/1999/xhtml" style="display: table-cell; white-space: nowrap; line-height: 1.5; max-width: 98px; text-align: center;"><span class="nodeLabel markdown-node-label" style="fill:#f9f;stroke:#333;stroke-width:4px"><p>Animal</p></span></div></foreignObject></g></g><g class="members-group text" transform="translate(-25.671875, 30)"/><g class="methods-group text" transform="translate(-25.671875, 60)"/><g class="divider" style="fill:#f9f;stroke:#333;stroke-width:4px"><path d="M-37.671875 6 C-20.12437743449558 6, -2.5768798689911634 6, 37.671875 6 M-37.671875 6 C-20.632915238565662 6, -3.593955477131324 6, 37.671875 6" stroke="#333" stroke-width="4" fill="none" stroke-dasharray="0 0" style="fill:#f9f;stroke:#333;stroke-width:4px"/></g><g class="divider" style="fill:#f9f;stroke:#333;stroke-width:4px"><path d="M-37.671875 24 C-11.427032239647751 24, 14.817810520704498 24, 37.671875 24 M-37.671875 24 C-21.2319572194008 24, -4.792039438801602 24, 37.671875 24" stroke="#333" stroke-width="4" fill="none" stroke-dasharray="0 0" style="fill:#f9f;stroke:#333;stroke-width:4px"/></g></g><g class="node default" id="classId-Mineral-1" transform="translate(172.8046875, 50)"><g class="basic label-container"><path d="M-39.4609375 -42 L39.4609375 -42 L39.4609375 42 L-39.4609375 42" stroke="none" stroke-width="0" fill="#f9f" style="fill:#f9f;stroke:#333;stroke-width:4px"/><path d="M-39.4609375 -42 C-9.942068903089776 -42, 19.576799693820448 -42, 39.4609375 -42 M-39.4609375 -42 C-21.16360160858088 -42, -2.8662657171617596 -42, 39.4609375 -42 M39.4609375 -42 C39.4609375 -18.156279792843453, 39.4609375 5.6874404143130945, 39.4609375 42 M39.4609375 -42 C39.4609375 -21.774439714974267, 39.4609375 -1.548879429948535, 39.4609375 42 M39.4609375 42 C9.064219224371282 42, -21.332499051257436 42, -39.4609375 42 M39.4609375 42 C9.606634213351057 42, -20.247669073297885 42, -39.4609375 42 M-39.4609375 42 C-39.4609375 11.06552397061905, -39.4609375 -19.8689520587619, -39.4609375 -42 M-39.4609375 42 C-39.4609375 15.48797695683399, -39.4609375 -11.02404608633202, -39.4609375 -42" stroke="#333" stroke-width="4" fill="none" stroke-dasharray="0 0" style="fill:#f9f;stroke:#333;stroke-width:4px"/></g><g class="annotation-group text" transform="translate(0, -18)"/><g class="label-group text" transform="translate(-27.4609375, -18)"><g class="label" style="font-weight: bolder" transform="translate(0,-12)"><foreignObject width="54.921875" height="24"><div xmlns="http://www.w3.org/1999/xhtml" style="display: table-cell; white-space: nowrap; line-height: 1.5; max-width: 101px; text-align: center;"><span class="nodeLabel markdown-node-label" style="fill:#f9f;stroke:#333;stroke-width:4px"><p>Mineral</p></span></div></foreignObject></g></g><g class="members-group text" transform="translate(-27.4609375, 30)"/><g class="methods-group text" transform="translate(-27.4609375, 60)"/><g class="divider" style="fill:#f9f;stroke:#333;stroke-width:4px"><path d="M-39.4609375 6 C-12.79576677844275 6, 13.869403943114499 6, 39.4609375 6 M-39.4609375 6 C-14.488002523832698 6, 10.484932452334604 6, 39.4609375 6" stroke="#333" stroke-width="4" fill="none" stroke-dasharray="0 0" style="fill:#f9f;stroke:#333;stroke-width:4px"/></g><g class="divider" style="fill:#f9f;stroke:#333;stroke-width:4px"><path d="M-39.4609375 24 C-12.097248039222595 24, 15.26644142155481 24, 39.4609375 24 M-39.4609375 24 C-18.030795966436987 24, 3.3993455671260264 24, 39.4609375 24" stroke="#333" stroke-width="4" fill="none" stroke-dasharray="0 0" style="fill:#f9f;stroke:#333;stroke-width:4px"/></g></g></g></g></g></svg>