<svg xmlns="http://www.w3.org/2000/svg" width="244.3771" height="182.80002" viewBox="0 0 244.3771 182.80002"><rect x="0" y="0" width="244.3771" height="182.80002" fill="#FFFFFF"/><defs><marker id="arrow-0" viewBox="0 0 10 10" refX="5" refY="5" markerUnits="userSpaceOnUse" markerWidth="8" markerHeight="8" orient="auto"><path d="M 0 0 L 10 5 L 0 10 z" fill="#2F3B4D" stroke="#2F3B4D" stroke-width="1" stroke-dasharray="1,0"/></marker><marker id="arrow-start-0" viewBox="0 0 10 10" refX="4.5" refY="5" markerUnits="userSpaceOnUse" markerWidth="8" markerHeight="8" orient="auto"><path d="M 0 5 L 10 10 L 10 0 z" fill="#2F3B4D" stroke="#2F3B4D" stroke-width="1" stroke-dasharray="1,0"/></marker><marker id="arrow-class-open-0" viewBox="0 0 20 14" refX="1" refY="7" markerUnits="userSpaceOnUse" markerWidth="20" markerHeight="14" orient="auto"><path d="M 1 7 L 18 13 V 1 Z" fill="none" stroke="#2F3B4D" stroke-width="1" stroke-dasharray="1,0"/></marker><marker id="arrow-class-open-start-0" viewBox="0 0 20 14" refX="18" refY="7" markerUnits="userSpaceOnUse" markerWidth="20" markerHeight="14" orient="auto"><path d="M 1 7 L 18 13 V 1 Z" fill="none" stroke="#2F3B4D" stroke-width="1" stroke-dasharray="1,0"/></marker><marker id="arrow-class-dep-0" viewBox="0 0 20 14" refX="13" refY="7" markerUnits="userSpaceOnUse" markerWidth="20" markerHeight="14" orient="auto"><path d="M 18 7 L 9 13 L 14 7 L 9 1 Z" fill="#2F3B4D" stroke="#2F3B4D" stroke-width="1" stroke-dasharray="1,0"/></marker><marker id="arrow-class-dep-start-0" viewBox="0 0 20 14" refX="6" refY="7" markerUnits="userSpaceOnUse" markerWidth="20" markerHeight="14" orient="auto"><path d="M 5 7 L 9 13 L 1 7 L 9 1 Z" fill="#2F3B4D" stroke="#2F3B4D" stroke-width="1" stroke-dasharray="1,0"/></marker></defs><rect x="8.00" y="8.00" width="228.38" height="166.80" rx="3" ry="3" fill="#ECECFF" stroke="#7B88A8" stroke-width="1" stroke-linejoin="round" stroke-linecap="round"/><line x1="14.00" y1="50.80" x2="230.38" y2="50.80" stroke="#7B88A8" stroke-width="1.0"/><line x1="14.00" y1="112.00" x2="230.38" y2="112.00" stroke="#7B88A8" stroke-width="1.0"/><text x="122.19" y="36.00" text-anchor="middle" font-family="trebuchet ms,verdana,arial,sans-serif" font-size="16" fill="#333333"><tspan x="122.19" dy="0.00" font-weight="600">BankAccount</tspan></text><text x="38.00" y="76.80" text-anchor="start" font-family="trebuchet ms,verdana,arial,sans-serif" font-size="16" fill="#333333"><tspan x="38.00" dy="0.00">+String owner</tspan><tspan x="38.00" dy="20.40">+BigDecimal balance</tspan><tspan x="38.00" dy="40.80">+deposit(amount)</tspan><tspan x="38.00" dy="20.40">+withdrawal(amount)</tspan></text></svg>