<svg xmlns="http://www.w3.org/2000/svg" width="982.0735" height="178.22504" viewBox="0 0 982.0735 178.22504"><rect x="0" y="0" width="982.0735" height="178.22504" fill="#FFFFFF"/><defs><marker id="arrow-0" viewBox="0 0 10 10" refX="5" refY="5" markerUnits="userSpaceOnUse" markerWidth="8" markerHeight="8" orient="auto"><path d="M 0 0 L 10 5 L 0 10 z" fill="#2F3B4D" stroke="#2F3B4D" stroke-width="1" stroke-dasharray="1,0"/></marker><marker id="arrow-start-0" viewBox="0 0 10 10" refX="4.5" refY="5" markerUnits="userSpaceOnUse" markerWidth="8" markerHeight="8" orient="auto"><path d="M 0 5 L 10 10 L 10 0 z" fill="#2F3B4D" stroke="#2F3B4D" stroke-width="1" stroke-dasharray="1,0"/></marker></defs><path id="edge-0" class="edgePath" data-edge-id="edge-0" d="M 251.876,89.113 L 329.889,89.113" fill="none" stroke="#2F3B4D" stroke-width="1"    stroke-linecap="round" stroke-linejoin="round" /><g transform="translate(251.88 89.11) rotate(0.00)"><path d="M 0 -6 L 0 6 M 5 -6 L 5 6" fill="none" stroke="#2F3B4D" stroke-width="1" stroke-linejoin="round" stroke-linecap="round"/></g><g transform="translate(329.89 89.11) rotate(0.00)"><g><circle cx="-4" cy="0" r="4" fill="none" stroke="#2F3B4D" stroke-width="1"/><path d="M 4 0 L 12 -6 M 4 0 L 12 6" fill="none" stroke="#2F3B4D" stroke-width="1" stroke-linejoin="round" stroke-linecap="round"/></g></g><rect data-edge-id="edge-0" data-label-kind="center" x="258.88" y="75.11" width="64.01" height="28.00" rx="2" ry="2" fill="rgba(248,250,252, 0.92)" fill-opacity="0.85" stroke="#7B88A8" stroke-opacity="0.35" stroke-width="0.8"/><g class="edgeLabel" data-edge-id="edge-0" data-label-kind="center"><text x="290.88" y="93.11" text-anchor="middle" font-family="trebuchet ms,verdana,arial,sans-serif" font-size="16" fill="#333333"><tspan x="290.88" dy="0.00">places</tspan></text></g><path id="edge-1" class="edgePath" data-edge-id="edge-1" d="M 625.111,89.113 L 719.928,89.112" fill="none" stroke="#2F3B4D" stroke-width="1"    stroke-linecap="round" stroke-linejoin="round" /><g transform="translate(625.11 89.11) rotate(-0.00)"><path d="M 0 -6 L 0 6 M 5 -6 L 5 6" fill="none" stroke="#2F3B4D" stroke-width="1" stroke-linejoin="round" stroke-linecap="round"/></g><g transform="translate(719.93 89.11) rotate(-0.00)"><path d="M 0 -6 L 0 6 M 0 0 L 8 -6 M 0 0 L 8 6" fill="none" stroke="#2F3B4D" stroke-width="1" stroke-linejoin="round" stroke-linecap="round"/></g><rect data-edge-id="edge-1" data-label-kind="center" x="631.18" y="75.11" width="82.69" height="28.00" rx="2" ry="2" fill="rgba(248,250,252, 0.92)" fill-opacity="0.85" stroke="#7B88A8" stroke-opacity="0.35" stroke-width="0.8"/><g class="edgeLabel" data-edge-id="edge-1" data-label-kind="center"><text x="672.52" y="93.11" text-anchor="middle" font-family="trebuchet ms,verdana,arial,sans-serif" font-size="16" fill="#333333"><tspan x="672.52" dy="0.00">contains</tspan></text></g><rect x="8.00" y="8.00" width="243.88" height="162.22" rx="6.00" ry="6.00" fill="#FFFFFF" stroke="#7B88A8" stroke-width="1.2"/><rect x="8.00" y="8.00" width="243.88" height="33.60" rx="6.00" ry="6.00" fill="#FFFFDE"/><text x="129.94" y="28.80" text-anchor="middle" font-family="trebuchet ms,verdana,arial,sans-serif" font-size="16" fill="#333333"><tspan x="129.94" dy="0.00">CUSTOMER</tspan></text><line x1="8.00" y1="41.60" x2="251.88" y2="41.60" stroke="#AAAA33" stroke-width="1.0" stroke-opacity="0.6"/><line x1="171.15" y1="41.60" x2="171.15" y2="170.23" stroke="#AAAA33" stroke-width="1.0" stroke-opacity="0.45"/><text x="20.80" y="57.60" text-anchor="start" font-family="trebuchet ms,verdana,arial,sans-serif" font-size="16" fill="#333333"><tspan x="20.80" dy="0.00">name</tspan></text><text x="239.08" y="57.60" text-anchor="end" font-family="trebuchet ms,verdana,arial,sans-serif" font-size="16" fill="#2F3B4D"><tspan x="239.08" dy="0.00">string</tspan></text><line x1="8.00" y1="65.60" x2="251.88" y2="65.60" stroke="#AAAA33" stroke-width="1.0" stroke-opacity="0.35"/><text x="20.80" y="81.60" text-anchor="start" font-family="trebuchet ms,verdana,arial,sans-serif" font-size="16" fill="#333333"><tspan x="20.80" dy="0.00">custNumber</tspan></text><text x="239.08" y="81.60" text-anchor="end" font-family="trebuchet ms,verdana,arial,sans-serif" font-size="16" fill="#2F3B4D"><tspan x="239.08" dy="0.00">string</tspan></text><line x1="8.00" y1="89.60" x2="251.88" y2="89.60" stroke="#AAAA33" stroke-width="1.0" stroke-opacity="0.35"/><text x="20.80" y="105.60" text-anchor="start" font-family="trebuchet ms,verdana,arial,sans-serif" font-size="16" fill="#333333"><tspan x="20.80" dy="0.00">sector</tspan></text><text x="239.08" y="105.60" text-anchor="end" font-family="trebuchet ms,verdana,arial,sans-serif" font-size="16" fill="#2F3B4D"><tspan x="239.08" dy="0.00">string</tspan></text><rect x="719.93" y="8.00" width="254.15" height="162.22" rx="6.00" ry="6.00" fill="#FFFFFF" stroke="#7B88A8" stroke-width="1.2"/><rect x="719.93" y="8.00" width="254.15" height="33.60" rx="6.00" ry="6.00" fill="#FFFFDE"/><text x="847.00" y="28.80" text-anchor="middle" font-family="trebuchet ms,verdana,arial,sans-serif" font-size="16" fill="#333333"><tspan x="847.00" dy="0.00">LINE-ITEM</tspan></text><line x1="719.93" y1="41.60" x2="974.07" y2="41.60" stroke="#AAAA33" stroke-width="1.0" stroke-opacity="0.6"/><line x1="893.35" y1="41.60" x2="893.35" y2="170.22" stroke="#AAAA33" stroke-width="1.0" stroke-opacity="0.45"/><text x="732.73" y="57.60" text-anchor="start" font-family="trebuchet ms,verdana,arial,sans-serif" font-size="16" fill="#333333"><tspan x="732.73" dy="0.00">productCode</tspan></text><text x="961.27" y="57.60" text-anchor="end" font-family="trebuchet ms,verdana,arial,sans-serif" font-size="16" fill="#2F3B4D"><tspan x="961.27" dy="0.00">string</tspan></text><line x1="719.93" y1="65.60" x2="974.07" y2="65.60" stroke="#AAAA33" stroke-width="1.0" stroke-opacity="0.35"/><text x="732.73" y="81.60" text-anchor="start" font-family="trebuchet ms,verdana,arial,sans-serif" font-size="16" fill="#333333"><tspan x="732.73" dy="0.00">quantity</tspan></text><text x="961.27" y="81.60" text-anchor="end" font-family="trebuchet ms,verdana,arial,sans-serif" font-size="16" fill="#2F3B4D"><tspan x="961.27" dy="0.00">int</tspan></text><line x1="719.93" y1="89.60" x2="974.07" y2="89.60" stroke="#AAAA33" stroke-width="1.0" stroke-opacity="0.35"/><text x="732.73" y="105.60" text-anchor="start" font-family="trebuchet ms,verdana,arial,sans-serif" font-size="16" fill="#333333"><tspan x="732.73" dy="0.00">pricePerUnit</tspan></text><text x="961.27" y="105.60" text-anchor="end" font-family="trebuchet ms,verdana,arial,sans-serif" font-size="16" fill="#2F3B4D"><tspan x="961.27" dy="0.00">float</tspan></text><rect x="329.89" y="20.60" width="295.22" height="137.02" rx="6.00" ry="6.00" fill="#FFFFFF" stroke="#7B88A8" stroke-width="1.2"/><rect x="329.89" y="20.60" width="295.22" height="33.60" rx="6.00" ry="6.00" fill="#FFFFDE"/><text x="477.50" y="41.40" text-anchor="middle" font-family="trebuchet ms,verdana,arial,sans-serif" font-size="16" fill="#333333"><tspan x="477.50" dy="0.00">ORDER</tspan></text><line x1="329.89" y1="54.20" x2="625.11" y2="54.20" stroke="#AAAA33" stroke-width="1.0" stroke-opacity="0.6"/><line x1="544.39" y1="54.20" x2="544.39" y2="157.62" stroke="#AAAA33" stroke-width="1.0" stroke-opacity="0.45"/><text x="342.69" y="70.20" text-anchor="start" font-family="trebuchet ms,verdana,arial,sans-serif" font-size="16" fill="#333333"><tspan x="342.69" dy="0.00">orderNumber</tspan></text><text x="612.31" y="70.20" text-anchor="end" font-family="trebuchet ms,verdana,arial,sans-serif" font-size="16" fill="#2F3B4D"><tspan x="612.31" dy="0.00">int</tspan></text><line x1="329.89" y1="78.20" x2="625.11" y2="78.20" stroke="#AAAA33" stroke-width="1.0" stroke-opacity="0.35"/><text x="342.69" y="94.20" text-anchor="start" font-family="trebuchet ms,verdana,arial,sans-serif" font-size="16" fill="#333333"><tspan x="342.69" dy="0.00">deliveryAddress</tspan></text><text x="612.31" y="94.20" text-anchor="end" font-family="trebuchet ms,verdana,arial,sans-serif" font-size="16" fill="#2F3B4D"><tspan x="612.31" dy="0.00">string</tspan></text></svg>