<svg id="my-svg" width="100%" xmlns="http://www.w3.org/2000/svg" xmlns:xlink="http://www.w3.org/1999/xlink" class="erDiagram" style="max-width: 786.203px; background-color: white;" viewBox="0 0 786.203125 187" role="graphics-document document" aria-roledescription="er"><style>#my-svg{font-family:"trebuchet ms",verdana,arial,sans-serif;font-size:16px;fill:#333;}@keyframes edge-animation-frame{from{stroke-dashoffset:0;}}@keyframes dash{to{stroke-dashoffset:0;}}#my-svg .edge-animation-slow{stroke-dasharray:9,5!important;stroke-dashoffset:900;animation:dash 50s linear infinite;stroke-linecap:round;}#my-svg .edge-animation-fast{stroke-dasharray:9,5!important;stroke-dashoffset:900;animation:dash 20s linear infinite;stroke-linecap:round;}#my-svg .error-icon{fill:#552222;}#my-svg .error-text{fill:#552222;stroke:#552222;}#my-svg .edge-thickness-normal{stroke-width:1px;}#my-svg .edge-thickness-thick{stroke-width:3.5px;}#my-svg .edge-pattern-solid{stroke-dasharray:0;}#my-svg .edge-thickness-invisible{stroke-width:0;fill:none;}#my-svg .edge-pattern-dashed{stroke-dasharray:3;}#my-svg .edge-pattern-dotted{stroke-dasharray:2;}#my-svg .marker{fill:#333333;stroke:#333333;}#my-svg .marker.cross{stroke:#333333;}#my-svg svg{font-family:"trebuchet ms",verdana,arial,sans-serif;font-size:16px;}#my-svg p{margin:0;}#my-svg .entityBox{fill:#ECECFF;stroke:#9370DB;}#my-svg .relationshipLabelBox{fill:hsl(80, 100%, 96.2745098039%);opacity:0.7;background-color:hsl(80, 100%, 96.2745098039%);}#my-svg .relationshipLabelBox rect{opacity:0.5;}#my-svg .labelBkg{background-color:rgba(248.6666666666, 255, 235.9999999999, 0.5);}#my-svg .edgeLabel .label{fill:#9370DB;font-size:14px;}#my-svg .label{font-family:"trebuchet ms",verdana,arial,sans-serif;color:#333;}#my-svg .edge-pattern-dashed{stroke-dasharray:8,8;}#my-svg .node rect,#my-svg .node circle,#my-svg .node ellipse,#my-svg .node polygon{fill:#ECECFF;stroke:#9370DB;stroke-width:1px;}#my-svg .relationshipLine{stroke:#333333;stroke-width:1;fill:none;}#my-svg .marker{fill:none!important;stroke:#333333!important;stroke-width:1;}#my-svg .edgeLabel{background-color:rgba(232,232,232, 0.8);}#my-svg .edgeLabel .label rect{fill:rgba(232,232,232, 0.8);}#my-svg .edgeLabel .label text{fill:#333;}#my-svg :root{--mermaid-font-family:"trebuchet ms",verdana,arial,sans-serif;}</style><g><defs><marker id="my-svg_er-onlyOneStart" class="marker onlyOne er" refX="0" refY="9" markerWidth="18" markerHeight="18" orient="auto"><path d="M9,0 L9,18 M15,0 L15,18"/></marker></defs><defs><marker id="my-svg_er-onlyOneEnd" class="marker onlyOne er" refX="18" refY="9" markerWidth="18" markerHeight="18" orient="auto"><path d="M3,0 L3,18 M9,0 L9,18"/></marker></defs><defs><marker id="my-svg_er-zeroOrOneStart" class="marker zeroOrOne er" refX="0" refY="9" markerWidth="30" markerHeight="18" orient="auto"><circle fill="white" cx="21" cy="9" r="6"/><path d="M9,0 L9,18"/></marker></defs><defs><marker id="my-svg_er-zeroOrOneEnd" class="marker zeroOrOne er" refX="30" refY="9" markerWidth="30" markerHeight="18" orient="auto"><circle fill="white" cx="9" cy="9" r="6"/><path d="M21,0 L21,18"/></marker></defs><defs><marker id="my-svg_er-oneOrMoreStart" class="marker oneOrMore er" refX="18" refY="18" markerWidth="45" markerHeight="36" orient="auto"><path d="M0,18 Q 18,0 36,18 Q 18,36 0,18 M42,9 L42,27"/></marker></defs><defs><marker id="my-svg_er-oneOrMoreEnd" class="marker oneOrMore er" refX="27" refY="18" markerWidth="45" markerHeight="36" orient="auto"><path d="M3,9 L3,27 M9,18 Q27,0 45,18 Q27,36 9,18"/></marker></defs><defs><marker id="my-svg_er-zeroOrMoreStart" class="marker zeroOrMore er" refX="18" refY="18" markerWidth="57" markerHeight="36" orient="auto"><circle fill="white" cx="48" cy="18" r="6"/><path d="M0,18 Q18,0 36,18 Q18,36 0,18"/></marker></defs><defs><marker id="my-svg_er-zeroOrMoreEnd" class="marker zeroOrMore er" refX="39" refY="18" markerWidth="57" markerHeight="36" orient="auto"><circle fill="white" cx="9" cy="18" r="6"/><path d="M21,18 Q39,0 57,18 Q39,36 21,18"/></marker></defs><g class="root"><g class="clusters"/><g class="edgePaths"/><g class="edgeLabels"/><g class="nodes"><g class="node default someclass" id="entity-CAR-0" transform="translate(122.84375, 93.5)"><g style=""><path d="M-114.84375 -85.5 L114.84375 -85.5 L114.84375 85.5 L-114.84375 85.5" stroke="none" stroke-width="0" fill="#f96" style=""/><path d="M-114.84375 -85.5 C-27.23273168753333 -85.5, 60.37828662493334 -85.5, 114.84375 -85.5 M-114.84375 -85.5 C-26.32745134270496 -85.5, 62.18884731459008 -85.5, 114.84375 -85.5 M114.84375 -85.5 C114.84375 -30.645557265027136, 114.84375 24.208885469945727, 114.84375 85.5 M114.84375 -85.5 C114.84375 -32.332680076696185, 114.84375 20.83463984660763, 114.84375 85.5 M114.84375 85.5 C66.71249878106559 85.5, 18.581247562131196 85.5, -114.84375 85.5 M114.84375 85.5 C29.32745419417934 85.5, -56.18884161164132 85.5, -114.84375 85.5 M-114.84375 85.5 C-114.84375 48.316166380594595, -114.84375 11.13233276118919, -114.84375 -85.5 M-114.84375 85.5 C-114.84375 37.41191292068144, -114.84375 -10.676174158637124, -114.84375 -85.5" stroke="#9370DB" stroke-width="1.3" fill="none" stroke-dasharray="0 0" style=""/></g><g style="" class="row-rect-odd"><path d="M-114.84375 -42.75 L114.84375 -42.75 L114.84375 0 L-114.84375 0" stroke="none" stroke-width="0" fill="hsl(240, 100%, 100%)" style=""/><path d="M-114.84375 -42.75 C-35.48946398809578 -42.75, 43.86482202380844 -42.75, 114.84375 -42.75 M-114.84375 -42.75 C-67.01539124144772 -42.75, -19.187032482895432 -42.75, 114.84375 -42.75 M114.84375 -42.75 C114.84375 -26.03447173451587, 114.84375 -9.318943469031737, 114.84375 0 M114.84375 -42.75 C114.84375 -26.277021716525415, 114.84375 -9.804043433050829, 114.84375 0 M114.84375 0 C32.00872389973783 0, -50.82630220052434 0, -114.84375 0 M114.84375 0 C52.72550065272038 0, -9.392748694559245 0, -114.84375 0 M-114.84375 0 C-114.84375 -13.32925689824444, -114.84375 -26.65851379648888, -114.84375 -42.75 M-114.84375 0 C-114.84375 -10.613771654556475, -114.84375 -21.22754330911295, -114.84375 -42.75" stroke="#9370DB" stroke-width="1.3" fill="none" stroke-dasharray="0 0" style=""/></g><g style="" class="row-rect-even"><path d="M-114.84375 0 L114.84375 0 L114.84375 42.75 L-114.84375 42.75" stroke="none" stroke-width="0" fill="hsl(240, 100%, 97.2745098039%)" style="fill:#f96 !important"/><path d="M-114.84375 0 C-48.202421462945324 0, 18.438907074109352 0, 114.84375 0 M-114.84375 0 C-47.97033232753755 0, 18.903085344924904 0, 114.84375 0 M114.84375 0 C114.84375 13.62640266402839, 114.84375 27.25280532805678, 114.84375 42.75 M114.84375 0 C114.84375 9.810762391031592, 114.84375 19.621524782063183, 114.84375 42.75 M114.84375 42.75 C51.86052363616238 42.75, -11.122702727675247 42.75, -114.84375 42.75 M114.84375 42.75 C44.678277794862964 42.75, -25.48719441027407 42.75, -114.84375 42.75 M-114.84375 42.75 C-114.84375 27.365475752769402, -114.84375 11.980951505538805, -114.84375 0 M-114.84375 42.75 C-114.84375 26.76409766949544, -114.84375 10.778195338990876, -114.84375 0" stroke="#9370DB" stroke-width="1.3" fill="none" stroke-dasharray="0 0" style="fill:#f96 !important"/></g><g style="" class="row-rect-odd"><path d="M-114.84375 42.75 L114.84375 42.75 L114.84375 85.5 L-114.84375 85.5" stroke="none" stroke-width="0" fill="hsl(240, 100%, 100%)" style=""/><path d="M-114.84375 42.75 C-24.470911687436953 42.75, 65.9019266251261 42.75, 114.84375 42.75 M-114.84375 42.75 C-26.876809720397773 42.75, 61.090130559204454 42.75, 114.84375 42.75 M114.84375 42.75 C114.84375 57.69952329190384, 114.84375 72.64904658380767, 114.84375 85.5 M114.84375 42.75 C114.84375 57.37891256170498, 114.84375 72.00782512340996, 114.84375 85.5 M114.84375 85.5 C63.48878742945513 85.5, 12.133824858910259 85.5, -114.84375 85.5 M114.84375 85.5 C27.74965914272302 85.5, -59.34443171455396 85.5, -114.84375 85.5 M-114.84375 85.5 C-114.84375 70.56258557147396, -114.84375 55.62517114294792, -114.84375 42.75 M-114.84375 85.5 C-114.84375 75.508218856557, -114.84375 65.51643771311399, -114.84375 42.75" stroke="#9370DB" stroke-width="1.3" fill="none" stroke-dasharray="0 0" style=""/></g><g class="label name" transform="translate(-14.1640625, -76.125)" style=""><foreignObject width="28.328125" height="24"><div xmlns="http://www.w3.org/1999/xhtml" style="display: table-cell; white-space: nowrap; line-height: 1.5; max-width: 133px; text-align: start;"><span class="nodeLabel"><p>CAR</p></span></div></foreignObject></g><g class="label attribute-type" transform="translate(-102.34375, -33.375)" style=""><foreignObject width="40.375" height="24"><div xmlns="http://www.w3.org/1999/xhtml" style="display: table-cell; white-space: nowrap; line-height: 1.5; max-width: 136px; text-align: start;"><span class="nodeLabel"><p>string</p></span></div></foreignObject></g><g class="label attribute-name" transform="translate(-36.96875, -33.375)" style=""><foreignObject width="139.3125" height="24"><div xmlns="http://www.w3.org/1999/xhtml" style="display: table-cell; white-space: nowrap; line-height: 1.5; max-width: 225px; text-align: start;"><span class="nodeLabel"><p>registrationNumber</p></span></div></foreignObject></g><g class="label attribute-keys" transform="translate(127.34375, -33.375)" style=""><foreignObject width="0" height="0"><div xmlns="http://www.w3.org/1999/xhtml" style="display: table-cell; white-space: nowrap; line-height: 1.5; max-width: 100px; text-align: start;"><span class="nodeLabel"></span></div></foreignObject></g><g class="label attribute-comment" transform="translate(127.34375, -33.375)" style=""><foreignObject width="0" height="0"><div xmlns="http://www.w3.org/1999/xhtml" style="display: table-cell; white-space: nowrap; line-height: 1.5; max-width: 100px; text-align: start;"><span class="nodeLabel"></span></div></foreignObject></g><g class="label attribute-type" transform="translate(-102.34375, 9.375)" style=""><foreignObject width="40.375" height="24"><div xmlns="http://www.w3.org/1999/xhtml" style="display: table-cell; white-space: nowrap; line-height: 1.5; max-width: 136px; text-align: start;"><span class="nodeLabel"><p>string</p></span></div></foreignObject></g><g class="label attribute-name" transform="translate(-36.96875, 9.375)" style=""><foreignObject width="38.484375" height="24"><div xmlns="http://www.w3.org/1999/xhtml" style="display: table-cell; white-space: nowrap; line-height: 1.5; max-width: 135px; text-align: start;"><span class="nodeLabel"><p>make</p></span></div></foreignObject></g><g class="label attribute-keys" transform="translate(127.34375, 9.375)" style=""><foreignObject width="0" height="0"><div xmlns="http://www.w3.org/1999/xhtml" style="display: table-cell; white-space: nowrap; line-height: 1.5; max-width: 100px; text-align: start;"><span class="nodeLabel"></span></div></foreignObject></g><g class="label attribute-comment" transform="translate(127.34375, 9.375)" style=""><foreignObject width="0" height="0"><div xmlns="http://www.w3.org/1999/xhtml" style="display: table-cell; white-space: nowrap; line-height: 1.5; max-width: 100px; text-align: start;"><span class="nodeLabel"></span></div></foreignObject></g><g class="label attribute-type" transform="translate(-102.34375, 52.125)" style=""><foreignObject width="40.375" height="24"><div xmlns="http://www.w3.org/1999/xhtml" style="display: table-cell; white-space: nowrap; line-height: 1.5; max-width: 136px; text-align: start;"><span class="nodeLabel"><p>string</p></span></div></foreignObject></g><g class="label attribute-name" transform="translate(-36.96875, 52.125)" style=""><foreignObject width="44.234375" height="24"><div xmlns="http://www.w3.org/1999/xhtml" style="display: table-cell; white-space: nowrap; line-height: 1.5; max-width: 140px; text-align: start;"><span class="nodeLabel"><p>model</p></span></div></foreignObject></g><g class="label attribute-keys" transform="translate(127.34375, 52.125)" style=""><foreignObject width="0" height="0"><div xmlns="http://www.w3.org/1999/xhtml" style="display: table-cell; white-space: nowrap; line-height: 1.5; max-width: 100px; text-align: start;"><span class="nodeLabel"></span></div></foreignObject></g><g class="label attribute-comment" transform="translate(127.34375, 52.125)" style=""><foreignObject width="0" height="0"><div xmlns="http://www.w3.org/1999/xhtml" style="display: table-cell; white-space: nowrap; line-height: 1.5; max-width: 100px; text-align: start;"><span class="nodeLabel"></span></div></foreignObject></g><g class="divider"><path d="M-114.84375 -42.75 C-49.10292860003352 -42.75, 16.637892799932956 -42.75, 114.84375 -42.75 M-114.84375 -42.75 C-64.18585864393216 -42.75, -13.527967287864328 -42.75, 114.84375 -42.75" stroke="#9370DB" stroke-width="1.3" fill="none" stroke-dasharray="0 0" style=""/></g><g class="divider"><path d="M-49.46875 -42.75 C-49.46875 1.5310856145252885, -49.46875 45.81217122905058, -49.46875 85.5 M-49.46875 -42.75 C-49.46875 -11.775327002349272, -49.46875 19.199345995301456, -49.46875 85.5" stroke="#9370DB" stroke-width="1.3" fill="none" stroke-dasharray="0 0" style=""/></g><g class="divider"><path d="M-114.84375 -42.75 C-51.140616598579186 -42.75, 12.562516802841628 -42.75, 114.84375 -42.75 M-114.84375 -42.75 C-24.515301388048 -42.75, 65.813147223904 -42.75, 114.84375 -42.75" stroke="#9370DB" stroke-width="1.3" fill="none" stroke-dasharray="0 0" style=""/></g></g><g class="node default someclass" id="entity-PERSON-1" transform="translate(457.9453125, 93.5)"><g style=""><path d="M-80.2578125 -85.5 L80.2578125 -85.5 L80.2578125 85.5 L-80.2578125 85.5" stroke="none" stroke-width="0" fill="#f96" style=""/><path d="M-80.2578125 -85.5 C-24.23310044163962 -85.5, 31.791611616720758 -85.5, 80.2578125 -85.5 M-80.2578125 -85.5 C-21.36890165883949 -85.5, 37.52000918232102 -85.5, 80.2578125 -85.5 M80.2578125 -85.5 C80.2578125 -27.478673462039502, 80.2578125 30.542653075920995, 80.2578125 85.5 M80.2578125 -85.5 C80.2578125 -42.076686711065385, 80.2578125 1.3466265778692303, 80.2578125 85.5 M80.2578125 85.5 C28.693892349767168 85.5, -22.870027800465664 85.5, -80.2578125 85.5 M80.2578125 85.5 C29.02175350114105 85.5, -22.214305497717902 85.5, -80.2578125 85.5 M-80.2578125 85.5 C-80.2578125 48.95532950854215, -80.2578125 12.4106590170843, -80.2578125 -85.5 M-80.2578125 85.5 C-80.2578125 30.63800425141966, -80.2578125 -24.223991497160682, -80.2578125 -85.5" stroke="#9370DB" stroke-width="1.3" fill="none" stroke-dasharray="0 0" style=""/></g><g style="" class="row-rect-odd"><path d="M-80.2578125 -42.75 L80.2578125 -42.75 L80.2578125 0 L-80.2578125 0" stroke="none" stroke-width="0" fill="hsl(240, 100%, 100%)" style=""/><path d="M-80.2578125 -42.75 C-28.14948869888407 -42.75, 23.95883510223186 -42.75, 80.2578125 -42.75 M-80.2578125 -42.75 C-24.588586922634285 -42.75, 31.08063865473143 -42.75, 80.2578125 -42.75 M80.2578125 -42.75 C80.2578125 -26.346851509165784, 80.2578125 -9.943703018331568, 80.2578125 0 M80.2578125 -42.75 C80.2578125 -30.775187368222916, 80.2578125 -18.80037473644583, 80.2578125 0 M80.2578125 0 C45.04578580938464 0, 9.83375911876928 0, -80.2578125 0 M80.2578125 0 C30.425145532648152 0, -19.407521434703696 0, -80.2578125 0 M-80.2578125 0 C-80.2578125 -14.803287669024561, -80.2578125 -29.606575338049122, -80.2578125 -42.75 M-80.2578125 0 C-80.2578125 -10.740956323557377, -80.2578125 -21.481912647114754, -80.2578125 -42.75" stroke="#9370DB" stroke-width="1.3" fill="none" stroke-dasharray="0 0" style=""/></g><g style="" class="row-rect-even"><path d="M-80.2578125 0 L80.2578125 0 L80.2578125 42.75 L-80.2578125 42.75" stroke="none" stroke-width="0" fill="hsl(240, 100%, 97.2745098039%)" style="fill:#f96 !important"/><path d="M-80.2578125 0 C-24.664175451477057 0, 30.929461597045886 0, 80.2578125 0 M-80.2578125 0 C-27.326113958047507 0, 25.605584583904985 0, 80.2578125 0 M80.2578125 0 C80.2578125 11.372919107210711, 80.2578125 22.745838214421422, 80.2578125 42.75 M80.2578125 0 C80.2578125 16.464322743507967, 80.2578125 32.928645487015935, 80.2578125 42.75 M80.2578125 42.75 C31.436880149821818 42.75, -17.384052200356365 42.75, -80.2578125 42.75 M80.2578125 42.75 C19.771085195150256 42.75, -40.71564210969949 42.75, -80.2578125 42.75 M-80.2578125 42.75 C-80.2578125 29.451488943221264, -80.2578125 16.152977886442528, -80.2578125 0 M-80.2578125 42.75 C-80.2578125 29.732715631759447, -80.2578125 16.715431263518898, -80.2578125 0" stroke="#9370DB" stroke-width="1.3" fill="none" stroke-dasharray="0 0" style="fill:#f96 !important"/></g><g style="" class="row-rect-odd"><path d="M-80.2578125 42.75 L80.2578125 42.75 L80.2578125 85.5 L-80.2578125 85.5" stroke="none" stroke-width="0" fill="hsl(240, 100%, 100%)" style=""/><path d="M-80.2578125 42.75 C-44.940739347517116 42.75, -9.623666195034232 42.75, 80.2578125 42.75 M-80.2578125 42.75 C-28.85036861984915 42.75, 22.5570752603017 42.75, 80.2578125 42.75 M80.2578125 42.75 C80.2578125 53.57245949868273, 80.2578125 64.39491899736547, 80.2578125 85.5 M80.2578125 42.75 C80.2578125 56.44334550697788, 80.2578125 70.13669101395575, 80.2578125 85.5 M80.2578125 85.5 C37.40509962241542 85.5, -5.447613255169159 85.5, -80.2578125 85.5 M80.2578125 85.5 C38.53252370603248 85.5, -3.1927650879350438 85.5, -80.2578125 85.5 M-80.2578125 85.5 C-80.2578125 74.25858367937907, -80.2578125 63.017167358758144, -80.2578125 42.75 M-80.2578125 85.5 C-80.2578125 75.60422119706314, -80.2578125 65.70844239412628, -80.2578125 42.75" stroke="#9370DB" stroke-width="1.3" fill="none" stroke-dasharray="0 0" style=""/></g><g class="label name" transform="translate(-27.75, -76.125)" style=""><foreignObject width="55.5" height="24"><div xmlns="http://www.w3.org/1999/xhtml" style="display: table-cell; white-space: nowrap; line-height: 1.5; max-width: 161px; text-align: start;"><span class="nodeLabel"><p>PERSON</p></span></div></foreignObject></g><g class="label attribute-type" transform="translate(-67.7578125, -33.375)" style=""><foreignObject width="40.375" height="24"><div xmlns="http://www.w3.org/1999/xhtml" style="display: table-cell; white-space: nowrap; line-height: 1.5; max-width: 136px; text-align: start;"><span class="nodeLabel"><p>string</p></span></div></foreignObject></g><g class="label attribute-name" transform="translate(-2.3828125, -33.375)" style=""><foreignObject width="70.140625" height="24"><div xmlns="http://www.w3.org/1999/xhtml" style="display: table-cell; white-space: nowrap; line-height: 1.5; max-width: 164px; text-align: start;"><span class="nodeLabel"><p>firstName</p></span></div></foreignObject></g><g class="label attribute-keys" transform="translate(92.7578125, -33.375)" style=""><foreignObject width="0" height="0"><div xmlns="http://www.w3.org/1999/xhtml" style="display: table-cell; white-space: nowrap; line-height: 1.5; max-width: 100px; text-align: start;"><span class="nodeLabel"></span></div></foreignObject></g><g class="label attribute-comment" transform="translate(92.7578125, -33.375)" style=""><foreignObject width="0" height="0"><div xmlns="http://www.w3.org/1999/xhtml" style="display: table-cell; white-space: nowrap; line-height: 1.5; max-width: 100px; text-align: start;"><span class="nodeLabel"></span></div></foreignObject></g><g class="label attribute-type" transform="translate(-67.7578125, 9.375)" style=""><foreignObject width="40.375" height="24"><div xmlns="http://www.w3.org/1999/xhtml" style="display: table-cell; white-space: nowrap; line-height: 1.5; max-width: 136px; text-align: start;"><span class="nodeLabel"><p>string</p></span></div></foreignObject></g><g class="label attribute-name" transform="translate(-2.3828125, 9.375)" style=""><foreignObject width="66.578125" height="24"><div xmlns="http://www.w3.org/1999/xhtml" style="display: table-cell; white-space: nowrap; line-height: 1.5; max-width: 160px; text-align: start;"><span class="nodeLabel"><p>lastName</p></span></div></foreignObject></g><g class="label attribute-keys" transform="translate(92.7578125, 9.375)" style=""><foreignObject width="0" height="0"><div xmlns="http://www.w3.org/1999/xhtml" style="display: table-cell; white-space: nowrap; line-height: 1.5; max-width: 100px; text-align: start;"><span class="nodeLabel"></span></div></foreignObject></g><g class="label attribute-comment" transform="translate(92.7578125, 9.375)" style=""><foreignObject width="0" height="0"><div xmlns="http://www.w3.org/1999/xhtml" style="display: table-cell; white-space: nowrap; line-height: 1.5; max-width: 100px; text-align: start;"><span class="nodeLabel"></span></div></foreignObject></g><g class="label attribute-type" transform="translate(-67.7578125, 52.125)" style=""><foreignObject width="19.65625" height="24"><div xmlns="http://www.w3.org/1999/xhtml" style="display: table-cell; white-space: nowrap; line-height: 1.5; max-width: 117px; text-align: start;"><span class="nodeLabel"><p>int</p></span></div></foreignObject></g><g class="label attribute-name" transform="translate(-2.3828125, 52.125)" style=""><foreignObject width="25.171875" height="24"><div xmlns="http://www.w3.org/1999/xhtml" style="display: table-cell; white-space: nowrap; line-height: 1.5; max-width: 122px; text-align: start;"><span class="nodeLabel"><p>age</p></span></div></foreignObject></g><g class="label attribute-keys" transform="translate(92.7578125, 52.125)" style=""><foreignObject width="0" height="0"><div xmlns="http://www.w3.org/1999/xhtml" style="display: table-cell; white-space: nowrap; line-height: 1.5; max-width: 100px; text-align: start;"><span class="nodeLabel"></span></div></foreignObject></g><g class="label attribute-comment" transform="translate(92.7578125, 52.125)" style=""><foreignObject width="0" height="0"><div xmlns="http://www.w3.org/1999/xhtml" style="display: table-cell; white-space: nowrap; line-height: 1.5; max-width: 100px; text-align: start;"><span class="nodeLabel"></span></div></foreignObject></g><g class="divider"><path d="M-80.2578125 -42.75 C-23.284942315389927 -42.75, 33.68792786922015 -42.75, 80.2578125 -42.75 M-80.2578125 -42.75 C-28.761081378639688 -42.75, 22.735649742720625 -42.75, 80.2578125 -42.75" stroke="#9370DB" stroke-width="1.3" fill="none" stroke-dasharray="0 0" style=""/></g><g class="divider"><path d="M-14.8828125 -42.75 C-14.8828125 -16.688649200989378, -14.8828125 9.372701598021244, -14.8828125 85.5 M-14.8828125 -42.75 C-14.8828125 -14.475020739263229, -14.8828125 13.799958521473542, -14.8828125 85.5" stroke="#9370DB" stroke-width="1.3" fill="none" stroke-dasharray="0 0" style=""/></g><g class="divider"><path d="M-80.2578125 -42.75 C-35.18702092690353 -42.75, 9.883770646192943 -42.75, 80.2578125 -42.75 M-80.2578125 -42.75 C-20.80035902058055 -42.75, 38.6570944588389 -42.75, 80.2578125 -42.75" stroke="#9370DB" stroke-width="1.3" fill="none" stroke-dasharray="0 0" style=""/></g></g><g class="node default someclass" id="entity-HOUSE-2" transform="translate(728.203125, 93.5)"><rect class="basic label-container" style="fill:#f96 !important" x="-50" y="-42" width="100" height="84"/><g class="label" style="" transform="translate(-23.9453125, -12)"><rect/><foreignObject width="47.890625" height="24"><div xmlns="http://www.w3.org/1999/xhtml" style="display: table-cell; white-space: nowrap; line-height: 1.5; max-width: 100px; text-align: center;"><span class="nodeLabel"><p>HOUSE</p></span></div></foreignObject></g></g></g></g></g></svg>