<svg xmlns="http://www.w3.org/2000/svg" width="488.344" height="264.69998" viewBox="0 0 488.344 264.69998"><rect x="0" y="0" width="488.344" height="264.69998" fill="#FFFFFF"/><defs><marker id="arrow-0" viewBox="0 0 10 10" refX="5" refY="5" markerUnits="userSpaceOnUse" markerWidth="8" markerHeight="8" orient="auto"><path d="M 0 0 L 10 5 L 0 10 z" fill="#2F3B4D" stroke="#2F3B4D" stroke-width="1" stroke-dasharray="1,0"/></marker><marker id="arrow-start-0" viewBox="0 0 10 10" refX="4.5" refY="5" markerUnits="userSpaceOnUse" markerWidth="8" markerHeight="8" orient="auto"><path d="M 0 5 L 10 10 L 10 0 z" fill="#2F3B4D" stroke="#2F3B4D" stroke-width="1" stroke-dasharray="1,0"/></marker></defs><path id="edge-0" class="edgePath" data-edge-id="edge-0" d="M 314.011,158.150 L 264.277,207.350" fill="none" stroke="#2F3B4D" stroke-width="1"    stroke-linecap="round" stroke-linejoin="round" /><g transform="translate(314.01 158.15) rotate(135.31)"><path d="M 0 -6 L 0 6 M 5 -6 L 5 6" fill="none" stroke="#2F3B4D" stroke-width="1" stroke-linejoin="round" stroke-linecap="round"/></g><g transform="translate(264.28 207.35) rotate(135.31)"><g><circle cx="-4" cy="0" r="4" fill="none" stroke="#2F3B4D" stroke-width="1"/><path d="M 4 0 L 12 -6 M 4 0 L 12 6" fill="none" stroke="#2F3B4D" stroke-width="1" stroke-linejoin="round" stroke-linecap="round"/></g></g><rect data-edge-id="edge-0" data-label-kind="center" x="261.66" y="168.75" width="54.98" height="28.00" rx="2" ry="2" fill="rgba(248,250,252, 0.92)" fill-opacity="0.85" stroke="#7B88A8" stroke-opacity="0.35" stroke-width="0.8"/><g class="edgeLabel" data-edge-id="edge-0" data-label-kind="center"><text x="289.14" y="186.75" text-anchor="middle" font-family="trebuchet ms,verdana,arial,sans-serif" font-size="16" fill="#333333"><tspan x="289.14" dy="0.00">allows</tspan></text></g><path id="edge-1" class="edgePath" data-edge-id="edge-1" d="M 125.792,158.150 L 184.950,207.350" fill="none" stroke="#2F3B4D" stroke-width="1"    stroke-linecap="round" stroke-linejoin="round" /><g transform="translate(125.79 158.15) rotate(39.75)"><path d="M 0 -6 L 0 6 M 5 -6 L 5 6" fill="none" stroke="#2F3B4D" stroke-width="1" stroke-linejoin="round" stroke-linecap="round"/></g><g transform="translate(184.95 207.35) rotate(39.75)"><g><circle cx="-4" cy="0" r="4" fill="none" stroke="#2F3B4D" stroke-width="1"/><path d="M 4 0 L 12 -6 M 4 0 L 12 6" fill="none" stroke="#2F3B4D" stroke-width="1" stroke-linejoin="round" stroke-linecap="round"/></g></g><rect data-edge-id="edge-1" data-label-kind="center" x="145.31" y="168.75" width="20.13" height="28.00" rx="2" ry="2" fill="rgba(248,250,252, 0.92)" fill-opacity="0.85" stroke="#7B88A8" stroke-opacity="0.35" stroke-width="0.8"/><g class="edgeLabel" data-edge-id="edge-1" data-label-kind="center"><text x="155.37" y="186.75" text-anchor="middle" font-family="trebuchet ms,verdana,arial,sans-serif" font-size="16" fill="#333333"><tspan x="155.37" dy="0.00">is</tspan></text></g><rect x="225.06" y="8.00" width="255.29" height="150.15" rx="6.00" ry="6.00" fill="#FFFFFF" stroke="#7B88A8" stroke-width="1.2"/><rect x="225.06" y="8.00" width="255.29" height="33.60" rx="6.00" ry="6.00" fill="#FFFFDE"/><text x="352.70" y="28.80" text-anchor="middle" font-family="trebuchet ms,verdana,arial,sans-serif" font-size="16" fill="#333333"><tspan x="352.70" dy="0.00">CAR</tspan></text><line x1="225.06" y1="41.60" x2="480.34" y2="41.60" stroke="#AAAA33" stroke-width="1.0" stroke-opacity="0.6"/><line x1="399.62" y1="41.60" x2="399.62" y2="158.15" stroke="#AAAA33" stroke-width="1.0" stroke-opacity="0.45"/><text x="237.86" y="57.60" text-anchor="start" font-family="trebuchet ms,verdana,arial,sans-serif" font-size="16" fill="#333333"><tspan x="237.86" dy="0.00">registrationNumber</tspan></text><text x="467.54" y="57.60" text-anchor="end" font-family="trebuchet ms,verdana,arial,sans-serif" font-size="16" fill="#2F3B4D"><tspan x="467.54" dy="0.00">string</tspan></text><line x1="225.06" y1="65.60" x2="480.34" y2="65.60" stroke="#AAAA33" stroke-width="1.0" stroke-opacity="0.35"/><text x="237.86" y="81.60" text-anchor="start" font-family="trebuchet ms,verdana,arial,sans-serif" font-size="16" fill="#333333"><tspan x="237.86" dy="0.00">make</tspan></text><text x="467.54" y="81.60" text-anchor="end" font-family="trebuchet ms,verdana,arial,sans-serif" font-size="16" fill="#2F3B4D"><tspan x="467.54" dy="0.00">string</tspan></text><line x1="225.06" y1="89.60" x2="480.34" y2="89.60" stroke="#AAAA33" stroke-width="1.0" stroke-opacity="0.35"/><text x="237.86" y="105.60" text-anchor="start" font-family="trebuchet ms,verdana,arial,sans-serif" font-size="16" fill="#333333"><tspan x="237.86" dy="0.00">model</tspan></text><text x="467.54" y="105.60" text-anchor="end" font-family="trebuchet ms,verdana,arial,sans-serif" font-size="16" fill="#2F3B4D"><tspan x="467.54" dy="0.00">string</tspan></text><rect x="133.52" y="207.35" width="182.20" height="49.35" rx="6.00" ry="6.00" fill="#FFFFFF" stroke="#7B88A8" stroke-width="1.2"/><rect x="133.52" y="207.35" width="182.20" height="49.35" rx="6.00" ry="6.00" fill="#FFFFDE"/><text x="224.61" y="236.02" text-anchor="middle" font-family="trebuchet ms,verdana,arial,sans-serif" font-size="16" fill="#333333"><tspan x="224.61" dy="0.00">NAMED-DRIVER</tspan></text><rect x="8.00" y="8.00" width="177.06" height="150.15" rx="6.00" ry="6.00" fill="#FFFFFF" stroke="#7B88A8" stroke-width="1.2"/><rect x="8.00" y="8.00" width="177.06" height="33.60" rx="6.00" ry="6.00" fill="#FFFFDE"/><text x="96.53" y="28.80" text-anchor="middle" font-family="trebuchet ms,verdana,arial,sans-serif" font-size="16" fill="#333333"><tspan x="96.53" dy="0.00">PERSON</tspan></text><line x1="8.00" y1="41.60" x2="185.06" y2="41.60" stroke="#AAAA33" stroke-width="1.0" stroke-opacity="0.6"/><line x1="104.33" y1="41.60" x2="104.33" y2="158.15" stroke="#AAAA33" stroke-width="1.0" stroke-opacity="0.45"/><text x="20.80" y="57.60" text-anchor="start" font-family="trebuchet ms,verdana,arial,sans-serif" font-size="16" fill="#333333"><tspan x="20.80" dy="0.00">firstName</tspan></text><text x="172.26" y="57.60" text-anchor="end" font-family="trebuchet ms,verdana,arial,sans-serif" font-size="16" fill="#2F3B4D"><tspan x="172.26" dy="0.00">string</tspan></text><line x1="8.00" y1="65.60" x2="185.06" y2="65.60" stroke="#AAAA33" stroke-width="1.0" stroke-opacity="0.35"/><text x="20.80" y="81.60" text-anchor="start" font-family="trebuchet ms,verdana,arial,sans-serif" font-size="16" fill="#333333"><tspan x="20.80" dy="0.00">lastName</tspan></text><text x="172.26" y="81.60" text-anchor="end" font-family="trebuchet ms,verdana,arial,sans-serif" font-size="16" fill="#2F3B4D"><tspan x="172.26" dy="0.00">string</tspan></text><line x1="8.00" y1="89.60" x2="185.06" y2="89.60" stroke="#AAAA33" stroke-width="1.0" stroke-opacity="0.35"/><text x="20.80" y="105.60" text-anchor="start" font-family="trebuchet ms,verdana,arial,sans-serif" font-size="16" fill="#333333"><tspan x="20.80" dy="0.00">age</tspan></text><text x="172.26" y="105.60" text-anchor="end" font-family="trebuchet ms,verdana,arial,sans-serif" font-size="16" fill="#2F3B4D"><tspan x="172.26" dy="0.00">int</tspan></text></svg>