<svg id="my-svg" width="100%" xmlns="http://www.w3.org/2000/svg" xmlns:xlink="http://www.w3.org/1999/xlink" class="flowchart" style="max-width: 59.3812px; background-color: white;" viewBox="0 -0.004795074462890625 59.381248474121094 96.99040985107422" role="graphics-document document" aria-roledescription="flowchart-v2"><style>#my-svg{font-family:"trebuchet ms",verdana,arial,sans-serif;font-size:16px;fill:#333;}@keyframes edge-animation-frame{from{stroke-dashoffset:0;}}@keyframes dash{to{stroke-dashoffset:0;}}#my-svg .edge-animation-slow{stroke-dasharray:9,5!important;stroke-dashoffset:900;animation:dash 50s linear infinite;stroke-linecap:round;}#my-svg .edge-animation-fast{stroke-dasharray:9,5!important;stroke-dashoffset:900;animation:dash 20s linear infinite;stroke-linecap:round;}#my-svg .error-icon{fill:#552222;}#my-svg .error-text{fill:#552222;stroke:#552222;}#my-svg .edge-thickness-normal{stroke-width:1px;}#my-svg .edge-thickness-thick{stroke-width:3.5px;}#my-svg .edge-pattern-solid{stroke-dasharray:0;}#my-svg .edge-thickness-invisible{stroke-width:0;fill:none;}#my-svg .edge-pattern-dashed{stroke-dasharray:3;}#my-svg .edge-pattern-dotted{stroke-dasharray:2;}#my-svg .marker{fill:#333333;stroke:#333333;}#my-svg .marker.cross{stroke:#333333;}#my-svg svg{font-family:"trebuchet ms",verdana,arial,sans-serif;font-size:16px;}#my-svg p{margin:0;}#my-svg .label{font-family:"trebuchet ms",verdana,arial,sans-serif;color:#333;}#my-svg .cluster-label text{fill:#333;}#my-svg .cluster-label span{color:#333;}#my-svg .cluster-label span p{background-color:transparent;}#my-svg .label text,#my-svg span{fill:#333;color:#333;}#my-svg .node rect,#my-svg .node circle,#my-svg .node ellipse,#my-svg .node polygon,#my-svg .node path{fill:#ECECFF;stroke:#9370DB;stroke-width:1px;}#my-svg .rough-node .label text,#my-svg .node .label text,#my-svg .image-shape .label,#my-svg .icon-shape .label{text-anchor:middle;}#my-svg .node .katex path{fill:#000;stroke:#000;stroke-width:1px;}#my-svg .rough-node .label,#my-svg .node .label,#my-svg .image-shape .label,#my-svg .icon-shape .label{text-align:center;}#my-svg .node.clickable{cursor:pointer;}#my-svg .root .anchor path{fill:#333333!important;stroke-width:0;stroke:#333333;}#my-svg .arrowheadPath{fill:#333333;}#my-svg .edgePath .path{stroke:#333333;stroke-width:2.0px;}#my-svg .flowchart-link{stroke:#333333;fill:none;}#my-svg .edgeLabel{background-color:rgba(232,232,232, 0.8);text-align:center;}#my-svg .edgeLabel p{background-color:rgba(232,232,232, 0.8);}#my-svg .edgeLabel rect{opacity:0.5;background-color:rgba(232,232,232, 0.8);fill:rgba(232,232,232, 0.8);}#my-svg .labelBkg{background-color:rgba(232, 232, 232, 0.5);}#my-svg .cluster rect{fill:#ffffde;stroke:#aaaa33;stroke-width:1px;}#my-svg .cluster text{fill:#333;}#my-svg .cluster span{color:#333;}#my-svg div.mermaidTooltip{position:absolute;text-align:center;max-width:200px;padding:2px;font-family:"trebuchet ms",verdana,arial,sans-serif;font-size:12px;background:hsl(80, 100%, 96.2745098039%);border:1px solid #aaaa33;border-radius:2px;pointer-events:none;z-index:100;}#my-svg .flowchartTitleText{text-anchor:middle;font-size:18px;fill:#333;}#my-svg rect.text{fill:none;stroke-width:0;}#my-svg .icon-shape,#my-svg .image-shape{background-color:rgba(232,232,232, 0.8);text-align:center;}#my-svg .icon-shape p,#my-svg .image-shape p{background-color:rgba(232,232,232, 0.8);padding:2px;}#my-svg .icon-shape .label rect,#my-svg .image-shape .label rect{opacity:0.5;background-color:rgba(232,232,232, 0.8);fill:rgba(232,232,232, 0.8);}#my-svg .label-icon{display:inline-block;height:1em;overflow:visible;vertical-align:-0.125em;}#my-svg .node .label-icon path{fill:currentColor;stroke:revert;stroke-width:revert;}#my-svg :root{--mermaid-font-family:"trebuchet ms",verdana,arial,sans-serif;}</style><g><marker id="my-svg_flowchart-v2-pointEnd" class="marker flowchart-v2" viewBox="0 0 10 10" refX="5" refY="5" markerUnits="userSpaceOnUse" markerWidth="8" markerHeight="8" orient="auto"><path d="M 0 0 L 10 5 L 0 10 z" class="arrowMarkerPath" style="stroke-width: 1; stroke-dasharray: 1, 0;"/></marker><marker id="my-svg_flowchart-v2-pointStart" class="marker flowchart-v2" viewBox="0 0 10 10" refX="4.5" refY="5" markerUnits="userSpaceOnUse" markerWidth="8" markerHeight="8" orient="auto"><path d="M 0 5 L 10 10 L 10 0 z" class="arrowMarkerPath" style="stroke-width: 1; stroke-dasharray: 1, 0;"/></marker><marker id="my-svg_flowchart-v2-circleEnd" class="marker flowchart-v2" viewBox="0 0 10 10" refX="11" refY="5" markerUnits="userSpaceOnUse" markerWidth="11" markerHeight="11" orient="auto"><circle cx="5" cy="5" r="5" class="arrowMarkerPath" style="stroke-width: 1; stroke-dasharray: 1, 0;"/></marker><marker id="my-svg_flowchart-v2-circleStart" class="marker flowchart-v2" viewBox="0 0 10 10" refX="-1" refY="5" markerUnits="userSpaceOnUse" markerWidth="11" markerHeight="11" orient="auto"><circle cx="5" cy="5" r="5" class="arrowMarkerPath" style="stroke-width: 1; stroke-dasharray: 1, 0;"/></marker><marker id="my-svg_flowchart-v2-crossEnd" class="marker cross flowchart-v2" viewBox="0 0 11 11" refX="12" refY="5.2" markerUnits="userSpaceOnUse" markerWidth="11" markerHeight="11" orient="auto"><path d="M 1,1 l 9,9 M 10,1 l -9,9" class="arrowMarkerPath" style="stroke-width: 2; stroke-dasharray: 1, 0;"/></marker><marker id="my-svg_flowchart-v2-crossStart" class="marker cross flowchart-v2" viewBox="0 0 11 11" refX="-1" refY="5.2" markerUnits="userSpaceOnUse" markerWidth="11" markerHeight="11" orient="auto"><path d="M 1,1 l 9,9 M 10,1 l -9,9" class="arrowMarkerPath" style="stroke-width: 2; stroke-dasharray: 1, 0;"/></marker><g class="root"><g class="clusters"/><g class="edgePaths"/><g class="edgeLabels"/><g class="nodes"><g class="node default" id="flowchart-A-0" transform="translate(29.690624237060547, 48.49520492553711)"><g class="basic label-container" transform="translate(0,-6.75)"><g><path d="M-21.690625 33.75 C-21.690625 33.75, -21.690625 33.75, -21.690625 33.75 C-21.431236076390043 34.155061728308006, -21.17184715278008 34.56012345661602, -20.823 35.1048831504914 C-20.498285171497262 35.60683738548085, -20.17357034299452 36.1087916204703, -19.955375 36.4460847369445 C-19.631688773012648 36.93629206458847, -19.308002546025293 37.426499392232444, -19.08775 37.76006135128997 C-18.74829859484974 38.25830154151765, -18.408847189699483 38.75654173174534, -18.220125 39.033544502302234 C-17.98705251090225 39.36131140503149, -17.753980021804498 39.68907830776075, -17.3525 40.25367460037316 C-17.107384249255446 40.579824032802506, -16.862268498510893 40.90597346523185, -16.484875000000002 41.40813081321121 C-16.14926037130332 41.824784085653675, -15.813645742606635 42.24143735809615, -15.61725 42.485255481187494 C-15.355707730778375 42.78336056979671, -15.094165461556752 43.08146565840593, -14.749625 43.474171835986745 C-14.560084615535889 43.668757964699694, -14.370544231071776 43.86334409341265, -13.882000000000001 44.364893833844356 C-13.540364299866036 44.67341756223237, -13.198728599732071 44.98194129062039, -13.014375 45.1484269942772 C-12.830834146672208 45.28982981486204, -12.647293293344417 45.43123263544688, -12.14675 45.816859226042055 C-11.94653738711348 45.94298803710013, -11.74632477422696 46.06911684815821, -11.279125 46.36344072316426 C-11.0941864454291 46.452797704090685, -10.909247890858202 46.54215468501711, -10.4115 46.782652124249196 C-10.187123632246838 46.857030416570936, -9.962747264493677 46.93140870889268, -9.543875 47.07026024680622 C-9.277124675357872 47.117330849057886, -9.010374350715743 47.16440145130955, -8.676250000000001 47.22336083378167 C-8.476100465762798 47.227293360495864, -8.275950931525596 47.231225887210066, -7.808624999999999 47.24040788064795 C-7.461777592839931 47.19276425569167, -7.114930185679861 47.145120630735384, -6.940999999999999 47.12122924690479 C-6.671410997475429 47.04224379318728, -6.401821994950859 46.96325833946977, -6.073375 46.8670283943481 C-5.751550419760045 46.72360761195589, -5.42972583952009 46.580186829563694, -5.205749999999998 46.48037223455367 C-4.994437614993192 46.354892187884, -4.783125229986386 46.229412141214326, -4.338124999999998 45.96516520829126 C-4.119711590272207 45.804417130235805, -3.901298180544415 45.64366905218034, -3.4705000000000013 45.326609858614304 C-3.2147645103076656 45.103936701077174, -2.95902902061533 44.881263543540044, -2.602875000000001 44.57115429575684 C-2.2899172845509193 44.25924183060989, -1.9769595691018378 43.947329365462934, -1.7352500000000006 43.706427084335346 C-1.4123836678838488 43.34722561467637, -1.089517335767697 42.98802414501739, -0.8676250000000003 42.741160210362395 C-0.5464419732782388 42.35022135568512, -0.22525894655647727 41.95928250100785, 0 41.68510090594839 C0.22624625677587418 41.388822893593456, 0.45249251355174835 41.09254488123853, 0.8676250000000003 40.548913222082774 C1.1701118206960355 40.12885952168435, 1.4725986413920709 39.70880582128592, 1.7352500000000006 39.34407034340934 C1.9588099851393008 39.01906440626648, 2.182369970278601 38.69405846912362, 2.602875000000001 38.08273873239733 C2.78506837105161 37.80868305741713, 2.9672617421032195 37.534627382436916, 3.4704999999999977 36.77765527281665 C3.782776071947518 36.29692500032547, 4.095052143895038 35.81619472783429, 4.338124999999998 35.44199865311811 C4.520888254704195 35.157046516726716, 4.703651509408391 34.87209438033531, 5.205749999999998 34.08925628848506 C5.452939680797471 33.70287879204664, 5.700129361594944 33.31650129560822, 6.073375000000002 32.73308812537291 C6.332300719935015 32.331430754178974, 6.591226439870027 31.92977338298504, 6.9410000000000025 31.387188703833772 C7.278206316029877 30.873372041292008, 7.615412632059751 30.359555378750244, 7.808625000000003 30.06514887051611 C7.994155392600775 29.790404509903315, 8.179685785201547 29.515660149290518, 8.67625 28.78031853875685 C8.885696112473092 28.482272790170395, 9.095142224946182 28.184227041583938, 9.543875 27.545671881609916 C9.749254464517554 27.268243475273273, 9.954633929035106 26.990815068936634, 10.4115 26.37367631908737 C10.648051733260253 26.074448172157755, 10.884603466520506 25.775220025228144, 11.279125000000004 25.27616662257554 C11.471218527976655 25.05212125958181, 11.663312055953305 24.828075896588075, 12.14675 24.264225407715536 C12.408720561661958 23.987601951195916, 12.670691123323916 23.7109784946763, 13.014375000000005 23.348071222526844 C13.30685791055051 23.07463796735898, 13.599340821101016 22.80120471219112, 13.882000000000001 22.536955360856528 C14.08000196293116 22.37768957250995, 14.278003925862318 22.218423784163374, 14.749624999999998 21.839068443128134 C15.093087430250847 21.61041252966648, 15.436549860501696 21.381756616204825, 15.617250000000002 21.261457707734817 C15.802278404185188 21.165171099414096, 15.987306808370372 21.068884491093378, 16.484875 20.80995584826543 C16.7696276522266 20.704658909582516, 17.0543803044532 20.599361970899604, 17.352500000000003 20.4891221151627 C17.57983935441517 20.44014289087822, 17.807178708830342 20.39116366659374, 18.220125 20.302196276567173 C18.41795987744674 20.290537586304318, 18.615794754893486 20.278878896041462, 19.087749999999996 20.25106590324848 C19.373209305873914 20.279091634028475, 19.658668611747828 20.30711736480847, 19.955375 20.33624730797989 C20.196167448547893 20.397479713734963, 20.436959897095786 20.458712119490038, 20.822999999999997 20.556880331829383 C21.0698371704264 20.65755168882886, 21.316674340852803 20.758223045828338, 21.690625 20.910737030015426 C21.690625 6.322824458452285, 21.690625 -8.265088113110856, 21.690625 -33.75 C8.91910575743855 -33.75, -3.852413485122902 -33.75, -21.690625 -33.75 C-21.690625 -8.71321952135509, -21.690625 16.32356095728982, -21.690625 33.75" stroke="none" stroke-width="0" fill="#ECECFF" style=""/><path d="M-21.690625 33.75 C-21.690625 33.75, -21.690625 33.75, -21.690625 33.75 M-21.690625 33.75 C-21.690625 33.75, -21.690625 33.75, -21.690625 33.75 M-21.690625 33.75 C-21.434476502550698 34.15000147900044, -21.178328005101392 34.55000295800087, -20.823 35.1048831504914 M-21.690625 33.75 C-21.45407287635118 34.11939978279181, -21.217520752702363 34.48879956558362, -20.823 35.1048831504914 M-20.823 35.1048831504914 C-20.64256178932618 35.38381012287289, -20.462123578652363 35.66273709525437, -19.955375 36.4460847369445 M-20.823 35.1048831504914 C-20.610772419295895 35.43295111525665, -20.398544838591793 35.761019080021896, -19.955375 36.4460847369445 M-19.955375 36.4460847369445 C-19.711339371183097 36.81566503872522, -19.467303742366198 37.18524534050594, -19.08775 37.76006135128997 M-19.955375 36.4460847369445 C-19.756828350799314 36.74677415219459, -19.558281701598624 37.04746356744467, -19.08775 37.76006135128997 M-19.08775 37.76006135128997 C-18.899498618206696 38.03637307913155, -18.711247236413392 38.312684806973124, -18.220125 39.033544502302234 M-19.08775 37.76006135128997 C-18.74699740052034 38.260211409323084, -18.40624480104068 38.76036146735619, -18.220125 39.033544502302234 M-18.220125 39.033544502302234 C-17.880005572678456 39.51185016455685, -17.539886145356913 39.99015582681147, -17.3525 40.25367460037316 M-18.220125 39.033544502302234 C-18.033689293808578 39.295726685249086, -17.84725358761716 39.55790886819593, -17.3525 40.25367460037316 M-17.3525 40.25367460037316 C-17.134985708608312 40.543097709525384, -16.917471417216625 40.832520818677615, -16.484875000000002 41.40813081321121 M-17.3525 40.25367460037316 C-17.169593484838796 40.4970488263307, -16.986686969677592 40.740423052288236, -16.484875000000002 41.40813081321121 M-16.484875000000002 41.40813081321121 C-16.18552419764806 41.77976387310664, -15.886173395296115 42.15139693300206, -15.61725 42.485255481187494 M-16.484875000000002 41.40813081321121 C-16.14886672223844 41.82527278655361, -15.81285844447688 42.24241475989602, -15.61725 42.485255481187494 M-15.61725 42.485255481187494 C-15.318221001685858 42.8260878304076, -15.019192003371714 43.1669201796277, -14.749625 43.474171835986745 M-15.61725 42.485255481187494 C-15.399020871415466 42.733992382902905, -15.18079174283093 42.98272928461832, -14.749625 43.474171835986745 M-14.749625 43.474171835986745 C-14.501596221226881 43.72880337536721, -14.253567442453765 43.983434914747676, -13.882000000000001 44.364893833844356 M-14.749625 43.474171835986745 C-14.429155202044207 43.80317284297503, -14.108685404088412 44.132173849963316, -13.882000000000001 44.364893833844356 M-13.882000000000001 44.364893833844356 C-13.648051182548656 44.57616789385551, -13.41410236509731 44.78744195386667, -13.014375 45.1484269942772 M-13.882000000000001 44.364893833844356 C-13.701094125637669 44.52826597212989, -13.520188251275334 44.691638110415425, -13.014375 45.1484269942772 M-13.014375 45.1484269942772 C-12.840221556709007 45.28259760343269, -12.666068113418016 45.41676821258818, -12.14675 45.816859226042055 M-13.014375 45.1484269942772 C-12.817128739509025 45.30038868061318, -12.619882479018049 45.45235036694916, -12.14675 45.816859226042055 M-12.14675 45.816859226042055 C-11.904417124755318 45.96952272208374, -11.662084249510633 46.12218621812543, -11.279125 46.36344072316426 M-12.14675 45.816859226042055 C-11.912975278904444 45.96413130446964, -11.679200557808887 46.11140338289723, -11.279125 46.36344072316426 M-11.279125 46.36344072316426 C-11.076437961169553 46.46137326029709, -10.873750922339104 46.559305797429914, -10.4115 46.782652124249196 M-11.279125 46.36344072316426 C-10.98553085317556 46.50529695556951, -10.691936706351118 46.64715318797477, -10.4115 46.782652124249196 M-10.4115 46.782652124249196 C-10.12587579600842 46.87733339907054, -9.840251592016841 46.97201467389187, -9.543875 47.07026024680622 M-10.4115 46.782652124249196 C-10.18300321235128 46.858396290341645, -9.954506424702561 46.93414045643409, -9.543875 47.07026024680622 M-9.543875 47.07026024680622 C-9.362163098370873 47.102325019951124, -9.180451196741746 47.13438979309602, -8.676250000000001 47.22336083378167 M-9.543875 47.07026024680622 C-9.32334462439262 47.1091749045805, -9.102814248785238 47.14808956235477, -8.676250000000001 47.22336083378167 M-8.676250000000001 47.22336083378167 C-8.342821608750357 47.22991201593085, -8.009393217500715 47.236463198080024, -7.808624999999999 47.24040788064795 M-8.676250000000001 47.22336083378167 C-8.381907216023043 47.229144064132576, -8.087564432046085 47.234927294483484, -7.808624999999999 47.24040788064795 M-7.808624999999999 47.24040788064795 C-7.586638097755371 47.209915334077266, -7.364651195510741 47.17942278750658, -6.940999999999999 47.12122924690479 M-7.808624999999999 47.24040788064795 C-7.593268320325552 47.210826074163506, -7.377911640651105 47.18124426767906, -6.940999999999999 47.12122924690479 M-6.940999999999999 47.12122924690479 C-6.693157867016674 47.048615293291384, -6.44531573403335 46.97600133967798, -6.073375 46.8670283943481 M-6.940999999999999 47.12122924690479 C-6.672177404082653 47.042468338599136, -6.403354808165308 46.96370743029348, -6.073375 46.8670283943481 M-6.073375 46.8670283943481 C-5.83079102964446 46.7589211055939, -5.588207059288919 46.65081381683971, -5.205749999999998 46.48037223455367 M-6.073375 46.8670283943481 C-5.820166748959221 46.75418640618997, -5.566958497918441 46.64134441803185, -5.205749999999998 46.48037223455367 M-5.205749999999998 46.48037223455367 C-4.8706678505971235 46.2813960896207, -4.535585701194249 46.08241994468772, -4.338124999999998 45.96516520829126 M-5.205749999999998 46.48037223455367 C-4.931973497959715 46.31780018156223, -4.6581969959194325 46.15522812857079, -4.338124999999998 45.96516520829126 M-4.338124999999998 45.96516520829126 C-4.1634903995005 45.83663749368224, -3.988855799001002 45.70810977907322, -3.4705000000000013 45.326609858614304 M-4.338124999999998 45.96516520829126 C-4.152767691980788 45.82874578672389, -3.9674103839615777 45.692326365156525, -3.4705000000000013 45.326609858614304 M-3.4705000000000013 45.326609858614304 C-3.2091550553804913 45.099052455084575, -2.9478101107609813 44.87149505155484, -2.602875000000001 44.57115429575684 M-3.4705000000000013 45.326609858614304 C-3.1371375529003713 45.03634561414326, -2.803775105800741 44.74608136967221, -2.602875000000001 44.57115429575684 M-2.602875000000001 44.57115429575684 C-2.3505177228247325 44.31963986893224, -2.0981604456494645 44.06812544210765, -1.7352500000000006 43.706427084335346 M-2.602875000000001 44.57115429575684 C-2.2918956437871674 44.26121358230624, -1.9809162875743336 43.951272868855646, -1.7352500000000006 43.706427084335346 M-1.7352500000000006 43.706427084335346 C-1.4753000476134424 43.417222557114954, -1.215350095226884 43.12801802989457, -0.8676250000000003 42.741160210362395 M-1.7352500000000006 43.706427084335346 C-1.3990849874764533 43.3324303106397, -1.062919974952906 42.95843353694406, -0.8676250000000003 42.741160210362395 M-0.8676250000000003 42.741160210362395 C-0.5779209321646497 42.388537042099486, -0.28821686432929916 42.03591387383657, 0 41.68510090594839 M-0.8676250000000003 42.741160210362395 C-0.5836305736959473 42.39548672665675, -0.29963614739189437 42.049813242951096, 0 41.68510090594839 M0 41.68510090594839 C0.2918093054321363 41.30296560686252, 0.5836186108642726 40.92083030777666, 0.8676250000000003 40.548913222082774 M0 41.68510090594839 C0.2525106786573152 41.35442864185389, 0.5050213573146304 41.02375637775939, 0.8676250000000003 40.548913222082774 M0.8676250000000003 40.548913222082774 C1.1121756046213025 40.20931367797875, 1.3567262092426047 39.869714133874716, 1.7352500000000006 39.34407034340934 M0.8676250000000003 40.548913222082774 C1.1592460136214533 40.143948517823056, 1.4508670272429063 39.738983813563344, 1.7352500000000006 39.34407034340934 M1.7352500000000006 39.34407034340934 C1.9834778057460933 38.98320294318494, 2.231705611492186 38.62233554296054, 2.602875000000001 38.08273873239733 M1.7352500000000006 39.34407034340934 C1.917389226018199 39.07928087401644, 2.0995284520363975 38.814491404623546, 2.602875000000001 38.08273873239733 M2.602875000000001 38.08273873239733 C2.9275247732594876 37.59439981957488, 3.252174546518974 37.10606090675244, 3.4704999999999977 36.77765527281665 M2.602875000000001 38.08273873239733 C2.940244981763877 37.57526605357979, 3.277614963527753 37.067793374762246, 3.4704999999999977 36.77765527281665 M3.4704999999999977 36.77765527281665 C3.713142062819297 36.40412237851104, 3.955784125638596 36.03058948420543, 4.338124999999998 35.44199865311811 M3.4704999999999977 36.77765527281665 C3.6828754452926025 36.450716019836975, 3.8952508905852072 36.1237767668573, 4.338124999999998 35.44199865311811 M4.338124999999998 35.44199865311811 C4.670769780500778 34.92336135364257, 5.0034145610015575 34.404724054167026, 5.205749999999998 34.08925628848506 M4.338124999999998 35.44199865311811 C4.676361904787045 34.91464249073483, 5.0145988095740925 34.38728632835155, 5.205749999999998 34.08925628848506 M5.205749999999998 34.08925628848506 C5.549170593143867 33.55246208018216, 5.892591186287734 33.01566787187926, 6.073375000000002 32.73308812537291 M5.205749999999998 34.08925628848506 C5.550761928022912 33.54997469484885, 5.895773856045826 33.010693101212645, 6.073375000000002 32.73308812537291 M6.073375000000002 32.73308812537291 C6.416868281147151 32.200245701055344, 6.7603615622943 31.66740327673778, 6.9410000000000025 31.387188703833772 M6.073375000000002 32.73308812537291 C6.312482727041451 32.36217332749292, 6.551590454082901 31.991258529612935, 6.9410000000000025 31.387188703833772 M6.9410000000000025 31.387188703833772 C7.1364742874317 31.089335605578086, 7.331948574863398 30.7914825073224, 7.808625000000003 30.06514887051611 M6.9410000000000025 31.387188703833772 C7.189922154313918 31.00789465006833, 7.438844308627834 30.62860059630289, 7.808625000000003 30.06514887051611 M7.808625000000003 30.06514887051611 C8.004223250852993 29.77549543091377, 8.199821501705983 29.485841991311432, 8.67625 28.78031853875685 M7.808625000000003 30.06514887051611 C8.01442758537901 29.760384249799298, 8.22023017075802 29.45561962908248, 8.67625 28.78031853875685 M8.67625 28.78031853875685 C9.022667572257774 28.28735983244362, 9.369085144515546 27.79440112613039, 9.543875 27.545671881609916 M8.67625 28.78031853875685 C8.959536160359647 28.377197016320277, 9.242822320719297 27.974075493883706, 9.543875 27.545671881609916 M9.543875 27.545671881609916 C9.862300529656334 27.115539845590767, 10.180726059312668 26.685407809571615, 10.4115 26.37367631908737 M9.543875 27.545671881609916 C9.723748603219827 27.30269701944184, 9.903622206439653 27.05972215727376, 10.4115 26.37367631908737 M10.4115 26.37367631908737 C10.698075643341006 26.011169997403616, 10.984651286682011 25.64866367571986, 11.279125000000004 25.27616662257554 M10.4115 26.37367631908737 C10.734324577758395 25.965316596439713, 11.057149155516791 25.556956873792053, 11.279125000000004 25.27616662257554 M11.279125000000004 25.27616662257554 C11.556581798089569 24.95255910858053, 11.834038596179132 24.62895159458552, 12.14675 24.264225407715536 M11.279125000000004 25.27616662257554 C11.590297940198731 24.913234799338245, 11.901470880397458 24.550302976100944, 12.14675 24.264225407715536 M12.14675 24.264225407715536 C12.453400420706652 23.94042299731903, 12.760050841413303 23.61662058692252, 13.014375000000005 23.348071222526844 M12.14675 24.264225407715536 C12.41027993780318 23.98595535390093, 12.67380987560636 23.707685300086325, 13.014375000000005 23.348071222526844 M13.014375000000005 23.348071222526844 C13.266174782638354 23.112671369291743, 13.517974565276702 22.877271516056645, 13.882000000000001 22.536955360856528 M13.014375000000005 23.348071222526844 C13.230322723376133 23.14618835409639, 13.44627044675226 22.94430548566594, 13.882000000000001 22.536955360856528 M13.882000000000001 22.536955360856528 C14.148949281940686 22.322230783345052, 14.41589856388137 22.10750620583358, 14.749624999999998 21.839068443128134 M13.882000000000001 22.536955360856528 C14.155596554385657 22.31688395207818, 14.42919310877131 22.096812543299833, 14.749624999999998 21.839068443128134 M14.749624999999998 21.839068443128134 C15.078005669348203 21.62045302758436, 15.406386338696406 21.40183761204059, 15.617250000000002 21.261457707734817 M14.749624999999998 21.839068443128134 C15.073540130849684 21.623425905240097, 15.39745526169937 21.407783367352057, 15.617250000000002 21.261457707734817 M15.617250000000002 21.261457707734817 C15.954316326122697 21.086052350571396, 16.291382652245392 20.910646993407976, 16.484875 20.80995584826543 M15.617250000000002 21.261457707734817 C15.960333070439335 21.08292130749759, 16.303416140878667 20.90438490726036, 16.484875 20.80995584826543 M16.484875 20.80995584826543 C16.798524501075335 20.69397332088804, 17.112174002150667 20.57799079351065, 17.352500000000003 20.4891221151627 M16.484875 20.80995584826543 C16.752973728835695 20.710817261880237, 17.021072457671394 20.611678675495046, 17.352500000000003 20.4891221151627 M17.352500000000003 20.4891221151627 C17.668600802847227 20.421019642720186, 17.98470160569445 20.35291717027767, 18.220125 20.302196276567173 M17.352500000000003 20.4891221151627 C17.565427892898963 20.443247774358184, 17.778355785797928 20.39737343355367, 18.220125 20.302196276567173 M18.220125 20.302196276567173 C18.426498957819245 20.290034366172065, 18.63287291563849 20.27787245577696, 19.087749999999996 20.25106590324848 M18.220125 20.302196276567173 C18.549887488915118 20.282762904817016, 18.879649977830233 20.263329533066855, 19.087749999999996 20.25106590324848 M19.087749999999996 20.25106590324848 C19.42274318099163 20.283954754690416, 19.757736361983266 20.316843606132355, 19.955375 20.33624730797989 M19.087749999999996 20.25106590324848 C19.31087681292251 20.27297197483238, 19.534003625845024 20.294878046416283, 19.955375 20.33624730797989 M19.955375 20.33624730797989 C20.276923170497025 20.41801552024905, 20.598471340994053 20.499783732518214, 20.822999999999997 20.556880331829383 M19.955375 20.33624730797989 C20.20054903083554 20.398593929841425, 20.445723061671078 20.460940551702958, 20.822999999999997 20.556880331829383 M20.822999999999997 20.556880331829383 C21.12348635053336 20.679432249823574, 21.42397270106672 20.801984167817764, 21.690625 20.910737030015426 M20.822999999999997 20.556880331829383 C21.04963277063672 20.649311421203553, 21.27626554127344 20.741742510577723, 21.690625 20.910737030015426 M21.690625 20.910737030015426 C21.690625 0.8971050358358141, 21.690625 -19.116526958343798, 21.690625 -33.75 M21.690625 20.910737030015426 C21.690625 3.4755349868752567, 21.690625 -13.959667056264912, 21.690625 -33.75 M21.690625 -33.75 C11.433256092023136 -33.75, 1.175887184046271 -33.75, -21.690625 -33.75 M21.690625 -33.75 C11.800724807083641 -33.75, 1.9108246141672822 -33.75, -21.690625 -33.75 M-21.690625 -33.75 C-21.690625 -9.639221584028924, -21.690625 14.471556831942152, -21.690625 33.75 M-21.690625 -33.75 C-21.690625 -18.397495504045942, -21.690625 -3.0449910080918805, -21.690625 33.75" stroke="#9370DB" stroke-width="1.3" fill="none" stroke-dasharray="0 0" style=""/></g><path d="M13.803125000000001 22.302 C15.85048094712636 17.844669245761793, 17.89783689425272 13.387338491523586, 21.690625 5.129999999999999 C21.690625 7.317490188817994, 21.690625 9.50498037763599, 21.690625 14.337 C21.690625 16.954817744249404, 21.690625 19.572635488498808, 21.690625 22.302 C21.646622735725984 22.273626379997115, 21.602620471451967 22.245252759994226, 21.532875 22.20027935836251 C21.492618721606764 22.174423676648335, 21.452362443213524 22.148567994934158, 21.375125 22.098960161625826 C21.330100442834215 22.07027063046271, 21.285075885668427 22.04158109929959, 21.217375 21.998442270371125 C21.17247180135752 21.970171077717733, 21.127568602715037 21.941899885064345, 21.059625 21.899122382792935 C21.027050625069286 21.878941775184884, 20.99447625013857 21.858761167576834, 20.901875 21.801392469112585 C20.853140899938317 21.771810872086085, 20.804406799876634 21.742229275059582, 20.744125 21.70563822465082 C20.690051883742946 21.673622594443753, 20.635978767485888 21.641606964236686, 20.586375 21.61223754766458 C20.543329801738405 21.58749413087819, 20.500284603476814 21.5627507140918, 20.428625 21.521559047955222 C20.372294239679217 21.49027861930651, 20.315963479358437 21.458998190657795, 20.270875 21.433960592134024 C20.210322823744367 21.40165098695082, 20.14977064748873 21.36934138176761, 20.113125 21.349787891286194 C20.053257421262003 21.319269750826948, 19.993389842524003 21.2887516103677, 19.955375 21.269373136607122 C19.899132210340685 21.242155744984473, 19.842889420681374 21.214938353361823, 19.797625 21.193033688395523 C19.74980622093003 21.171219575343326, 19.701987441860055 21.149405462291128, 19.639875 21.121070823577313 C19.60420014770917 21.105850546009517, 19.568525295418343 21.090630268441725, 19.482125 21.05376854670322 C19.446554373754623 21.039703531536, 19.41098374750925 21.02563851636878, 19.324375 20.991392469112583 C19.27828174287456 20.97467801433603, 19.23218848574912 20.957963559559477, 19.166625 20.934188760686734 C19.133239483192142 20.92322485488295, 19.099853966384288 20.912260949079165, 19.008875 20.88238317832894 C18.965754697808155 20.86975378076636, 18.922634395616306 20.85712438320378, 18.851125 20.836180175005047 C18.815922417285062 20.827160708254787, 18.780719834570128 20.818141241504524, 18.693375 20.795762092861032 C18.653467295395775 20.787040925119257, 18.613559590791553 20.77831975737748, 18.535625 20.76128844360185 C18.484593089202356 20.7521032933979, 18.433561178404712 20.742918143193954, 18.377875000000003 20.73289527897162 C18.31643294548365 20.724248356493696, 18.2549908909673 20.715601434015777, 18.220125 20.710694653819523 C18.177210209156673 20.70636360064686, 18.134295418313343 20.702032547474193, 18.062375 20.694774183870546 C18.027004892185438 20.692626756681978, 17.991634784370873 20.690479329493414, 17.904625000000003 20.6851966999462 C17.84808943065238 20.684051043835314, 17.791553861304756 20.682905387724432, 17.746875000000003 20.682 C17.713373204469296 20.682678891841334, 17.679871408938588 20.68335778368267, 17.589125000000003 20.6851966999462 C17.526604257266367 20.68899252503951, 17.464083514532735 20.69278835013282, 17.431375000000003 20.694774183870546 C17.3688930344373 20.70107999848287, 17.306411068874596 20.707385813095193, 17.273625000000003 20.710694653819523 C17.239132500448996 20.715548885534837, 17.20464000089799 20.72040311725015, 17.115875000000003 20.73289527897162 C17.076075975874378 20.740058640265573, 17.036276951748754 20.74722200155953, 16.958125000000003 20.76128844360185 C16.895738571856935 20.774921963997013, 16.83335214371387 20.78855548439218, 16.800375000000003 20.795762092861032 C16.744566592178547 20.810061102760585, 16.688758184357088 20.824360112660138, 16.642625000000002 20.836180175005047 C16.606694085215537 20.846703890854286, 16.57076317043107 20.85722760670352, 16.484875000000002 20.88238317832894 C16.432834903265064 20.89947330522155, 16.380794806530126 20.916563432114163, 16.327125000000002 20.934188760686734 C16.291643278328912 20.94705523333916, 16.256161556657826 20.959921705991583, 16.169375000000002 20.991392469112583 C16.10908786498684 21.015230662528104, 16.048800729973678 21.039068855943622, 16.011625000000002 21.05376854670322 C15.957732028325509 21.076761381576148, 15.903839056651014 21.099754216449078, 15.853875000000002 21.121070823577313 C15.807159443434353 21.142381665301823, 15.760443886868705 21.16369250702633, 15.696125000000002 21.193033688395523 C15.649004480441377 21.215836569299164, 15.601883960882752 21.238639450202804, 15.538375000000002 21.269373136607122 C15.494830495566209 21.291570414842717, 15.451285991132416 21.31376769307831, 15.380625000000002 21.34978789128619 C15.319388917725284 21.382462417019333, 15.258152835450565 21.415136942752476, 15.222875000000002 21.433960592134024 C15.18834747776629 21.453133699145152, 15.15381995553258 21.472306806156276, 15.065125000000002 21.521559047955222 C15.01215878231804 21.5520053056711, 14.959192564636075 21.58245156338698, 14.907375000000002 21.61223754766458 C14.868250997847422 21.63540210099239, 14.82912699569484 21.6585666543202, 14.749625000000002 21.70563822465082 C14.690887613806332 21.741291816008243, 14.632150227612662 21.77694540736567, 14.591875000000002 21.801392469112585 C14.539307669151777 21.83395919308218, 14.486740338303552 21.866525917051774, 14.434125000000002 21.899122382792935 C14.375793760077666 21.935847911739895, 14.317462520155333 21.97257344068685, 14.276375000000002 21.998442270371125 C14.239409246138964 22.021996752949583, 14.202443492277927 22.04555123552804, 14.118625000000002 22.098960161625826 C14.079440863682281 22.124127231144254, 14.040256727364559 22.149294300662685, 13.960875000000001 22.20027935836251 C13.921764251885241 22.22549882202752, 13.88265350377048 22.250718285692535, 13.803125000000001 22.302 C13.803125000000001 22.302, 13.803125000000001 22.302, 13.803125000000001 22.302" stroke="none" stroke-width="0" fill="#ECECFF" style=""/><path d="M13.803125000000001 22.302 C15.413467742969372 18.796097548999043, 17.023810485938743 15.29019509799809, 21.690625 5.129999999999999 M13.803125000000001 22.302 C15.569565609288604 18.456254435156403, 17.336006218577207 14.610508870312803, 21.690625 5.129999999999999 M21.690625 5.129999999999999 C21.690625 8.129431098366176, 21.690625 11.128862196732353, 21.690625 14.337 M21.690625 5.129999999999999 C21.690625 8.740774788564124, 21.690625 12.35154957712825, 21.690625 14.337 M21.690625 14.337 C21.690625 15.992822649282367, 21.690625 17.648645298564734, 21.690625 22.302 M21.690625 14.337 C21.690625 16.08576001587608, 21.690625 17.83452003175216, 21.690625 22.302 M21.690625 22.302 C21.653534293964896 22.27808310353928, 21.61644358792979 22.254166207078562, 21.532875 22.20027935836251 M21.690625 22.302 C21.647687595918747 22.2743130250815, 21.604750191837493 22.246626050163, 21.532875 22.20027935836251 M21.532875 22.20027935836251 C21.49316437145634 22.174774134996728, 21.453453742912682 22.149268911630944, 21.375125 22.098960161625826 M21.532875 22.20027935836251 C21.479484194919365 22.165987672252243, 21.426093389838734 22.131695986141974, 21.375125 22.098960161625826 M21.375125 22.098960161625826 C21.34066126534928 22.07699995920521, 21.306197530698554 22.055039756784595, 21.217375 21.998442270371125 M21.375125 22.098960161625826 C21.31733283054411 22.062135140993558, 21.25954066108822 22.025310120361286, 21.217375 21.998442270371125 M21.217375 21.998442270371125 C21.178103535501364 21.973716834941424, 21.13883207100273 21.948991399511723, 21.059625 21.899122382792935 M21.217375 21.998442270371125 C21.17516451689301 21.971866419741602, 21.132954033786017 21.945290569112075, 21.059625 21.899122382792935 M21.059625 21.899122382792935 C21.024528187061097 21.87737906425744, 20.989431374122198 21.855635745721944, 20.901875 21.801392469112585 M21.059625 21.899122382792935 C21.020161757242473 21.874673956116297, 20.980698514484946 21.85022552943966, 20.901875 21.801392469112585 M20.901875 21.801392469112585 C20.84806878695505 21.768732099683312, 20.794262573910103 21.73607173025404, 20.744125 21.70563822465082 M20.901875 21.801392469112585 C20.856509422455296 21.77385556513563, 20.811143844910596 21.746318661158675, 20.744125 21.70563822465082 M20.744125 21.70563822465082 C20.7117906867654 21.686493712790302, 20.679456373530805 21.667349200929785, 20.586375 21.61223754766458 M20.744125 21.70563822465082 C20.696301129493882 21.677322650125472, 20.648477258987764 21.649007075600124, 20.586375 21.61223754766458 M20.586375 21.61223754766458 C20.550712161915396 21.591737689326134, 20.51504932383079 21.57123783098769, 20.428625 21.521559047955222 M20.586375 21.61223754766458 C20.538492388967143 21.58471346949896, 20.49060977793429 21.557189391333345, 20.428625 21.521559047955222 M20.428625 21.521559047955222 C20.370384783944907 21.489218299979825, 20.312144567889813 21.456877552004425, 20.270875 21.433960592134024 M20.428625 21.521559047955222 C20.37205786369557 21.490147359901368, 20.31549072739114 21.458735671847517, 20.270875 21.433960592134024 M20.270875 21.433960592134024 C20.232039898259252 21.413238846325978, 20.193204796518504 21.392517100517935, 20.113125 21.349787891286194 M20.270875 21.433960592134024 C20.233409200162296 21.413969482392258, 20.195943400324587 21.393978372650487, 20.113125 21.349787891286194 M20.113125 21.349787891286194 C20.05789904019625 21.321635865869176, 20.0026730803925 21.293483840452154, 19.955375 21.269373136607122 M20.113125 21.349787891286194 C20.062795173867816 21.32413172252892, 20.01246534773563 21.298475553771645, 19.955375 21.269373136607122 M19.955375 21.269373136607122 C19.894076828095386 21.239709310175567, 19.832778656190772 21.21004548374401, 19.797625 21.193033688395523 M19.955375 21.269373136607122 C19.905734488597147 21.24535076418598, 19.856093977194295 21.221328391764835, 19.797625 21.193033688395523 M19.797625 21.193033688395523 C19.751777610421506 21.17211888967283, 19.705930220843012 21.151204090950134, 19.639875 21.121070823577313 M19.797625 21.193033688395523 C19.755120346269095 21.17364378886727, 19.712615692538186 21.154253889339017, 19.639875 21.121070823577313 M19.639875 21.121070823577313 C19.58739951178291 21.09868274220115, 19.534924023565818 21.076294660824985, 19.482125 21.05376854670322 M19.639875 21.121070823577313 C19.604806036391853 21.106109041653745, 19.569737072783706 21.091147259730175, 19.482125 21.05376854670322 M19.482125 21.05376854670322 C19.424018366226047 21.030792547357326, 19.365911732452098 21.007816548011434, 19.324375 20.991392469112583 M19.482125 21.05376854670322 C19.447884462705282 21.040229463273487, 19.41364392541056 21.026690379843753, 19.324375 20.991392469112583 M19.324375 20.991392469112583 C19.26363940597156 20.96936837268232, 19.202903811943123 20.94734427625206, 19.166625 20.934188760686734 M19.324375 20.991392469112583 C19.27024276849822 20.97176290088901, 19.216110536996446 20.952133332665444, 19.166625 20.934188760686734 M19.166625 20.934188760686734 C19.114520705791787 20.9170775511476, 19.062416411583573 20.899966341608465, 19.008875 20.88238317832894 M19.166625 20.934188760686734 C19.107858960713468 20.914889813694025, 19.049092921426933 20.895590866701315, 19.008875 20.88238317832894 M19.008875 20.88238317832894 C18.961470040619435 20.868498858228595, 18.91406508123887 20.854614538128253, 18.851125 20.836180175005047 M19.008875 20.88238317832894 C18.973883705698476 20.872134665575086, 18.938892411396957 20.86188615282123, 18.851125 20.836180175005047 M18.851125 20.836180175005047 C18.804128342460896 20.824138876970757, 18.757131684921795 20.812097578936463, 18.693375 20.795762092861032 M18.851125 20.836180175005047 C18.81061105759318 20.825799852645765, 18.770097115186363 20.815419530286484, 18.693375 20.795762092861032 M18.693375 20.795762092861032 C18.644584862996993 20.785099816662306, 18.595794725993983 20.774437540463577, 18.535625 20.76128844360185 M18.693375 20.795762092861032 C18.64665016848237 20.78555115496288, 18.599925336964745 20.775340217064734, 18.535625 20.76128844360185 M18.535625 20.76128844360185 C18.484049701744176 20.752005489977563, 18.43247440348835 20.74272253635328, 18.377875000000003 20.73289527897162 M18.535625 20.76128844360185 C18.49544466919344 20.754056451541704, 18.45526433838688 20.74682445948156, 18.377875000000003 20.73289527897162 M18.377875000000003 20.73289527897162 C18.31760656157311 20.72441352296517, 18.25733812314622 20.715931766958718, 18.220125 20.710694653819523 M18.377875000000003 20.73289527897162 C18.338237432826308 20.72731696663714, 18.298599865652612 20.72173865430266, 18.220125 20.710694653819523 M18.220125 20.710694653819523 C18.160174001960492 20.704644269903838, 18.100223003920988 20.698593885988156, 18.062375 20.694774183870546 M18.220125 20.710694653819523 C18.157558775296298 20.70438033559311, 18.094992550592597 20.698066017366703, 18.062375 20.694774183870546 M18.062375 20.694774183870546 C18.02379246176601 20.69243172022746, 17.985209923532018 20.69008925658438, 17.904625000000003 20.6851966999462 M18.062375 20.694774183870546 C18.02669810966593 20.692608130978975, 17.99102121933186 20.690442078087404, 17.904625000000003 20.6851966999462 M17.904625000000003 20.6851966999462 C17.872085180317388 20.68453730191242, 17.83954536063477 20.68387790387864, 17.746875000000003 20.682 M17.904625000000003 20.6851966999462 C17.8441427231513 20.683971066404848, 17.783660446302598 20.682745432863495, 17.746875000000003 20.682 M17.746875000000003 20.682 C17.709393885336546 20.682759530125058, 17.671912770673092 20.68351906025012, 17.589125000000003 20.6851966999462 M17.746875000000003 20.682 C17.68404286808542 20.683273251807993, 17.621210736170834 20.684546503615987, 17.589125000000003 20.6851966999462 M17.589125000000003 20.6851966999462 C17.54039992311287 20.688154948064103, 17.49167484622573 20.691113196182005, 17.431375000000003 20.694774183870546 M17.589125000000003 20.6851966999462 C17.55082427124912 20.687522054075533, 17.512523542498233 20.689847408204866, 17.431375000000003 20.694774183870546 M17.431375000000003 20.694774183870546 C17.380890113667462 20.699869227393428, 17.33040522733492 20.70496427091631, 17.273625000000003 20.710694653819523 M17.431375000000003 20.694774183870546 C17.38693632978506 20.699259030233332, 17.34249765957011 20.703743876596118, 17.273625000000003 20.710694653819523 M17.273625000000003 20.710694653819523 C17.21639543856396 20.718748739658256, 17.15916587712792 20.726802825496993, 17.115875000000003 20.73289527897162 M17.273625000000003 20.710694653819523 C17.23993086653777 20.715436529108395, 17.206236733075535 20.72017840439727, 17.115875000000003 20.73289527897162 M17.115875000000003 20.73289527897162 C17.0725257848442 20.740697633345693, 17.029176569688396 20.748499987719764, 16.958125000000003 20.76128844360185 M17.115875000000003 20.73289527897162 C17.067518661729462 20.7415988572501, 17.01916232345892 20.75030243552858, 16.958125000000003 20.76128844360185 M16.958125000000003 20.76128844360185 C16.925373018026416 20.768445846702328, 16.892621036052827 20.775603249802806, 16.800375000000003 20.795762092861032 M16.958125000000003 20.76128844360185 C16.89676481879873 20.774697694728395, 16.83540463759746 20.788106945854942, 16.800375000000003 20.795762092861032 M16.800375000000003 20.795762092861032 C16.756647110908165 20.806965879950088, 16.71291922181633 20.81816966703914, 16.642625000000002 20.836180175005047 M16.800375000000003 20.795762092861032 C16.744541363591186 20.810067566729625, 16.688707727182372 20.824373040598218, 16.642625000000002 20.836180175005047 M16.642625000000002 20.836180175005047 C16.585049348006006 20.853043363851032, 16.527473696012006 20.869906552697014, 16.484875000000002 20.88238317832894 M16.642625000000002 20.836180175005047 C16.604050663131737 20.847478116143186, 16.56547632626347 20.858776057281325, 16.484875000000002 20.88238317832894 M16.484875000000002 20.88238317832894 C16.427276390661824 20.901298737756917, 16.36967778132364 20.920214297184895, 16.327125000000002 20.934188760686734 M16.484875000000002 20.88238317832894 C16.442795790545237 20.896202119380984, 16.40071658109047 20.910021060433024, 16.327125000000002 20.934188760686734 M16.327125000000002 20.934188760686734 C16.26665360910123 20.95611705110245, 16.206182218202457 20.97804534151816, 16.169375000000002 20.991392469112583 M16.327125000000002 20.934188760686734 C16.288520145705487 20.948187751678084, 16.249915291410975 20.962186742669438, 16.169375000000002 20.991392469112583 M16.169375000000002 20.991392469112583 C16.119122912264825 21.011262694936107, 16.06887082452965 21.03113292075963, 16.011625000000002 21.05376854670322 M16.169375000000002 20.991392469112583 C16.11606262766799 21.012472764980238, 16.062750255335978 21.033553060847893, 16.011625000000002 21.05376854670322 M16.011625000000002 21.05376854670322 C15.977613408778655 21.06827921249915, 15.943601817557306 21.082789878295078, 15.853875000000002 21.121070823577313 M16.011625000000002 21.05376854670322 C15.957264760059257 21.07696073636683, 15.90290452011851 21.100152926030436, 15.853875000000002 21.121070823577313 M15.853875000000002 21.121070823577313 C15.81809173944568 21.137394537948314, 15.782308478891359 21.153718252319315, 15.696125000000002 21.193033688395523 M15.853875000000002 21.121070823577313 C15.813384507853604 21.13954189687528, 15.772894015707205 21.158012970173242, 15.696125000000002 21.193033688395523 M15.696125000000002 21.193033688395523 C15.637527979377154 21.221390355407834, 15.578930958754306 21.249747022420145, 15.538375000000002 21.269373136607122 M15.696125000000002 21.193033688395523 C15.641948668841556 21.21925106542731, 15.587772337683107 21.2454684424591, 15.538375000000002 21.269373136607122 M15.538375000000002 21.269373136607122 C15.48878329631919 21.29465303952699, 15.439191592638377 21.319932942446865, 15.380625000000002 21.34978789128619 M15.538375000000002 21.269373136607122 C15.492042736578597 21.29299150489085, 15.445710473157192 21.31660987317458, 15.380625000000002 21.34978789128619 M15.380625000000002 21.34978789128619 C15.332985659349793 21.375207428333024, 15.285346318699585 21.40062696537986, 15.222875000000002 21.433960592134024 M15.380625000000002 21.34978789128619 C15.3334824448659 21.374942352081785, 15.2863398897318 21.400096812877383, 15.222875000000002 21.433960592134024 M15.222875000000002 21.433960592134024 C15.184872502365971 21.455063350359634, 15.146870004731943 21.47616610858524, 15.065125000000002 21.521559047955222 M15.222875000000002 21.433960592134024 C15.189454531877004 21.45251895283384, 15.156034063754005 21.47107731353366, 15.065125000000002 21.521559047955222 M15.065125000000002 21.521559047955222 C15.010481633092734 21.55296937144314, 14.955838266185467 21.58437969493106, 14.907375000000002 21.61223754766458 M15.065125000000002 21.521559047955222 C15.013006892324107 21.551517791611264, 14.960888784648214 21.58147653526731, 14.907375000000002 21.61223754766458 M14.907375000000002 21.61223754766458 C14.864516457345362 21.63761324908193, 14.821657914690723 21.66298895049928, 14.749625000000002 21.70563822465082 M14.907375000000002 21.61223754766458 C14.871735450412803 21.633339025058742, 14.836095900825603 21.654440502452903, 14.749625000000002 21.70563822465082 M14.749625000000002 21.70563822465082 C14.6968717876524 21.73765942269377, 14.644118575304798 21.76968062073672, 14.591875000000002 21.801392469112585 M14.749625000000002 21.70563822465082 C14.693995721614911 21.739405194677555, 14.638366443229822 21.77317216470429, 14.591875000000002 21.801392469112585 M14.591875000000002 21.801392469112585 C14.549899746084611 21.82739714703247, 14.50792449216922 21.853401824952357, 14.434125000000002 21.899122382792935 M14.591875000000002 21.801392469112585 C14.535416602327015 21.836369802431836, 14.478958204654026 21.871347135751087, 14.434125000000002 21.899122382792935 M14.434125000000002 21.899122382792935 C14.391819890681608 21.925757810377632, 14.349514781363215 21.95239323796233, 14.276375000000002 21.998442270371125 M14.434125000000002 21.899122382792935 C14.393956419532078 21.92441264520973, 14.353787839064152 21.94970290762653, 14.276375000000002 21.998442270371125 M14.276375000000002 21.998442270371125 C14.225737193644246 22.030708549373625, 14.17509938728849 22.062974828376127, 14.118625000000002 22.098960161625826 M14.276375000000002 21.998442270371125 C14.220232585318605 22.03421607153576, 14.16409017063721 22.06998987270039, 14.118625000000002 22.098960161625826 M14.118625000000002 22.098960161625826 C14.084807705848537 22.120680231858692, 14.05099041169707 22.14240030209156, 13.960875000000001 22.20027935836251 M14.118625000000002 22.098960161625826 C14.076553291505821 22.125981852338793, 14.03448158301164 22.153003543051756, 13.960875000000001 22.20027935836251 M13.960875000000001 22.20027935836251 C13.908022398785794 22.234359868712556, 13.855169797571588 22.2684403790626, 13.803125000000001 22.302 M13.960875000000001 22.20027935836251 C13.904074929849063 22.236905282805033, 13.847274859698125 22.273531207247554, 13.803125000000001 22.302 M13.803125000000001 22.302 C13.803125000000001 22.302, 13.803125000000001 22.302, 13.803125000000001 22.302 M13.803125000000001 22.302 C13.803125000000001 22.302, 13.803125000000001 22.302, 13.803125000000001 22.302" stroke="#9370DB" stroke-width="1.3" fill="none" stroke-dasharray="0 0" style=""/></g><g class="label" style="" transform="translate(-4.71875,-18.75)"><rect/><foreignObject width="9.4375" height="24"><div xmlns="http://www.w3.org/1999/xhtml" style="display: table-cell; white-space: nowrap; line-height: 1.5; max-width: 200px; text-align: center;"><span class="nodeLabel"><p>A</p></span></div></foreignObject></g></g></g></g></g></svg>