<svg id="my-svg" width="100%" xmlns="http://www.w3.org/2000/svg" xmlns:xlink="http://www.w3.org/1999/xlink" class="flowchart" style="max-width: 50.4375px; background-color: white;" viewBox="0 0 50.4375 65" role="graphics-document document" aria-roledescription="flowchart-v2"><style>#my-svg{font-family:"trebuchet ms",verdana,arial,sans-serif;font-size:16px;fill:#333;}@keyframes edge-animation-frame{from{stroke-dashoffset:0;}}@keyframes dash{to{stroke-dashoffset:0;}}#my-svg .edge-animation-slow{stroke-dasharray:9,5!important;stroke-dashoffset:900;animation:dash 50s linear infinite;stroke-linecap:round;}#my-svg .edge-animation-fast{stroke-dasharray:9,5!important;stroke-dashoffset:900;animation:dash 20s linear infinite;stroke-linecap:round;}#my-svg .error-icon{fill:#552222;}#my-svg .error-text{fill:#552222;stroke:#552222;}#my-svg .edge-thickness-normal{stroke-width:1px;}#my-svg .edge-thickness-thick{stroke-width:3.5px;}#my-svg .edge-pattern-solid{stroke-dasharray:0;}#my-svg .edge-thickness-invisible{stroke-width:0;fill:none;}#my-svg .edge-pattern-dashed{stroke-dasharray:3;}#my-svg .edge-pattern-dotted{stroke-dasharray:2;}#my-svg .marker{fill:#333333;stroke:#333333;}#my-svg .marker.cross{stroke:#333333;}#my-svg svg{font-family:"trebuchet ms",verdana,arial,sans-serif;font-size:16px;}#my-svg p{margin:0;}#my-svg .label{font-family:"trebuchet ms",verdana,arial,sans-serif;color:#333;}#my-svg .cluster-label text{fill:#333;}#my-svg .cluster-label span{color:#333;}#my-svg .cluster-label span p{background-color:transparent;}#my-svg .label text,#my-svg span{fill:#333;color:#333;}#my-svg .node rect,#my-svg .node circle,#my-svg .node ellipse,#my-svg .node polygon,#my-svg .node path{fill:#ECECFF;stroke:#9370DB;stroke-width:1px;}#my-svg .rough-node .label text,#my-svg .node .label text,#my-svg .image-shape .label,#my-svg .icon-shape .label{text-anchor:middle;}#my-svg .node .katex path{fill:#000;stroke:#000;stroke-width:1px;}#my-svg .rough-node .label,#my-svg .node .label,#my-svg .image-shape .label,#my-svg .icon-shape .label{text-align:center;}#my-svg .node.clickable{cursor:pointer;}#my-svg .root .anchor path{fill:#333333!important;stroke-width:0;stroke:#333333;}#my-svg .arrowheadPath{fill:#333333;}#my-svg .edgePath .path{stroke:#333333;stroke-width:2.0px;}#my-svg .flowchart-link{stroke:#333333;fill:none;}#my-svg .edgeLabel{background-color:rgba(232,232,232, 0.8);text-align:center;}#my-svg .edgeLabel p{background-color:rgba(232,232,232, 0.8);}#my-svg .edgeLabel rect{opacity:0.5;background-color:rgba(232,232,232, 0.8);fill:rgba(232,232,232, 0.8);}#my-svg .labelBkg{background-color:rgba(232, 232, 232, 0.5);}#my-svg .cluster rect{fill:#ffffde;stroke:#aaaa33;stroke-width:1px;}#my-svg .cluster text{fill:#333;}#my-svg .cluster span{color:#333;}#my-svg div.mermaidTooltip{position:absolute;text-align:center;max-width:200px;padding:2px;font-family:"trebuchet ms",verdana,arial,sans-serif;font-size:12px;background:hsl(80, 100%, 96.2745098039%);border:1px solid #aaaa33;border-radius:2px;pointer-events:none;z-index:100;}#my-svg .flowchartTitleText{text-anchor:middle;font-size:18px;fill:#333;}#my-svg rect.text{fill:none;stroke-width:0;}#my-svg .icon-shape,#my-svg .image-shape{background-color:rgba(232,232,232, 0.8);text-align:center;}#my-svg .icon-shape p,#my-svg .image-shape p{background-color:rgba(232,232,232, 0.8);padding:2px;}#my-svg .icon-shape .label rect,#my-svg .image-shape .label rect{opacity:0.5;background-color:rgba(232,232,232, 0.8);fill:rgba(232,232,232, 0.8);}#my-svg .label-icon{display:inline-block;height:1em;overflow:visible;vertical-align:-0.125em;}#my-svg .node .label-icon path{fill:currentColor;stroke:revert;stroke-width:revert;}#my-svg :root{--mermaid-font-family:"trebuchet ms",verdana,arial,sans-serif;}</style><g><marker id="my-svg_flowchart-v2-pointEnd" class="marker flowchart-v2" viewBox="0 0 10 10" refX="5" refY="5" markerUnits="userSpaceOnUse" markerWidth="8" markerHeight="8" orient="auto"><path d="M 0 0 L 10 5 L 0 10 z" class="arrowMarkerPath" style="stroke-width: 1; stroke-dasharray: 1, 0;"/></marker><marker id="my-svg_flowchart-v2-pointStart" class="marker flowchart-v2" viewBox="0 0 10 10" refX="4.5" refY="5" markerUnits="userSpaceOnUse" markerWidth="8" markerHeight="8" orient="auto"><path d="M 0 5 L 10 10 L 10 0 z" class="arrowMarkerPath" style="stroke-width: 1; stroke-dasharray: 1, 0;"/></marker><marker id="my-svg_flowchart-v2-circleEnd" class="marker flowchart-v2" viewBox="0 0 10 10" refX="11" refY="5" markerUnits="userSpaceOnUse" markerWidth="11" markerHeight="11" orient="auto"><circle cx="5" cy="5" r="5" class="arrowMarkerPath" style="stroke-width: 1; stroke-dasharray: 1, 0;"/></marker><marker id="my-svg_flowchart-v2-circleStart" class="marker flowchart-v2" viewBox="0 0 10 10" refX="-1" refY="5" markerUnits="userSpaceOnUse" markerWidth="11" markerHeight="11" orient="auto"><circle cx="5" cy="5" r="5" class="arrowMarkerPath" style="stroke-width: 1; stroke-dasharray: 1, 0;"/></marker><marker id="my-svg_flowchart-v2-crossEnd" class="marker cross flowchart-v2" viewBox="0 0 11 11" refX="12" refY="5.2" markerUnits="userSpaceOnUse" markerWidth="11" markerHeight="11" orient="auto"><path d="M 1,1 l 9,9 M 10,1 l -9,9" class="arrowMarkerPath" style="stroke-width: 2; stroke-dasharray: 1, 0;"/></marker><marker id="my-svg_flowchart-v2-crossStart" class="marker cross flowchart-v2" viewBox="0 0 11 11" refX="-1" refY="5.2" markerUnits="userSpaceOnUse" markerWidth="11" markerHeight="11" orient="auto"><path d="M 1,1 l 9,9 M 10,1 l -9,9" class="arrowMarkerPath" style="stroke-width: 2; stroke-dasharray: 1, 0;"/></marker><g class="root"><g class="clusters"/><g class="edgePaths"/><g class="edgeLabels"/><g class="nodes"><g class="node default" id="flowchart-A-0" transform="translate(25.21875, 32.5)"><g class="text" transform="translate(-5, 0)"><g><path d="M12.21875 -24.5 C12.32246152342604 -24.495710459661257, 12.426173046852082 -24.49142091932251, 12.631646727361662 -24.482922465033347 M12.21875 -24.5 C12.34844390635907 -24.494635820354013, 12.478137812718138 -24.489271640708022, 12.631646727361662 -24.482922465033347 M12.631646727361662 -24.482922465033347 C12.71897308684311 -24.472037245675814, 12.806299446324559 -24.46115202631828, 13.04172295140367 -24.431806517013612 M12.631646727361662 -24.482922465033347 C12.776298229417426 -24.4648916741058, 12.92094973147319 -24.446860883178257, 13.04172295140367 -24.431806517013612 M13.04172295140367 -24.431806517013612 C13.130964148903422 -24.41309460562648, 13.220205346403171 -24.394382694239347, 13.446177435703996 -24.347001329696653 M13.04172295140367 -24.431806517013612 C13.165989009114227 -24.405750664722806, 13.290255066824786 -24.379694812431996, 13.446177435703996 -24.347001329696653 M13.446177435703996 -24.347001329696653 C13.58947655840276 -24.30433933245905, 13.732775681101524 -24.26167733522145, 13.842247346023418 -24.229086208503173 M13.446177435703996 -24.347001329696653 C13.594194794736403 -24.30293465264217, 13.742212153768811 -24.25886797558768, 13.842247346023418 -24.229086208503173 M13.842247346023418 -24.229086208503173 C13.938511415511439 -24.19152385202872, 14.034775484999459 -24.153961495554267, 14.227227123264848 -24.078866633275286 M13.842247346023418 -24.229086208503173 C13.92524774464401 -24.19669935246135, 14.008248143264602 -24.16431249641953, 14.227227123264848 -24.078866633275286 M14.227227123264848 -24.078866633275286 C14.373842864432786 -24.0071905649596, 14.520458605600723 -23.93551449664391, 14.598486965185367 -23.897368756032446 M14.227227123264848 -24.078866633275286 C14.304083340354552 -24.041293918212602, 14.380939557444256 -24.003721203149922, 14.598486965185367 -23.897368756032446 M14.598486965185367 -23.897368756032446 C14.709060728592492 -23.831481094353276, 14.819634491999617 -23.765593432674102, 14.953490790612134 -23.685832391312644 M14.598486965185367 -23.897368756032446 C14.687992595292432 -23.844034976904734, 14.777498225399496 -23.790701197777025, 14.953490790612134 -23.685832391312644 M14.953490790612134 -23.685832391312644 C15.085629874732739 -23.59148689864114, 15.217768958853341 -23.497141405969636, 15.28981356344834 -23.44570254698197 M14.953490790612134 -23.685832391312644 C15.059592546424783 -23.61007719373371, 15.165694302237432 -23.53432199615477, 15.28981356344834 -23.44570254698197 M15.28981356344834 -23.44570254698197 C15.353918706911498 -23.391408260035387, 15.418023850374658 -23.337113973088805, 15.605157858128706 -23.178619553365657 M15.28981356344834 -23.44570254698197 C15.364976653743742 -23.38204265681051, 15.440139744039145 -23.318382766639044, 15.605157858128706 -23.178619553365657 M15.605157858128706 -23.178619553365657 C15.685790608934282 -23.09798680256008, 15.766423359739859 -23.017354051754506, 15.897369553365658 -22.886407858128706 M15.605157858128706 -23.178619553365657 C15.66421964348073 -23.11955776801363, 15.723281428832754 -23.06049598266161, 15.897369553365658 -22.886407858128706 M15.897369553365658 -22.886407858128706 C15.981874532359218 -22.786633017968025, 16.06637951135278 -22.68685817780735, 16.16445254698197 -22.57106356344834 M15.897369553365658 -22.886407858128706 C15.97802557945612 -22.79117746807341, 16.05868160554658 -22.69594707801811, 16.16445254698197 -22.57106356344834 M16.16445254698197 -22.57106356344834 C16.2419967627866 -22.462456131708585, 16.319540978591228 -22.35384869996883, 16.404582391312644 -22.234740790612136 M16.16445254698197 -22.57106356344834 C16.220882814409364 -22.492028056362706, 16.277313081836756 -22.41299254927707, 16.404582391312644 -22.234740790612136 M16.404582391312644 -22.234740790612136 C16.471547911053936 -22.122358147980737, 16.53851343079523 -22.009975505349338, 16.616118756032446 -21.87973696518537 M16.404582391312644 -22.234740790612136 C16.47437256182166 -22.117617772351398, 16.54416273233068 -22.00049475409066, 16.616118756032446 -21.87973696518537 M16.616118756032446 -21.87973696518537 C16.67865663093913 -21.75181369740612, 16.741194505845815 -21.623890429626872, 16.797616633275286 -21.508477123264846 M16.616118756032446 -21.87973696518537 C16.665006744680298 -21.77973498602762, 16.71389473332815 -21.67973300686987, 16.797616633275286 -21.508477123264846 M16.797616633275286 -21.508477123264846 C16.83739223239693 -21.40654099898634, 16.87716783151857 -21.304604874707834, 16.947836208503173 -21.123497346023417 M16.797616633275286 -21.508477123264846 C16.83852075964947 -21.403648831506597, 16.879424886023656 -21.298820539748352, 16.947836208503173 -21.123497346023417 M16.947836208503173 -21.123497346023417 C16.988320416301697 -20.98751328910332, 17.02880462410022 -20.851529232183225, 17.065751329696653 -20.727427435703994 M16.947836208503173 -21.123497346023417 C16.988478064417947 -20.986983758415196, 17.029119920332725 -20.85047017080697, 17.065751329696653 -20.727427435703994 M17.065751329696653 -20.727427435703994 C17.085380131275663 -20.63381338836512, 17.105008932854673 -20.540199341026245, 17.150556517013612 -20.32297295140367 M17.065751329696653 -20.727427435703994 C17.085079119224783 -20.635248980663885, 17.10440690875291 -20.543070525623772, 17.150556517013612 -20.32297295140367 M17.150556517013612 -20.32297295140367 C17.167545777418656 -20.186677098033655, 17.1845350378237 -20.050381244663644, 17.201672465033347 -19.912896727361662 M17.150556517013612 -20.32297295140367 C17.16284948621477 -20.224352959256994, 17.17514245541593 -20.125732967110316, 17.201672465033347 -19.912896727361662 M17.201672465033347 -19.912896727361662 C17.20560516853169 -19.817812723299003, 17.209537872030033 -19.722728719236347, 17.21875 -19.5 M17.201672465033347 -19.912896727361662 C17.205318726612642 -19.824738250383817, 17.20896498819194 -19.73657977340597, 17.21875 -19.5 M17.21875 -19.5 C17.21875 -14.895252137707665, 17.21875 -10.290504275415332, 17.21875 -5 M17.21875 -19.5 C17.21875 -16.434641120144054, 17.21875 -13.369282240288106, 17.21875 -5 M17.21875 -5 C17.21875 -5, 17.21875 -5.000000000000001, 17.21875 -5.000000000000001 M17.21875 -5 C17.21875 -5, 17.21875 -5, 17.21875 -5.000000000000001 M17.21875 -5.000000000000001 C17.22433040784171 -4.865078177870292, 17.229910815683414 -4.730156355740584, 17.235827534966653 -4.58710327263834 M17.21875 -5.000000000000001 C17.222919215471006 -4.899197663655503, 17.22708843094201 -4.798395327311005, 17.235827534966653 -4.58710327263834 M17.235827534966653 -4.58710327263834 C17.25307009372129 -4.448775340537868, 17.270312652475933 -4.310447408437396, 17.286943482986388 -4.177027048596331 M17.235827534966653 -4.58710327263834 C17.255251676409628 -4.431273656114004, 17.274675817852604 -4.275444039589668, 17.286943482986388 -4.177027048596331 M17.286943482986388 -4.177027048596331 C17.308204956530393 -4.07562643160854, 17.329466430074394 -3.9742258146207483, 17.371748670303347 -3.7725725642960057 M17.286943482986388 -4.177027048596331 C17.311873601511394 -4.058129861400791, 17.3368037200364 -3.93923267420525, 17.371748670303347 -3.7725725642960057 M17.371748670303347 -3.7725725642960057 C17.404479409427104 -3.662631949570576, 17.43721014855086 -3.5526913348451465, 17.489663791496827 -3.376502653976583 M17.371748670303347 -3.7725725642960057 C17.406432778671537 -3.6560706979377744, 17.441116887039723 -3.539568831579543, 17.489663791496827 -3.376502653976583 M17.489663791496827 -3.376502653976583 C17.529463085366345 -3.2745058052635625, 17.56926237923586 -3.172508956550542, 17.63988336672471 -2.991522876735154 M17.489663791496827 -3.376502653976583 C17.528679944117183 -3.27651282427685, 17.56769609673754 -3.176522994577117, 17.63988336672471 -2.991522876735154 M17.63988336672471 -2.991522876735154 C17.697048765516946 -2.8745891844995537, 17.754214164309186 -2.757655492263954, 17.821381243967554 -2.6202630348146325 M17.63988336672471 -2.991522876735154 C17.70826237940232 -2.8516513706711777, 17.776641392079934 -2.7117798646072013, 17.821381243967554 -2.6202630348146325 M17.821381243967554 -2.6202630348146325 C17.873340905821593 -2.5330634710398723, 17.925300567675635 -2.4458639072651125, 18.032917608687356 -2.265259209387867 M17.821381243967554 -2.6202630348146325 C17.896192622115684 -2.494713342858768, 17.971004000263815 -2.3691636509029035, 18.032917608687356 -2.265259209387867 M18.032917608687356 -2.265259209387867 C18.08630322662388 -2.190487999236824, 18.139688844560403 -2.1157167890857806, 18.27304745301803 -1.9289364365516608 M18.032917608687356 -2.265259209387867 C18.128137853542405 -2.1318949586048945, 18.22335809839745 -1.9985307078219223, 18.27304745301803 -1.9289364365516608 M18.27304745301803 -1.9289364365516608 C18.33887880432333 -1.851209506940231, 18.404710155628628 -1.7734825773288012, 18.54013044663434 -1.6135921418712957 M18.27304745301803 -1.9289364365516608 C18.37050094742899 -1.8138733131267746, 18.467954441839954 -1.6988101897018884, 18.54013044663434 -1.6135921418712957 M18.54013044663434 -1.6135921418712957 C18.65519766358577 -1.4985249249198638, 18.770264880537205 -1.3834577079684318, 18.832342141871294 -1.321380446634342 M18.54013044663434 -1.6135921418712957 C18.62914754075504 -1.524575047750597, 18.718164634875738 -1.4355579536298984, 18.832342141871294 -1.321380446634342 M18.832342141871294 -1.321380446634342 C18.92170782583914 -1.245691573224109, 19.011073509806987 -1.170002699813876, 19.14768643655166 -1.054297453018033 M18.832342141871294 -1.321380446634342 C18.95272316995278 -1.2194229167313466, 19.073104198034265 -1.117465386828351, 19.14768643655166 -1.054297453018033 M19.14768643655166 -1.054297453018033 C19.227785219298916 -0.997108021359943, 19.307884002046173 -0.9399185897018533, 19.484009209387864 -0.8141676086873577 M19.14768643655166 -1.054297453018033 C19.251714582920574 -0.9800227841250582, 19.35574272928949 -0.9057481152320833, 19.484009209387864 -0.8141676086873577 M19.484009209387864 -0.8141676086873577 C19.616879140466835 -0.7349943148017835, 19.74974907154581 -0.6558210209162092, 19.839013034814634 -0.6026312439675543 M19.484009209387864 -0.8141676086873577 C19.577727428105558 -0.7583236715925288, 19.67144564682325 -0.7024797344976998, 19.839013034814634 -0.6026312439675543 M19.839013034814634 -0.6026312439675543 C19.95857400017157 -0.5441814496102253, 20.078134965528506 -0.4857316552528964, 20.21027287673515 -0.4211333667247139 M19.839013034814634 -0.6026312439675543 C19.942933846086593 -0.5518274550372877, 20.046854657358548 -0.5010236661070211, 20.21027287673515 -0.4211333667247139 M20.21027287673515 -0.4211333667247139 C20.308207274890908 -0.38291924598161164, 20.406141673046665 -0.34470512523850944, 20.59525265397658 -0.2709137914968265 M20.21027287673515 -0.4211333667247139 C20.307557619936173 -0.3831727421315759, 20.404842363137195 -0.345212117538438, 20.59525265397658 -0.2709137914968265 M20.59525265397658 -0.2709137914968265 C20.702637364348277 -0.23894397806769405, 20.810022074719974 -0.2069741646385616, 20.991322564296006 -0.15299867030334813 M20.59525265397658 -0.2709137914968265 C20.734249363844004 -0.2295326780557828, 20.873246073711428 -0.18815156461473914, 20.991322564296006 -0.15299867030334813 M20.991322564296006 -0.15299867030334813 C21.125810970716227 -0.12479941688634916, 21.26029937713645 -0.09660016346935017, 21.395777048596326 -0.06819348298638861 M20.991322564296006 -0.15299867030334813 C21.076921571670113 -0.13505044587689619, 21.162520579044223 -0.11710222145044422, 21.395777048596326 -0.06819348298638861 M21.395777048596326 -0.06819348298638861 C21.48582216543189 -0.05696937087808378, 21.575867282267453 -0.04574525876977894, 21.805853272638338 -0.017077534966650987 M21.395777048596326 -0.06819348298638861 C21.539831356484854 -0.05023713223415633, 21.683885664373385 -0.03228078148192405, 21.805853272638338 -0.017077534966650987 M21.805853272638338 -0.017077534966650987 C21.894680665588364 -0.01340360681809526, 21.983508058538394 -0.009729678669539533, 22.21875 0 M21.805853272638338 -0.017077534966650987 C21.926423839847804 -0.012090699419114493, 22.046994407057273 -0.0071038638715779975, 22.21875 0 M22.21875 0 C22.21875 0, 22.21875 0, 22.21875 0 M22.21875 0 C22.21875 0, 22.21875 0, 22.21875 0 M22.21875 0 C22.092526369455296 0.005220647976598568, 21.96630273891059 0.010441295953197136, 21.805853272638338 0.017077534966650987 M22.21875 0 C22.060443920761777 0.006547587869971613, 21.90213784152355 0.013095175739943225, 21.805853272638338 0.017077534966650987 M21.805853272638338 0.017077534966650987 C21.69964758330158 0.030316060336465687, 21.593441893964826 0.04355458570628039, 21.39577704859633 0.06819348298638772 M21.805853272638338 0.017077534966650987 C21.643654336175445 0.03729561131200003, 21.48145539971255 0.05751368765734907, 21.39577704859633 0.06819348298638772 M21.39577704859633 0.06819348298638772 C21.24597117077649 0.09960447241248063, 21.09616529295665 0.13101546183857354, 20.991322564296006 0.15299867030334813 M21.39577704859633 0.06819348298638772 C21.24361981056206 0.10009750080300306, 21.091462572527792 0.1320015186196184, 20.991322564296006 0.15299867030334813 M20.991322564296006 0.15299867030334813 C20.86393573172483 0.19092337351791294, 20.736548899153657 0.22884807673247776, 20.595252653976583 0.2709137914968265 M20.991322564296006 0.15299867030334813 C20.875959993435888 0.18734359570601658, 20.760597422575767 0.22168852110868503, 20.595252653976583 0.2709137914968265 M20.595252653976583 0.2709137914968265 C20.468398470731398 0.32041244739900854, 20.34154428748621 0.36991110330119054, 20.210272876735154 0.421133366724713 M20.595252653976583 0.2709137914968265 C20.517472063327503 0.30126387214782074, 20.43969147267842 0.331613952798815, 20.210272876735154 0.421133366724713 M20.210272876735154 0.421133366724713 C20.12726254387959 0.4617146456601606, 20.044252211024023 0.5022959245956082, 19.83901303481463 0.6026312439675543 M20.210272876735154 0.421133366724713 C20.084730568734912 0.4825072613219338, 19.959188260734667 0.5438811559191545, 19.83901303481463 0.6026312439675543 M19.83901303481463 0.6026312439675543 C19.70714146977443 0.681209640819984, 19.57526990473423 0.7597880376724138, 19.484009209387867 0.8141676086873568 M19.83901303481463 0.6026312439675543 C19.748824428682834 0.6563719884717354, 19.658635822551034 0.7101127329759165, 19.484009209387867 0.8141676086873568 M19.484009209387867 0.8141676086873568 C19.408127507776175 0.8683461022871235, 19.332245806164483 0.9225245958868903, 19.14768643655166 1.054297453018032 M19.484009209387867 0.8141676086873568 C19.38626263267475 0.8839573230502558, 19.288516055961633 0.9537470374131547, 19.14768643655166 1.054297453018032 M19.14768643655166 1.054297453018032 C19.041537254725064 1.144201224008738, 18.935388072898466 1.2341049949994438, 18.832342141871294 1.321380446634341 M19.14768643655166 1.054297453018032 C19.0668008379345 1.1228040605056189, 18.985915239317343 1.1913106679932057, 18.832342141871294 1.321380446634341 M18.832342141871294 1.321380446634341 C18.765346371177053 1.3883762173285845, 18.698350600482808 1.455371988022828, 18.540130446634343 1.6135921418712944 M18.832342141871294 1.321380446634341 C18.750914831119445 1.4028077573861895, 18.6694875203676 1.4842350681380376, 18.540130446634343 1.6135921418712944 M18.540130446634343 1.6135921418712944 C18.474027650792273 1.6916395654416758, 18.407924854950206 1.7696869890120572, 18.273047453018034 1.9289364365516604 M18.540130446634343 1.6135921418712944 C18.459570347958767 1.7087092706418585, 18.37901024928319 1.8038263994124228, 18.273047453018034 1.9289364365516604 M18.273047453018034 1.9289364365516604 C18.19250926544741 2.041737186656069, 18.11197107787678 2.154537936760478, 18.032917608687356 2.265259209387866 M18.273047453018034 1.9289364365516604 C18.19702806248154 2.035408217624172, 18.121008671945045 2.141879998696683, 18.032917608687356 2.265259209387866 M18.032917608687356 2.265259209387866 C17.96927746681962 2.37206114788045, 17.90563732495188 2.4788630863730345, 17.821381243967554 2.6202630348146316 M18.032917608687356 2.265259209387866 C17.984226241719078 2.3469738666379003, 17.9355348747508 2.4286885238879345, 17.821381243967554 2.6202630348146316 M17.821381243967554 2.6202630348146316 C17.751526577993577 2.7631530379423794, 17.681671912019603 2.9060430410701272, 17.639883366724714 2.991522876735151 M17.821381243967554 2.6202630348146316 C17.74959115932759 2.767112000101609, 17.677801074687626 2.913960965388586, 17.639883366724714 2.991522876735151 M17.639883366724714 2.991522876735151 C17.60020224642685 3.093216872539544, 17.560521126128986 3.1949108683439373, 17.489663791496827 3.3765026539765817 M17.639883366724714 2.991522876735151 C17.589933438773155 3.1195335711259733, 17.5399835108216 3.247544265516795, 17.489663791496827 3.3765026539765817 M17.489663791496827 3.3765026539765817 C17.462783083893047 3.4667933592075273, 17.435902376289267 3.557084064438473, 17.371748670303347 3.772572564296005 M17.489663791496827 3.3765026539765817 C17.456336663080727 3.4884465050227087, 17.423009534664626 3.6003903560688353, 17.371748670303347 3.772572564296005 M17.371748670303347 3.772572564296005 C17.352630615110183 3.863750750426022, 17.33351255991702 3.9549289365560387, 17.286943482986388 4.1770270485963295 M17.371748670303347 3.772572564296005 C17.339103269551483 3.928265619680973, 17.306457868799622 4.083958675065941, 17.286943482986388 4.1770270485963295 M17.286943482986388 4.1770270485963295 C17.26888703534676 4.321884380887445, 17.250830587707135 4.46674171317856, 17.235827534966653 4.587103272638337 M17.286943482986388 4.1770270485963295 C17.267638823503397 4.331898124530313, 17.248334164020406 4.486769200464296, 17.235827534966653 4.587103272638337 M17.235827534966653 4.587103272638337 C17.23036331306645 4.719215977696578, 17.22489909116625 4.8513286827548185, 17.21875 4.999999999999999 M17.235827534966653 4.587103272638337 C17.229942022589185 4.729401842323481, 17.224056510211717 4.871700412008626, 17.21875 4.999999999999999 M17.21875 4.999999999999999 C17.21875 10.76288924099493, 17.21875 16.52577848198986, 17.21875 19.5 M17.21875 4.999999999999999 C17.21875 9.532054310242586, 17.21875 14.064108620485175, 17.21875 19.5 M17.21875 19.5 C17.21875 19.5, 17.21875 19.5, 17.21875 19.5 M17.21875 19.5 C17.21875 19.5, 17.21875 19.5, 17.21875 19.5 M17.21875 19.5 C17.21473485250678 19.59707731608002, 17.210719705013556 19.694154632160046, 17.201672465033347 19.912896727361662 M17.21875 19.5 C17.212774388868652 19.644476956711692, 17.206798777737305 19.788953913423384, 17.201672465033347 19.912896727361662 M17.201672465033347 19.912896727361662 C17.183062632694057 20.06219357250292, 17.164452800354766 20.211490417644182, 17.150556517013612 20.32297295140367 M17.201672465033347 19.912896727361662 C17.188515675094344 20.018446696553617, 17.17535888515534 20.123996665745576, 17.150556517013612 20.32297295140367 M17.150556517013612 20.32297295140367 C17.11909653405101 20.473012490113486, 17.08763655108841 20.623052028823302, 17.065751329696653 20.727427435703994 M17.150556517013612 20.32297295140367 C17.12519629400699 20.44392140093128, 17.099836071000368 20.56486985045889, 17.065751329696653 20.727427435703994 M17.065751329696653 20.727427435703994 C17.026534737007893 20.85915364852605, 16.987318144319133 20.990879861348102, 16.947836208503173 21.123497346023417 M17.065751329696653 20.727427435703994 C17.020381924867042 20.87982058019837, 16.97501252003743 21.032213724692742, 16.947836208503173 21.123497346023417 M16.947836208503173 21.123497346023417 C16.910653118439996 21.218789439001007, 16.87347002837682 21.314081531978598, 16.797616633275286 21.508477123264846 M16.947836208503173 21.123497346023417 C16.894109983338662 21.261185860749137, 16.840383758174152 21.398874375474858, 16.797616633275286 21.508477123264846 M16.797616633275286 21.508477123264846 C16.7464662634031 21.613106877184862, 16.695315893530914 21.71773663110488, 16.616118756032446 21.879736965185366 M16.797616633275286 21.508477123264846 C16.74420370581246 21.61773501271018, 16.690790778349633 21.726992902155516, 16.616118756032446 21.879736965185366 M16.616118756032446 21.879736965185366 C16.556972272507902 21.978997571935256, 16.497825788983363 22.078258178685147, 16.404582391312644 22.234740790612133 M16.616118756032446 21.879736965185366 C16.534209426334055 22.017198556810936, 16.452300096635664 22.154660148436506, 16.404582391312644 22.234740790612133 M16.404582391312644 22.234740790612133 C16.328713145817286 22.341002280470313, 16.252843900321928 22.44726377032849, 16.16445254698197 22.57106356344834 M16.404582391312644 22.234740790612133 C16.33296423551617 22.335048258890488, 16.261346079719694 22.435355727168847, 16.16445254698197 22.57106356344834 M16.16445254698197 22.57106356344834 C16.091437261023398 22.657272548676985, 16.01842197506483 22.74348153390563, 15.897369553365658 22.886407858128706 M16.16445254698197 22.57106356344834 C16.07765232954465 22.673548386518714, 15.990852112107337 22.776033209589084, 15.897369553365658 22.886407858128706 M15.897369553365658 22.886407858128706 C15.795694644547488 22.988082766946878, 15.694019735729317 23.089757675765046, 15.605157858128706 23.178619553365657 M15.897369553365658 22.886407858128706 C15.797506416600264 22.9862709948941, 15.69764327983487 23.086134131659495, 15.605157858128706 23.178619553365657 M15.605157858128706 23.178619553365657 C15.481633293423206 23.2832395229774, 15.358108728717706 23.387859492589143, 15.28981356344834 23.44570254698197 M15.605157858128706 23.178619553365657 C15.521723173311512 23.249285126735224, 15.438288488494319 23.31995070010479, 15.28981356344834 23.44570254698197 M15.28981356344834 23.44570254698197 C15.219625816702015 23.495815634947988, 15.149438069955691 23.545928722914006, 14.953490790612136 23.685832391312644 M15.28981356344834 23.44570254698197 C15.191893152760876 23.51561637641697, 15.093972742073413 23.585530205851967, 14.953490790612136 23.685832391312644 M14.953490790612136 23.685832391312644 C14.814997238504514 23.76835663598736, 14.676503686396892 23.850880880662075, 14.598486965185367 23.897368756032446 M14.953490790612136 23.685832391312644 C14.83602131946386 23.755829002933353, 14.718551848315583 23.825825614554066, 14.598486965185367 23.897368756032446 M14.598486965185367 23.897368756032446 C14.489514004540418 23.95064239029252, 14.380541043895468 24.00391602455259, 14.227227123264848 24.078866633275286 M14.598486965185367 23.897368756032446 C14.521185051657776 23.935159358806747, 14.443883138130182 23.972949961581044, 14.227227123264848 24.078866633275286 M14.227227123264848 24.078866633275286 C14.075619973489458 24.138023926689396, 13.924012823714067 24.197181220103506, 13.842247346023418 24.229086208503173 M14.227227123264848 24.078866633275286 C14.145022194861742 24.110943095875058, 14.062817266458636 24.14301955847483, 13.842247346023418 24.229086208503173 M13.842247346023418 24.229086208503173 C13.720160900472031 24.265432918132447, 13.598074454920644 24.30177962776172, 13.446177435703996 24.347001329696653 M13.842247346023418 24.229086208503173 C13.72819557525229 24.263040891811386, 13.61414380448116 24.2969955751196, 13.446177435703996 24.347001329696653 M13.446177435703996 24.347001329696653 C13.343828585444207 24.368461626849673, 13.241479735184416 24.389921924002696, 13.04172295140367 24.431806517013612 M13.446177435703996 24.347001329696653 C13.334364286435656 24.3704460816682, 13.222551137167319 24.393890833639745, 13.04172295140367 24.431806517013612 M13.04172295140367 24.431806517013612 C12.947133803159227 24.443597042046342, 12.852544654914782 24.455387567079068, 12.631646727361662 24.482922465033347 M13.04172295140367 24.431806517013612 C12.91736852551988 24.447307280034803, 12.793014099636089 24.462808043055993, 12.631646727361662 24.482922465033347 M12.631646727361662 24.482922465033347 C12.469334497776652 24.489635748507318, 12.307022268191643 24.49634903198129, 12.21875 24.5 M12.631646727361662 24.482922465033347 C12.543620573026878 24.486563253707644, 12.455594418692096 24.49020404238194, 12.21875 24.5" stroke="#9370DB" stroke-width="1.3" fill="none" stroke-dasharray="0 0" style=""/></g><g stroke-opacity="0"><path d="M-12.21875 -24.5 C-6.511584580773025 -24.5, -0.8044191615460505 -24.5, 12.21875 -24.5 M-12.21875 -24.5 C-3.3881927626405854 -24.5, 5.442364474718829 -24.5, 12.21875 -24.5 M12.21875 -24.5 C12.21875 -24.5, 12.21875 -24.5, 12.21875 -24.5 M12.21875 -24.5 C12.21875 -24.5, 12.21875 -24.5, 12.21875 -24.5 M12.21875 -24.5 C12.366046086033911 -24.493907788817392, 12.513342172067821 -24.487815577634784, 12.631646727361662 -24.482922465033347 M12.21875 -24.5 C12.309022659589807 -24.49626629518105, 12.399295319179613 -24.492532590362107, 12.631646727361662 -24.482922465033347 M12.631646727361662 -24.482922465033347 C12.79134599456434 -24.463015972136343, 12.95104526176702 -24.443109479239343, 13.04172295140367 -24.431806517013612 M12.631646727361662 -24.482922465033347 C12.726061681551089 -24.47115365326693, 12.820476635740514 -24.45938484150052, 13.04172295140367 -24.431806517013612 M13.04172295140367 -24.431806517013612 C13.174609872533415 -24.40394305974999, 13.307496793663159 -24.37607960248637, 13.446177435703996 -24.347001329696653 M13.04172295140367 -24.431806517013612 C13.161805265142707 -24.406627903583946, 13.281887578881744 -24.38144929015428, 13.446177435703996 -24.347001329696653 M13.446177435703996 -24.347001329696653 C13.573554377329371 -24.309079571144235, 13.700931318954748 -24.271157812591817, 13.842247346023418 -24.229086208503173 M13.446177435703996 -24.347001329696653 C13.530333970856256 -24.321946843649734, 13.614490506008517 -24.296892357602815, 13.842247346023418 -24.229086208503173 M13.842247346023418 -24.229086208503173 C13.970507267770122 -24.179039031735577, 14.098767189516828 -24.12899185496798, 14.227227123264848 -24.078866633275286 M13.842247346023418 -24.229086208503173 C13.931091292398197 -24.194419193052077, 14.019935238772975 -24.15975217760098, 14.227227123264848 -24.078866633275286 M14.227227123264848 -24.078866633275286 C14.312540546850853 -24.037159441888576, 14.397853970436858 -23.995452250501863, 14.598486965185367 -23.897368756032446 M14.227227123264848 -24.078866633275286 C14.330428121668769 -24.028414739413673, 14.43362912007269 -23.97796284555206, 14.598486965185367 -23.897368756032446 M14.598486965185367 -23.897368756032446 C14.739542765132027 -23.813317743039867, 14.880598565078687 -23.72926673004729, 14.953490790612134 -23.685832391312644 M14.598486965185367 -23.897368756032446 C14.710170487612848 -23.83081982151037, 14.821854010040328 -23.7642708869883, 14.953490790612134 -23.685832391312644 M14.953490790612134 -23.685832391312644 C15.052826668609857 -23.61490793764307, 15.152162546607581 -23.543983483973495, 15.28981356344834 -23.44570254698197 M14.953490790612134 -23.685832391312644 C15.039242601968748 -23.62460677480595, 15.124994413325362 -23.563381158299258, 15.28981356344834 -23.44570254698197 M15.28981356344834 -23.44570254698197 C15.391945406507931 -23.35920128836381, 15.494077249567521 -23.272700029745653, 15.605157858128706 -23.178619553365657 M15.28981356344834 -23.44570254698197 C15.401445238025286 -23.351155341494604, 15.513076912602232 -23.25660813600724, 15.605157858128706 -23.178619553365657 M15.605157858128706 -23.178619553365657 C15.710343095185962 -23.0734343163084, 15.81552833224322 -22.968249079251144, 15.897369553365658 -22.886407858128706 M15.605157858128706 -23.178619553365657 C15.716291375387756 -23.067486036106608, 15.827424892646807 -22.95635251884756, 15.897369553365658 -22.886407858128706 M15.897369553365658 -22.886407858128706 C15.991138625123487 -22.775694924310148, 16.084907696881313 -22.664981990491594, 16.16445254698197 -22.57106356344834 M15.897369553365658 -22.886407858128706 C15.975194579676991 -22.79452002319645, 16.05301960598832 -22.702632188264197, 16.16445254698197 -22.57106356344834 M16.16445254698197 -22.57106356344834 C16.240368758719878 -22.464736293274655, 16.316284970457783 -22.358409023100965, 16.404582391312644 -22.234740790612136 M16.16445254698197 -22.57106356344834 C16.22293935662083 -22.489147689780435, 16.281426166259696 -22.407231816112528, 16.404582391312644 -22.234740790612136 M16.404582391312644 -22.234740790612136 C16.480876452407063 -22.106702835616844, 16.55717051350148 -21.97866488062155, 16.616118756032446 -21.87973696518537 M16.404582391312644 -22.234740790612136 C16.45968980235317 -22.142258622098627, 16.514797213393695 -22.049776453585118, 16.616118756032446 -21.87973696518537 M16.616118756032446 -21.87973696518537 C16.667808271494827 -21.774004371333398, 16.71949778695721 -21.66827177748143, 16.797616633275286 -21.508477123264846 M16.616118756032446 -21.87973696518537 C16.660646742531004 -21.788653512973003, 16.70517472902956 -21.69757006076064, 16.797616633275286 -21.508477123264846 M16.797616633275286 -21.508477123264846 C16.857317910608984 -21.355475862183603, 16.917019187942678 -21.202474601102363, 16.947836208503173 -21.123497346023417 M16.797616633275286 -21.508477123264846 C16.837966650787266 -21.40506889081655, 16.878316668299245 -21.301660658368256, 16.947836208503173 -21.123497346023417 M16.947836208503173 -21.123497346023417 C16.979193568557033 -21.018169830275816, 17.010550928610893 -20.91284231452822, 17.065751329696653 -20.727427435703994 M16.947836208503173 -21.123497346023417 C16.992161608054907 -20.97461095344174, 17.036487007606645 -20.825724560860063, 17.065751329696653 -20.727427435703994 M17.065751329696653 -20.727427435703994 C17.082780206681615 -20.646212997329783, 17.099809083666578 -20.564998558955576, 17.150556517013612 -20.32297295140367 M17.065751329696653 -20.727427435703994 C17.09794595973838 -20.573884204414387, 17.130140589780105 -20.420340973124784, 17.150556517013612 -20.32297295140367 M17.150556517013612 -20.32297295140367 C17.161797861353904 -20.232789589482195, 17.173039205694195 -20.142606227560723, 17.201672465033347 -19.912896727361662 M17.150556517013612 -20.32297295140367 C17.16104996664455 -20.23878955329533, 17.17154341627549 -20.15460615518699, 17.201672465033347 -19.912896727361662 M17.201672465033347 -19.912896727361662 C17.206424352181056 -19.798006688728297, 17.21117623932877 -19.683116650094927, 17.21875 -19.5 M17.201672465033347 -19.912896727361662 C17.208153602091727 -19.75619728061994, 17.214634739150103 -19.599497833878214, 17.21875 -19.5 M17.21875 -19.5 C17.21875 -15.571572161084937, 17.21875 -11.643144322169876, 17.21875 -5 M17.21875 -19.5 C17.21875 -15.912516069898198, 17.21875 -12.325032139796395, 17.21875 -5 M17.21875 -5 C17.21875 -5, 17.21875 -5.000000000000001, 17.21875 -5.000000000000001 M17.21875 -5 C17.21875 -5, 17.21875 -5.000000000000001, 17.21875 -5.000000000000001 M17.21875 -5.000000000000001 C17.22546884036489 -4.837553417179573, 17.232187680729783 -4.675106834359147, 17.235827534966653 -4.58710327263834 M17.21875 -5.000000000000001 C17.222275285919146 -4.914766444813549, 17.22580057183829 -4.829532889627096, 17.235827534966653 -4.58710327263834 M17.235827534966653 -4.58710327263834 C17.248912361701176 -4.482130626186284, 17.2619971884357 -4.3771579797342275, 17.286943482986388 -4.177027048596331 M17.235827534966653 -4.58710327263834 C17.247991783957723 -4.489515934678001, 17.260156032948792 -4.391928596717661, 17.286943482986388 -4.177027048596331 M17.286943482986388 -4.177027048596331 C17.309733775152647 -4.068335161262746, 17.332524067318907 -3.959643273929159, 17.371748670303347 -3.7725725642960057 M17.286943482986388 -4.177027048596331 C17.315193744760418 -4.042295372166453, 17.343444006534444 -3.907563695736575, 17.371748670303347 -3.7725725642960057 M17.371748670303347 -3.7725725642960057 C17.414824803496714 -3.62788238344287, 17.45790093669008 -3.483192202589734, 17.489663791496827 -3.376502653976583 M17.371748670303347 -3.7725725642960057 C17.40473397811956 -3.6617768684056613, 17.437719285935774 -3.550981172515317, 17.489663791496827 -3.376502653976583 M17.489663791496827 -3.376502653976583 C17.535514889220007 -3.258996361198378, 17.58136598694319 -3.1414900684201736, 17.63988336672471 -2.991522876735154 M17.489663791496827 -3.376502653976583 C17.5432184004682 -3.2392539538602763, 17.596773009439573 -3.1020052537439695, 17.63988336672471 -2.991522876735154 M17.63988336672471 -2.991522876735154 C17.69816680304825 -2.8723022021753684, 17.756450239371784 -2.7530815276155827, 17.821381243967554 -2.6202630348146325 M17.63988336672471 -2.991522876735154 C17.71017142957633 -2.8477463461244015, 17.78045949242795 -2.7039698155136485, 17.821381243967554 -2.6202630348146325 M17.821381243967554 -2.6202630348146325 C17.877201662759887 -2.5265842849011055, 17.933022081552224 -2.4329055349875786, 18.032917608687356 -2.265259209387867 M17.821381243967554 -2.6202630348146325 C17.870037107763903 -2.5386079595748416, 17.91869297156025 -2.4569528843350508, 18.032917608687356 -2.265259209387867 M18.032917608687356 -2.265259209387867 C18.08854422408509 -2.1873492870031406, 18.144170839482825 -2.109439364618414, 18.27304745301803 -1.9289364365516608 M18.032917608687356 -2.265259209387867 C18.10638109464578 -2.1623671954084323, 18.179844580604207 -2.059475181428997, 18.27304745301803 -1.9289364365516608 M18.27304745301803 -1.9289364365516608 C18.371698587208428 -1.8124592625112197, 18.470349721398826 -1.6959820884707784, 18.54013044663434 -1.6135921418712957 M18.27304745301803 -1.9289364365516608 C18.350706051205957 -1.8372451029333985, 18.42836464939388 -1.745553769315136, 18.54013044663434 -1.6135921418712957 M18.54013044663434 -1.6135921418712957 C18.606213978912127 -1.5475086095935084, 18.672297511189914 -1.4814250773157212, 18.832342141871294 -1.321380446634342 M18.54013044663434 -1.6135921418712957 C18.640135921911043 -1.5135866665945945, 18.74014139718774 -1.4135811913178933, 18.832342141871294 -1.321380446634342 M18.832342141871294 -1.321380446634342 C18.93705484242381 -1.2326933132217617, 19.04176754297632 -1.1440061798091814, 19.14768643655166 -1.054297453018033 M18.832342141871294 -1.321380446634342 C18.912267181406577 -1.2536873911895878, 18.992192220941856 -1.185994335744834, 19.14768643655166 -1.054297453018033 M19.14768643655166 -1.054297453018033 C19.24572179135743 -0.9843015550599802, 19.343757146163203 -0.9143056571019275, 19.484009209387864 -0.8141676086873577 M19.14768643655166 -1.054297453018033 C19.231144200104975 -0.9947097551608799, 19.314601963658287 -0.9351220573037268, 19.484009209387864 -0.8141676086873577 M19.484009209387864 -0.8141676086873577 C19.60027104001009 -0.7448905946272144, 19.716532870632314 -0.6756135805670711, 19.839013034814634 -0.6026312439675543 M19.484009209387864 -0.8141676086873577 C19.60969811218056 -0.7392732788856287, 19.73538701497326 -0.6643789490838996, 19.839013034814634 -0.6026312439675543 M19.839013034814634 -0.6026312439675543 C19.929324619542896 -0.5584806004887867, 20.019636204271155 -0.514329957010019, 20.21027287673515 -0.4211333667247139 M19.839013034814634 -0.6026312439675543 C19.9298538700761 -0.5582218656689644, 20.02069470533757 -0.5138124873703745, 20.21027287673515 -0.4211333667247139 M20.21027287673515 -0.4211333667247139 C20.298809579105818 -0.38658623825604377, 20.387346281476486 -0.3520391097873736, 20.59525265397658 -0.2709137914968265 M20.21027287673515 -0.4211333667247139 C20.295467929438868 -0.38789015400228555, 20.380662982142585 -0.3546469412798572, 20.59525265397658 -0.2709137914968265 M20.59525265397658 -0.2709137914968265 C20.69801047910861 -0.24032146148556788, 20.800768304240638 -0.2097291314743093, 20.991322564296006 -0.15299867030334813 M20.59525265397658 -0.2709137914968265 C20.7088252196029 -0.23710177374147287, 20.822397785229217 -0.20328975598611926, 20.991322564296006 -0.15299867030334813 M20.991322564296006 -0.15299867030334813 C21.14204704883716 -0.12139506930266422, 21.292771533378314 -0.08979146830198033, 21.395777048596326 -0.06819348298638861 M20.991322564296006 -0.15299867030334813 C21.138340685043634 -0.1221722120664995, 21.28535880579126 -0.09134575382965086, 21.395777048596326 -0.06819348298638861 M21.395777048596326 -0.06819348298638861 C21.557392846860925 -0.04804809474165256, 21.719008645125527 -0.027902706496916507, 21.805853272638338 -0.017077534966650987 M21.395777048596326 -0.06819348298638861 C21.50147944718281 -0.055017692743170726, 21.607181845769297 -0.041841902499952836, 21.805853272638338 -0.017077534966650987 M21.805853272638338 -0.017077534966650987 C21.91052700118503 -0.012748197529737493, 22.015200729731728 -0.008418860092824, 22.21875 0 M21.805853272638338 -0.017077534966650987 C21.954034593083954 -0.010948710217943351, 22.102215913529573 -0.0048198854692357174, 22.21875 0 M22.21875 0 C22.21875 0, 22.21875 0, 22.21875 0 M22.21875 0 C22.21875 0, 22.21875 0, 22.21875 0 M22.21875 0 C22.129080828158095 0.0037087443810603997, 22.039411656316187 0.0074174887621207995, 21.805853272638338 0.017077534966650987 M22.21875 0 C22.080531848026663 0.005716745052529812, 21.942313696053326 0.011433490105059623, 21.805853272638338 0.017077534966650987 M21.805853272638338 0.017077534966650987 C21.658497439578245 0.03544542040234286, 21.51114160651815 0.053813305838034724, 21.39577704859633 0.06819348298638772 M21.805853272638338 0.017077534966650987 C21.7221289451342 0.027513761506452357, 21.63840461763007 0.03794998804625373, 21.39577704859633 0.06819348298638772 M21.39577704859633 0.06819348298638772 C21.267989324784676 0.09498775100743007, 21.140201600973022 0.12178201902847241, 20.991322564296006 0.15299867030334813 M21.39577704859633 0.06819348298638772 C21.26989978738692 0.09458716912458678, 21.144022526177512 0.12098085526278583, 20.991322564296006 0.15299867030334813 M20.991322564296006 0.15299867030334813 C20.887285205160392 0.18397193409213702, 20.783247846024775 0.21494519788092592, 20.595252653976583 0.2709137914968265 M20.991322564296006 0.15299867030334813 C20.844262371913604 0.19678038649966872, 20.697202179531203 0.24056210269598932, 20.595252653976583 0.2709137914968265 M20.595252653976583 0.2709137914968265 C20.498679872766665 0.30859660765896474, 20.402107091556744 0.346279423821103, 20.210272876735154 0.421133366724713 M20.595252653976583 0.2709137914968265 C20.442234764395486 0.3306215572912999, 20.289216874814393 0.3903293230857733, 20.210272876735154 0.421133366724713 M20.210272876735154 0.421133366724713 C20.067824042770862 0.49077235823667803, 19.92537520880657 0.560411349748643, 19.83901303481463 0.6026312439675543 M20.210272876735154 0.421133366724713 C20.13375572051418 0.4585403250289687, 20.057238564293208 0.49594728333322435, 19.83901303481463 0.6026312439675543 M19.83901303481463 0.6026312439675543 C19.707339782363785 0.6810914721659419, 19.575666529912944 0.7595517003643295, 19.484009209387867 0.8141676086873568 M19.83901303481463 0.6026312439675543 C19.726169945924227 0.6698711301263424, 19.61332685703382 0.7371110162851304, 19.484009209387867 0.8141676086873568 M19.484009209387867 0.8141676086873568 C19.362519278298993 0.9009097522362378, 19.241029347210116 0.9876518957851189, 19.14768643655166 1.054297453018032 M19.484009209387867 0.8141676086873568 C19.36365993129042 0.900095341653936, 19.24331065319297 0.9860230746205152, 19.14768643655166 1.054297453018032 M19.14768643655166 1.054297453018032 C19.059453204693007 1.1290271884176748, 18.971219972834355 1.2037569238173176, 18.832342141871294 1.321380446634341 M19.14768643655166 1.054297453018032 C19.021987351489177 1.1607591474252439, 18.896288266426694 1.2672208418324558, 18.832342141871294 1.321380446634341 M18.832342141871294 1.321380446634341 C18.760368166466122 1.3933544220395142, 18.688394191060947 1.4653283974446873, 18.540130446634343 1.6135921418712944 M18.832342141871294 1.321380446634341 C18.761858585233416 1.3918640032722192, 18.69137502859554 1.462347559910097, 18.540130446634343 1.6135921418712944 M18.540130446634343 1.6135921418712944 C18.462981364514015 1.704681891005316, 18.385832282393682 1.7957716401393375, 18.273047453018034 1.9289364365516604 M18.540130446634343 1.6135921418712944 C18.45579414068498 1.7131678301450144, 18.371457834735615 1.8127435184187346, 18.273047453018034 1.9289364365516604 M18.273047453018034 1.9289364365516604 C18.21036327255331 2.016731093836448, 18.147679092088584 2.1045257511212356, 18.032917608687356 2.265259209387866 M18.273047453018034 1.9289364365516604 C18.21598152549269 2.0088622409983716, 18.15891559796735 2.0887880454450833, 18.032917608687356 2.265259209387866 M18.032917608687356 2.265259209387866 C17.957068371056383 2.392550654290806, 17.88121913342541 2.519842099193746, 17.821381243967554 2.6202630348146316 M18.032917608687356 2.265259209387866 C17.967198954577608 2.3755493414971207, 17.901480300467863 2.4858394736063754, 17.821381243967554 2.6202630348146316 M17.821381243967554 2.6202630348146316 C17.770119000777715 2.725121629263577, 17.718856757587872 2.8299802237125222, 17.639883366724714 2.991522876735151 M17.821381243967554 2.6202630348146316 C17.778189942659 2.7086122537683086, 17.734998641350447 2.796961472721985, 17.639883366724714 2.991522876735151 M17.639883366724714 2.991522876735151 C17.593247778177993 3.1110396471893575, 17.546612189631272 3.230556417643564, 17.489663791496827 3.3765026539765817 M17.639883366724714 2.991522876735151 C17.603492961825676 3.084783491741577, 17.56710255692664 3.1780441067480036, 17.489663791496827 3.3765026539765817 M17.489663791496827 3.3765026539765817 C17.459881789614208 3.476538634904147, 17.430099787731585 3.5765746158317127, 17.371748670303347 3.772572564296005 M17.489663791496827 3.3765026539765817 C17.45499910387848 3.4929392871859966, 17.420334416260136 3.6093759203954114, 17.371748670303347 3.772572564296005 M17.371748670303347 3.772572564296005 C17.338315819713337 3.9320211401659426, 17.304882969123327 4.09146971603588, 17.286943482986388 4.1770270485963295 M17.371748670303347 3.772572564296005 C17.352799119726466 3.8629471150608023, 17.33384956914959 3.9533216658256, 17.286943482986388 4.1770270485963295 M17.286943482986388 4.1770270485963295 C17.273685515943978 4.283388708192789, 17.260427548901564 4.389750367789248, 17.235827534966653 4.587103272638337 M17.286943482986388 4.1770270485963295 C17.27232414408857 4.2943102747803055, 17.257704805190755 4.4115935009642815, 17.235827534966653 4.587103272638337 M17.235827534966653 4.587103272638337 C17.23154212054622 4.690715040556899, 17.227256706125782 4.7943268084754616, 17.21875 4.999999999999999 M17.235827534966653 4.587103272638337 C17.231592157998236 4.6895052465073475, 17.22735678102982 4.791907220376358, 17.21875 4.999999999999999 M17.21875 4.999999999999999 C17.21875 8.87213855925189, 17.21875 12.744277118503785, 17.21875 19.5 M17.21875 4.999999999999999 C17.21875 10.79614684711567, 17.21875 16.59229369423134, 17.21875 19.5 M17.21875 19.5 C17.21875 19.5, 17.21875 19.5, 17.21875 19.5 M17.21875 19.5 C17.21875 19.5, 17.21875 19.5, 17.21875 19.5 M17.21875 19.5 C17.21408468352624 19.612796952714934, 17.209419367052483 19.725593905429868, 17.201672465033347 19.912896727361662 M17.21875 19.5 C17.212225914677187 19.657737840038255, 17.205701829354375 19.815475680076513, 17.201672465033347 19.912896727361662 M17.201672465033347 19.912896727361662 C17.18930764089225 20.012093173699057, 17.176942816751154 20.111289620036448, 17.150556517013612 20.32297295140367 M17.201672465033347 19.912896727361662 C17.190319846788118 20.003972780987763, 17.178967228542888 20.095048834613866, 17.150556517013612 20.32297295140367 M17.150556517013612 20.32297295140367 C17.130704405936456 20.417652010574603, 17.110852294859296 20.51233106974554, 17.065751329696653 20.727427435703994 M17.150556517013612 20.32297295140367 C17.11805754364319 20.47796766258446, 17.085558570272763 20.632962373765253, 17.065751329696653 20.727427435703994 M17.065751329696653 20.727427435703994 C17.020940260520963 20.877945163795975, 16.976129191345272 21.02846289188796, 16.947836208503173 21.123497346023417 M17.065751329696653 20.727427435703994 C17.035026013434745 20.830631953777818, 17.004300697172837 20.933836471851638, 16.947836208503173 21.123497346023417 M16.947836208503173 21.123497346023417 C16.91691431190001 21.20274337536486, 16.885992415296844 21.28198940470631, 16.797616633275286 21.508477123264846 M16.947836208503173 21.123497346023417 C16.89997624546005 21.246151919391593, 16.852116282416922 21.36880649275977, 16.797616633275286 21.508477123264846 M16.797616633275286 21.508477123264846 C16.734332026817675 21.63792785484568, 16.671047420360065 21.76737858642652, 16.616118756032446 21.879736965185366 M16.797616633275286 21.508477123264846 C16.760809150929145 21.583768031813804, 16.724001668583007 21.65905894036276, 16.616118756032446 21.879736965185366 M16.616118756032446 21.879736965185366 C16.542514786849235 22.003260363449513, 16.46891081766602 22.12678376171366, 16.404582391312644 22.234740790612133 M16.616118756032446 21.879736965185366 C16.544779462207217 21.999459747813056, 16.473440168381988 22.119182530440746, 16.404582391312644 22.234740790612133 M16.404582391312644 22.234740790612133 C16.33870416921761 22.327008981541415, 16.272825947122577 22.419277172470693, 16.16445254698197 22.57106356344834 M16.404582391312644 22.234740790612133 C16.354352514210202 22.305092110721482, 16.304122637107756 22.375443430830835, 16.16445254698197 22.57106356344834 M16.16445254698197 22.57106356344834 C16.095405766372707 22.652586943265096, 16.026358985763444 22.734110323081847, 15.897369553365658 22.886407858128706 M16.16445254698197 22.57106356344834 C16.071805515498998 22.68045170681773, 15.979158484016029 22.78983985018712, 15.897369553365658 22.886407858128706 M15.897369553365658 22.886407858128706 C15.787359201626751 22.996418209867613, 15.677348849887844 23.106428561606517, 15.605157858128706 23.178619553365657 M15.897369553365658 22.886407858128706 C15.825758763888881 22.95801864760548, 15.754147974412106 23.029629437082257, 15.605157858128706 23.178619553365657 M15.605157858128706 23.178619553365657 C15.48189109171982 23.28302117895796, 15.358624325310933 23.387422804550262, 15.28981356344834 23.44570254698197 M15.605157858128706 23.178619553365657 C15.529714998774075 23.242516395843282, 15.454272139419443 23.306413238320907, 15.28981356344834 23.44570254698197 M15.28981356344834 23.44570254698197 C15.216841509974904 23.497803591741135, 15.143869456501466 23.5499046365003, 14.953490790612136 23.685832391312644 M15.28981356344834 23.44570254698197 C15.183400312394685 23.521680147888226, 15.07698706134103 23.597657748794486, 14.953490790612136 23.685832391312644 M14.953490790612136 23.685832391312644 C14.813453734450423 23.76927636477096, 14.673416678288708 23.852720338229275, 14.598486965185367 23.897368756032446 M14.953490790612136 23.685832391312644 C14.877793071659717 23.730938441270066, 14.8020953527073 23.776044491227488, 14.598486965185367 23.897368756032446 M14.598486965185367 23.897368756032446 C14.499719962776059 23.94565300133675, 14.400952960366752 23.993937246641057, 14.227227123264848 24.078866633275286 M14.598486965185367 23.897368756032446 C14.506067993821354 23.94254963806042, 14.413649022457339 23.987730520088395, 14.227227123264848 24.078866633275286 M14.227227123264848 24.078866633275286 C14.081612409797042 24.135685670786305, 13.935997696329235 24.192504708297324, 13.842247346023418 24.229086208503173 M14.227227123264848 24.078866633275286 C14.133580351913235 24.115407716847788, 14.039933580561623 24.15194880042029, 13.842247346023418 24.229086208503173 M13.842247346023418 24.229086208503173 C13.689865530197945 24.274452240641924, 13.537483714372472 24.319818272780676, 13.446177435703996 24.347001329696653 M13.842247346023418 24.229086208503173 C13.70667002361596 24.26944932619083, 13.571092701208503 24.30981244387849, 13.446177435703996 24.347001329696653 M13.446177435703996 24.347001329696653 C13.332017070421525 24.370938241111297, 13.217856705139054 24.39487515252594, 13.04172295140367 24.431806517013612 M13.446177435703996 24.347001329696653 C13.318083752404972 24.373859750675926, 13.189990069105948 24.4007181716552, 13.04172295140367 24.431806517013612 M13.04172295140367 24.431806517013612 C12.88745239527987 24.45103632178033, 12.733181839156071 24.470266126547042, 12.631646727361662 24.482922465033347 M13.04172295140367 24.431806517013612 C12.924953439290304 24.446361821519307, 12.80818392717694 24.460917126025, 12.631646727361662 24.482922465033347 M12.631646727361662 24.482922465033347 C12.497481598493316 24.48847157581026, 12.36331646962497 24.494020686587174, 12.21875 24.5 M12.631646727361662 24.482922465033347 C12.540673056619996 24.486685163888005, 12.449699385878331 24.490447862742663, 12.21875 24.5 M12.21875 24.5 C12.21875 24.5, 12.21875 24.5, 12.21875 24.5 M12.21875 24.5 C12.21875 24.5, 12.21875 24.5, 12.21875 24.5 M12.21875 24.5 C6.232274064114532 24.5, 0.24579812822906355 24.5, -12.21875 24.5 M12.21875 24.5 C4.549361858734681 24.5, -3.120026282530638 24.5, -12.21875 24.5 M-12.21875 24.5 C-12.21875 5.856772743262098, -12.21875 -12.786454513475803, -12.21875 -24.5 M-12.21875 24.5 C-12.21875 12.420009292710173, -12.21875 0.3400185854203457, -12.21875 -24.5" stroke="#9370DB" stroke-width="1.3" fill="none" stroke-dasharray="0 0" style=""/></g></g><g class="label" style="" transform="translate(-4.71875,-12)"><rect/><foreignObject width="9.4375" height="24"><div xmlns="http://www.w3.org/1999/xhtml" style="display: table-cell; white-space: nowrap; line-height: 1.5; max-width: 200px; text-align: center;"><span class="nodeLabel"><p>A</p></span></div></foreignObject></g></g></g></g></g></svg>