<svg id="my-svg" width="100%" xmlns="http://www.w3.org/2000/svg" xmlns:xlink="http://www.w3.org/1999/xlink" class="flowchart" style="max-width: 116px; background-color: white;" viewBox="0 0 116 113.15737915039062" role="graphics-document document" aria-roledescription="flowchart-v2"><style>#my-svg{font-family:"trebuchet ms",verdana,arial,sans-serif;font-size:16px;fill:#333;}@keyframes edge-animation-frame{from{stroke-dashoffset:0;}}@keyframes dash{to{stroke-dashoffset:0;}}#my-svg .edge-animation-slow{stroke-dasharray:9,5!important;stroke-dashoffset:900;animation:dash 50s linear infinite;stroke-linecap:round;}#my-svg .edge-animation-fast{stroke-dasharray:9,5!important;stroke-dashoffset:900;animation:dash 20s linear infinite;stroke-linecap:round;}#my-svg .error-icon{fill:#552222;}#my-svg .error-text{fill:#552222;stroke:#552222;}#my-svg .edge-thickness-normal{stroke-width:1px;}#my-svg .edge-thickness-thick{stroke-width:3.5px;}#my-svg .edge-pattern-solid{stroke-dasharray:0;}#my-svg .edge-thickness-invisible{stroke-width:0;fill:none;}#my-svg .edge-pattern-dashed{stroke-dasharray:3;}#my-svg .edge-pattern-dotted{stroke-dasharray:2;}#my-svg .marker{fill:#333333;stroke:#333333;}#my-svg .marker.cross{stroke:#333333;}#my-svg svg{font-family:"trebuchet ms",verdana,arial,sans-serif;font-size:16px;}#my-svg p{margin:0;}#my-svg .label{font-family:"trebuchet ms",verdana,arial,sans-serif;color:#333;}#my-svg .cluster-label text{fill:#333;}#my-svg .cluster-label span{color:#333;}#my-svg .cluster-label span p{background-color:transparent;}#my-svg .label text,#my-svg span{fill:#333;color:#333;}#my-svg .node rect,#my-svg .node circle,#my-svg .node ellipse,#my-svg .node polygon,#my-svg .node path{fill:#ECECFF;stroke:#9370DB;stroke-width:1px;}#my-svg .rough-node .label text,#my-svg .node .label text,#my-svg .image-shape .label,#my-svg .icon-shape .label{text-anchor:middle;}#my-svg .node .katex path{fill:#000;stroke:#000;stroke-width:1px;}#my-svg .rough-node .label,#my-svg .node .label,#my-svg .image-shape .label,#my-svg .icon-shape .label{text-align:center;}#my-svg .node.clickable{cursor:pointer;}#my-svg .root .anchor path{fill:#333333!important;stroke-width:0;stroke:#333333;}#my-svg .arrowheadPath{fill:#333333;}#my-svg .edgePath .path{stroke:#333333;stroke-width:2.0px;}#my-svg .flowchart-link{stroke:#333333;fill:none;}#my-svg .edgeLabel{background-color:rgba(232,232,232, 0.8);text-align:center;}#my-svg .edgeLabel p{background-color:rgba(232,232,232, 0.8);}#my-svg .edgeLabel rect{opacity:0.5;background-color:rgba(232,232,232, 0.8);fill:rgba(232,232,232, 0.8);}#my-svg .labelBkg{background-color:rgba(232, 232, 232, 0.5);}#my-svg .cluster rect{fill:#ffffde;stroke:#aaaa33;stroke-width:1px;}#my-svg .cluster text{fill:#333;}#my-svg .cluster span{color:#333;}#my-svg div.mermaidTooltip{position:absolute;text-align:center;max-width:200px;padding:2px;font-family:"trebuchet ms",verdana,arial,sans-serif;font-size:12px;background:hsl(80, 100%, 96.2745098039%);border:1px solid #aaaa33;border-radius:2px;pointer-events:none;z-index:100;}#my-svg .flowchartTitleText{text-anchor:middle;font-size:18px;fill:#333;}#my-svg rect.text{fill:none;stroke-width:0;}#my-svg .icon-shape,#my-svg .image-shape{background-color:rgba(232,232,232, 0.8);text-align:center;}#my-svg .icon-shape p,#my-svg .image-shape p{background-color:rgba(232,232,232, 0.8);padding:2px;}#my-svg .icon-shape .label rect,#my-svg .image-shape .label rect{opacity:0.5;background-color:rgba(232,232,232, 0.8);fill:rgba(232,232,232, 0.8);}#my-svg .label-icon{display:inline-block;height:1em;overflow:visible;vertical-align:-0.125em;}#my-svg .node .label-icon path{fill:currentColor;stroke:revert;stroke-width:revert;}#my-svg :root{--mermaid-font-family:"trebuchet ms",verdana,arial,sans-serif;}</style><g><marker id="my-svg_flowchart-v2-pointEnd" class="marker flowchart-v2" viewBox="0 0 10 10" refX="5" refY="5" markerUnits="userSpaceOnUse" markerWidth="8" markerHeight="8" orient="auto"><path d="M 0 0 L 10 5 L 0 10 z" class="arrowMarkerPath" style="stroke-width: 1; stroke-dasharray: 1, 0;"/></marker><marker id="my-svg_flowchart-v2-pointStart" class="marker flowchart-v2" viewBox="0 0 10 10" refX="4.5" refY="5" markerUnits="userSpaceOnUse" markerWidth="8" markerHeight="8" orient="auto"><path d="M 0 5 L 10 10 L 10 0 z" class="arrowMarkerPath" style="stroke-width: 1; stroke-dasharray: 1, 0;"/></marker><marker id="my-svg_flowchart-v2-circleEnd" class="marker flowchart-v2" viewBox="0 0 10 10" refX="11" refY="5" markerUnits="userSpaceOnUse" markerWidth="11" markerHeight="11" orient="auto"><circle cx="5" cy="5" r="5" class="arrowMarkerPath" style="stroke-width: 1; stroke-dasharray: 1, 0;"/></marker><marker id="my-svg_flowchart-v2-circleStart" class="marker flowchart-v2" viewBox="0 0 10 10" refX="-1" refY="5" markerUnits="userSpaceOnUse" markerWidth="11" markerHeight="11" orient="auto"><circle cx="5" cy="5" r="5" class="arrowMarkerPath" style="stroke-width: 1; stroke-dasharray: 1, 0;"/></marker><marker id="my-svg_flowchart-v2-crossEnd" class="marker cross flowchart-v2" viewBox="0 0 11 11" refX="12" refY="5.2" markerUnits="userSpaceOnUse" markerWidth="11" markerHeight="11" orient="auto"><path d="M 1,1 l 9,9 M 10,1 l -9,9" class="arrowMarkerPath" style="stroke-width: 2; stroke-dasharray: 1, 0;"/></marker><marker id="my-svg_flowchart-v2-crossStart" class="marker cross flowchart-v2" viewBox="0 0 11 11" refX="-1" refY="5.2" markerUnits="userSpaceOnUse" markerWidth="11" markerHeight="11" orient="auto"><path d="M 1,1 l 9,9 M 10,1 l -9,9" class="arrowMarkerPath" style="stroke-width: 2; stroke-dasharray: 1, 0;"/></marker><g class="root"><g class="clusters"/><g class="edgePaths"/><g class="edgeLabels"/><g class="nodes"><g class="node default" id="flowchart-A-0" transform="translate(58, 56.57868957519531)"><g class="basic label-container"><path d="M-50 37.8 C-50 37.8, -50 37.8, -50 37.8 C-49.540676802235026 38.11086969278569, -49.08135360447006 38.421739385571385, -48 39.15359892249448 C-47.42500196463698 39.53662002322856, -46.85000392927396 39.919641123962634, -46 40.48585078138043 C-45.41743997992564 40.861571231551565, -44.83487995985128 41.2372916817227, -44 41.77574516899452 C-43.37115590113398 42.16160218229167, -42.74231180226796 42.547459195588814, -42 43.002939680298525 C-41.587615566745924 43.23905885060637, -41.17523113349185 43.475178020914214, -40 44.14808072475871 C-39.43155979313245 44.44509869648714, -38.8631195862649 44.74211666821557, -38 45.193108744029836 C-37.44008710913754 45.45302990430086, -36.88017421827507 45.71295106457189, -36 46.121543021978525 C-35.42468021460338 46.350865078074456, -34.849360429206754 46.58018713417038, -34 46.918741595421764 C-33.35965574073606 47.12793904608792, -32.71931148147211 47.33713649675408, -32 47.57213216663301 C-31.3797345320839 47.726974682705844, -30.7594690641678 47.881817198778684, -30 48.071410375987654 C-29.44653337330546 48.16475028986271, -28.89306674661092 48.25809020373777, -28 48.40870230786984 C-27.290575127588475 48.46899858344763, -26.581150255176947 48.52929485902543, -26 48.57868866702533 C-25.591358210820538 48.57868866702533, -25.18271642164107 48.57868866702533, -24 48.57868866702533 C-23.367176508091617 48.52490298633654, -22.73435301618324 48.47111730564776, -21.999999999999996 48.40870230786983 C-21.49548076784203 48.32361717462669, -20.990961535684058 48.23853204138356, -20 48.071410375987654 C-19.414560173397717 47.92526170183221, -18.829120346795435 47.77911302767677, -18 47.57213216663301 C-17.351829996934043 47.36037808236038, -16.703659993868083 47.14862399808774, -16 46.91874159542176 C-15.498432784060135 46.71881726090518, -14.996865568120272 46.5188929263886, -14 46.121543021978525 C-13.514164892961356 45.89601003857575, -13.028329785922713 45.67047705517298, -12 45.193108744029836 C-11.38713585784686 44.87287864375154, -10.774271715693724 44.55264854347324, -10 44.14808072475871 C-9.446323979951403 43.8310621568132, -8.892647959902806 43.5140435888677, -8 43.002939680298525 C-7.543540213221145 42.72285720781552, -7.087080426442289 42.44277473533251, -6 41.77574516899452 C-5.204663764159388 41.26279529555606, -4.409327528318777 40.749845422117595, -4 40.48585078138043 C-3.5084069734813004 40.15838791968297, -3.0168139469626007 39.830925057985525, -2 39.15359892249448 C-1.4015400947318182 38.7485615810309, -0.8030801894636361 38.343524239567316, 0 37.8 C0.7622012943011963 37.284142574655, 1.5244025886023926 36.768285149309996, 2 36.44640107750551 C2.7928195398733098 35.91828342462685, 3.5856390797466196 35.39016577174819, 4 35.11414921861956 C4.56453121170042 34.750056397816884, 5.129062423400841 34.38596357701421, 6.000000000000007 33.82425483100547 C6.476832373530729 33.531671795200985, 6.953664747061451 33.23908875939651, 7.999999999999993 32.59706031970148 C8.699460673903848 32.19656975636493, 9.398921347807704 31.79607919302839, 10 31.451919275241284 C10.527731388981982 31.176172231173766, 11.055462777963962 30.900425187106244, 12 30.40689125597016 C12.654915835684545 30.102868100459688, 13.30983167136909 29.798844944949217, 14 29.47845697802147 C14.642638641242614 29.222301674002413, 15.285277282485229 28.966146369983356, 16 28.68125840457823 C16.686854522865346 28.456866270061223, 17.373709045730692 28.232474135544212, 18 28.027867833366983 C18.613093184029317 27.874815799822137, 19.22618636805863 27.72176376627729, 20 27.52858962401234 C20.76338292301897 27.39984817357687, 21.526765846037936 27.271106723141404, 22 27.191297692130156 C22.489027315249494 27.149733705706733, 22.978054630498985 27.10816971928331, 24 27.021311332974662 C24.46338544435044 27.021311332974662, 24.926770888700876 27.021311332974662, 26 27.021311332974662 C26.559659621111642 27.068878583654218, 27.11931924222328 27.116445834333774, 28 27.19129769213016 C28.611487649707804 27.29442261747618, 29.222975299415612 27.3975475428222, 30 27.528589624012337 C30.433734809107463 27.636866793425312, 30.867469618214926 27.74514396283829, 32 28.027867833366983 C32.7673640553296 28.27856205258638, 33.53472811065921 28.529256271805778, 34 28.681258404578237 C34.557329957120665 28.903409727955125, 35.11465991424133 29.125561051332014, 36 29.478456978021477 C36.7257056835486 29.815341994175824, 37.451411367097194 30.152227010330176, 38 30.406891255970162 C38.45820545833283 30.64631002724055, 38.916410916665654 30.885728798510936, 40 31.451919275241295 C40.7824428606226 31.89992299256318, 41.5648857212452 32.347926709885066, 42 32.59706031970147 C42.64168810329678 32.99079837886891, 43.28337620659356 33.384536438036356, 44 33.824254831005476 C44.68703167814627 34.26735398388246, 45.374063356292545 34.71045313675944, 46 35.114149218619566 C46.4859947468329 35.43788292105803, 46.97198949366581 35.76161662349651, 48 36.44640107750551 C48.51401740960941 36.79428778340086, 49.02803481921881 37.14217448929622, 50 37.800000000000004 C50 11.291266658456987, 50 -15.21746668308603, 50 -37.8 C50 -37.8, 50 -37.8, 50 -37.8 C49.321842196009264 -38.25897683638154, 48.64368439201853 -38.71795367276308, 48 -39.15359892249448 C47.31093990491644 -39.612599718774085, 46.62187980983287 -40.07160051505369, 46 -40.48585078138043 C45.28009405637471 -40.95015209952657, 44.560188112749415 -41.41445341767272, 44 -41.77574516899452 C43.26575445439023 -42.22627622075538, 42.531508908780474 -42.676807272516236, 42 -43.002939680298525 C41.49739290042421 -43.290717689779186, 40.994785800848426 -43.57849569925985, 40 -44.14808072475871 C39.52240402838604 -44.39763131087251, 39.044808056772084 -44.64718189698631, 38 -45.193108744029836 C37.33579341301801 -45.50144482552653, 36.67158682603603 -45.80978090702322, 36 -46.121543021978525 C35.57545859878161 -46.29076492168797, 35.15091719756322 -46.45998682139742, 34 -46.918741595421764 C33.212762534887666 -47.17592836392608, 32.42552506977533 -47.43311513243041, 32 -47.57213216663301 C31.475764133603935 -47.703001938959865, 30.951528267207873 -47.83387171128672, 30 -48.071410375987654 C29.34813315194513 -48.18134509024284, 28.696266303890262 -48.29127980449803, 28 -48.40870230786984 C27.45062293804361 -48.45539561115259, 26.901245876087227 -48.50208891443535, 26 -48.57868866702533 C25.56214433849086 -48.57868866702533, 25.124288676981717 -48.57868866702533, 24 -48.57868866702533 C23.42216651644167 -48.52957676199122, 22.84433303288334 -48.48046485695711, 21.999999999999996 -48.40870230786983 C21.284260973935357 -48.287995808457424, 20.568521947870718 -48.16728930904502, 20 -48.071410375987654 C19.57769935783121 -47.96598762177198, 19.15539871566242 -47.860564867556306, 18 -47.57213216663301 C17.528804652743467 -47.418194868084996, 17.05760930548693 -47.26425756953698, 16 -46.91874159542176 C15.488810452603532 -46.71498180644998, 14.977620905207065 -46.511222017478204, 14 -46.121543021978525 C13.20484327293443 -45.75241764110394, 12.409686545868858 -45.38329226022936, 12 -45.193108744029836 C11.368238301742409 -44.86300440593909, 10.736476603484817 -44.53290006784834, 10 -44.14808072475871 C9.558356791583517 -43.89520884227631, 9.116713583167034 -43.64233695979391, 8 -43.002939680298525 C7.593103674404944 -42.75326921157851, 7.186207348809886 -42.5035987428585, 6 -41.77574516899452 C5.280759671230967 -41.31187313728207, 4.561519342461933 -40.84800110556963, 4 -40.48585078138043 C3.3014580571987078 -40.02053388047702, 2.6029161143974155 -39.55521697957361, 2 -39.15359892249448 C1.555853177195778 -38.85300059210591, 1.111706354391556 -38.55240226171734, 0 -37.8 C-0.740450013560124 -37.29886382974199, -1.480900027120248 -36.79772765948399, -2 -36.44640107750551 C-2.5742212326130396 -36.06389742522526, -3.148442465226079 -35.68139377294501, -4 -35.11414921861956 C-4.446469310141806 -34.82620008992264, -4.892938620283612 -34.538250961225714, -6.000000000000007 -33.82425483100547 C-6.619505382855181 -33.44412802822389, -7.239010765710353 -33.06400122544232, -7.999999999999993 -32.59706031970148 C-8.600592911849196 -32.253178522516286, -9.201185823698399 -31.909296725331096, -10 -31.451919275241284 C-10.737614407120233 -31.06650541381193, -11.475228814240468 -30.68109155238258, -12 -30.40689125597016 C-12.72733770813519 -30.069248626031484, -13.45467541627038 -29.73160599609281, -14 -29.47845697802147 C-14.58766151394457 -29.24421551772942, -15.175323027889137 -29.009974057437365, -16 -28.68125840457823 C-16.44415238606285 -28.536155913961007, -16.8883047721257 -28.391053423343788, -18 -28.027867833366983 C-18.732640838185972 -27.844972030472196, -19.465281676371944 -27.662076227577405, -20 -27.52858962401234 C-20.627512804500107 -27.422762120957017, -21.255025609000214 -27.316934617901694, -22 -27.191297692130156 C-22.610892981378182 -27.139375955261094, -23.22178596275636 -27.087454218392033, -24 -27.021311332974662 C-24.693129169358915 -27.021311332974662, -25.386258338717834 -27.021311332974662, -26 -27.021311332974662 C-26.778863695410514 -27.08750943490528, -27.55772739082103 -27.153707536835892, -28 -27.19129769213016 C-28.688647561276383 -27.30743532529459, -29.377295122552766 -27.423572958459022, -30 -27.528589624012337 C-30.467007246140362 -27.64517289481664, -30.934014492280728 -27.76175616562094, -32 -28.027867833366983 C-32.72652923541825 -28.265221509432784, -33.453058470836496 -28.50257518549859, -34 -28.681258404578237 C-34.66248514403917 -28.94532451045592, -35.32497028807833 -29.2093906163336, -36 -29.478456978021477 C-36.78588763704198 -29.843279488444413, -37.57177527408396 -30.20810199886735, -38 -30.406891255970162 C-38.40801194729944 -30.62008321453281, -38.81602389459888 -30.833275173095455, -40 -31.451919275241295 C-40.688022331980555 -31.84586058116936, -41.37604466396111 -32.23980188709743, -42 -32.59706031970147 C-42.45654887880909 -32.877197458809725, -42.913097757618175 -33.15733459791798, -44 -33.824254831005476 C-44.787990401536454 -34.3324670292233, -45.575980803072916 -34.84067922744113, -46 -35.114149218619566 C-46.55848767902746 -35.48617234289418, -47.116975358054916 -35.8581954671688, -48 -36.44640107750551 C-48.49220813378591 -36.77952727727333, -48.98441626757182 -37.11265347704114, -50 -37.800000000000004 C-50 -12.711754224941092, -50 12.37649155011782, -50 37.8" stroke="none" stroke-width="0" fill="#ECECFF" style=""/><path d="M-50 37.8 C-50 37.8, -50 37.8, -50 37.8 M-50 37.8 C-50 37.8, -50 37.8, -50 37.8 M-50 37.8 C-49.23430513514941 38.31822187201065, -48.468610270298825 38.83644374402131, -48 39.15359892249448 M-50 37.8 C-49.26829655938705 38.29521649439959, -48.53659311877411 38.79043298879919, -48 39.15359892249448 M-48 39.15359892249448 C-47.51630616779187 39.475799926039954, -47.032612335583735 39.798000929585434, -46 40.48585078138043 M-48 39.15359892249448 C-47.20715645150432 39.68173256813903, -46.414312903008636 40.209866213783584, -46 40.48585078138043 M-46 40.48585078138043 C-45.47501977248651 40.82443530591944, -44.95003954497302 41.163019830458445, -44 41.77574516899452 M-46 40.48585078138043 C-45.420746280635164 40.859438842187075, -44.84149256127033 41.233026902993714, -44 41.77574516899452 M-44 41.77574516899452 C-43.511715346724614 42.07535529222128, -43.02343069344923 42.37496541544805, -42 43.002939680298525 M-44 41.77574516899452 C-43.293671916386955 42.20914614268942, -42.587343832773904 42.64254711638433, -42 43.002939680298525 M-42 43.002939680298525 C-41.5114140957684 43.28268956663867, -41.0228281915368 43.56243945297882, -40 44.14808072475871 M-42 43.002939680298525 C-41.292978585748514 43.407759300684354, -40.58595717149703 43.812578921070184, -40 44.14808072475871 M-40 44.14808072475871 C-39.53475806427101 44.39117615404707, -39.06951612854203 44.63427158333543, -38 45.193108744029836 M-40 44.14808072475871 C-39.58011068623244 44.36747877369852, -39.16022137246488 44.58687682263833, -38 45.193108744029836 M-38 45.193108744029836 C-37.491875189575055 45.428988989767184, -36.98375037915011 45.66486923550453, -36 46.121543021978525 M-38 45.193108744029836 C-37.47973091489024 45.43462657021629, -36.95946182978048 45.67614439640274, -36 46.121543021978525 M-36 46.121543021978525 C-35.47914106766333 46.329157020890506, -34.95828213532666 46.53677101980249, -34 46.918741595421764 M-36 46.121543021978525 C-35.206537434806975 46.43781663450477, -34.41307486961394 46.754090247031016, -34 46.918741595421764 M-34 46.918741595421764 C-33.55508956164006 47.06409173815069, -33.11017912328011 47.209441880879616, -32 47.57213216663301 M-34 46.918741595421764 C-33.29941117977203 47.14762066013825, -32.59882235954406 47.37649972485473, -32 47.57213216663301 M-32 47.57213216663301 C-31.393956273015682 47.72342438003268, -30.787912546031365 47.87471659343235, -30 48.071410375987654 M-32 47.57213216663301 C-31.292749114401058 47.748689644496174, -30.585498228802113 47.92524712235934, -30 48.071410375987654 M-30 48.071410375987654 C-29.337820473542962 48.18308428185342, -28.675640947085927 48.294758187719175, -28 48.40870230786984 M-30 48.071410375987654 C-29.553720008404692 48.146673696250424, -29.107440016809388 48.2219370165132, -28 48.40870230786984 M-28 48.40870230786984 C-27.460047220723766 48.454594611402364, -26.92009444144753 48.500486914934896, -26 48.57868866702533 M-28 48.40870230786984 C-27.267589226346246 48.47095222827967, -26.53517845269249 48.5332021486895, -26 48.57868866702533 M-26 48.57868866702533 C-25.54823313111727 48.57868866702533, -25.096466262234543 48.57868866702533, -24 48.57868866702533 M-26 48.57868866702533 C-25.21134128261943 48.57868866702533, -24.422682565238855 48.57868866702533, -24 48.57868866702533 M-24 48.57868866702533 C-23.32482497579844 48.521303394946955, -22.649649951596878 48.463918122868584, -21.999999999999996 48.40870230786983 M-24 48.57868866702533 C-23.334670315269207 48.5221401816526, -22.66934063053841 48.465591696279866, -21.999999999999996 48.40870230786983 M-21.999999999999996 48.40870230786983 C-21.40222855901699 48.30789056579326, -20.804457118033984 48.20707882371668, -20 48.071410375987654 M-21.999999999999996 48.40870230786983 C-21.4720981686614 48.319673793601666, -20.944196337322804 48.230645279333494, -20 48.071410375987654 M-20 48.071410375987654 C-19.559818182330282 47.96152378112935, -19.119636364660565 47.85163718627105, -18 47.57213216663301 M-20 48.071410375987654 C-19.434348376308705 47.930201611090084, -18.868696752617407 47.788992846192514, -18 47.57213216663301 M-18 47.57213216663301 C-17.42283863121114 47.383576268416, -16.845677262422278 47.19502037019899, -16 46.91874159542176 M-18 47.57213216663301 C-17.530038448803698 47.41859794344127, -17.06007689760739 47.26506372024953, -16 46.91874159542176 M-16 46.91874159542176 C-15.468821663749692 46.70701428947041, -14.937643327499384 46.495286983519065, -14 46.121543021978525 M-16 46.91874159542176 C-15.563912786069835 46.744917543000774, -15.12782557213967 46.5710934905798, -14 46.121543021978525 M-14 46.121543021978525 C-13.423395417185581 45.85387329222492, -12.846790834371163 45.58620356247131, -12 45.193108744029836 M-14 46.121543021978525 C-13.223964750207287 45.76129415857651, -12.447929500414574 45.4010452951745, -12 45.193108744029836 M-12 45.193108744029836 C-11.407166695910341 44.88334503726445, -10.814333391820682 44.57358133049906, -10 44.14808072475871 M-12 45.193108744029836 C-11.260424764496088 44.80667032229952, -10.520849528992176 44.420231900569206, -10 44.14808072475871 M-10 44.14808072475871 C-9.470542793434634 43.84492913549709, -8.941085586869269 43.54177754623547, -8 43.002939680298525 M-10 44.14808072475871 C-9.515854958643871 43.87087354559432, -9.031709917287742 43.59366636642993, -8 43.002939680298525 M-8 43.002939680298525 C-7.54026575092842 42.72084800673897, -7.080531501856838 42.43875633317941, -6 41.77574516899452 M-8 43.002939680298525 C-7.459412373550993 42.671236596269985, -6.9188247471019855 42.339533512241445, -6 41.77574516899452 M-6 41.77574516899452 C-5.323040183725543 41.33914183516818, -4.646080367451086 40.90253850134183, -4 40.48585078138043 M-6 41.77574516899452 C-5.419315958252405 41.40123462578087, -4.838631916504808 41.02672408256723, -4 40.48585078138043 M-4 40.48585078138043 C-3.43009253844585 40.10622064385618, -2.860185076891699 39.72659050633194, -2 39.15359892249448 M-4 40.48585078138043 C-3.286094474851734 40.01029979990656, -2.5721889497034676 39.5347488184327, -2 39.15359892249448 M-2 39.15359892249448 C-1.4410500889192304 38.77530192381082, -0.8821001778384607 38.39700492512716, 0 37.8 M-2 39.15359892249448 C-1.520886480954721 38.829335150928365, -1.0417729619094418 38.50507137936225, 0 37.8 M0 37.8 C0.5543969945403887 37.424784412777974, 1.1087939890807774 37.049568825555944, 2 36.44640107750551 M0 37.8 C0.43621527308841357 37.50476973818594, 0.8724305461768271 37.20953947637188, 2 36.44640107750551 M2 36.44640107750551 C2.4951886167490622 36.11654309992396, 2.990377233498124 35.78668512234241, 4 35.11414921861956 M2 36.44640107750551 C2.5477250952889823 36.0815471893269, 3.0954501905779646 35.71669330114828, 4 35.11414921861956 M4 35.11414921861956 C4.4449483124288305 34.82718105312941, 4.889896624857661 34.54021288763925, 6.000000000000007 33.82425483100547 M4 35.11414921861956 C4.653046113867828 34.69296896005391, 5.306092227735656 34.27178870148826, 6.000000000000007 33.82425483100547 M6.000000000000007 33.82425483100547 C6.543961967657431 33.49048126047181, 7.087923935314855 33.15670768993815, 7.999999999999993 32.59706031970148 M6.000000000000007 33.82425483100547 C6.638548102777041 33.43244346753969, 7.277096205554076 33.04063210407391, 7.999999999999993 32.59706031970148 M7.999999999999993 32.59706031970148 C8.423283989915012 32.354700384544195, 8.846567979830033 32.11234044938691, 10 31.451919275241284 M7.999999999999993 32.59706031970148 C8.72192998787531 32.18370448953014, 9.443859975750625 31.770348659358806, 10 31.451919275241284 M10 31.451919275241284 C10.786917436434871 31.04074389027756, 11.573834872869742 30.629568505313838, 12 30.40689125597016 M10 31.451919275241284 C10.44463000370457 31.219593869201336, 10.889260007409138 30.987268463161385, 12 30.40689125597016 M12 30.40689125597016 C12.541585800615238 30.155477845099423, 13.083171601230474 29.904064434228687, 14 29.47845697802147 M12 30.40689125597016 C12.459906644736085 30.193394709155484, 12.91981328947217 29.979898162340806, 14 29.47845697802147 M14 29.47845697802147 C14.435468773869692 29.30487943536747, 14.870937547739386 29.131301892713473, 16 28.68125840457823 M14 29.47845697802147 C14.511592732945735 29.274536479577336, 15.02318546589147 29.0706159811332, 16 28.68125840457823 M16 28.68125840457823 C16.560711794704357 28.498076504664848, 17.121423589408714 28.314894604751466, 18 28.027867833366983 M16 28.68125840457823 C16.583074590084095 28.490770684841326, 17.16614918016819 28.30028296510442, 18 28.027867833366983 M18 28.027867833366983 C18.562738418848777 27.887386318318043, 19.12547683769755 27.746904803269103, 20 27.52858962401234 M18 28.027867833366983 C18.41065183913719 27.925353075910678, 18.821303678274386 27.822838318454377, 20 27.52858962401234 M20 27.52858962401234 C20.519919506751773 27.440907296584573, 21.039839013503542 27.353224969156802, 22 27.191297692130156 M20 27.52858962401234 C20.577002844625394 27.431280421929735, 21.154005689250788 27.333971219847125, 22 27.191297692130156 M22 27.191297692130156 C22.448319151197342 27.1531936220043, 22.89663830239468 27.115089551878437, 24 27.021311332974662 M22 27.191297692130156 C22.745778459204587 27.127911609621766, 23.49155691840917 27.064525527113375, 24 27.021311332974662 M24 27.021311332974662 C24.704750411789462 27.021311332974662, 25.409500823578924 27.021311332974662, 26 27.021311332974662 M24 27.021311332974662 C24.754018893547574 27.021311332974662, 25.50803778709515 27.021311332974662, 26 27.021311332974662 M26 27.021311332974662 C26.702469150048962 27.0810164195926, 27.40493830009793 27.140721506210543, 28 27.19129769213016 M26 27.021311332974662 C26.483600398137153 27.062414068457404, 26.96720079627431 27.103516803940146, 28 27.19129769213016 M28 27.19129769213016 C28.65973111008037 27.30255868245105, 29.319462220160737 27.41381967277194, 30 27.528589624012337 M28 27.19129769213016 C28.416180474117517 27.26148485019353, 28.832360948235035 27.3316720082569, 30 27.528589624012337 M30 27.528589624012337 C30.44622355327445 27.639984472337705, 30.8924471065489 27.751379320663073, 32 28.027867833366983 M30 27.528589624012337 C30.406040648667787 27.629953248008363, 30.812081297335574 27.73131687200439, 32 28.027867833366983 M32 28.027867833366983 C32.77621211063449 28.281452670541263, 33.55242422126898 28.535037507715543, 34 28.681258404578237 M32 28.027867833366983 C32.49489386295772 28.189547325270425, 32.989787725915434 28.35122681717387, 34 28.681258404578237 M34 28.681258404578237 C34.524047749638704 28.890143463792295, 35.0480954992774 29.09902852300635, 36 29.478456978021477 M34 28.681258404578237 C34.65190419726197 28.94110695261769, 35.30380839452395 29.20095550065714, 36 29.478456978021477 M36 29.478456978021477 C36.78842182742349 29.844455903052932, 37.576843654846975 30.210454828084387, 38 30.406891255970162 M36 29.478456978021477 C36.7295898180817 29.817145075996173, 37.4591796361634 30.155833173970873, 38 30.406891255970162 M38 30.406891255970162 C38.72751802664574 30.78702961715498, 39.45503605329148 31.167167978339805, 40 31.451919275241295 M38 30.406891255970162 C38.65835491262034 30.75089092112669, 39.31670982524068 31.094890586283217, 40 31.451919275241295 M40 31.451919275241295 C40.68998586192104 31.846984840532798, 41.37997172384207 32.2420504058243, 42 32.59706031970147 M40 31.451919275241295 C40.629338287068684 31.8122598269276, 41.258676574137375 32.17260037861391, 42 32.59706031970147 M42 32.59706031970147 C42.68799970628194 33.01921505136546, 43.375999412563885 33.44136978302944, 44 33.824254831005476 M42 32.59706031970147 C42.545677648916254 32.93188662754712, 43.09135529783251 33.266712935392775, 44 33.824254831005476 M44 33.824254831005476 C44.46732565264621 34.125655199273695, 44.93465130529241 34.42705556754191, 46 35.114149218619566 M44 33.824254831005476 C44.59263439809572 34.20647272301083, 45.18526879619144 34.5886906150162, 46 35.114149218619566 M46 35.114149218619566 C46.52276898736695 35.46237919621334, 47.0455379747339 35.81060917380711, 48 36.44640107750551 M46 35.114149218619566 C46.741627148225895 35.60816629203168, 47.4832542964518 36.1021833654438, 48 36.44640107750551 M48 36.44640107750551 C48.47917943151921 36.770709458598475, 48.95835886303842 37.09501783969144, 50 37.800000000000004 M48 36.44640107750551 C48.77940369279122 36.97390107688072, 49.55880738558244 37.50140107625594, 50 37.800000000000004 M50 37.800000000000004 C50 9.41205369429326, 50 -18.975892611413485, 50 -37.8 M50 37.800000000000004 C50 20.414405194720082, 50 3.02881038944016, 50 -37.8 M50 -37.8 C50 -37.8, 50 -37.8, 50 -37.8 M50 -37.8 C50 -37.8, 50 -37.8, 50 -37.8 M50 -37.8 C49.301698581641986 -38.27261002373289, 48.603397163283965 -38.74522004746578, 48 -39.15359892249448 M50 -37.8 C49.468445936883086 -38.159755503541305, 48.93689187376617 -38.51951100708262, 48 -39.15359892249448 M48 -39.15359892249448 C47.255053820052694 -39.64982688899688, 46.51010764010539 -40.146054855499266, 46 -40.48585078138043 M48 -39.15359892249448 C47.24230098623884 -39.65832188227416, 46.48460197247768 -40.163044842053836, 46 -40.48585078138043 M46 -40.48585078138043 C45.25482928799438 -40.96644654099565, 44.50965857598876 -41.447042300610875, 44 -41.77574516899452 M46 -40.48585078138043 C45.4320158305874 -40.85217057756991, 44.864031661174806 -41.21849037375939, 44 -41.77574516899452 M44 -41.77574516899452 C43.301623210203196 -42.20426725062489, 42.6032464204064 -42.632789332255264, 42 -43.002939680298525 M44 -41.77574516899452 C43.20646306951205 -42.26265725180044, 42.412926139024094 -42.74956933460636, 42 -43.002939680298525 M42 -43.002939680298525 C41.23899349884115 -43.43866957008755, 40.47798699768229 -43.874399459876564, 40 -44.14808072475871 M42 -43.002939680298525 C41.58267106224917 -43.241889928128245, 41.16534212449834 -43.48084017595797, 40 -44.14808072475871 M40 -44.14808072475871 C39.572966301774464 -44.37121181466804, 39.14593260354893 -44.59434290457736, 38 -45.193108744029836 M40 -44.14808072475871 C39.43036765239702 -44.44572160672286, 38.860735304794034 -44.74336248868701, 38 -45.193108744029836 M38 -45.193108744029836 C37.48812622451839 -45.430729323599905, 36.976252449036785 -45.668349903169975, 36 -46.121543021978525 M38 -45.193108744029836 C37.594506175918035 -45.381345926916936, 37.18901235183606 -45.56958310980403, 36 -46.121543021978525 M36 -46.121543021978525 C35.283370579458285 -46.40719099785018, 34.56674115891657 -46.692838973721834, 34 -46.918741595421764 M36 -46.121543021978525 C35.273083584935826 -46.41129138652934, 34.54616716987165 -46.70103975108016, 34 -46.918741595421764 M34 -46.918741595421764 C33.290472710496495 -47.1505408159111, 32.58094542099298 -47.38234003640043, 32 -47.57213216663301 M34 -46.918741595421764 C33.59185278376995 -47.05208136679718, 33.1837055675399 -47.18542113817259, 32 -47.57213216663301 M32 -47.57213216663301 C31.287217338510995 -47.750070592076646, 30.57443467702199 -47.928009017520274, 30 -48.071410375987654 M32 -47.57213216663301 C31.546850257071945 -47.685256062742326, 31.093700514143894 -47.79837995885165, 30 -48.071410375987654 M30 -48.071410375987654 C29.29199163620333 -48.19081313039452, 28.583983272406666 -48.31021588480137, 28 -48.40870230786984 M30 -48.071410375987654 C29.41900547673833 -48.1693927585696, 28.83801095347666 -48.267375141151554, 28 -48.40870230786984 M28 -48.40870230786984 C27.335291516927555 -48.465197995338464, 26.670583033855106 -48.5216936828071, 26 -48.57868866702533 M28 -48.40870230786984 C27.30464114026987 -48.467803068305855, 26.609282280539738 -48.52690382874188, 26 -48.57868866702533 M26 -48.57868866702533 C25.277494142467795 -48.57868866702533, 24.554988284935586 -48.57868866702533, 24 -48.57868866702533 M26 -48.57868866702533 C25.493828410003673 -48.57868866702533, 24.98765682000735 -48.57868866702533, 24 -48.57868866702533 M24 -48.57868866702533 C23.286803108918228 -48.518071795587325, 22.573606217836456 -48.45745492414932, 21.999999999999996 -48.40870230786983 M24 -48.57868866702533 C23.38420972130896 -48.52635069328631, 22.76841944261792 -48.47401271954729, 21.999999999999996 -48.40870230786983 M21.999999999999996 -48.40870230786983 C21.59519359232161 -48.34043334022777, 21.19038718464322 -48.272164372585706, 20 -48.071410375987654 M21.999999999999996 -48.40870230786983 C21.413346970521122 -48.3097656410411, 20.82669394104225 -48.21082897421237, 20 -48.071410375987654 M20 -48.071410375987654 C19.215921785085087 -47.875673792419306, 18.431843570170173 -47.67993720885095, 18 -47.57213216663301 M20 -48.071410375987654 C19.476104062320445 -47.94062546316125, 18.952208124640894 -47.80984055033483, 18 -47.57213216663301 M18 -47.57213216663301 C17.567545466360862 -47.43085130925432, 17.13509093272172 -47.28957045187564, 16 -46.91874159542176 M18 -47.57213216663301 C17.345182722723134 -47.35820644921355, 16.690365445446268 -47.14428073179408, 16 -46.91874159542176 M16 -46.91874159542176 C15.546008594153216 -46.737780944873485, 15.092017188306432 -46.55682029432521, 14 -46.121543021978525 M16 -46.91874159542176 C15.238370868221926 -46.61515676674861, 14.47674173644385 -46.31157193807547, 14 -46.121543021978525 M14 -46.121543021978525 C13.379386599151491 -45.83344364462749, 12.758773198302984 -45.54534426727646, 12 -45.193108744029836 M14 -46.121543021978525 C13.48445195775071 -45.882216784801734, 12.968903915501421 -45.642890547624944, 12 -45.193108744029836 M12 -45.193108744029836 C11.458690910394893 -44.91026716116809, 10.917381820789787 -44.62742557830635, 10 -44.14808072475871 M12 -45.193108744029836 C11.356342598725107 -44.856788734458085, 10.712685197450213 -44.520468724886335, 10 -44.14808072475871 M10 -44.14808072475871 C9.595969130356794 -43.91674455873002, 9.191938260713588 -43.68540839270133, 8 -43.002939680298525 M10 -44.14808072475871 C9.362384893254369 -43.78300111010756, 8.72476978650874 -43.417921495456426, 8 -43.002939680298525 M8 -43.002939680298525 C7.251565732741275 -42.543702467872656, 6.503131465482551 -42.08446525544678, 6 -41.77574516899452 M8 -43.002939680298525 C7.512680130803375 -42.70392154593478, 7.02536026160675 -42.40490341157104, 6 -41.77574516899452 M6 -41.77574516899452 C5.597879283841771 -41.51639854153659, 5.1957585676835425 -41.25705191407866, 4 -40.48585078138043 M6 -41.77574516899452 C5.478855252959995 -41.439634326823786, 4.95771050591999 -41.10352348465305, 4 -40.48585078138043 M4 -40.48585078138043 C3.2163279807332747 -39.96382652916793, 2.4326559614665495 -39.44180227695543, 2 -39.15359892249448 M4 -40.48585078138043 C3.283704082038681 -40.00870749727223, 2.567408164077362 -39.531564213164046, 2 -39.15359892249448 M2 -39.15359892249448 C1.4945105031828587 -38.8114839033825, 0.9890210063657174 -38.46936888427052, 0 -37.8 M2 -39.15359892249448 C1.5338328777957801 -38.83809726533549, 1.0676657555915603 -38.522595608176495, 0 -37.8 M0 -37.8 C-0.7887421998377944 -37.26617970408682, -1.5774843996755887 -36.73235940817363, -2 -36.44640107750551 M0 -37.8 C-0.46700799278911065 -37.48392924208217, -0.9340159855782213 -37.16785848416435, -2 -36.44640107750551 M-2 -36.44640107750551 C-2.502062575907397 -36.11196417749066, -3.004125151814794 -35.77752727747581, -4 -35.11414921861956 M-2 -36.44640107750551 C-2.591354075605848 -36.052484794262675, -3.1827081512116964 -35.65856851101984, -4 -35.11414921861956 M-4 -35.11414921861956 C-4.766803275480026 -34.61960159789667, -5.5336065509600525 -34.12505397717378, -6.000000000000007 -33.82425483100547 M-4 -35.11414921861956 C-4.591912852673854 -34.73239668530923, -5.183825705347709 -34.350644151998914, -6.000000000000007 -33.82425483100547 M-6.000000000000007 -33.82425483100547 C-6.688098570591092 -33.40203943647271, -7.3761971411821765 -32.97982404193996, -7.999999999999993 -32.59706031970148 M-6.000000000000007 -33.82425483100547 C-6.5586963698008445 -33.48144027175294, -7.117392739601682 -33.138625712500414, -7.999999999999993 -32.59706031970148 M-7.999999999999993 -32.59706031970148 C-8.480251177118406 -32.322082652417166, -8.960502354236821 -32.04710498513286, -10 -31.451919275241284 M-7.999999999999993 -32.59706031970148 C-8.56135260917326 -32.27564636311191, -9.12270521834653 -31.954232406522348, -10 -31.451919275241284 M-10 -31.451919275241284 C-10.464292637794662 -31.209319867422924, -10.928585275589326 -30.966720459604563, -12 -30.40689125597016 M-10 -31.451919275241284 C-10.78593351616802 -31.041258002401356, -11.57186703233604 -30.630596729561425, -12 -30.40689125597016 M-12 -30.40689125597016 C-12.664187024564958 -30.09856425568273, -13.328374049129918 -29.790237255395304, -14 -29.47845697802147 M-12 -30.40689125597016 C-12.482837588346053 -30.182749772118882, -12.965675176692107 -29.958608288267605, -14 -29.47845697802147 M-14 -29.47845697802147 C-14.65212950145585 -29.218518623891043, -15.3042590029117 -28.958580269760613, -16 -28.68125840457823 M-14 -29.47845697802147 C-14.611604483142155 -29.23467186728526, -15.22320896628431 -28.990886756549052, -16 -28.68125840457823 M-16 -28.68125840457823 C-16.580009385782358 -28.49177207263612, -17.16001877156472 -28.30228574069401, -18 -28.027867833366983 M-16 -28.68125840457823 C-16.697434724217047 -28.453409768158863, -17.39486944843409 -28.225561131739497, -18 -28.027867833366983 M-18 -28.027867833366983 C-18.672618875198218 -27.859955859573432, -19.345237750396432 -27.692043885779885, -20 -27.52858962401234 M-18 -28.027867833366983 C-18.428789590978276 -27.920825183780213, -18.857579181956552 -27.81378253419344, -20 -27.52858962401234 M-20 -27.52858962401234 C-20.615085688048367 -27.424857904014882, -21.23017137609673 -27.321126184017423, -22 -27.191297692130156 M-20 -27.52858962401234 C-20.487392549389856 -27.446392836728, -20.974785098779712 -27.364196049443652, -22 -27.191297692130156 M-22 -27.191297692130156 C-22.417855234286577 -27.155782847164936, -22.835710468573158 -27.120268002199715, -24 -27.021311332974662 M-22 -27.191297692130156 C-22.417301320492985 -27.155829926059464, -22.83460264098597 -27.120362159988773, -24 -27.021311332974662 M-24 -27.021311332974662 C-24.565099431257313 -27.021311332974662, -25.13019886251463 -27.021311332974662, -26 -27.021311332974662 M-24 -27.021311332974662 C-24.402841144951484 -27.021311332974662, -24.805682289902965 -27.021311332974662, -26 -27.021311332974662 M-26 -27.021311332974662 C-26.675836317601476 -27.078752810481728, -27.351672635202956 -27.136194287988797, -28 -27.19129769213016 M-26 -27.021311332974662 C-26.425504082433385 -27.057476277863987, -26.85100816486677 -27.093641222753313, -28 -27.19129769213016 M-28 -27.19129769213016 C-28.455668071249587 -27.268144274154558, -28.911336142499174 -27.34499085617896, -30 -27.528589624012337 M-28 -27.19129769213016 C-28.505491715552715 -27.276546830774766, -29.010983431105426 -27.361795969419372, -30 -27.528589624012337 M-30 -27.528589624012337 C-30.425148176871 -27.63472323424161, -30.850296353742003 -27.740856844470883, -32 -28.027867833366983 M-30 -27.528589624012337 C-30.47385471683888 -27.646882291271123, -30.947709433677762 -27.765174958529904, -32 -28.027867833366983 M-32 -28.027867833366983 C-32.673772072567914 -28.247985993047653, -33.34754414513582 -28.468104152728323, -34 -28.681258404578237 M-32 -28.027867833366983 C-32.549307332906004 -28.207323949375976, -33.09861466581201 -28.38678006538497, -34 -28.681258404578237 M-34 -28.681258404578237 C-34.58732407004799 -28.915365359973805, -35.174648140095975 -29.149472315369373, -36 -29.478456978021477 M-34 -28.681258404578237 C-34.56058606683049 -28.904707610962948, -35.12117213366098 -29.12815681734766, -36 -29.478456978021477 M-36 -29.478456978021477 C-36.523431106677045 -29.721442668813268, -37.04686221335409 -29.96442835960506, -38 -30.406891255970162 M-36 -29.478456978021477 C-36.454714441816115 -29.689543215251668, -36.90942888363223 -29.900629452481862, -38 -30.406891255970162 M-38 -30.406891255970162 C-38.57167228527041 -30.70559803394433, -39.14334457054082 -31.0043048119185, -40 -31.451919275241295 M-38 -30.406891255970162 C-38.553920173212695 -30.696322306693556, -39.10784034642539 -30.985753357416947, -40 -31.451919275241295 M-40 -31.451919275241295 C-40.66454563614965 -31.83241851717722, -41.32909127229929 -32.21291775911315, -42 -32.59706031970147 M-40 -31.451919275241295 C-40.68824077566628 -31.845985655584574, -41.37648155133255 -32.24005203592785, -42 -32.59706031970147 M-42 -32.59706031970147 C-42.704302264308595 -33.02921825623071, -43.40860452861719 -33.461376192759964, -44 -33.824254831005476 M-42 -32.59706031970147 C-42.477161472449424 -32.8898452896993, -42.95432294489884 -33.182630259697135, -44 -33.824254831005476 M-44 -33.824254831005476 C-44.70545703740218 -34.27923736762944, -45.41091407480435 -34.73421990425341, -46 -35.114149218619566 M-44 -33.824254831005476 C-44.64462312607785 -34.24000270723251, -45.289246252155706 -34.65575058345955, -46 -35.114149218619566 M-46 -35.114149218619566 C-46.61977748277297 -35.52699907037954, -47.23955496554594 -35.93984892213951, -48 -36.44640107750551 M-46 -35.114149218619566 C-46.6713896802219 -35.5613792933758, -47.34277936044381 -36.008609368132035, -48 -36.44640107750551 M-48 -36.44640107750551 C-48.57920429460104 -36.83840623204359, -49.15840858920208 -37.230411386581665, -50 -37.800000000000004 M-48 -36.44640107750551 C-48.40879938039902 -36.72307627791778, -48.817598760798035 -36.99975147833004, -50 -37.800000000000004 M-50 -37.800000000000004 C-50 -18.01826265986112, -50 1.763474680277767, -50 37.8 M-50 -37.800000000000004 C-50 -19.547358991672652, -50 -1.2947179833453006, -50 37.8" stroke="#9370DB" stroke-width="1.3" fill="none" stroke-dasharray="0 0" style=""/></g><g class="label" style="" transform="translate(-4.71875, -12)"><rect/><foreignObject width="9.4375" height="24"><div xmlns="http://www.w3.org/1999/xhtml" style="display: table-cell; white-space: nowrap; line-height: 1.5; max-width: 200px; text-align: center;"><span class="nodeLabel"><p>A</p></span></div></foreignObject></g></g></g></g></g></svg>