<svg xmlns="http://www.w3.org/2000/svg" width="100%" viewBox="-108.231995 -24.64 450.232 224.85817" style="max-width: 450.232px;"><rect x="-108.231995" y="-24.64" width="450.232" height="224.85817" fill="#FFFFFF"/><defs><marker id="arrow-0" viewBox="0 0 10 10" refX="5" refY="5" markerUnits="userSpaceOnUse" markerWidth="8" markerHeight="8" orient="auto"><path d="M 0 0 L 10 5 L 0 10 z" fill="#2F3B4D" stroke="#2F3B4D" stroke-width="1" stroke-dasharray="1,0"/></marker><marker id="arrow-start-0" viewBox="0 0 10 10" refX="4.5" refY="5" markerUnits="userSpaceOnUse" markerWidth="8" markerHeight="8" orient="auto"><path d="M 0 5 L 10 10 L 10 0 z" fill="#2F3B4D" stroke="#2F3B4D" stroke-width="1" stroke-dasharray="1,0"/></marker></defs><g><line x1="0.00" y1="0.00" x2="336.00" y2="0.00" stroke="#2F3B4D" stroke-width="0.8" stroke-dasharray="2"/><rect x="-78.79" y="-18.64" width="49.79" height="27.64" rx="4.00" ry="4.00" fill="hsl(240, 100%, 46.2745098039%)" stroke="none"/><text x="-69.79" y="2.68" text-anchor="start" font-family="trebuchet ms,verdana,arial,sans-serif" font-size="16" fill="#ffffff"><tspan x="-69.79" dy="0.00">main</tspan></text><line x1="0.00" y1="72.00" x2="336.00" y2="72.00" stroke="#2F3B4D" stroke-width="0.8" stroke-dasharray="2"/><rect x="-102.23" y="53.36" width="73.23" height="27.64" rx="4.00" ry="4.00" fill="hsl(60, 100%, 43.5294117647%)" stroke="none"/><text x="-93.23" y="74.68" text-anchor="start" font-family="trebuchet ms,verdana,arial,sans-serif" font-size="16" fill="black"><tspan x="-93.23" dy="0.00">develop</tspan></text><line x1="0.00" y1="144.00" x2="336.00" y2="144.00" stroke="#2F3B4D" stroke-width="0.8" stroke-dasharray="2"/><rect x="-97.18" y="125.36" width="68.18" height="27.64" rx="4.00" ry="4.00" fill="hsl(80, 100%, 46.2745098039%)" stroke="none"/><text x="-88.18" y="146.68" text-anchor="start" font-family="trebuchet ms,verdana,arial,sans-serif" font-size="16" fill="black"><tspan x="-88.18" dy="0.00">release</tspan></text><g class="commit-arrows"><path d="M 8 0 L 8 128 A 16 16, 0, 0, 0, 24 144 L 50 144" fill="none" stroke="hsl(80, 100%, 46.2745098039%)" stroke-width="6" stroke-linecap="round"/><path d="M 8 0 L 92 0" fill="none" stroke="hsl(240, 100%, 46.2745098039%)" stroke-width="6" stroke-linecap="round"/><path d="M 8 0 L 8 56 A 16 16, 0, 0, 0, 24 72 L 134 72" fill="none" stroke="hsl(60, 100%, 43.5294117647%)" stroke-width="6" stroke-linecap="round"/><path d="M 92 0 L 176 0" fill="none" stroke="hsl(240, 100%, 46.2745098039%)" stroke-width="6" stroke-linecap="round"/><path d="M 176 0 L 218 0" fill="none" stroke="hsl(240, 100%, 46.2745098039%)" stroke-width="6" stroke-linecap="round"/><path d="M 50 144 L 260 144" fill="none" stroke="hsl(80, 100%, 46.2745098039%)" stroke-width="6" stroke-linecap="round"/><path d="M 134 72 L 302 72" fill="none" stroke="hsl(60, 100%, 43.5294117647%)" stroke-width="6" stroke-linecap="round"/></g><g class="commit-bullets"><circle cx="8.00" cy="0.00" r="8.00" fill="hsl(240, 100%, 46.2745098039%)" stroke="hsl(240, 100%, 46.2745098039%)"/><circle cx="50.00" cy="144.00" r="8.00" fill="hsl(80, 100%, 46.2745098039%)" stroke="hsl(80, 100%, 46.2745098039%)"/><circle cx="92.00" cy="0.00" r="8.00" fill="hsl(240, 100%, 46.2745098039%)" stroke="hsl(240, 100%, 46.2745098039%)"/><circle cx="134.00" cy="72.00" r="8.00" fill="hsl(60, 100%, 43.5294117647%)" stroke="hsl(60, 100%, 43.5294117647%)"/><circle cx="176.00" cy="0.00" r="7.50" fill="hsl(240, 100%, 46.2745098039%)" stroke="hsl(240, 100%, 46.2745098039%)"/><circle cx="176.00" cy="0.00" r="5.00" fill="#ECECFF" stroke="#ECECFF"/><circle cx="218.00" cy="0.00" r="8.00" fill="hsl(240, 100%, 46.2745098039%)" stroke="hsl(240, 100%, 46.2745098039%)"/><circle cx="260.00" cy="144.00" r="8.00" fill="hsl(80, 100%, 46.2745098039%)" stroke="hsl(80, 100%, 46.2745098039%)"/><circle cx="302.00" cy="72.00" r="8.00" fill="hsl(60, 100%, 43.5294117647%)" stroke="hsl(60, 100%, 43.5294117647%)"/></g><g class="commit-labels"><g transform="translate(-16.90, 15.82) rotate(-45.00, 0.00, 0.00)"><rect x="-6.53" y="10.50" width="29.06" height="15.00" fill="#ffffde" opacity="0.5"/><text x="-5.03" y="20.00" text-anchor="start" font-family="trebuchet ms,verdana,arial,sans-serif" font-size="10" fill="#000021">ZERO</text></g><g transform="translate(-10.65, 9.96) rotate(-45.00, 42.00, 144.00)"><rect x="45.24" y="154.50" width="9.52" height="15.00" fill="#ffffde" opacity="0.5"/><text x="46.74" y="164.00" text-anchor="start" font-family="trebuchet ms,verdana,arial,sans-serif" font-size="10" fill="#000021">A</text></g><g transform="translate(-15.32, 14.33) rotate(-45.00, 84.00, 0.00)"><rect x="79.94" y="10.50" width="24.11" height="15.00" fill="#ffffde" opacity="0.5"/><text x="81.44" y="20.00" text-anchor="start" font-family="trebuchet ms,verdana,arial,sans-serif" font-size="10" fill="#000021">ONE</text></g><g transform="translate(-10.63, 9.94) rotate(-45.00, 126.00, 72.00)"><rect x="129.26" y="82.50" width="9.48" height="15.00" fill="#ffffde" opacity="0.5"/><text x="130.76" y="92.00" text-anchor="start" font-family="trebuchet ms,verdana,arial,sans-serif" font-size="10" fill="#000021">B</text></g><g transform="translate(-19.66, 18.41) rotate(-45.00, 168.00, 0.00)"><rect x="157.15" y="10.50" width="37.70" height="15.00" fill="#ffffde" opacity="0.5"/><text x="158.65" y="20.00" text-anchor="start" font-family="trebuchet ms,verdana,arial,sans-serif" font-size="10" fill="#000021">MERGE</text></g><g transform="translate(-15.96, 14.93) rotate(-45.00, 210.00, 0.00)"><rect x="204.95" y="10.50" width="26.11" height="15.00" fill="#ffffde" opacity="0.5"/><text x="206.45" y="20.00" text-anchor="start" font-family="trebuchet ms,verdana,arial,sans-serif" font-size="10" fill="#000021">TWO</text></g><g transform="translate(-18.69, 17.50) rotate(-45.00, 252.00, 144.00)"><rect x="242.67" y="154.50" width="34.66" height="15.00" fill="#ffffde" opacity="0.5"/><text x="244.17" y="164.00" text-anchor="start" font-family="trebuchet ms,verdana,arial,sans-serif" font-size="10" fill="#000021">THREE</text></g><g transform="translate(-10.91, 10.20) rotate(-45.00, 294.00, 72.00)"><rect x="296.83" y="82.50" width="10.34" height="15.00" fill="#ffffde" opacity="0.5"/><text x="298.33" y="92.00" text-anchor="start" font-family="trebuchet ms,verdana,arial,sans-serif" font-size="10" fill="#000021">C</text></g></g></g></svg>