<svg xmlns="http://www.w3.org/2000/svg" width="100%" viewBox="-60.792 -24.64 486.792 176.14" style="max-width: 486.792px;"><rect x="-60.792" y="-24.64" width="486.792" height="176.14" fill="white"/><defs><marker id="arrow-0" viewBox="0 0 10 10" refX="5" refY="5" markerUnits="userSpaceOnUse" markerWidth="8" markerHeight="8" orient="auto"><path d="M 0 0 L 10 5 L 0 10 z" fill="#333333" stroke="#333333" stroke-width="1" stroke-dasharray="1,0"/></marker><marker id="arrow-start-0" viewBox="0 0 10 10" refX="4.5" refY="5" markerUnits="userSpaceOnUse" markerWidth="8" markerHeight="8" orient="auto"><path d="M 0 5 L 10 10 L 10 0 z" fill="#333333" stroke="#333333" stroke-width="1" stroke-dasharray="1,0"/></marker></defs><g><line x1="0.00" y1="0.00" x2="420.00" y2="0.00" stroke="#333333" stroke-width="0.8" stroke-dasharray="2"/><rect x="-54.79" y="-18.64" width="49.79" height="27.64" rx="4.00" ry="4.00" fill="hsl(240, 100%, 46.2745098039%)" stroke="none"/><text x="-45.79" y="2.68" text-anchor="start" font-family="trebuchet ms,verdana,arial,sans-serif" font-size="16" fill="#ffffff"><tspan x="-45.79" dy="0.00">main</tspan></text><line x1="0.00" y1="40.00" x2="420.00" y2="40.00" stroke="#333333" stroke-width="0.8" stroke-dasharray="2"/><rect x="-37.50" y="21.36" width="32.50" height="27.64" rx="4.00" ry="4.00" fill="hsl(60, 100%, 43.5294117647%)" stroke="none"/><text x="-28.50" y="42.68" text-anchor="start" font-family="trebuchet ms,verdana,arial,sans-serif" font-size="16" fill="black"><tspan x="-28.50" dy="0.00">c2</tspan></text><line x1="0.00" y1="80.00" x2="420.00" y2="80.00" stroke="#333333" stroke-width="0.8" stroke-dasharray="2"/><rect x="-34.98" y="61.36" width="29.98" height="27.64" rx="4.00" ry="4.00" fill="hsl(80, 100%, 46.2745098039%)" stroke="none"/><text x="-25.98" y="82.68" text-anchor="start" font-family="trebuchet ms,verdana,arial,sans-serif" font-size="16" fill="black"><tspan x="-25.98" dy="0.00">b1</tspan></text><line x1="0.00" y1="120.00" x2="420.00" y2="120.00" stroke="#333333" stroke-width="0.8" stroke-dasharray="2"/><rect x="-38.39" y="101.36" width="33.39" height="27.64" rx="4.00" ry="4.00" fill="hsl(210, 100%, 46.2745098039%)" stroke="none"/><text x="-29.39" y="122.68" text-anchor="start" font-family="trebuchet ms,verdana,arial,sans-serif" font-size="16" fill="#ffffff"><tspan x="-29.39" dy="0.00">b2</tspan></text><g class="commit-arrows"><path d="M 8 0 L 50 0" fill="none" stroke="hsl(240, 100%, 46.2745098039%)" stroke-width="6" stroke-linecap="round"/><path d="M 50 0 L 92 0" fill="none" stroke="hsl(240, 100%, 46.2745098039%)" stroke-width="6" stroke-linecap="round"/><path d="M 92 0 L 134 0" fill="none" stroke="hsl(240, 100%, 46.2745098039%)" stroke-width="6" stroke-linecap="round"/><path d="M 134 0 L 134 24 A 16 16, 0, 0, 0, 150 40 L 176 40" fill="none" stroke="hsl(60, 100%, 43.5294117647%)" stroke-width="6" stroke-linecap="round"/><path d="M 176 40 L 218 40" fill="none" stroke="hsl(60, 100%, 43.5294117647%)" stroke-width="6" stroke-linecap="round"/><path d="M 134 0 L 260 0" fill="none" stroke="hsl(240, 100%, 46.2745098039%)" stroke-width="6" stroke-linecap="round"/><path d="M 260 0 L 302 0" fill="none" stroke="hsl(240, 100%, 46.2745098039%)" stroke-width="6" stroke-linecap="round"/><path d="M 302 0 L 302 64 A 16 16, 0, 0, 0, 318 80 L 344 80" fill="none" stroke="hsl(80, 100%, 46.2745098039%)" stroke-width="6" stroke-linecap="round"/><path d="M 344 80 L 344 104 A 16 16, 0, 0, 0, 360 120 L 386 120" fill="none" stroke="hsl(210, 100%, 46.2745098039%)" stroke-width="6" stroke-linecap="round"/></g><g class="commit-bullets"><circle cx="8.00" cy="0.00" r="8.00" fill="hsl(240, 100%, 46.2745098039%)" stroke="hsl(240, 100%, 46.2745098039%)"/><circle cx="50.00" cy="0.00" r="8.00" fill="hsl(240, 100%, 46.2745098039%)" stroke="hsl(240, 100%, 46.2745098039%)"/><circle cx="92.00" cy="0.00" r="8.00" fill="hsl(240, 100%, 46.2745098039%)" stroke="hsl(240, 100%, 46.2745098039%)"/><circle cx="134.00" cy="0.00" r="8.00" fill="hsl(240, 100%, 46.2745098039%)" stroke="hsl(240, 100%, 46.2745098039%)"/><circle cx="176.00" cy="40.00" r="8.00" fill="hsl(60, 100%, 43.5294117647%)" stroke="hsl(60, 100%, 43.5294117647%)"/><circle cx="218.00" cy="40.00" r="8.00" fill="hsl(60, 100%, 43.5294117647%)" stroke="hsl(60, 100%, 43.5294117647%)"/><circle cx="260.00" cy="0.00" r="8.00" fill="hsl(240, 100%, 46.2745098039%)" stroke="hsl(240, 100%, 46.2745098039%)"/><circle cx="302.00" cy="0.00" r="8.00" fill="hsl(240, 100%, 46.2745098039%)" stroke="hsl(240, 100%, 46.2745098039%)"/><circle cx="344.00" cy="80.00" r="8.00" fill="hsl(80, 100%, 46.2745098039%)" stroke="hsl(80, 100%, 46.2745098039%)"/><circle cx="386.00" cy="120.00" r="8.00" fill="hsl(210, 100%, 46.2745098039%)" stroke="hsl(210, 100%, 46.2745098039%)"/></g><g class="commit-labels"><rect x="-20.39" y="10.50" width="56.77" height="15.00" fill="#ffffde" opacity="0.5"/><text x="-18.89" y="20.00" text-anchor="start" font-family="trebuchet ms,verdana,arial,sans-serif" font-size="10" fill="#000021">feat(api): ...</text><rect x="45.75" y="10.50" width="8.50" height="15.00" fill="#ffffde" opacity="0.5"/><text x="47.25" y="20.00" text-anchor="start" font-family="trebuchet ms,verdana,arial,sans-serif" font-size="10" fill="#000021">a</text><rect x="87.49" y="10.50" width="9.03" height="15.00" fill="#ffffde" opacity="0.5"/><text x="88.99" y="20.00" text-anchor="start" font-family="trebuchet ms,verdana,arial,sans-serif" font-size="10" fill="#000021">b</text><rect x="67.68" y="10.50" width="132.64" height="15.00" fill="#ffffde" opacity="0.5"/><text x="69.18" y="20.00" text-anchor="start" font-family="trebuchet ms,verdana,arial,sans-serif" font-size="10" fill="#000021">fix(client): .extra long label..</text><rect x="134.68" y="50.50" width="82.64" height="15.00" fill="#ffffde" opacity="0.5"/><text x="136.18" y="60.00" text-anchor="start" font-family="trebuchet ms,verdana,arial,sans-serif" font-size="10" fill="#000021">feat(modules): ...</text><rect x="184.42" y="50.50" width="67.16" height="15.00" fill="#ffffde" opacity="0.5"/><text x="185.92" y="60.00" text-anchor="start" font-family="trebuchet ms,verdana,arial,sans-serif" font-size="10" fill="#000021">test(client): ...</text><rect x="234.88" y="10.50" width="50.25" height="15.00" fill="#ffffde" opacity="0.5"/><text x="236.38" y="20.00" text-anchor="start" font-family="trebuchet ms,verdana,arial,sans-serif" font-size="10" fill="#000021">fix(api): ...</text><rect x="288.64" y="10.50" width="26.72" height="15.00" fill="#ffffde" opacity="0.5"/><text x="290.14" y="20.00" text-anchor="start" font-family="trebuchet ms,verdana,arial,sans-serif" font-size="10" fill="#000021">ci: ...</text><rect x="316.83" y="90.50" width="54.35" height="15.00" fill="#ffffde" opacity="0.5"/><text x="318.33" y="100.00" text-anchor="start" font-family="trebuchet ms,verdana,arial,sans-serif" font-size="10" fill="#000021">8-c5d9d14</text><rect x="360.20" y="130.50" width="51.60" height="15.00" fill="#ffffde" opacity="0.5"/><text x="361.70" y="140.00" text-anchor="start" font-family="trebuchet ms,verdana,arial,sans-serif" font-size="10" fill="#000021">9-1e7981e</text></g></g></svg>