<svg xmlns="http://www.w3.org/2000/svg" width="100%" viewBox="-111.976 -24.64 873.976 399.64" style="max-width: 873.976px;"><rect x="-111.976" y="-24.64" width="873.976" height="399.64" fill="white"/><defs><marker id="arrow-0" viewBox="0 0 10 10" refX="5" refY="5" markerUnits="userSpaceOnUse" markerWidth="8" markerHeight="8" orient="auto"><path d="M 0 0 L 10 5 L 0 10 z" fill="#333333" stroke="#333333" stroke-width="1" stroke-dasharray="1,0"/></marker><marker id="arrow-start-0" viewBox="0 0 10 10" refX="4.5" refY="5" markerUnits="userSpaceOnUse" markerWidth="8" markerHeight="8" orient="auto"><path d="M 0 5 L 10 10 L 10 0 z" fill="#333333" stroke="#333333" stroke-width="1" stroke-dasharray="1,0"/></marker></defs><g><g class="commit-arrows"><path d="M 8 0 L 8 56 A 16 16, 0, 0, 0, 24 72 L 50 72" fill="none" stroke="hsl(60, 100%, 43.5294117647%)" stroke-width="6" stroke-linecap="round"/><path d="M 50 72 L 50 128 A 16 16, 0, 0, 0, 66 144 L 92 144" fill="none" stroke="hsl(80, 100%, 46.2745098039%)" stroke-width="6" stroke-linecap="round"/><path d="M 92 144 L 92 200 A 16 16, 0, 0, 0, 108 216 L 134 216" fill="none" stroke="hsl(210, 100%, 46.2745098039%)" stroke-width="6" stroke-linecap="round"/><path d="M 50 72 L 176 72" fill="none" stroke="hsl(60, 100%, 43.5294117647%)" stroke-width="6" stroke-linecap="round"/><path d="M 92 144 L 218 144" fill="none" stroke="hsl(80, 100%, 46.2745098039%)" stroke-width="6" stroke-linecap="round"/><path d="M 134 216 L 260 216" fill="none" stroke="hsl(210, 100%, 46.2745098039%)" stroke-width="6" stroke-linecap="round"/><path d="M 8 0 L 302 0" fill="none" stroke="hsl(240, 100%, 46.2745098039%)" stroke-width="6" stroke-linecap="round"/><path d="M 176 72 L 286 72 A 16 16, 0, 0, 0, 302 56 L 302 0" fill="none" stroke="hsl(60, 100%, 43.5294117647%)" stroke-width="6" stroke-linecap="round"/><path d="M 260 216 L 344 216" fill="none" stroke="hsl(210, 100%, 46.2745098039%)" stroke-width="6" stroke-linecap="round"/><path d="M 218 144 L 218 272 A 16 16, 0, 0, 0, 234 288 L 386 288" fill="none" stroke="hsl(180, 100%, 46.2745098039%)" stroke-width="6" stroke-linecap="round"/><path d="M 218 144 L 428 144" fill="none" stroke="hsl(80, 100%, 46.2745098039%)" stroke-width="6" stroke-linecap="round"/><path d="M 176 72 L 176 100 A 8 8, 0, 0, 0, 184 108 L 420 108 A 8 8, 0, 0, 1, 428 116 L 428 144" fill="none" stroke="hsl(60, 100%, 43.5294117647%)" stroke-width="6" stroke-linecap="round"/><path d="M 386 288 L 470 288" fill="none" stroke="hsl(180, 100%, 46.2745098039%)" stroke-width="6" stroke-linecap="round"/><path d="M 344 216 L 512 216" fill="none" stroke="hsl(210, 100%, 46.2745098039%)" stroke-width="6" stroke-linecap="round"/><path d="M 428 144 L 554 144" fill="none" stroke="hsl(80, 100%, 46.2745098039%)" stroke-width="6" stroke-linecap="round"/><path d="M 470 288 L 538 288 A 16 16, 0, 0, 0, 554 272 L 554 144" fill="none" stroke="hsl(180, 100%, 46.2745098039%)" stroke-width="6" stroke-linecap="round"/><path d="M 554 144 L 554 344 A 16 16, 0, 0, 0, 570 360 L 596 360" fill="none" stroke="hsl(150, 100%, 46.2745098039%)" stroke-width="6" stroke-linecap="round"/><path d="M 302 0 L 638 0" fill="none" stroke="hsl(240, 100%, 46.2745098039%)" stroke-width="6" stroke-linecap="round"/><path d="M 596 360 L 680 360" fill="none" stroke="hsl(150, 100%, 46.2745098039%)" stroke-width="6" stroke-linecap="round"/><path d="M 638 0 L 664 0 A 16 16, 0, 0, 1, 680 16 L 680 360" fill="none" stroke="hsl(240, 100%, 46.2745098039%)" stroke-width="6" stroke-linecap="round"/><path d="M 554 144 L 722 144" fill="none" stroke="hsl(80, 100%, 46.2745098039%)" stroke-width="6" stroke-linecap="round"/><path d="M 680 360 L 706 360 A 16 16, 0, 0, 0, 722 344 L 722 144" fill="none" stroke="hsl(150, 100%, 46.2745098039%)" stroke-width="6" stroke-linecap="round"/></g><g class="commit-bullets"><circle cx="8.00" cy="0.00" r="8.00" fill="hsl(240, 100%, 46.2745098039%)" stroke="hsl(240, 100%, 46.2745098039%)"/><circle cx="50.00" cy="72.00" r="8.00" fill="hsl(60, 100%, 43.5294117647%)" stroke="hsl(60, 100%, 43.5294117647%)"/><circle cx="92.00" cy="144.00" r="8.00" fill="hsl(80, 100%, 46.2745098039%)" stroke="hsl(80, 100%, 46.2745098039%)"/><rect x="126.00" y="208.00" width="16.00" height="16.00" fill="rgb(146.5000000001, 73.2500000001, 0)" stroke="rgb(146.5000000001, 73.2500000001, 0)"/><rect x="129.00" y="211.00" width="10.00" height="10.00" fill="#ECECFF" stroke="#ECECFF"/><circle cx="176.00" cy="72.00" r="8.00" fill="hsl(60, 100%, 43.5294117647%)" stroke="hsl(60, 100%, 43.5294117647%)"/><circle cx="218.00" cy="144.00" r="8.00" fill="hsl(80, 100%, 46.2745098039%)" stroke="hsl(80, 100%, 46.2745098039%)"/><path d="M 214.00,140.00 L 222.00,148.00 M 214.00,148.00 L 222.00,140.00" stroke="#ECECFF" stroke-width="2.5" fill="none"/><circle cx="260.00" cy="216.00" r="8.00" fill="hsl(210, 100%, 46.2745098039%)" stroke="hsl(210, 100%, 46.2745098039%)"/><circle cx="302.00" cy="0.00" r="7.50" fill="hsl(240, 100%, 46.2745098039%)" stroke="hsl(240, 100%, 46.2745098039%)"/><circle cx="302.00" cy="0.00" r="5.00" fill="#ECECFF" stroke="#ECECFF"/><circle cx="344.00" cy="216.00" r="8.00" fill="hsl(210, 100%, 46.2745098039%)" stroke="hsl(210, 100%, 46.2745098039%)"/><circle cx="386.00" cy="288.00" r="8.00" fill="hsl(180, 100%, 46.2745098039%)" stroke="hsl(180, 100%, 46.2745098039%)"/><circle cx="428.00" cy="144.00" r="7.50" fill="hsl(80, 100%, 46.2745098039%)" stroke="hsl(80, 100%, 46.2745098039%)"/><circle cx="428.00" cy="144.00" r="5.00" fill="#ECECFF" stroke="#ECECFF"/><circle cx="470.00" cy="288.00" r="8.00" fill="hsl(180, 100%, 46.2745098039%)" stroke="hsl(180, 100%, 46.2745098039%)"/><circle cx="512.00" cy="216.00" r="8.00" fill="hsl(210, 100%, 46.2745098039%)" stroke="hsl(210, 100%, 46.2745098039%)"/><circle cx="554.00" cy="144.00" r="7.50" fill="hsl(80, 100%, 46.2745098039%)" stroke="hsl(80, 100%, 46.2745098039%)"/><circle cx="554.00" cy="144.00" r="5.00" fill="#ECECFF" stroke="#ECECFF"/><circle cx="596.00" cy="360.00" r="8.00" fill="hsl(150, 100%, 46.2745098039%)" stroke="hsl(150, 100%, 46.2745098039%)"/><circle cx="638.00" cy="0.00" r="8.00" fill="hsl(240, 100%, 46.2745098039%)" stroke="hsl(240, 100%, 46.2745098039%)"/><circle cx="680.00" cy="360.00" r="7.50" fill="hsl(150, 100%, 46.2745098039%)" stroke="hsl(150, 100%, 46.2745098039%)"/><circle cx="680.00" cy="360.00" r="5.00" fill="#ECECFF" stroke="#ECECFF"/><circle cx="722.00" cy="144.00" r="7.50" fill="hsl(80, 100%, 46.2745098039%)" stroke="hsl(80, 100%, 46.2745098039%)"/><circle cx="722.00" cy="144.00" r="5.00" fill="#ECECFF" stroke="#ECECFF"/></g><g class="commit-labels"></g></g></svg>