<svg xmlns="http://www.w3.org/2000/svg" width="100%" viewBox="-109.484375 -24.64 871.4844 457.6178" style="max-width: 871.484px;"><rect x="-109.484375" y="-24.64" width="871.4844" height="457.6178" fill="#FFFFFF"/><defs><marker id="arrow-0" viewBox="0 0 10 10" refX="5" refY="5" markerUnits="userSpaceOnUse" markerWidth="8" markerHeight="8" orient="auto"><path d="M 0 0 L 10 5 L 0 10 z" fill="#666666" stroke="#666666" stroke-width="1" stroke-dasharray="1,0"/></marker><marker id="arrow-start-0" viewBox="0 0 10 10" refX="4.5" refY="5" markerUnits="userSpaceOnUse" markerWidth="8" markerHeight="8" orient="auto"><path d="M 0 5 L 10 10 L 10 0 z" fill="#666666" stroke="#666666" stroke-width="1" stroke-dasharray="1,0"/></marker></defs><g><line x1="0.00" y1="0.00" x2="756.00" y2="0.00" stroke="#666666" stroke-width="0.8" stroke-dasharray="2"/><rect x="-77.68" y="-18.64" width="48.68" height="27.64" rx="4.00" ry="4.00" fill="#000000" stroke="none"/><text x="-68.68" y="2.68" text-anchor="start" font-family="trebuchet ms,verdana,arial,sans-serif" font-size="16" fill="#ffffff"><tspan x="-68.68" dy="0.00">main</tspan></text><line x1="0.00" y1="72.00" x2="756.00" y2="72.00" stroke="#666666" stroke-width="0.8" stroke-dasharray="2"/><rect x="-81.24" y="53.36" width="52.24" height="27.64" rx="4.00" ry="4.00" fill="#666666" stroke="none"/><text x="-72.24" y="74.68" text-anchor="start" font-family="trebuchet ms,verdana,arial,sans-serif" font-size="16" fill="#ffffff"><tspan x="-72.24" dy="0.00">hotfix</tspan></text><line x1="0.00" y1="144.00" x2="756.00" y2="144.00" stroke="#666666" stroke-width="0.8" stroke-dasharray="2"/><rect x="-99.05" y="125.36" width="70.05" height="27.64" rx="4.00" ry="4.00" fill="#999999" stroke="none"/><text x="-90.05" y="146.68" text-anchor="start" font-family="trebuchet ms,verdana,arial,sans-serif" font-size="16" fill="#ffffff"><tspan x="-90.05" dy="0.00">develop</tspan></text><line x1="0.00" y1="216.00" x2="756.00" y2="216.00" stroke="#666666" stroke-width="0.8" stroke-dasharray="2"/><rect x="-103.48" y="197.36" width="74.48" height="27.64" rx="4.00" ry="4.00" fill="#333333" stroke="none"/><text x="-94.48" y="218.68" text-anchor="start" font-family="trebuchet ms,verdana,arial,sans-serif" font-size="16" fill="#ffffff"><tspan x="-94.48" dy="0.00">featureB</tspan></text><line x1="0.00" y1="288.00" x2="756.00" y2="288.00" stroke="#666666" stroke-width="0.8" stroke-dasharray="2"/><rect x="-103.48" y="269.36" width="74.48" height="27.64" rx="4.00" ry="4.00" fill="#AAAAAA" stroke="none"/><text x="-94.48" y="290.68" text-anchor="start" font-family="trebuchet ms,verdana,arial,sans-serif" font-size="16" fill="black"><tspan x="-94.48" dy="0.00">featureA</tspan></text><line x1="0.00" y1="360.00" x2="756.00" y2="360.00" stroke="#666666" stroke-width="0.8" stroke-dasharray="2"/><rect x="-95.48" y="341.36" width="66.48" height="27.64" rx="4.00" ry="4.00" fill="#CCCCCC" stroke="none"/><text x="-86.48" y="362.68" text-anchor="start" font-family="trebuchet ms,verdana,arial,sans-serif" font-size="16" fill="black"><tspan x="-86.48" dy="0.00">release</tspan></text><g class="commit-arrows"><path d="M 8 0 L 8 56 A 16 16, 0, 0, 0, 24 72 L 50 72" fill="none" stroke="#666666" stroke-width="6" stroke-linecap="round"/><path d="M 50 72 L 50 128 A 16 16, 0, 0, 0, 66 144 L 92 144" fill="none" stroke="#999999" stroke-width="6" stroke-linecap="round"/><path d="M 92 144 L 92 200 A 16 16, 0, 0, 0, 108 216 L 134 216" fill="none" stroke="#333333" stroke-width="6" stroke-linecap="round"/><path d="M 50 72 L 176 72" fill="none" stroke="#666666" stroke-width="6" stroke-linecap="round"/><path d="M 92 144 L 218 144" fill="none" stroke="#999999" stroke-width="6" stroke-linecap="round"/><path d="M 134 216 L 260 216" fill="none" stroke="#333333" stroke-width="6" stroke-linecap="round"/><path d="M 8 0 L 302 0" fill="none" stroke="#000000" stroke-width="6" stroke-linecap="round"/><path d="M 176 72 L 286 72 A 16 16, 0, 0, 0, 302 56 L 302 0" fill="none" stroke="#666666" stroke-width="6" stroke-linecap="round"/><path d="M 260 216 L 344 216" fill="none" stroke="#333333" stroke-width="6" stroke-linecap="round"/><path d="M 218 144 L 218 272 A 16 16, 0, 0, 0, 234 288 L 386 288" fill="none" stroke="#AAAAAA" stroke-width="6" stroke-linecap="round"/><path d="M 218 144 L 428 144" fill="none" stroke="#999999" stroke-width="6" stroke-linecap="round"/><path d="M 176 72 L 176 100 A 8 8, 0, 0, 0, 184 108 L 420 108 A 8 8, 0, 0, 1, 428 116 L 428 144" fill="none" stroke="#666666" stroke-width="6" stroke-linecap="round"/><path d="M 386 288 L 470 288" fill="none" stroke="#AAAAAA" stroke-width="6" stroke-linecap="round"/><path d="M 344 216 L 512 216" fill="none" stroke="#333333" stroke-width="6" stroke-linecap="round"/><path d="M 428 144 L 554 144" fill="none" stroke="#999999" stroke-width="6" stroke-linecap="round"/><path d="M 470 288 L 538 288 A 16 16, 0, 0, 0, 554 272 L 554 144" fill="none" stroke="#AAAAAA" stroke-width="6" stroke-linecap="round"/><path d="M 554 144 L 554 344 A 16 16, 0, 0, 0, 570 360 L 596 360" fill="none" stroke="#CCCCCC" stroke-width="6" stroke-linecap="round"/><path d="M 302 0 L 638 0" fill="none" stroke="#000000" stroke-width="6" stroke-linecap="round"/><path d="M 596 360 L 680 360" fill="none" stroke="#CCCCCC" stroke-width="6" stroke-linecap="round"/><path d="M 638 0 L 664 0 A 16 16, 0, 0, 1, 680 16 L 680 360" fill="none" stroke="#000000" stroke-width="6" stroke-linecap="round"/><path d="M 554 144 L 722 144" fill="none" stroke="#999999" stroke-width="6" stroke-linecap="round"/><path d="M 680 360 L 706 360 A 16 16, 0, 0, 0, 722 344 L 722 144" fill="none" stroke="#CCCCCC" stroke-width="6" stroke-linecap="round"/></g><g class="commit-bullets"><circle cx="8.00" cy="0.00" r="8.00" fill="#000000" stroke="#000000"/><circle cx="50.00" cy="72.00" r="8.00" fill="#666666" stroke="#666666"/><circle cx="92.00" cy="144.00" r="8.00" fill="#999999" stroke="#999999"/><rect x="126.00" y="208.00" width="16.00" height="16.00" fill="#FFFFFF" stroke="#FFFFFF"/><rect x="129.00" y="211.00" width="10.00" height="10.00" fill="#EAEAEA" stroke="#EAEAEA"/><circle cx="176.00" cy="72.00" r="8.00" fill="#666666" stroke="#666666"/><circle cx="218.00" cy="144.00" r="8.00" fill="#999999" stroke="#999999"/><path d="M 214.00,140.00 L 222.00,148.00 M 214.00,148.00 L 222.00,140.00" stroke="#EAEAEA" stroke-width="2.5" fill="none"/><circle cx="260.00" cy="216.00" r="8.00" fill="#333333" stroke="#333333"/><circle cx="302.00" cy="0.00" r="7.50" fill="#000000" stroke="#000000"/><circle cx="302.00" cy="0.00" r="5.00" fill="#EAEAEA" stroke="#EAEAEA"/><circle cx="344.00" cy="216.00" r="8.00" fill="#333333" stroke="#333333"/><circle cx="386.00" cy="288.00" r="8.00" fill="#AAAAAA" stroke="#AAAAAA"/><circle cx="428.00" cy="144.00" r="7.50" fill="#999999" stroke="#999999"/><circle cx="428.00" cy="144.00" r="5.00" fill="#EAEAEA" stroke="#EAEAEA"/><circle cx="470.00" cy="288.00" r="8.00" fill="#AAAAAA" stroke="#AAAAAA"/><circle cx="512.00" cy="216.00" r="8.00" fill="#333333" stroke="#333333"/><circle cx="554.00" cy="144.00" r="7.50" fill="#999999" stroke="#999999"/><circle cx="554.00" cy="144.00" r="5.00" fill="#EAEAEA" stroke="#EAEAEA"/><circle cx="596.00" cy="360.00" r="8.00" fill="#CCCCCC" stroke="#CCCCCC"/><circle cx="638.00" cy="0.00" r="8.00" fill="#000000" stroke="#000000"/><circle cx="680.00" cy="360.00" r="7.50" fill="#CCCCCC" stroke="#CCCCCC"/><circle cx="680.00" cy="360.00" r="5.00" fill="#EAEAEA" stroke="#EAEAEA"/><circle cx="722.00" cy="144.00" r="7.50" fill="#999999" stroke="#999999"/><circle cx="722.00" cy="144.00" r="5.00" fill="#EAEAEA" stroke="#EAEAEA"/></g><g class="commit-labels"><g transform="translate(-23.86, 22.35) rotate(-45.00, 0.00, 0.00)"><rect x="-17.41" y="10.50" width="50.82" height="15.00" fill="#EAEAEA" opacity="0.5"/><text x="-15.91" y="20.00" text-anchor="start" font-family="trebuchet ms,verdana,arial,sans-serif" font-size="10" fill="#333333">0-a283915</text></g><g transform="translate(-22.97, 21.51) rotate(-45.00, 42.00, 72.00)"><rect x="25.98" y="82.50" width="48.04" height="15.00" fill="#EAEAEA" opacity="0.5"/><text x="27.48" y="92.00" text-anchor="start" font-family="trebuchet ms,verdana,arial,sans-serif" font-size="10" fill="#333333">1-f7303d0</text></g><g transform="translate(-13.72, 12.84) rotate(-45.00, 84.00, 144.00)"><rect x="82.44" y="154.50" width="19.12" height="15.00" fill="#EAEAEA" opacity="0.5"/><text x="83.94" y="164.00" text-anchor="start" font-family="trebuchet ms,verdana,arial,sans-serif" font-size="10" fill="#333333">ash</text></g><polygon points="74.44,129.50 74.44,126.50 80.94,120.50 103.06,120.50 103.06,135.50 80.94,135.50" fill="#EAEAEA" stroke="#999999"/><circle cx="77.44" cy="128.00" r="1.30" fill="#333333"/><text x="83.94" y="131.00" text-anchor="start" font-family="trebuchet ms,verdana,arial,sans-serif" font-size="10" fill="#333333">abc</text><g transform="translate(-22.97, 21.51) rotate(-45.00, 126.00, 216.00)"><rect x="109.98" y="226.50" width="48.04" height="15.00" fill="#EAEAEA" opacity="0.5"/><text x="111.48" y="236.00" text-anchor="start" font-family="trebuchet ms,verdana,arial,sans-serif" font-size="10" fill="#333333">3-959f21a</text></g><g transform="translate(-23.86, 22.35) rotate(-45.00, 168.00, 72.00)"><rect x="150.59" y="82.50" width="50.82" height="15.00" fill="#EAEAEA" opacity="0.5"/><text x="152.09" y="92.00" text-anchor="start" font-family="trebuchet ms,verdana,arial,sans-serif" font-size="10" fill="#333333">4-a5425b1</text></g><g transform="translate(-23.86, 22.35) rotate(-45.00, 210.00, 144.00)"><rect x="192.59" y="154.50" width="50.82" height="15.00" fill="#EAEAEA" opacity="0.5"/><text x="194.09" y="164.00" text-anchor="start" font-family="trebuchet ms,verdana,arial,sans-serif" font-size="10" fill="#333333">5-5e348e3</text></g><g transform="translate(-23.68, 22.18) rotate(-45.00, 252.00, 216.00)"><rect x="234.87" y="226.50" width="50.26" height="15.00" fill="#EAEAEA" opacity="0.5"/><text x="236.37" y="236.00" text-anchor="start" font-family="trebuchet ms,verdana,arial,sans-serif" font-size="10" fill="#333333">6-b68dbc9</text></g><g transform="translate(-23.68, 22.18) rotate(-45.00, 336.00, 216.00)"><rect x="318.87" y="226.50" width="50.26" height="15.00" fill="#EAEAEA" opacity="0.5"/><text x="320.37" y="236.00" text-anchor="start" font-family="trebuchet ms,verdana,arial,sans-serif" font-size="10" fill="#333333">8-8c8a3bb</text></g><g transform="translate(-23.68, 22.18) rotate(-45.00, 378.00, 288.00)"><rect x="360.87" y="298.50" width="50.26" height="15.00" fill="#EAEAEA" opacity="0.5"/><text x="362.37" y="308.00" text-anchor="start" font-family="trebuchet ms,verdana,arial,sans-serif" font-size="10" fill="#333333">9-338a53c</text></g><g transform="translate(-23.86, 22.35) rotate(-45.00, 462.00, 288.00)"><rect x="444.59" y="298.50" width="50.82" height="15.00" fill="#EAEAEA" opacity="0.5"/><text x="446.09" y="308.00" text-anchor="start" font-family="trebuchet ms,verdana,arial,sans-serif" font-size="10" fill="#333333">11-96f7df7</text></g><g transform="translate(-23.68, 22.18) rotate(-45.00, 504.00, 216.00)"><rect x="486.87" y="226.50" width="50.26" height="15.00" fill="#EAEAEA" opacity="0.5"/><text x="488.37" y="236.00" text-anchor="start" font-family="trebuchet ms,verdana,arial,sans-serif" font-size="10" fill="#333333">12-27fbf7c</text></g><g transform="translate(-25.46, 23.85) rotate(-45.00, 588.00, 360.00)"><rect x="568.09" y="370.50" width="55.82" height="15.00" fill="#EAEAEA" opacity="0.5"/><text x="569.59" y="380.00" text-anchor="start" font-family="trebuchet ms,verdana,arial,sans-serif" font-size="10" fill="#333333">14-62d80dc</text></g><g transform="translate(-25.46, 23.85) rotate(-45.00, 630.00, 0.00)"><rect x="610.09" y="10.50" width="55.82" height="15.00" fill="#EAEAEA" opacity="0.5"/><text x="611.59" y="20.00" text-anchor="start" font-family="trebuchet ms,verdana,arial,sans-serif" font-size="10" fill="#333333">15-2d103bc</text></g></g></g></svg>