<svg id="my-svg" width="100%" xmlns="http://www.w3.org/2000/svg" xmlns:xlink="http://www.w3.org/1999/xlink" style="max-width: 699.484px; background-color: white;" viewBox="-191.484375 -34.72539138793945 699.484375 250.8622283935547" role="graphics-document document" aria-roledescription="gitGraph"><style>#my-svg{font-family:"trebuchet ms",verdana,arial,sans-serif;font-size:16px;fill:#333;}@keyframes edge-animation-frame{from{stroke-dashoffset:0;}}@keyframes dash{to{stroke-dashoffset:0;}}#my-svg .edge-animation-slow{stroke-dasharray:9,5!important;stroke-dashoffset:900;animation:dash 50s linear infinite;stroke-linecap:round;}#my-svg .edge-animation-fast{stroke-dasharray:9,5!important;stroke-dashoffset:900;animation:dash 20s linear infinite;stroke-linecap:round;}#my-svg .error-icon{fill:#552222;}#my-svg .error-text{fill:#552222;stroke:#552222;}#my-svg .edge-thickness-normal{stroke-width:1px;}#my-svg .edge-thickness-thick{stroke-width:3.5px;}#my-svg .edge-pattern-solid{stroke-dasharray:0;}#my-svg .edge-thickness-invisible{stroke-width:0;fill:none;}#my-svg .edge-pattern-dashed{stroke-dasharray:3;}#my-svg .edge-pattern-dotted{stroke-dasharray:2;}#my-svg .marker{fill:#333333;stroke:#333333;}#my-svg .marker.cross{stroke:#333333;}#my-svg svg{font-family:"trebuchet ms",verdana,arial,sans-serif;font-size:16px;}#my-svg p{margin:0;}#my-svg .commit-id,#my-svg .commit-msg,#my-svg .branch-label{fill:lightgrey;color:lightgrey;font-family:'trebuchet ms',verdana,arial,sans-serif;font-family:var(--mermaid-font-family);}#my-svg .branch-label0{fill:#ffffff;}#my-svg .commit0{stroke:hsl(240, 100%, 46.2745098039%);fill:hsl(240, 100%, 46.2745098039%);}#my-svg .commit-highlight0{stroke:hsl(60, 100%, 3.7254901961%);fill:hsl(60, 100%, 3.7254901961%);}#my-svg .label0{fill:hsl(240, 100%, 46.2745098039%);}#my-svg .arrow0{stroke:hsl(240, 100%, 46.2745098039%);}#my-svg .branch-label1{fill:black;}#my-svg .commit1{stroke:hsl(60, 100%, 43.5294117647%);fill:hsl(60, 100%, 43.5294117647%);}#my-svg .commit-highlight1{stroke:rgb(0, 0, 160.5);fill:rgb(0, 0, 160.5);}#my-svg .label1{fill:hsl(60, 100%, 43.5294117647%);}#my-svg .arrow1{stroke:hsl(60, 100%, 43.5294117647%);}#my-svg .branch-label2{fill:black;}#my-svg .commit2{stroke:hsl(80, 100%, 46.2745098039%);fill:hsl(80, 100%, 46.2745098039%);}#my-svg .commit-highlight2{stroke:rgb(48.8333333334, 0, 146.5000000001);fill:rgb(48.8333333334, 0, 146.5000000001);}#my-svg .label2{fill:hsl(80, 100%, 46.2745098039%);}#my-svg .arrow2{stroke:hsl(80, 100%, 46.2745098039%);}#my-svg .branch-label3{fill:#ffffff;}#my-svg .commit3{stroke:hsl(210, 100%, 46.2745098039%);fill:hsl(210, 100%, 46.2745098039%);}#my-svg .commit-highlight3{stroke:rgb(146.5000000001, 73.2500000001, 0);fill:rgb(146.5000000001, 73.2500000001, 0);}#my-svg .label3{fill:hsl(210, 100%, 46.2745098039%);}#my-svg .arrow3{stroke:hsl(210, 100%, 46.2745098039%);}#my-svg .branch-label4{fill:black;}#my-svg .commit4{stroke:hsl(180, 100%, 46.2745098039%);fill:hsl(180, 100%, 46.2745098039%);}#my-svg .commit-highlight4{stroke:rgb(146.5000000001, 0, 0);fill:rgb(146.5000000001, 0, 0);}#my-svg .label4{fill:hsl(180, 100%, 46.2745098039%);}#my-svg .arrow4{stroke:hsl(180, 100%, 46.2745098039%);}#my-svg .branch-label5{fill:black;}#my-svg .commit5{stroke:hsl(150, 100%, 46.2745098039%);fill:hsl(150, 100%, 46.2745098039%);}#my-svg .commit-highlight5{stroke:rgb(146.5000000001, 0, 73.2500000001);fill:rgb(146.5000000001, 0, 73.2500000001);}#my-svg .label5{fill:hsl(150, 100%, 46.2745098039%);}#my-svg .arrow5{stroke:hsl(150, 100%, 46.2745098039%);}#my-svg .branch-label6{fill:black;}#my-svg .commit6{stroke:hsl(300, 100%, 46.2745098039%);fill:hsl(300, 100%, 46.2745098039%);}#my-svg .commit-highlight6{stroke:rgb(0, 146.5000000001, 0);fill:rgb(0, 146.5000000001, 0);}#my-svg .label6{fill:hsl(300, 100%, 46.2745098039%);}#my-svg .arrow6{stroke:hsl(300, 100%, 46.2745098039%);}#my-svg .branch-label7{fill:black;}#my-svg .commit7{stroke:hsl(0, 100%, 46.2745098039%);fill:hsl(0, 100%, 46.2745098039%);}#my-svg .commit-highlight7{stroke:rgb(0, 146.5000000001, 146.5000000001);fill:rgb(0, 146.5000000001, 146.5000000001);}#my-svg .label7{fill:hsl(0, 100%, 46.2745098039%);}#my-svg .arrow7{stroke:hsl(0, 100%, 46.2745098039%);}#my-svg .branch{stroke-width:1;stroke:#333333;stroke-dasharray:2;}#my-svg .commit-label{font-size:10px;fill:#000021;}#my-svg .commit-label-bkg{font-size:10px;fill:#ffffde;opacity:0.5;}#my-svg .tag-label{font-size:10px;fill:#131300;}#my-svg .tag-label-bkg{fill:#ECECFF;stroke:hsl(240, 60%, 86.2745098039%);}#my-svg .tag-hole{fill:#333;}#my-svg .commit-merge{stroke:#ECECFF;fill:#ECECFF;}#my-svg .commit-reverse{stroke:#ECECFF;fill:#ECECFF;stroke-width:3;}#my-svg .commit-highlight-inner{stroke:#ECECFF;fill:#ECECFF;}#my-svg .arrow{stroke-width:8;stroke-linecap:round;fill:none;}#my-svg .gitTitleText{text-anchor:middle;font-size:18px;fill:#333;}#my-svg :root{--mermaid-font-family:"trebuchet ms",verdana,arial,sans-serif;}</style><g/><g class="commit-bullets"/><g class="commit-labels"/><g><line x1="0" y1="0" x2="500" y2="0" class="branch branch0"/><rect class="branchLabelBkg label0" rx="4" ry="4" x="-69" y="-1.5" width="53" height="23" transform="translate(-19, -9.5)"/><g class="branchLabel"><g class="label branch-label0" transform="translate(-79, -10.5)"><text><tspan xml:space="preserve" dy="1em" x="0" class="row">main</tspan></text></g></g><line x1="0" y1="90" x2="500" y2="90" class="branch branch1"/><rect class="branchLabelBkg label1" rx="4" ry="4" x="-125.421875" y="-1.5" width="109.421875" height="23" transform="translate(-19, 80.5)"/><g class="branchLabel"><g class="label branch-label1" transform="translate(-135.421875, 79.5)"><text><tspan xml:space="preserve" dy="1em" x="0" class="row">nice_feature</tspan></text></g></g><line x1="0" y1="180" x2="500" y2="180" class="branch branch2"/><rect class="branchLabelBkg label2" rx="4" ry="4" x="-164.484375" y="-1.5" width="148.484375" height="23" transform="translate(-19, 170.5)"/><g class="branchLabel"><g class="label branch-label2" transform="translate(-174.484375, 169.5)"><text><tspan xml:space="preserve" dy="1em" x="0" class="row">very_nice_feature</tspan></text></g></g></g><g class="commit-arrows"><path d="M 10 0 L 60 0" class="arrow arrow0"/><path d="M 60 0 L 60 70 A 20 20, 0, 0, 0, 80 90 L 110 90" class="arrow arrow1"/><path d="M 60 0 L 160 0" class="arrow arrow0"/><path d="M 110 90 L 110 160 A 20 20, 0, 0, 0, 130 180 L 210 180" class="arrow arrow2"/><path d="M 160 0 L 260 0" class="arrow arrow0"/><path d="M 110 90 L 310 90" class="arrow arrow1"/><path d="M 260 0 L 360 0" class="arrow arrow0"/><path d="M 310 90 L 340 90 A 20 20, 0, 0, 0, 360 70 L 360 0" class="arrow arrow1"/><path d="M 210 180 L 410 180" class="arrow arrow2"/><path d="M 360 0 L 460 0" class="arrow arrow0"/></g><g class="commit-bullets"><circle cx="10" cy="0" r="10" class="commit 1 commit0"/><circle cx="60" cy="0" r="10" class="commit 2 commit0"/><circle cx="110" cy="90" r="10" class="commit 3 commit1"/><circle cx="160" cy="0" r="10" class="commit 4 commit0"/><circle cx="210" cy="180" r="10" class="commit 5 commit2"/><circle cx="260" cy="0" r="10" class="commit 6 commit0"/><circle cx="310" cy="90" r="10" class="commit 7 commit1"/><circle cx="360" cy="0" r="9" class="commit customID commit0"/><path d="M 355,-5L365,5M355,5L365,-5" class="commit commit-reverse customID commit0"/><circle cx="410" cy="180" r="10" class="commit 8 commit2"/><circle cx="460" cy="0" r="10" class="commit 9 commit0"/></g><g class="commit-labels"><g transform="translate(-13.295, 11.785) rotate(-45, 0, 0)"><rect class="commit-label-bkg" x="5.375" y="13.5" width="9.25" height="15"/><text x="7.375" y="25" class="commit-label">1</text></g><g transform="translate(-13.295, 11.785) rotate(-45, 50, 0)"><rect class="commit-label-bkg" x="55.375" y="13.5" width="9.25" height="15"/><text x="57.375" y="25" class="commit-label">2</text></g><g transform="translate(-13.295, 11.785) rotate(-45, 100, 90)"><rect class="commit-label-bkg" x="105.375" y="103.5" width="9.25" height="15"/><text x="107.375" y="115" class="commit-label">3</text></g><g transform="translate(-13.295, 11.785) rotate(-45, 150, 0)"><rect class="commit-label-bkg" x="155.375" y="13.5" width="9.25" height="15"/><text x="157.375" y="25" class="commit-label">4</text></g><g transform="translate(-13.295, 11.785) rotate(-45, 200, 180)"><rect class="commit-label-bkg" x="205.375" y="193.5" width="9.25" height="15"/><text x="207.375" y="205" class="commit-label">5</text></g><g transform="translate(-13.295, 11.785) rotate(-45, 250, 0)"><rect class="commit-label-bkg" x="255.375" y="13.5" width="9.25" height="15"/><text x="257.375" y="25" class="commit-label">6</text></g><g transform="translate(-13.295, 11.785) rotate(-45, 300, 90)"><rect class="commit-label-bkg" x="305.375" y="103.5" width="9.25" height="15"/><text x="307.375" y="115" class="commit-label">7</text></g><g transform="translate(-26.8859375, 23.9453125) rotate(-45, 350, 0)"><rect class="commit-label-bkg" x="337.4921875" y="13.5" width="45.015625" height="15"/><text x="339.4921875" y="25" class="commit-label">customID</text></g><polygon class="tag-label-bkg" points="324.53125,-17.2  &#10;      324.53125,-21.2&#10;      332.53125,-26.725390625&#10;      387.46875,-26.725390625&#10;      387.46875,-11.674609375&#10;      332.53125,-11.674609375"/><circle cy="-19.2" cx="328.53125" r="1.5" class="tag-hole"/><text y="-16" class="tag-label" x="336.53125">customTag</text><g transform="translate(-13.295, 11.785) rotate(-45, 400, 180)"><rect class="commit-label-bkg" x="405.375" y="193.5" width="9.25" height="15"/><text x="407.375" y="205" class="commit-label">8</text></g><g transform="translate(-13.295, 11.785) rotate(-45, 450, 0)"><rect class="commit-label-bkg" x="455.375" y="13.5" width="9.25" height="15"/><text x="457.375" y="25" class="commit-label">9</text></g></g></svg>