<svg id="my-svg" width="100%" xmlns="http://www.w3.org/2000/svg" xmlns:xlink="http://www.w3.org/1999/xlink" style="max-width: 1031.52px; background-color: white;" viewBox="-123.515625 -19 1031.515625 535.7290649414062" role="graphics-document document" aria-roledescription="gitGraph"><style>#my-svg{font-family:"trebuchet ms",verdana,arial,sans-serif;font-size:16px;fill:#333;}@keyframes edge-animation-frame{from{stroke-dashoffset:0;}}@keyframes dash{to{stroke-dashoffset:0;}}#my-svg .edge-animation-slow{stroke-dasharray:9,5!important;stroke-dashoffset:900;animation:dash 50s linear infinite;stroke-linecap:round;}#my-svg .edge-animation-fast{stroke-dasharray:9,5!important;stroke-dashoffset:900;animation:dash 20s linear infinite;stroke-linecap:round;}#my-svg .error-icon{fill:hsl(220.5882352941, 100%, 98.3333333333%);}#my-svg .error-text{fill:rgb(8.5000000002, 5.7500000001, 0);stroke:rgb(8.5000000002, 5.7500000001, 0);}#my-svg .edge-thickness-normal{stroke-width:1px;}#my-svg .edge-thickness-thick{stroke-width:3.5px;}#my-svg .edge-pattern-solid{stroke-dasharray:0;}#my-svg .edge-thickness-invisible{stroke-width:0;fill:none;}#my-svg .edge-pattern-dashed{stroke-dasharray:3;}#my-svg .edge-pattern-dotted{stroke-dasharray:2;}#my-svg .marker{fill:#0b0b0b;stroke:#0b0b0b;}#my-svg .marker.cross{stroke:#0b0b0b;}#my-svg svg{font-family:"trebuchet ms",verdana,arial,sans-serif;font-size:16px;}#my-svg p{margin:0;}#my-svg .commit-id,#my-svg .commit-msg,#my-svg .branch-label{fill:lightgrey;color:lightgrey;font-family:'trebuchet ms',verdana,arial,sans-serif;font-family:var(--mermaid-font-family);}#my-svg .branch-label0{fill:#333;}#my-svg .commit0{stroke:hsl(40.5882352941, 100%, 68.3333333333%);fill:hsl(40.5882352941, 100%, 68.3333333333%);}#my-svg .commit-highlight0{stroke:rgb(0, 52.2500000001, 161.5000000002);fill:rgb(0, 52.2500000001, 161.5000000002);}#my-svg .label0{fill:hsl(40.5882352941, 100%, 68.3333333333%);}#my-svg .arrow0{stroke:hsl(40.5882352941, 100%, 68.3333333333%);}#my-svg .branch-label1{fill:#333;}#my-svg .commit1{stroke:hsl(-79.4117647059, 100%, 68.3333333333%);fill:hsl(-79.4117647059, 100%, 68.3333333333%);}#my-svg .commit-highlight1{stroke:rgb(52.2500000001, 161.5000000002, 0);fill:rgb(52.2500000001, 161.5000000002, 0);}#my-svg .label1{fill:hsl(-79.4117647059, 100%, 68.3333333333%);}#my-svg .arrow1{stroke:hsl(-79.4117647059, 100%, 68.3333333333%);}#my-svg .branch-label2{fill:#333;}#my-svg .commit2{stroke:hsl(220.5882352941, 100%, 73.3333333333%);fill:hsl(220.5882352941, 100%, 73.3333333333%);}#my-svg .commit-highlight2{stroke:rgb(136.0000000002, 92.0000000001, 0);fill:rgb(136.0000000002, 92.0000000001, 0);}#my-svg .label2{fill:hsl(220.5882352941, 100%, 73.3333333333%);}#my-svg .arrow2{stroke:hsl(220.5882352941, 100%, 73.3333333333%);}#my-svg .branch-label3{fill:#333;}#my-svg .commit3{stroke:hsl(10.5882352941, 100%, 68.3333333333%);fill:hsl(10.5882352941, 100%, 68.3333333333%);}#my-svg .commit-highlight3{stroke:rgb(0, 133.0000000002, 161.5000000002);fill:rgb(0, 133.0000000002, 161.5000000002);}#my-svg .label3{fill:hsl(10.5882352941, 100%, 68.3333333333%);}#my-svg .arrow3{stroke:hsl(10.5882352941, 100%, 68.3333333333%);}#my-svg .branch-label4{fill:#333;}#my-svg .commit4{stroke:hsl(-19.4117647059, 100%, 68.3333333333%);fill:hsl(-19.4117647059, 100%, 68.3333333333%);}#my-svg .commit-highlight4{stroke:rgb(0, 161.5000000002, 109.2500000001);fill:rgb(0, 161.5000000002, 109.2500000001);}#my-svg .label4{fill:hsl(-19.4117647059, 100%, 68.3333333333%);}#my-svg .arrow4{stroke:hsl(-19.4117647059, 100%, 68.3333333333%);}#my-svg .branch-label5{fill:#333;}#my-svg .commit5{stroke:hsl(-49.4117647059, 100%, 68.3333333333%);fill:hsl(-49.4117647059, 100%, 68.3333333333%);}#my-svg .commit-highlight5{stroke:rgb(0, 161.5000000002, 28.5);fill:rgb(0, 161.5000000002, 28.5);}#my-svg .label5{fill:hsl(-49.4117647059, 100%, 68.3333333333%);}#my-svg .arrow5{stroke:hsl(-49.4117647059, 100%, 68.3333333333%);}#my-svg .branch-label6{fill:#333;}#my-svg .commit6{stroke:hsl(100.5882352941, 100%, 68.3333333333%);fill:hsl(100.5882352941, 100%, 68.3333333333%);}#my-svg .commit-highlight6{stroke:rgb(109.2500000001, 0, 161.5000000002);fill:rgb(109.2500000001, 0, 161.5000000002);}#my-svg .label6{fill:hsl(100.5882352941, 100%, 68.3333333333%);}#my-svg .arrow6{stroke:hsl(100.5882352941, 100%, 68.3333333333%);}#my-svg .branch-label7{fill:#333;}#my-svg .commit7{stroke:hsl(160.5882352941, 100%, 68.3333333333%);fill:hsl(160.5882352941, 100%, 68.3333333333%);}#my-svg .commit-highlight7{stroke:rgb(161.5000000002, 0, 52.2500000001);fill:rgb(161.5000000002, 0, 52.2500000001);}#my-svg .label7{fill:hsl(160.5882352941, 100%, 68.3333333333%);}#my-svg .arrow7{stroke:hsl(160.5882352941, 100%, 68.3333333333%);}#my-svg .branch{stroke-width:1;stroke:#0b0b0b;stroke-dasharray:2;}#my-svg .commit-label{font-size:10px;fill:rgb(11.0000000001, 34.0000000002, 0);}#my-svg .commit-label-bkg{font-size:10px;fill:hsl(-79.4117647059, 100%, 93.3333333333%);opacity:0.5;}#my-svg .tag-label{font-size:10px;fill:#333;}#my-svg .tag-label-bkg{fill:#fff4dd;stroke:hsl(40.5882352941, 60%, 83.3333333333%);}#my-svg .tag-hole{fill:#333;}#my-svg .commit-merge{stroke:#fff4dd;fill:#fff4dd;}#my-svg .commit-reverse{stroke:#fff4dd;fill:#fff4dd;stroke-width:3;}#my-svg .commit-highlight-inner{stroke:#fff4dd;fill:#fff4dd;}#my-svg .arrow{stroke-width:8;stroke-linecap:round;fill:none;}#my-svg .gitTitleText{text-anchor:middle;font-size:18px;fill:#333;}#my-svg :root{--mermaid-font-family:"trebuchet ms",verdana,arial,sans-serif;}</style><g/><g class="commit-bullets"/><g class="commit-labels"/><g><line x1="0" y1="0" x2="900" y2="0" class="branch branch0"/><rect class="branchLabelBkg label0" rx="4" ry="4" x="-69" y="-1.5" width="53" height="23" transform="translate(-19, -9.5)"/><g class="branchLabel"><g class="label branch-label0" transform="translate(-79, -10.5)"><text><tspan xml:space="preserve" dy="1em" x="0" class="row">main</tspan></text></g></g><line x1="0" y1="90" x2="900" y2="90" class="branch branch1"/><rect class="branchLabelBkg label1" rx="4" ry="4" x="-76.171875" y="-1.5" width="60.171875" height="23" transform="translate(-19, 80.5)"/><g class="branchLabel"><g class="label branch-label1" transform="translate(-86.171875, 79.5)"><text><tspan xml:space="preserve" dy="1em" x="0" class="row">hotfix</tspan></text></g></g><line x1="0" y1="180" x2="900" y2="180" class="branch branch2"/><rect class="branchLabelBkg label2" rx="4" ry="4" x="-90.421875" y="-1.5" width="74.421875" height="23" transform="translate(-19, 170.5)"/><g class="branchLabel"><g class="label branch-label2" transform="translate(-100.421875, 169.5)"><text><tspan xml:space="preserve" dy="1em" x="0" class="row">develop</tspan></text></g></g><line x1="0" y1="270" x2="900" y2="270" class="branch branch3"/><rect class="branchLabelBkg label3" rx="4" ry="4" x="-96.140625" y="-1.5" width="80.140625" height="23" transform="translate(-19, 260.5)"/><g class="branchLabel"><g class="label branch-label3" transform="translate(-106.140625, 259.5)"><text><tspan xml:space="preserve" dy="1em" x="0" class="row">featureB</tspan></text></g></g><line x1="0" y1="360" x2="900" y2="360" class="branch branch4"/><rect class="branchLabelBkg label4" rx="4" ry="4" x="-96.515625" y="-1.5" width="80.515625" height="23" transform="translate(-19, 350.5)"/><g class="branchLabel"><g class="label branch-label4" transform="translate(-106.515625, 349.5)"><text><tspan xml:space="preserve" dy="1em" x="0" class="row">featureA</tspan></text></g></g><line x1="0" y1="450" x2="900" y2="450" class="branch branch5"/><rect class="branchLabelBkg label5" rx="4" ry="4" x="-86" y="-1.5" width="70" height="23" transform="translate(-19, 440.5)"/><g class="branchLabel"><g class="label branch-label5" transform="translate(-96, 439.5)"><text><tspan xml:space="preserve" dy="1em" x="0" class="row">release</tspan></text></g></g></g><g class="commit-arrows"><path d="M 10 0 L 10 70 A 20 20, 0, 0, 0, 30 90 L 60 90" class="arrow arrow1"/><path d="M 60 90 L 60 160 A 20 20, 0, 0, 0, 80 180 L 110 180" class="arrow arrow2"/><path d="M 110 180 L 110 250 A 20 20, 0, 0, 0, 130 270 L 160 270" class="arrow arrow3"/><path d="M 60 90 L 210 90" class="arrow arrow1"/><path d="M 110 180 L 260 180" class="arrow arrow2"/><path d="M 160 270 L 310 270" class="arrow arrow3"/><path d="M 10 0 L 360 0" class="arrow arrow0"/><path d="M 210 90 L 340 90 A 20 20, 0, 0, 0, 360 70 L 360 0" class="arrow arrow1"/><path d="M 310 270 L 410 270" class="arrow arrow3"/><path d="M 260 180 L 260 340 A 20 20, 0, 0, 0, 280 360 L 460 360" class="arrow arrow4"/><path d="M 260 180 L 510 180" class="arrow arrow2"/><path d="M 210 90 L 210 125 A 10 10, 0, 0, 0, 220 135 L 500 135 A 10 10, 0, 0, 1, 510 145 L 510 180" class="arrow arrow1"/><path d="M 460 360 L 560 360" class="arrow arrow4"/><path d="M 410 270 L 610 270" class="arrow arrow3"/><path d="M 510 180 L 660 180" class="arrow arrow2"/><path d="M 560 360 L 640 360 A 20 20, 0, 0, 0, 660 340 L 660 180" class="arrow arrow4"/><path d="M 660 180 L 660 430 A 20 20, 0, 0, 0, 680 450 L 710 450" class="arrow arrow5"/><path d="M 360 0 L 760 0" class="arrow arrow0"/><path d="M 710 450 L 810 450" class="arrow arrow5"/><path d="M 760 0 L 790 0 A 20 20, 0, 0, 1, 810 20 L 810 450" class="arrow arrow0"/><path d="M 660 180 L 860 180" class="arrow arrow2"/><path d="M 810 450 L 840 450 A 20 20, 0, 0, 0, 860 430 L 860 180" class="arrow arrow5"/></g><g class="commit-bullets"><circle cx="10" cy="0" r="10" class="commit 0-bf60c36 commit0"/><circle cx="60" cy="90" r="10" class="commit 1-7a62ecb commit1"/><circle cx="110" cy="180" r="10" class="commit ash commit2"/><rect x="150" y="260" width="20" height="20" class="commit 3-5c577e3 commit-highlight3 commit-highlight-outer"/><rect x="154" y="264" width="12" height="12" class="commit 3-5c577e3 commit3 commit-highlight-inner"/><circle cx="210" cy="90" r="10" class="commit 4-5f768f9 commit1"/><circle cx="260" cy="180" r="10" class="commit 5-7204a3c commit2"/><path d="M 255,175L265,185M255,185L265,175" class="commit commit-reverse 5-7204a3c commit2"/><circle cx="310" cy="270" r="10" class="commit 6-c167e05 commit3"/><circle cx="360" cy="0" r="9" class="commit 7-1e51e76 commit0"/><circle cx="360" cy="0" r="6" class="commit commit-merge 7-1e51e76 commit0"/><circle cx="410" cy="270" r="10" class="commit 8-535dbac commit3"/><circle cx="460" cy="360" r="10" class="commit 9-63f7fdb commit4"/><circle cx="510" cy="180" r="9" class="commit 10-9b018a3 commit2"/><circle cx="510" cy="180" r="6" class="commit commit-merge 10-9b018a3 commit2"/><circle cx="560" cy="360" r="10" class="commit 11-d872124 commit4"/><circle cx="610" cy="270" r="10" class="commit 12-82fa7ce commit3"/><circle cx="660" cy="180" r="9" class="commit 13-ffd805a commit2"/><circle cx="660" cy="180" r="6" class="commit commit-merge 13-ffd805a commit2"/><circle cx="710" cy="450" r="10" class="commit 14-1f4cd72 commit5"/><circle cx="760" cy="0" r="10" class="commit 15-026aed5 commit0"/><circle cx="810" cy="450" r="9" class="commit 16-4e3b9d2 commit5"/><circle cx="810" cy="450" r="6" class="commit commit-merge 16-4e3b9d2 commit5"/><circle cx="860" cy="180" r="9" class="commit 17-cc80c6e commit2"/><circle cx="860" cy="180" r="6" class="commit commit-merge 17-cc80c6e commit2"/></g><g class="commit-labels"><g transform="translate(-28.0675, 25.002499999999998) rotate(-45, 0, 0)"><rect class="commit-label-bkg" x="-14.0625" y="13.5" width="48.125" height="15"/><text x="-12.0625" y="25" class="commit-label">0-bf60c36</text></g><g transform="translate(-28.738437500000003, 25.6028125) rotate(-45, 50, 90)"><rect class="commit-label-bkg" x="35.0546875" y="103.5" width="49.890625" height="15"/><text x="37.0546875" y="115" class="commit-label">1-7a62ecb</text></g><g transform="translate(-16.9109375, 15.0203125) rotate(-45, 100, 180)"><rect class="commit-label-bkg" x="100.6171875" y="193.5" width="18.765625" height="15"/><text x="102.6171875" y="205" class="commit-label">ash</text></g><polygon class="tag-label-bkg" points="90.109375,162.8  &#10;      90.109375,158.8&#10;      98.109375,153.3&#10;      121.890625,153.3&#10;      121.890625,168.3&#10;      98.109375,168.3"/><circle cy="160.8" cx="94.109375" r="1.5" class="tag-hole"/><text y="164" class="tag-label" x="102.109375">abc</text><g transform="translate(-28.607812499999998, 25.4859375) rotate(-45, 150, 270)"><rect class="commit-label-bkg" x="135.2265625" y="283.5" width="49.546875" height="15"/><text x="137.2265625" y="295" class="commit-label">3-5c577e3</text></g><g transform="translate(-27.461875, 24.460625) rotate(-45, 200, 90)"><rect class="commit-label-bkg" x="186.734375" y="103.5" width="46.53125" height="15"/><text x="188.734375" y="115" class="commit-label">4-5f768f9</text></g><g transform="translate(-28.530625, 25.416874999999997) rotate(-45, 250, 180)"><rect class="commit-label-bkg" x="235.328125" y="193.5" width="49.34375" height="15"/><text x="237.328125" y="205" class="commit-label">5-7204a3c</text></g><g transform="translate(-28.607812499999998, 25.4859375) rotate(-45, 300, 270)"><rect class="commit-label-bkg" x="285.2265625" y="283.5" width="49.546875" height="15"/><text x="287.2265625" y="295" class="commit-label">6-c167e05</text></g><g transform="translate(-28.78, 25.64) rotate(-45, 400, 270)"><rect class="commit-label-bkg" x="385" y="283.5" width="50" height="15"/><text x="387" y="295" class="commit-label">8-535dbac</text></g><g transform="translate(-27.71125, 24.68375) rotate(-45, 450, 360)"><rect class="commit-label-bkg" x="436.40625" y="373.5" width="47.1875" height="15"/><text x="438.40625" y="385" class="commit-label">9-63f7fdb</text></g><g transform="translate(-30.7571875, 27.4090625) rotate(-45, 550, 360)"><rect class="commit-label-bkg" x="532.3984375" y="373.5" width="55.203125" height="15"/><text x="534.3984375" y="385" class="commit-label">11-d872124</text></g><g transform="translate(-30.015, 26.745) rotate(-45, 600, 270)"><rect class="commit-label-bkg" x="583.375" y="283.5" width="53.25" height="15"/><text x="585.375" y="295" class="commit-label">12-82fa7ce</text></g><g transform="translate(-30.056562500000002, 26.7821875) rotate(-45, 700, 450)"><rect class="commit-label-bkg" x="683.3203125" y="463.5" width="53.359375" height="15"/><text x="685.3203125" y="475" class="commit-label">14-1f4cd72</text></g><g transform="translate(-30.840312500000003, 27.483437499999997) rotate(-45, 750, 0)"><rect class="commit-label-bkg" x="732.2890625" y="13.5" width="55.421875" height="15"/><text x="734.2890625" y="25" class="commit-label">15-026aed5</text></g></g></svg>