<svg xmlns="http://www.w3.org/2000/svg" width="100%" viewBox="-108.231995 -24.64 324.232 168.69736" style="max-width: 324.232px;"><rect x="-108.231995" y="-24.64" width="324.232" height="168.69736" fill="#FFFFFF"/><defs><marker id="arrow-0" viewBox="0 0 10 10" refX="5" refY="5" markerUnits="userSpaceOnUse" markerWidth="8" markerHeight="8" orient="auto"><path d="M 0 0 L 10 5 L 0 10 z" fill="#2F3B4D" stroke="#2F3B4D" stroke-width="1" stroke-dasharray="1,0"/></marker><marker id="arrow-start-0" viewBox="0 0 10 10" refX="4.5" refY="5" markerUnits="userSpaceOnUse" markerWidth="8" markerHeight="8" orient="auto"><path d="M 0 5 L 10 10 L 10 0 z" fill="#2F3B4D" stroke="#2F3B4D" stroke-width="1" stroke-dasharray="1,0"/></marker></defs><g><line x1="0.00" y1="0.00" x2="210.00" y2="0.00" stroke="#2F3B4D" stroke-width="0.8" stroke-dasharray="2"/><rect x="-78.79" y="-18.64" width="49.79" height="27.64" rx="4.00" ry="4.00" fill="hsl(240, 100%, 46.2745098039%)" stroke="none"/><text x="-69.79" y="2.68" text-anchor="start" font-family="trebuchet ms,verdana,arial,sans-serif" font-size="16" fill="#ffffff"><tspan x="-69.79" dy="0.00">main</tspan></text><line x1="0.00" y1="72.00" x2="210.00" y2="72.00" stroke="#2F3B4D" stroke-width="0.8" stroke-dasharray="2"/><rect x="-102.23" y="53.36" width="73.23" height="27.64" rx="4.00" ry="4.00" fill="hsl(60, 100%, 43.5294117647%)" stroke="none"/><text x="-93.23" y="74.68" text-anchor="start" font-family="trebuchet ms,verdana,arial,sans-serif" font-size="16" fill="black"><tspan x="-93.23" dy="0.00">develop</tspan></text><g class="commit-arrows"><path d="M 8 0 L 8 56 A 16 16, 0, 0, 0, 24 72 L 50 72" fill="none" stroke="hsl(60, 100%, 43.5294117647%)" stroke-width="6" stroke-linecap="round"/><path d="M 50 72 L 92 72" fill="none" stroke="hsl(60, 100%, 43.5294117647%)" stroke-width="6" stroke-linecap="round"/><path d="M 8 0 L 134 0" fill="none" stroke="hsl(240, 100%, 46.2745098039%)" stroke-width="6" stroke-linecap="round"/><path d="M 134 0 L 176 0" fill="none" stroke="hsl(240, 100%, 46.2745098039%)" stroke-width="6" stroke-linecap="round"/></g><g class="commit-bullets"><circle cx="8.00" cy="0.00" r="8.00" fill="hsl(240, 100%, 46.2745098039%)" stroke="hsl(240, 100%, 46.2745098039%)"/><circle cx="50.00" cy="72.00" r="8.00" fill="hsl(60, 100%, 43.5294117647%)" stroke="hsl(60, 100%, 43.5294117647%)"/><circle cx="92.00" cy="72.00" r="8.00" fill="hsl(60, 100%, 43.5294117647%)" stroke="hsl(60, 100%, 43.5294117647%)"/><circle cx="134.00" cy="0.00" r="8.00" fill="hsl(240, 100%, 46.2745098039%)" stroke="hsl(240, 100%, 46.2745098039%)"/><circle cx="176.00" cy="0.00" r="8.00" fill="hsl(240, 100%, 46.2745098039%)" stroke="hsl(240, 100%, 46.2745098039%)"/></g><g class="commit-labels"><g transform="translate(-25.37, 23.76) rotate(-45.00, 0.00, 0.00)"><rect x="-19.77" y="10.50" width="55.54" height="15.00" fill="#ffffde" opacity="0.5"/><text x="-18.27" y="20.00" text-anchor="start" font-family="trebuchet ms,verdana,arial,sans-serif" font-size="10" fill="#000021">0-4ce02ae</text></g><g transform="translate(-23.52, 22.03) rotate(-45.00, 42.00, 72.00)"><rect x="25.12" y="82.50" width="49.75" height="15.00" fill="#ffffde" opacity="0.5"/><text x="26.62" y="92.00" text-anchor="start" font-family="trebuchet ms,verdana,arial,sans-serif" font-size="10" fill="#000021">1-d46b3ff</text></g><g transform="translate(-25.09, 23.50) rotate(-45.00, 84.00, 72.00)"><rect x="64.67" y="82.50" width="54.66" height="15.00" fill="#ffffde" opacity="0.5"/><text x="66.17" y="92.00" text-anchor="start" font-family="trebuchet ms,verdana,arial,sans-serif" font-size="10" fill="#000021">2-6238f08</text></g><g transform="translate(-24.77, 23.19) rotate(-45.00, 126.00, 0.00)"><rect x="107.18" y="10.50" width="53.65" height="15.00" fill="#ffffde" opacity="0.5"/><text x="108.68" y="20.00" text-anchor="start" font-family="trebuchet ms,verdana,arial,sans-serif" font-size="10" fill="#000021">3-8efb276</text></g><g transform="translate(-23.33, 21.85) rotate(-45.00, 168.00, 0.00)"><rect x="151.42" y="10.50" width="49.16" height="15.00" fill="#ffffde" opacity="0.5"/><text x="152.92" y="20.00" text-anchor="start" font-family="trebuchet ms,verdana,arial,sans-serif" font-size="10" fill="#000021">4-f6dff85</text></g></g></g></svg>