<svg xmlns="http://www.w3.org/2000/svg" width="100%" viewBox="-0.000002861023 -0.0000009536743 609.69403 53.559006" style="max-width: 609.694px;"><rect x="-0.000002861023" y="-0.0000009536743" width="609.69403" height="53.559006" fill="#FFFFFF"/><defs><marker id="arrow-0" viewBox="0 0 10 10" refX="5" refY="5" markerUnits="userSpaceOnUse" markerWidth="8" markerHeight="8" orient="auto"><path d="M 0 0 L 10 5 L 0 10 z" fill="#2F3B4D" stroke="#2F3B4D" stroke-width="1" stroke-dasharray="1,0"/></marker><marker id="arrow-start-0" viewBox="0 0 10 10" refX="4.5" refY="5" markerUnits="userSpaceOnUse" markerWidth="8" markerHeight="8" orient="auto"><path d="M 0 5 L 10 10 L 10 0 z" fill="#2F3B4D" stroke="#2F3B4D" stroke-width="1" stroke-dasharray="1,0"/></marker><marker id="arrow-1" viewBox="0 0 10 10" refX="5" refY="5" markerUnits="userSpaceOnUse" markerWidth="8" markerHeight="8" orient="auto"><path d="M 0 0 L 10 5 L 0 10 z" fill="hsl(60, 100%, 73.5294117647%)" stroke="hsl(60, 100%, 73.5294117647%)" stroke-width="1" stroke-dasharray="1,0"/></marker><marker id="arrow-start-1" viewBox="0 0 10 10" refX="4.5" refY="5" markerUnits="userSpaceOnUse" markerWidth="8" markerHeight="8" orient="auto"><path d="M 0 5 L 10 10 L 10 0 z" fill="hsl(60, 100%, 73.5294117647%)" stroke="hsl(60, 100%, 73.5294117647%)" stroke-width="1" stroke-dasharray="1,0"/></marker></defs><path id="edge-0" class="edgePath" data-edge-id="edge-0" d="M 87.135,26.779 L 300.071,26.779" fill="none" stroke="hsl(60, 100%, 73.5294117647%)" stroke-width="11"    stroke-linecap="round" stroke-linejoin="round" /><path id="edge-1" class="edgePath" data-edge-id="edge-1" d="M 300.071,26.779 L 517.783,26.779" fill="none" stroke="hsl(60, 100%, 73.5294117647%)" stroke-width="8"    stroke-linecap="round" stroke-linejoin="round" /><path d="M217.92 34.91 v-16.25 q0,-8.80 8.80,-8.80 h146.71 q8.80,0 8.80,8.80 v16.25 q0,8.80 -8.80,8.80 h-146.71 q-8.80,0 -8.80,-8.80 Z" fill="hsl(60, 100%, 73.5294117647%)" stroke="none" stroke-width="0" stroke-linejoin="round" stroke-linecap="round"/><line x1="217.92" y1="42.91" x2="382.23" y2="42.91" stroke="hsl(240, 100%, 83.5294117647%)" stroke-width="3.00" stroke-opacity="0.35"/><text x="300.07" y="30.78" text-anchor="middle" font-family="trebuchet ms,verdana,arial,sans-serif" font-size="16" fill="black"><tspan x="300.07" dy="0.00">id2)I am a cloud(</tspan></text><path d="M435.73 34.91 v-16.25 q0,-8.80 8.80,-8.80 h146.52 q8.80,0 8.80,8.80 v16.25 q0,8.80 -8.80,8.80 h-146.52 q-8.80,0 -8.80,-8.80 Z" fill="hsl(60, 100%, 73.5294117647%)" stroke="none" stroke-width="0" stroke-linejoin="round" stroke-linecap="round"/><line x1="435.73" y1="42.91" x2="599.84" y2="42.91" stroke="hsl(240, 100%, 83.5294117647%)" stroke-width="3.00" stroke-opacity="0.35"/><text x="517.78" y="30.78" text-anchor="middle" font-family="trebuchet ms,verdana,arial,sans-serif" font-size="16" fill="black"><tspan x="517.78" dy="0.00">id3)I am a cloud(</tspan></text><path d="M9.85 34.91 v-16.25 q0,-8.80 8.80,-8.80 h136.96 q8.80,0 8.80,8.80 v16.25 q0,8.80 -8.80,8.80 h-136.96 q-8.80,0 -8.80,-8.80 Z" fill="hsl(240, 100%, 46.2745098039%)" stroke="none" stroke-width="0" stroke-linejoin="round" stroke-linecap="round"/><line x1="9.85" y1="42.91" x2="164.42" y2="42.91" stroke="none" stroke-width="3.00" stroke-opacity="0.35"/><text x="87.13" y="30.78" text-anchor="middle" font-family="trebuchet ms,verdana,arial,sans-serif" font-size="16" fill="#ffffff"><tspan x="87.13" dy="0.00">id)I am a cloud(</tspan></text></svg>