<svg xmlns="http://www.w3.org/2000/svg" width="100%" viewBox="0.000027656555 -0.000002861023 1405.7539 397.11798" style="max-width: 1405.754px;"><rect x="0.000027656555" y="-0.000002861023" width="1405.7539" height="397.11798" fill="#FFFFFF"/><defs><marker id="arrow-0" viewBox="0 0 10 10" refX="5" refY="5" markerUnits="userSpaceOnUse" markerWidth="8" markerHeight="8" orient="auto"><path d="M 0 0 L 10 5 L 0 10 z" fill="#2F3B4D" stroke="#2F3B4D" stroke-width="1" stroke-dasharray="1,0"/></marker><marker id="arrow-start-0" viewBox="0 0 10 10" refX="4.5" refY="5" markerUnits="userSpaceOnUse" markerWidth="8" markerHeight="8" orient="auto"><path d="M 0 5 L 10 10 L 10 0 z" fill="#2F3B4D" stroke="#2F3B4D" stroke-width="1" stroke-dasharray="1,0"/></marker><marker id="arrow-1" viewBox="0 0 10 10" refX="5" refY="5" markerUnits="userSpaceOnUse" markerWidth="8" markerHeight="8" orient="auto"><path d="M 0 0 L 10 5 L 0 10 z" fill="hsl(60, 100%, 73.5294117647%)" stroke="hsl(60, 100%, 73.5294117647%)" stroke-width="1" stroke-dasharray="1,0"/></marker><marker id="arrow-start-1" viewBox="0 0 10 10" refX="4.5" refY="5" markerUnits="userSpaceOnUse" markerWidth="8" markerHeight="8" orient="auto"><path d="M 0 5 L 10 10 L 10 0 z" fill="hsl(60, 100%, 73.5294117647%)" stroke="hsl(60, 100%, 73.5294117647%)" stroke-width="1" stroke-dasharray="1,0"/></marker><marker id="arrow-2" viewBox="0 0 10 10" refX="5" refY="5" markerUnits="userSpaceOnUse" markerWidth="8" markerHeight="8" orient="auto"><path d="M 0 0 L 10 5 L 0 10 z" fill="hsl(80, 100%, 76.2745098039%)" stroke="hsl(80, 100%, 76.2745098039%)" stroke-width="1" stroke-dasharray="1,0"/></marker><marker id="arrow-start-2" viewBox="0 0 10 10" refX="4.5" refY="5" markerUnits="userSpaceOnUse" markerWidth="8" markerHeight="8" orient="auto"><path d="M 0 5 L 10 10 L 10 0 z" fill="hsl(80, 100%, 76.2745098039%)" stroke="hsl(80, 100%, 76.2745098039%)" stroke-width="1" stroke-dasharray="1,0"/></marker><marker id="arrow-3" viewBox="0 0 10 10" refX="5" refY="5" markerUnits="userSpaceOnUse" markerWidth="8" markerHeight="8" orient="auto"><path d="M 0 0 L 10 5 L 0 10 z" fill="hsl(270, 100%, 76.2745098039%)" stroke="hsl(270, 100%, 76.2745098039%)" stroke-width="1" stroke-dasharray="1,0"/></marker><marker id="arrow-start-3" viewBox="0 0 10 10" refX="4.5" refY="5" markerUnits="userSpaceOnUse" markerWidth="8" markerHeight="8" orient="auto"><path d="M 0 5 L 10 10 L 10 0 z" fill="hsl(270, 100%, 76.2745098039%)" stroke="hsl(270, 100%, 76.2745098039%)" stroke-width="1" stroke-dasharray="1,0"/></marker></defs><path id="edge-0" class="edgePath" data-edge-id="edge-0" d="M 782.964,198.559 L 911.223,129.706" fill="none" stroke="hsl(60, 100%, 73.5294117647%)" stroke-width="11"    stroke-linecap="round" stroke-linejoin="round" /><path id="edge-1" class="edgePath" data-edge-id="edge-1" d="M 911.223,129.706 L 1060.701,26.779" fill="none" stroke="hsl(60, 100%, 73.5294117647%)" stroke-width="8"    stroke-linecap="round" stroke-linejoin="round" /><path id="edge-2" class="edgePath" data-edge-id="edge-2" d="M 911.223,129.706 L 1049.163,105.706" fill="none" stroke="hsl(60, 100%, 73.5294117647%)" stroke-width="8"    stroke-linecap="round" stroke-linejoin="round" /><path id="edge-3" class="edgePath" data-edge-id="edge-3" d="M 911.223,129.706 L 1066.749,208.632" fill="none" stroke="hsl(60, 100%, 73.5294117647%)" stroke-width="8"    stroke-linecap="round" stroke-linejoin="round" /><path id="edge-4" class="edgePath" data-edge-id="edge-4" d="M 1066.749,208.632 L 1286.051,208.632" fill="none" stroke="hsl(60, 100%, 73.5294117647%)" stroke-width="5"    stroke-linecap="round" stroke-linejoin="round" /><path id="edge-5" class="edgePath" data-edge-id="edge-5" d="M 782.964,198.559 L 646.185,198.559" fill="none" stroke="hsl(80, 100%, 76.2745098039%)" stroke-width="11"    stroke-linecap="round" stroke-linejoin="round" /><path id="edge-6" class="edgePath" data-edge-id="edge-6" d="M 646.185,198.559 L 471.491,95.279" fill="none" stroke="hsl(80, 100%, 76.2745098039%)" stroke-width="8"    stroke-linecap="round" stroke-linejoin="round" /><path id="edge-7" class="edgePath" data-edge-id="edge-7" d="M 646.185,198.559 L 452.027,244.986" fill="none" stroke="hsl(80, 100%, 76.2745098039%)" stroke-width="8"    stroke-linecap="round" stroke-linejoin="round" /><path id="edge-8" class="edgePath" data-edge-id="edge-8" d="M 452.027,244.986 L 273.861,244.986" fill="none" stroke="hsl(80, 100%, 76.2745098039%)" stroke-width="5"    stroke-linecap="round" stroke-linejoin="round" /><path id="edge-9" class="edgePath" data-edge-id="edge-9" d="M 273.861,244.986 L 103.831,176.132" fill="none" stroke="hsl(80, 100%, 76.2745098039%)" stroke-width="2"    stroke-linecap="round" stroke-linejoin="round" /><path id="edge-10" class="edgePath" data-edge-id="edge-10" d="M 273.861,244.986 L 110.991,244.985" fill="none" stroke="hsl(80, 100%, 76.2745098039%)" stroke-width="2"    stroke-linecap="round" stroke-linejoin="round" /><path id="edge-11" class="edgePath" data-edge-id="edge-11" d="M 273.861,244.986 L 107.215,313.839" fill="none" stroke="hsl(80, 100%, 76.2745098039%)" stroke-width="2"    stroke-linecap="round" stroke-linejoin="round" /><path id="edge-12" class="edgePath" data-edge-id="edge-12" d="M 782.964,198.559 L 904.927,335.912" fill="none" stroke="hsl(270, 100%, 76.2745098039%)" stroke-width="11"    stroke-linecap="round" stroke-linejoin="round" /><path id="edge-13" class="edgePath" data-edge-id="edge-13" d="M 904.927,335.912 L 1056.325,301.485" fill="none" stroke="hsl(270, 100%, 76.2745098039%)" stroke-width="8"    stroke-linecap="round" stroke-linejoin="round" /><path id="edge-14" class="edgePath" data-edge-id="edge-14" d="M 904.927,335.912 L 1034.645,370.339" fill="none" stroke="hsl(270, 100%, 76.2745098039%)" stroke-width="8"    stroke-linecap="round" stroke-linejoin="round" /><rect x="994.75" y="78.71" width="108.83" height="54.00" rx="10" ry="10" fill="hsl(60, 100%, 73.5294117647%)" stroke="none" stroke-width="0" stroke-linejoin="round" stroke-linecap="round"/><text x="1049.16" y="109.71" text-anchor="middle" font-family="trebuchet ms,verdana,arial,sans-serif" font-size="16" fill="black"><tspan x="1049.16" dy="0.00">fa fa-book</tspan></text><path d="M16.62 321.96 v-16.25 q0,-8.80 8.80,-8.80 h163.59 q8.80,0 8.80,8.80 v16.25 q0,8.80 -8.80,8.80 h-163.59 q-8.80,0 -8.80,-8.80 Z" fill="hsl(80, 100%, 76.2745098039%)" stroke="none" stroke-width="0" stroke-linejoin="round" stroke-linecap="round"/><line x1="16.62" y1="329.96" x2="197.81" y2="329.96" stroke="hsl(260, 100%, 86.2745098039%)" stroke-width="3.00" stroke-opacity="0.35"/><text x="107.21" y="317.84" text-anchor="middle" font-family="trebuchet ms,verdana,arial,sans-serif" font-size="16" fill="black"><tspan x="107.21" dy="0.00">Argument mapping</tspan></text><path d="M1176.20 240.76 v-64.25 q0,-8.80 8.80,-8.80 h202.10 q8.80,0 8.80,8.80 v64.25 q0,8.80 -8.80,8.80 h-202.10 q-8.80,0 -8.80,-8.80 Z" fill="hsl(60, 100%, 73.5294117647%)" stroke="none" stroke-width="0" stroke-linejoin="round" stroke-linecap="round"/><line x1="1176.20" y1="248.76" x2="1395.90" y2="248.76" stroke="hsl(240, 100%, 83.5294117647%)" stroke-width="3.00" stroke-opacity="0.35"/><text x="1286.05" y="188.63" text-anchor="middle" font-family="trebuchet ms,verdana,arial,sans-serif" font-size="16" fill="black"><tspan x="1286.05" dy="0.00">British popular</tspan><tspan x="1286.05" dy="24.00">psychology author Tony</tspan><tspan x="1286.05" dy="24.00">Buzan</tspan></text><path d="M9.85 184.26 v-16.25 q0,-8.80 8.80,-8.80 h170.36 q8.80,0 8.80,8.80 v16.25 q0,8.80 -8.80,8.80 h-170.36 q-8.80,0 -8.80,-8.80 Z" fill="hsl(80, 100%, 76.2745098039%)" stroke="none" stroke-width="0" stroke-linejoin="round" stroke-linecap="round"/><line x1="9.85" y1="192.26" x2="197.81" y2="192.26" stroke="hsl(260, 100%, 86.2745098039%)" stroke-width="3.00" stroke-opacity="0.35"/><text x="103.83" y="180.13" text-anchor="middle" font-family="trebuchet ms,verdana,arial,sans-serif" font-size="16" fill="black"><tspan x="103.83" dy="0.00">Creative techniques</tspan></text><path d="M994.75 34.91 v-16.25 q0,-8.80 8.80,-8.80 h114.31 q8.80,0 8.80,8.80 v16.25 q0,8.80 -8.80,8.80 h-114.31 q-8.80,0 -8.80,-8.80 Z" fill="hsl(60, 100%, 73.5294117647%)" stroke="none" stroke-width="0" stroke-linejoin="round" stroke-linecap="round"/><line x1="994.75" y1="42.91" x2="1126.66" y2="42.91" stroke="hsl(240, 100%, 83.5294117647%)" stroke-width="3.00" stroke-opacity="0.35"/><text x="1060.70" y="30.78" text-anchor="middle" font-family="trebuchet ms,verdana,arial,sans-serif" font-size="16" fill="black"><tspan x="1060.70" dy="0.00">Long history</tspan></text><path d="M982.16 378.46 v-16.25 q0,-8.80 8.80,-8.80 h87.38 q8.80,0 8.80,8.80 v16.25 q0,8.80 -8.80,8.80 h-87.38 q-8.80,0 -8.80,-8.80 Z" fill="hsl(270, 100%, 76.2745098039%)" stroke="none" stroke-width="0" stroke-linejoin="round" stroke-linecap="round"/><line x1="982.16" y1="386.46" x2="1087.14" y2="386.46" stroke="hsl(90, 100%, 86.2745098039%)" stroke-width="3.00" stroke-opacity="0.35"/><text x="1034.65" y="374.34" text-anchor="middle" font-family="trebuchet ms,verdana,arial,sans-serif" font-size="16" fill="#ffffff"><tspan x="1034.65" dy="0.00">Mermaid</tspan></text><path d="M349.91 253.11 v-16.25 q0,-8.80 8.80,-8.80 h186.63 q8.80,0 8.80,8.80 v16.25 q0,8.80 -8.80,8.80 h-186.63 q-8.80,0 -8.80,-8.80 Z" fill="hsl(80, 100%, 76.2745098039%)" stroke="none" stroke-width="0" stroke-linejoin="round" stroke-linecap="round"/><line x1="349.91" y1="261.11" x2="554.14" y2="261.11" stroke="hsl(260, 100%, 86.2745098039%)" stroke-width="3.00" stroke-opacity="0.35"/><text x="452.03" y="248.99" text-anchor="middle" font-family="trebuchet ms,verdana,arial,sans-serif" font-size="16" fill="black"><tspan x="452.03" dy="0.00">On Automatic creation</tspan></text><path d="M388.84 115.41 v-40.25 q0,-8.80 8.80,-8.80 h147.70 q8.80,0 8.80,8.80 v40.25 q0,8.80 -8.80,8.80 h-147.70 q-8.80,0 -8.80,-8.80 Z" fill="hsl(80, 100%, 76.2745098039%)" stroke="none" stroke-width="0" stroke-linejoin="round" stroke-linecap="round"/><line x1="388.84" y1="123.41" x2="554.14" y2="123.41" stroke="hsl(260, 100%, 86.2745098039%)" stroke-width="3.00" stroke-opacity="0.35"/><text x="471.49" y="87.28" text-anchor="middle" font-family="trebuchet ms,verdana,arial,sans-serif" font-size="16" fill="black"><tspan x="471.49" dy="0.00">On effectiveness</tspan><tspan x="471.49" dy="24.00">and features</tspan></text><path d="M865.15 137.83 v-16.25 q0,-8.80 8.80,-8.80 h74.55 q8.80,0 8.80,8.80 v16.25 q0,8.80 -8.80,8.80 h-74.55 q-8.80,0 -8.80,-8.80 Z" fill="hsl(60, 100%, 73.5294117647%)" stroke="none" stroke-width="0" stroke-linejoin="round" stroke-linecap="round"/><line x1="865.15" y1="145.83" x2="957.30" y2="145.83" stroke="hsl(240, 100%, 83.5294117647%)" stroke-width="3.00" stroke-opacity="0.35"/><text x="911.22" y="133.71" text-anchor="middle" font-family="trebuchet ms,verdana,arial,sans-serif" font-size="16" fill="black"><tspan x="911.22" dy="0.00">Origins</tspan></text><path d="M982.16 309.61 v-16.25 q0,-8.80 8.80,-8.80 h130.74 q8.80,0 8.80,8.80 v16.25 q0,8.80 -8.80,8.80 h-130.74 q-8.80,0 -8.80,-8.80 Z" fill="hsl(270, 100%, 76.2745098039%)" stroke="none" stroke-width="0" stroke-linejoin="round" stroke-linecap="round"/><line x1="982.16" y1="317.61" x2="1130.49" y2="317.61" stroke="hsl(90, 100%, 86.2745098039%)" stroke-width="3.00" stroke-opacity="0.35"/><text x="1056.33" y="305.49" text-anchor="middle" font-family="trebuchet ms,verdana,arial,sans-serif" font-size="16" fill="#ffffff"><tspan x="1056.33" dy="0.00">Pen and paper</tspan></text><path d="M994.75 216.76 v-16.25 q0,-8.80 8.80,-8.80 h126.40 q8.80,0 8.80,8.80 v16.25 q0,8.80 -8.80,8.80 h-126.40 q-8.80,0 -8.80,-8.80 Z" fill="hsl(60, 100%, 73.5294117647%)" stroke="none" stroke-width="0" stroke-linejoin="round" stroke-linecap="round"/><line x1="994.75" y1="224.76" x2="1138.75" y2="224.76" stroke="hsl(240, 100%, 83.5294117647%)" stroke-width="3.00" stroke-opacity="0.35"/><text x="1066.75" y="212.63" text-anchor="middle" font-family="trebuchet ms,verdana,arial,sans-serif" font-size="16" fill="black"><tspan x="1066.75" dy="0.00">Popularisation</tspan></text><path d="M591.59 206.69 v-16.25 q0,-8.80 8.80,-8.80 h91.59 q8.80,0 8.80,8.80 v16.25 q0,8.80 -8.80,8.80 h-91.59 q-8.80,0 -8.80,-8.80 Z" fill="hsl(80, 100%, 76.2745098039%)" stroke="none" stroke-width="0" stroke-linejoin="round" stroke-linecap="round"/><line x1="591.59" y1="214.69" x2="700.78" y2="214.69" stroke="hsl(260, 100%, 86.2745098039%)" stroke-width="3.00" stroke-opacity="0.35"/><text x="646.18" y="202.56" text-anchor="middle" font-family="trebuchet ms,verdana,arial,sans-serif" font-size="16" fill="black"><tspan x="646.18" dy="0.00">Research</tspan></text><path d="M24.17 253.11 v-16.25 q0,-8.80 8.80,-8.80 h156.04 q8.80,0 8.80,8.80 v16.25 q0,8.80 -8.80,8.80 h-156.04 q-8.80,0 -8.80,-8.80 Z" fill="hsl(80, 100%, 76.2745098039%)" stroke="none" stroke-width="0" stroke-linejoin="round" stroke-linecap="round"/><line x1="24.17" y1="261.11" x2="197.81" y2="261.11" stroke="hsl(260, 100%, 86.2745098039%)" stroke-width="3.00" stroke-opacity="0.35"/><text x="110.99" y="248.99" text-anchor="middle" font-family="trebuchet ms,verdana,arial,sans-serif" font-size="16" fill="black"><tspan x="110.99" dy="0.00">Strategic planning</tspan></text><path d="M865.15 344.04 v-16.25 q0,-8.80 8.80,-8.80 h61.96 q8.80,0 8.80,8.80 v16.25 q0,8.80 -8.80,8.80 h-61.96 q-8.80,0 -8.80,-8.80 Z" fill="hsl(270, 100%, 76.2745098039%)" stroke="none" stroke-width="0" stroke-linejoin="round" stroke-linecap="round"/><line x1="865.15" y1="352.04" x2="944.70" y2="352.04" stroke="hsl(90, 100%, 86.2745098039%)" stroke-width="3.00" stroke-opacity="0.35"/><text x="904.93" y="339.91" text-anchor="middle" font-family="trebuchet ms,verdana,arial,sans-serif" font-size="16" fill="#ffffff"><tspan x="904.93" dy="0.00">Tools</tspan></text><path d="M235.26 253.11 v-16.25 q0,-8.80 8.80,-8.80 h59.60 q8.80,0 8.80,8.80 v16.25 q0,8.80 -8.80,8.80 h-59.60 q-8.80,0 -8.80,-8.80 Z" fill="hsl(80, 100%, 76.2745098039%)" stroke="none" stroke-width="0" stroke-linejoin="round" stroke-linecap="round"/><line x1="235.26" y1="261.11" x2="312.46" y2="261.11" stroke="hsl(260, 100%, 86.2745098039%)" stroke-width="3.00" stroke-opacity="0.35"/><text x="273.86" y="248.99" text-anchor="middle" font-family="trebuchet ms,verdana,arial,sans-serif" font-size="16" fill="black"><tspan x="273.86" dy="0.00">Uses</tspan></text><circle cx="782.96" cy="198.56" r="44.74" fill="hsl(240, 100%, 46.2745098039%)" stroke="none" stroke-width="0" stroke-linejoin="round" stroke-linecap="round"/><text x="782.96" y="202.56" text-anchor="middle" font-family="trebuchet ms,verdana,arial,sans-serif" font-size="16" fill="#ffffff"><tspan x="782.96" dy="0.00">mindmap</tspan></text></svg>