<svg xmlns="http://www.w3.org/2000/svg" width="100%" viewBox="-0.000002861023 -0.0000009536743 408.095 53.559006" style="max-width: 408.095px;"><rect x="-0.000002861023" y="-0.0000009536743" width="408.095" height="53.559006" fill="#FFFFFF"/><defs><marker id="arrow-0" viewBox="0 0 10 10" refX="5" refY="5" markerUnits="userSpaceOnUse" markerWidth="8" markerHeight="8" orient="auto"><path d="M 0 0 L 10 5 L 0 10 z" fill="#2F3B4D" stroke="#2F3B4D" stroke-width="1" stroke-dasharray="1,0"/></marker><marker id="arrow-start-0" viewBox="0 0 10 10" refX="4.5" refY="5" markerUnits="userSpaceOnUse" markerWidth="8" markerHeight="8" orient="auto"><path d="M 0 5 L 10 10 L 10 0 z" fill="#2F3B4D" stroke="#2F3B4D" stroke-width="1" stroke-dasharray="1,0"/></marker><marker id="arrow-1" viewBox="0 0 10 10" refX="5" refY="5" markerUnits="userSpaceOnUse" markerWidth="8" markerHeight="8" orient="auto"><path d="M 0 0 L 10 5 L 0 10 z" fill="hsl(60, 100%, 73.5294117647%)" stroke="hsl(60, 100%, 73.5294117647%)" stroke-width="1" stroke-dasharray="1,0"/></marker><marker id="arrow-start-1" viewBox="0 0 10 10" refX="4.5" refY="5" markerUnits="userSpaceOnUse" markerWidth="8" markerHeight="8" orient="auto"><path d="M 0 5 L 10 10 L 10 0 z" fill="hsl(60, 100%, 73.5294117647%)" stroke="hsl(60, 100%, 73.5294117647%)" stroke-width="1" stroke-dasharray="1,0"/></marker><marker id="arrow-2" viewBox="0 0 10 10" refX="5" refY="5" markerUnits="userSpaceOnUse" markerWidth="8" markerHeight="8" orient="auto"><path d="M 0 0 L 10 5 L 0 10 z" fill="hsl(80, 100%, 76.2745098039%)" stroke="hsl(80, 100%, 76.2745098039%)" stroke-width="1" stroke-dasharray="1,0"/></marker><marker id="arrow-start-2" viewBox="0 0 10 10" refX="4.5" refY="5" markerUnits="userSpaceOnUse" markerWidth="8" markerHeight="8" orient="auto"><path d="M 0 5 L 10 10 L 10 0 z" fill="hsl(80, 100%, 76.2745098039%)" stroke="hsl(80, 100%, 76.2745098039%)" stroke-width="1" stroke-dasharray="1,0"/></marker></defs><path id="edge-0" class="edgePath" data-edge-id="edge-0" d="M 152.697,26.779 L 269.616,26.779" fill="none" stroke="hsl(60, 100%, 73.5294117647%)" stroke-width="11"    stroke-linecap="round" stroke-linejoin="round" /><path id="edge-1" class="edgePath" data-edge-id="edge-1" d="M 269.616,26.779 L 373.200,26.779" fill="none" stroke="hsl(60, 100%, 73.5294117647%)" stroke-width="8"    stroke-linecap="round" stroke-linejoin="round" /><path id="edge-2" class="edgePath" data-edge-id="edge-2" d="M 152.697,26.779 L 35.336,26.779" fill="none" stroke="hsl(80, 100%, 76.2745098039%)" stroke-width="11"    stroke-linecap="round" stroke-linejoin="round" /><path d="M244.57 34.91 v-16.25 q0,-8.80 8.80,-8.80 h32.48 q8.80,0 8.80,8.80 v16.25 q0,8.80 -8.80,8.80 h-32.48 q-8.80,0 -8.80,-8.80 Z" fill="hsl(60, 100%, 73.5294117647%)" stroke="none" stroke-width="0" stroke-linejoin="round" stroke-linecap="round"/><line x1="244.57" y1="42.91" x2="294.66" y2="42.91" stroke="hsl(240, 100%, 83.5294117647%)" stroke-width="3.00" stroke-opacity="0.35"/><text x="269.62" y="30.78" text-anchor="middle" font-family="trebuchet ms,verdana,arial,sans-serif" font-size="16" fill="black"><tspan x="269.62" dy="0.00">A</tspan></text><path d="M348.16 34.91 v-16.25 q0,-8.80 8.80,-8.80 h32.48 q8.80,0 8.80,8.80 v16.25 q0,8.80 -8.80,8.80 h-32.48 q-8.80,0 -8.80,-8.80 Z" fill="hsl(60, 100%, 73.5294117647%)" stroke="none" stroke-width="0" stroke-linejoin="round" stroke-linecap="round"/><line x1="348.16" y1="42.91" x2="398.24" y2="42.91" stroke="hsl(240, 100%, 83.5294117647%)" stroke-width="3.00" stroke-opacity="0.35"/><text x="373.20" y="30.78" text-anchor="middle" font-family="trebuchet ms,verdana,arial,sans-serif" font-size="16" fill="black"><tspan x="373.20" dy="0.00">B</tspan></text><path d="M9.85 34.91 v-16.25 q0,-8.80 8.80,-8.80 h33.37 q8.80,0 8.80,8.80 v16.25 q0,8.80 -8.80,8.80 h-33.37 q-8.80,0 -8.80,-8.80 Z" fill="hsl(80, 100%, 76.2745098039%)" stroke="none" stroke-width="0" stroke-linejoin="round" stroke-linecap="round"/><line x1="9.85" y1="42.91" x2="60.82" y2="42.91" stroke="hsl(260, 100%, 86.2745098039%)" stroke-width="3.00" stroke-opacity="0.35"/><text x="35.34" y="30.78" text-anchor="middle" font-family="trebuchet ms,verdana,arial,sans-serif" font-size="16" fill="black"><tspan x="35.34" dy="0.00">C</tspan></text><path d="M114.32 34.91 v-16.25 q0,-8.80 8.80,-8.80 h59.15 q8.80,0 8.80,8.80 v16.25 q0,8.80 -8.80,8.80 h-59.15 q-8.80,0 -8.80,-8.80 Z" fill="hsl(240, 100%, 46.2745098039%)" stroke="none" stroke-width="0" stroke-linejoin="round" stroke-linecap="round"/><line x1="114.32" y1="42.91" x2="191.07" y2="42.91" stroke="none" stroke-width="3.00" stroke-opacity="0.35"/><text x="152.70" y="30.78" text-anchor="middle" font-family="trebuchet ms,verdana,arial,sans-serif" font-size="16" fill="#ffffff"><tspan x="152.70" dy="0.00">Root</tspan></text></svg>