<svg xmlns="http://www.w3.org/2000/svg" width="100%" viewBox="-0.000002861023 -0.000002861023 628.2188 147.55899" style="max-width: 628.219px;"><rect x="-0.000002861023" y="-0.000002861023" width="628.2188" height="147.55899" fill="#FFFFFF"/><defs><marker id="arrow-0" viewBox="0 0 10 10" refX="5" refY="5" markerUnits="userSpaceOnUse" markerWidth="8" markerHeight="8" orient="auto"><path d="M 0 0 L 10 5 L 0 10 z" fill="#2F3B4D" stroke="#2F3B4D" stroke-width="1" stroke-dasharray="1,0"/></marker><marker id="arrow-start-0" viewBox="0 0 10 10" refX="4.5" refY="5" markerUnits="userSpaceOnUse" markerWidth="8" markerHeight="8" orient="auto"><path d="M 0 5 L 10 10 L 10 0 z" fill="#2F3B4D" stroke="#2F3B4D" stroke-width="1" stroke-dasharray="1,0"/></marker><marker id="arrow-1" viewBox="0 0 10 10" refX="5" refY="5" markerUnits="userSpaceOnUse" markerWidth="8" markerHeight="8" orient="auto"><path d="M 0 0 L 10 5 L 0 10 z" fill="hsl(60, 100%, 73.5294117647%)" stroke="hsl(60, 100%, 73.5294117647%)" stroke-width="1" stroke-dasharray="1,0"/></marker><marker id="arrow-start-1" viewBox="0 0 10 10" refX="4.5" refY="5" markerUnits="userSpaceOnUse" markerWidth="8" markerHeight="8" orient="auto"><path d="M 0 5 L 10 10 L 10 0 z" fill="hsl(60, 100%, 73.5294117647%)" stroke="hsl(60, 100%, 73.5294117647%)" stroke-width="1" stroke-dasharray="1,0"/></marker><marker id="arrow-2" viewBox="0 0 10 10" refX="5" refY="5" markerUnits="userSpaceOnUse" markerWidth="8" markerHeight="8" orient="auto"><path d="M 0 0 L 10 5 L 0 10 z" fill="hsl(80, 100%, 76.2745098039%)" stroke="hsl(80, 100%, 76.2745098039%)" stroke-width="1" stroke-dasharray="1,0"/></marker><marker id="arrow-start-2" viewBox="0 0 10 10" refX="4.5" refY="5" markerUnits="userSpaceOnUse" markerWidth="8" markerHeight="8" orient="auto"><path d="M 0 5 L 10 10 L 10 0 z" fill="hsl(80, 100%, 76.2745098039%)" stroke="hsl(80, 100%, 76.2745098039%)" stroke-width="1" stroke-dasharray="1,0"/></marker><marker id="arrow-3" viewBox="0 0 10 10" refX="5" refY="5" markerUnits="userSpaceOnUse" markerWidth="8" markerHeight="8" orient="auto"><path d="M 0 0 L 10 5 L 0 10 z" fill="hsl(270, 100%, 76.2745098039%)" stroke="hsl(270, 100%, 76.2745098039%)" stroke-width="1" stroke-dasharray="1,0"/></marker><marker id="arrow-start-3" viewBox="0 0 10 10" refX="4.5" refY="5" markerUnits="userSpaceOnUse" markerWidth="8" markerHeight="8" orient="auto"><path d="M 0 5 L 10 10 L 10 0 z" fill="hsl(270, 100%, 76.2745098039%)" stroke="hsl(270, 100%, 76.2745098039%)" stroke-width="1" stroke-dasharray="1,0"/></marker></defs><path id="edge-0" class="edgePath" data-edge-id="edge-0" d="M 219.727,73.779 L 397.104,26.779" fill="none" stroke="hsl(60, 100%, 73.5294117647%)" stroke-width="11"    stroke-linecap="round" stroke-linejoin="round" /><path id="edge-1" class="edgePath" data-edge-id="edge-1" d="M 219.727,73.779 L 74.095,73.779" fill="none" stroke="hsl(80, 100%, 76.2745098039%)" stroke-width="11"    stroke-linecap="round" stroke-linejoin="round" /><path id="edge-2" class="edgePath" data-edge-id="edge-2" d="M 219.727,73.779 L 375.528,115.706" fill="none" stroke="hsl(270, 100%, 76.2745098039%)" stroke-width="11"    stroke-linecap="round" stroke-linejoin="round" /><path id="edge-3" class="edgePath" data-edge-id="edge-3" d="M 375.528,115.706 L 560.902,115.706" fill="none" stroke="hsl(270, 100%, 76.2745098039%)" stroke-width="8"    stroke-linecap="round" stroke-linejoin="round" /><path d="M9.85 81.91 v-16.25 q0,-8.80 8.80,-8.80 h110.88 q8.80,0 8.80,8.80 v16.25 q0,8.80 -8.80,8.80 h-110.88 q-8.80,0 -8.80,-8.80 Z" fill="hsl(80, 100%, 76.2745098039%)" stroke="none" stroke-width="0" stroke-linejoin="round" stroke-linecap="round"/><line x1="9.85" y1="89.91" x2="138.34" y2="89.91" stroke="hsl(260, 100%, 86.2745098039%)" stroke-width="3.00" stroke-opacity="0.35"/><text x="74.09" y="77.78" text-anchor="middle" font-family="trebuchet ms,verdana,arial,sans-serif" font-size="16" fill="black"><tspan x="74.09" dy="0.00">*Italic item*</tspan></text><path d="M301.12 123.83 v-16.25 q0,-8.80 8.80,-8.80 h131.22 q8.80,0 8.80,8.80 v16.25 q0,8.80 -8.80,8.80 h-131.22 q-8.80,0 -8.80,-8.80 Z" fill="hsl(270, 100%, 76.2745098039%)" stroke="none" stroke-width="0" stroke-linejoin="round" stroke-linecap="round"/><line x1="301.12" y1="131.83" x2="449.94" y2="131.83" stroke="hsl(90, 100%, 86.2745098039%)" stroke-width="3.00" stroke-opacity="0.35"/><text x="375.53" y="119.71" text-anchor="middle" font-family="trebuchet ms,verdana,arial,sans-serif" font-size="16" fill="#ffffff"><tspan x="375.53" dy="0.00">Normal text`&quot;]</tspan></text><rect x="191.84" y="51.78" width="55.78" height="44.00" rx="0" ry="0" fill="hsl(240, 100%, 46.2745098039%)" stroke="none" stroke-width="0" stroke-linejoin="round" stroke-linecap="round"/><text x="219.73" y="77.78" text-anchor="middle" font-family="trebuchet ms,verdana,arial,sans-serif" font-size="16" fill="#ffffff"><tspan x="219.73" dy="0.00" font-weight="bold">Root</tspan></text><path d="M301.12 34.91 v-16.25 q0,-8.80 8.80,-8.80 h174.37 q8.80,0 8.80,8.80 v16.25 q0,8.80 -8.80,8.80 h-174.37 q-8.80,0 -8.80,-8.80 Z" fill="hsl(60, 100%, 73.5294117647%)" stroke="none" stroke-width="0" stroke-linejoin="round" stroke-linecap="round"/><line x1="301.12" y1="42.91" x2="493.09" y2="42.91" stroke="hsl(240, 100%, 83.5294117647%)" stroke-width="3.00" stroke-opacity="0.35"/><text x="397.10" y="30.78" text-anchor="middle" font-family="trebuchet ms,verdana,arial,sans-serif" font-size="16" fill="black"><tspan x="397.10" dy="0.00">id2[&quot;`**Bold item**</tspan></text><rect x="503.44" y="93.71" width="114.93" height="44.00" rx="0" ry="0" fill="hsl(270, 100%, 76.2745098039%)" stroke="none" stroke-width="0" stroke-linejoin="round" stroke-linecap="round"/><text x="560.90" y="119.71" text-anchor="middle" font-family="trebuchet ms,verdana,arial,sans-serif" font-size="16" fill="#ffffff"><tspan x="560.90" dy="0.00" font-style="italic">Another item</tspan></text></svg>