<svg xmlns="http://www.w3.org/2000/svg" width="462.40002" height="486.40002" viewBox="0 0 462.40002 486.40002"><rect x="0" y="0" width="462.40002" height="486.40002" fill="#FFFFFF"/><defs><marker id="arrow-0" viewBox="0 0 10 10" refX="5" refY="5" markerUnits="userSpaceOnUse" markerWidth="8" markerHeight="8" orient="auto"><path d="M 0 0 L 10 5 L 0 10 z" fill="#2F3B4D" stroke="#2F3B4D" stroke-width="1" stroke-dasharray="1,0"/></marker><marker id="arrow-start-0" viewBox="0 0 10 10" refX="4.5" refY="5" markerUnits="userSpaceOnUse" markerWidth="8" markerHeight="8" orient="auto"><path d="M 0 5 L 10 10 L 10 0 z" fill="#2F3B4D" stroke="#2F3B4D" stroke-width="1" stroke-dasharray="1,0"/></marker></defs><rect x="231.20" y="75.20" width="180.00" height="180.00" fill="#ECECFF"/><rect x="51.20" y="75.20" width="180.00" height="180.00" fill="#f1f1ff"/><rect x="51.20" y="255.20" width="180.00" height="180.00" fill="#f6f6ff"/><rect x="231.20" y="255.20" width="180.00" height="180.00" fill="#fbfbff"/><rect x="51.20" y="75.20" width="360.00" height="360.00" fill="none" stroke="#c7c7f1" stroke-width="2"/><line x1="141.20" y1="75.20" x2="141.20" y2="435.20" stroke="#ddddf5" stroke-width="0.5" stroke-dasharray="4,4"/><line x1="321.20" y1="75.20" x2="321.20" y2="435.20" stroke="#ddddf5" stroke-width="0.5" stroke-dasharray="4,4"/><line x1="51.20" y1="165.20" x2="411.20" y2="165.20" stroke="#ddddf5" stroke-width="0.5" stroke-dasharray="4,4"/><line x1="51.20" y1="345.20" x2="411.20" y2="345.20" stroke="#ddddf5" stroke-width="0.5" stroke-dasharray="4,4"/><line x1="231.20" y1="75.20" x2="231.20" y2="435.20" stroke="#c7c7f1" stroke-width="1"/><line x1="51.20" y1="255.20" x2="411.20" y2="255.20" stroke="#c7c7f1" stroke-width="1"/><text x="231.20" y="28.80" text-anchor="middle" font-family="trebuchet ms,verdana,arial,sans-serif" font-size="16" fill="#333333"><tspan x="231.20" dy="0.00">This is a sample example</tspan></text></svg>