<svg xmlns="http://www.w3.org/2000/svg" width="560" height="360" viewBox="0 0 560 360"><rect x="0" y="0" width="560" height="360" fill="#FFFFFF"/><defs><marker id="arrow-0" viewBox="0 0 10 10" refX="5" refY="5" markerUnits="userSpaceOnUse" markerWidth="8" markerHeight="8" orient="auto"><path d="M 0 0 L 10 5 L 0 10 z" fill="#2F3B4D" stroke="#2F3B4D" stroke-width="1" stroke-dasharray="1,0"/></marker><marker id="arrow-start-0" viewBox="0 0 10 10" refX="4.5" refY="5" markerUnits="userSpaceOnUse" markerWidth="8" markerHeight="8" orient="auto"><path d="M 0 5 L 10 10 L 10 0 z" fill="#2F3B4D" stroke="#2F3B4D" stroke-width="1" stroke-dasharray="1,0"/></marker><marker id="arrow-1" viewBox="0 0 10 10" refX="5" refY="5" markerUnits="userSpaceOnUse" markerWidth="8" markerHeight="8" orient="auto"><path d="M 0 0 L 10 5 L 0 10 z" fill="#4e79a7" stroke="#4e79a7" stroke-width="1" stroke-dasharray="1,0"/></marker><marker id="arrow-start-1" viewBox="0 0 10 10" refX="4.5" refY="5" markerUnits="userSpaceOnUse" markerWidth="8" markerHeight="8" orient="auto"><path d="M 0 5 L 10 10 L 10 0 z" fill="#4e79a7" stroke="#4e79a7" stroke-width="1" stroke-dasharray="1,0"/></marker></defs><g class="nodes"><g class="node" id="node-1" transform="translate(0.000,0.000)" x="0.000" y="0.000"><rect height="360" width="10" fill="#4e79a7"/></g><g class="node" id="node-2" transform="translate(550.000,0.000)" x="550.000" y="0.000"><rect height="153.2824" width="10" fill="#f28e2c"/></g><g class="node" id="node-3" transform="translate(550.000,153.282)" x="550.000" y="153.282"><rect height="166.89029" width="10" fill="#e15759"/></g><g class="node" id="node-4" transform="translate(550.000,320.173)" x="550.000" y="320.173"><rect height="39.827328" width="10" fill="#76b7b2"/></g></g><g class="node-labels" font-size="14" fill="#333333"><text x="16.00" y="174.40" dy="0em" text-anchor="start" font-size="14.0"><tspan x="16.00" dy="0em">Electricity grid</tspan><tspan x="16.00" dy="1.15em">245.32</tspan></text><text x="544.00" y="71.04" dy="0em" text-anchor="end" font-size="14.0"><tspan x="544.00" dy="0em">Over generation / exports</tspan><tspan x="544.00" dy="1.15em">104.45</tspan></text><text x="544.00" y="108.14" dy="0em" text-anchor="end" font-size="14.0"><tspan x="544.00" dy="0em">Heating and cooling - homes</tspan><tspan x="544.00" dy="1.15em">113.73</tspan></text><text x="544.00" y="145.24" dy="0em" text-anchor="end" font-size="14.0"><tspan x="544.00" dy="0em">H2 conversion</tspan><tspan x="544.00" dy="1.15em">27.14</tspan></text></g><g class="links" fill="none" stroke-opacity="0.5"><g class="link" style="mix-blend-mode: multiply;"><linearGradient id="sankey-grad-0" gradientUnits="userSpaceOnUse" x1="10" x2="550"><stop offset="0%" stop-color="#4e79a7"/><stop offset="100%" stop-color="#f28e2c"/></linearGradient><path d="M10.000,76.641C280.000,76.641,280.000,76.641,550.000,76.641" stroke="url(#sankey-grad-0)" stroke-width="153.2824"/></g><g class="link" style="mix-blend-mode: multiply;"><linearGradient id="sankey-grad-1" gradientUnits="userSpaceOnUse" x1="10" x2="550"><stop offset="0%" stop-color="#4e79a7"/><stop offset="100%" stop-color="#e15759"/></linearGradient><path d="M10.000,236.728C280.000,236.728,280.000,236.728,550.000,236.728" stroke="url(#sankey-grad-1)" stroke-width="166.89029"/></g><g class="link" style="mix-blend-mode: multiply;"><linearGradient id="sankey-grad-2" gradientUnits="userSpaceOnUse" x1="10" x2="550"><stop offset="0%" stop-color="#4e79a7"/><stop offset="100%" stop-color="#76b7b2"/></linearGradient><path d="M10.000,340.086C280.000,340.086,280.000,340.086,550.000,340.086" stroke="url(#sankey-grad-2)" stroke-width="39.827328"/></g></g></svg>