<svg xmlns="http://www.w3.org/2000/svg" width="273.08295" height="256.00003" viewBox="0 0 273.08295 256.00003"><rect x="0" y="0" width="273.08295" height="256.00003" fill="#FFFFFF"/><defs><marker id="arrow-0" viewBox="0 0 10 10" refX="5" refY="5" markerUnits="userSpaceOnUse" markerWidth="8" markerHeight="8" orient="auto"><path d="M 0 0 L 10 5 L 0 10 z" fill="#2F3B4D" stroke="#2F3B4D" stroke-width="1" stroke-dasharray="1,0"/></marker><marker id="arrow-start-0" viewBox="0 0 10 10" refX="4.5" refY="5" markerUnits="userSpaceOnUse" markerWidth="8" markerHeight="8" orient="auto"><path d="M 0 5 L 10 10 L 10 0 z" fill="#2F3B4D" stroke="#2F3B4D" stroke-width="1" stroke-dasharray="1,0"/></marker><marker id="arrow-seq-0" viewBox="-1 0 12 10" refX="7.9" refY="5" markerUnits="userSpaceOnUse" markerWidth="12" markerHeight="12" orient="auto-start-reverse"><path d="M -1 0 L 10 5 L 0 10 z" fill="#2F3B4D" stroke="#2F3B4D" stroke-width="1" stroke-dasharray="1,0"/></marker><marker id="arrow-start-seq-0" viewBox="-1 0 12 10" refX="2.1" refY="5" markerUnits="userSpaceOnUse" markerWidth="12" markerHeight="12" orient="auto"><path d="M 11 0 L 0 5 L 11 10 z" fill="#2F3B4D" stroke="#2F3B4D" stroke-width="1" stroke-dasharray="1,0"/></marker></defs><line x1="75.03" y1="57.60" x2="75.03" y2="198.40" stroke="#999999" stroke-width="0.5"/><line x1="171.03" y1="57.60" x2="171.03" y2="198.40" stroke="#999999" stroke-width="0.5"/><path d="M 13.00 140.00 L 221.53 140.00 L 233.05 151.52 L 233.05 178.40 L 13.00 178.40 Z" fill="#FFF5AD" stroke="#AAAA33" stroke-width="1.1"/><polyline points="221.53,140.00 221.53,151.52 233.05,151.52" fill="none" stroke="#AAAA33" stroke-width="1.0"/><text x="123.03" y="163.20" text-anchor="middle" font-family="trebuchet ms,verdana,arial,sans-serif" font-size="16" fill="#333333"><tspan x="123.03" dy="0.00">A typical interaction</tspan></text><path id="edge-0" class="edgePath" data-edge-id="edge-0" d="M 75.028,92.800 L 171.028,92.800" fill="none" stroke="#2F3B4D" stroke-width="1.5" marker-end="url(#arrow-seq-0)"   stroke-linecap="round" stroke-linejoin="round" /><rect class="edgeLabel sequenceEdgeLabel" data-edge-id="edge-0" data-label-kind="center" x="7.00" y="78.80" width="232.06" height="28.00" rx="2" ry="2" fill="rgba(248,250,252, 0.92)" fill-opacity="0.90" stroke="#7B88A8" stroke-opacity="0.30" stroke-width="0.8"/><g class="edgeLabel" data-edge-id="edge-0" data-label-kind="center"><text x="123.03" y="96.80" text-anchor="middle" font-family="trebuchet ms,verdana,arial,sans-serif" font-size="16" fill="#333333"><tspan x="123.03" dy="0.00">Hello John, how are you?</tspan></text></g><rect x="35.03" y="8.00" width="80.00" height="49.60" rx="3" ry="3" fill="#EAEAEA" stroke="#666666" stroke-width="1.0"/><text x="75.03" y="36.80" text-anchor="middle" font-family="trebuchet ms,verdana,arial,sans-serif" font-size="16" fill="#333333"><tspan x="75.03" dy="0.00">Alice</tspan></text><rect x="131.03" y="8.00" width="80.00" height="49.60" rx="3" ry="3" fill="#EAEAEA" stroke="#666666" stroke-width="1.0"/><text x="171.03" y="36.80" text-anchor="middle" font-family="trebuchet ms,verdana,arial,sans-serif" font-size="16" fill="#333333"><tspan x="171.03" dy="0.00">John</tspan></text><rect x="35.03" y="198.40" width="80.00" height="49.60" rx="3" ry="3" fill="#EAEAEA" stroke="#666666" stroke-width="1.0"/><text x="75.03" y="227.20" text-anchor="middle" font-family="trebuchet ms,verdana,arial,sans-serif" font-size="16" fill="#333333"><tspan x="75.03" dy="0.00">Alice</tspan></text><rect x="131.03" y="198.40" width="80.00" height="49.60" rx="3" ry="3" fill="#EAEAEA" stroke="#666666" stroke-width="1.0"/><text x="171.03" y="227.20" text-anchor="middle" font-family="trebuchet ms,verdana,arial,sans-serif" font-size="16" fill="#333333"><tspan x="171.03" dy="0.00">John</tspan></text></svg>