<svg xmlns="http://www.w3.org/2000/svg" width="1063.3938" height="547" viewBox="0 0 1063.3938 547"><rect x="0" y="0" width="1063.3938" height="547" fill="#FFFFFF"/><defs><marker id="arrow-0" viewBox="0 0 10 10" refX="5" refY="5" markerUnits="userSpaceOnUse" markerWidth="8" markerHeight="8" orient="auto"><path d="M 0 0 L 10 5 L 0 10 z" fill="#2F3B4D" stroke="#2F3B4D" stroke-width="1" stroke-dasharray="1,0"/></marker><marker id="arrow-start-0" viewBox="0 0 10 10" refX="4.5" refY="5" markerUnits="userSpaceOnUse" markerWidth="8" markerHeight="8" orient="auto"><path d="M 0 5 L 10 10 L 10 0 z" fill="#2F3B4D" stroke="#2F3B4D" stroke-width="1" stroke-dasharray="1,0"/></marker><marker id="arrow-seq-0" viewBox="-1 0 12 10" refX="7.9" refY="5" markerUnits="userSpaceOnUse" markerWidth="12" markerHeight="12" orient="auto-start-reverse"><path d="M -1 0 L 10 5 L 0 10 z" fill="#2F3B4D" stroke="#2F3B4D" stroke-width="1" stroke-dasharray="1,0"/></marker><marker id="arrow-start-seq-0" viewBox="-1 0 12 10" refX="2.1" refY="5" markerUnits="userSpaceOnUse" markerWidth="12" markerHeight="12" orient="auto"><path d="M 11 0 L 0 5 L 11 10 z" fill="#2F3B4D" stroke="#2F3B4D" stroke-width="1" stroke-dasharray="1,0"/></marker><marker id="cross-seq-0" viewBox="0 0 8 9" refX="4" refY="4.5" markerUnits="userSpaceOnUse" markerWidth="15" markerHeight="8" orient="auto"><path fill="none" stroke="#2F3B4D" stroke-width="1.5" d="M 1,2 L 6,7 M 6,2 L 1,7" style="stroke-dasharray: 0, 0;"/></marker><marker id="open-seq-0" refX="15.5" refY="7" markerWidth="20" markerHeight="28" orient="auto"><path d="M 18,7 L9,13 L14,7 L9,1 Z" fill="#2F3B4D" stroke="#2F3B4D" stroke-width="1"/></marker></defs><rect x="99.80" y="84.27" width="835.79" height="352.00" fill="none" stroke="#7B88A8" stroke-width="2.0" stroke-dasharray="2 2"/><line x1="99.80" y1="177.07" x2="935.59" y2="177.07" stroke="#7B88A8" stroke-width="2.0" stroke-dasharray="3 3"/><polygon points="99.80,84.27 155.94,84.27 155.94,97.27 144.72,104.27 99.80,104.27" fill="#ECECFF" stroke="#7B88A8" stroke-width="1.1"/><text x="127.87" y="98.27" text-anchor="middle" font-family="trebuchet ms,verdana,arial,sans-serif" font-size="16" fill="#333333"><tspan x="127.87" dy="0.00">par</tspan></text><text x="231.15" y="115.47" text-anchor="middle" font-family="trebuchet ms,verdana,arial,sans-serif" font-size="16" fill="#333333"><tspan x="231.15" dy="0.00">[Alice to Bob]</tspan></text><text x="160.54" y="175.47" text-anchor="middle" font-family="trebuchet ms,verdana,arial,sans-serif" font-size="16" fill="#333333"><tspan x="160.54" dy="0.00">[Alice to John]</tspan></text><rect x="499.80" y="260.27" width="435.79" height="176.00" fill="none" stroke="#7B88A8" stroke-width="2.0" stroke-dasharray="2 2"/><line x1="499.80" y1="353.07" x2="935.59" y2="353.07" stroke="#7B88A8" stroke-width="2.0" stroke-dasharray="3 3"/><polygon points="499.80,260.27 555.94,260.27 555.94,273.27 544.72,280.27 499.80,280.27" fill="#ECECFF" stroke="#7B88A8" stroke-width="1.1"/><text x="527.87" y="274.27" text-anchor="middle" font-family="trebuchet ms,verdana,arial,sans-serif" font-size="16" fill="#333333"><tspan x="527.87" dy="0.00">par</tspan></text><text x="643.47" y="291.47" text-anchor="middle" font-family="trebuchet ms,verdana,arial,sans-serif" font-size="16" fill="#333333"><tspan x="643.47" dy="0.00">[John to Charlie]</tspan></text><text x="563.74" y="351.47" text-anchor="middle" font-family="trebuchet ms,verdana,arial,sans-serif" font-size="16" fill="#333333"><tspan x="563.74" dy="0.00">[John to Diana]</tspan></text><line x1="111.00" y1="74.67" x2="111.00" y2="470.67" stroke="#D2C7E4" stroke-width="0.5"/><line x1="311.00" y1="74.67" x2="311.00" y2="470.67" stroke="#D2C7E4" stroke-width="0.5"/><line x1="511.00" y1="74.67" x2="511.00" y2="470.67" stroke="#D2C7E4" stroke-width="0.5"/><line x1="724.39" y1="74.67" x2="724.39" y2="470.67" stroke="#D2C7E4" stroke-width="0.5"/><line x1="924.39" y1="74.67" x2="924.39" y2="470.67" stroke="#D2C7E4" stroke-width="0.5"/><path id="edge-0" class="edgePath" data-edge-id="edge-0" d="M 111.000,162.667 L 311.000,162.667" fill="none" stroke="#2F3B4D" stroke-width="2" marker-end="url(#arrow-seq-0)"   stroke-linecap="round" stroke-linejoin="round" /><g class="edgeLabel" data-edge-id="edge-0" data-label-kind="center"><text x="230.00" y="148.27" text-anchor="middle" font-family="trebuchet ms,verdana,arial,sans-serif" font-size="16" fill="#333333"><tspan x="230.00" dy="0.00">Go help John</tspan></text></g><path id="edge-1" class="edgePath" data-edge-id="edge-1" d="M 111.000,250.667 L 511.000,250.667" fill="none" stroke="#2F3B4D" stroke-width="2" marker-end="url(#arrow-seq-0)"   stroke-linecap="round" stroke-linejoin="round" /><g class="edgeLabel" data-edge-id="edge-1" data-label-kind="center"><text x="311.00" y="236.27" text-anchor="middle" font-family="trebuchet ms,verdana,arial,sans-serif" font-size="16" fill="#333333"><tspan x="311.00" dy="0.00">I want this done today</tspan></text></g><path id="edge-2" class="edgePath" data-edge-id="edge-2" d="M 511.000,338.667 L 724.394,338.667" fill="none" stroke="#2F3B4D" stroke-width="2" marker-end="url(#arrow-seq-0)"   stroke-linecap="round" stroke-linejoin="round" /><g class="edgeLabel" data-edge-id="edge-2" data-label-kind="center"><text x="648.89" y="324.27" text-anchor="middle" font-family="trebuchet ms,verdana,arial,sans-serif" font-size="16" fill="#333333"><tspan x="648.89" dy="0.00">Can we do this today?</tspan></text></g><path id="edge-3" class="edgePath" data-edge-id="edge-3" d="M 511.000,426.667 L 924.394,426.667" fill="none" stroke="#2F3B4D" stroke-width="2" marker-end="url(#arrow-seq-0)"   stroke-linecap="round" stroke-linejoin="round" /><g class="edgeLabel" data-edge-id="edge-3" data-label-kind="center"><text x="717.70" y="412.27" text-anchor="middle" font-family="trebuchet ms,verdana,arial,sans-serif" font-size="16" fill="#333333"><tspan x="717.70" dy="0.00">Can you help us today?</tspan></text></g><rect x="36.00" y="9.67" width="150.00" height="65.00" rx="3" ry="3" fill="#ECECFF" stroke="#D2C7E4" stroke-width="1.0"/><text x="111.00" y="46.17" text-anchor="middle" font-family="trebuchet ms,verdana,arial,sans-serif" font-size="16" fill="#333333"><tspan x="111.00" dy="0.00">Alice</tspan></text><rect x="236.00" y="9.67" width="150.00" height="65.00" rx="3" ry="3" fill="#ECECFF" stroke="#D2C7E4" stroke-width="1.0"/><text x="311.00" y="46.17" text-anchor="middle" font-family="trebuchet ms,verdana,arial,sans-serif" font-size="16" fill="#333333"><tspan x="311.00" dy="0.00">Bob</tspan></text><rect x="649.39" y="9.67" width="150.00" height="65.00" rx="3" ry="3" fill="#ECECFF" stroke="#D2C7E4" stroke-width="1.0"/><text x="724.39" y="46.17" text-anchor="middle" font-family="trebuchet ms,verdana,arial,sans-serif" font-size="16" fill="#333333"><tspan x="724.39" dy="0.00">Charlie</tspan></text><rect x="849.39" y="9.67" width="150.00" height="65.00" rx="3" ry="3" fill="#ECECFF" stroke="#D2C7E4" stroke-width="1.0"/><text x="924.39" y="46.17" text-anchor="middle" font-family="trebuchet ms,verdana,arial,sans-serif" font-size="16" fill="#333333"><tspan x="924.39" dy="0.00">Diana</tspan></text><rect x="436.00" y="9.67" width="150.00" height="65.00" rx="3" ry="3" fill="#ECECFF" stroke="#D2C7E4" stroke-width="1.0"/><text x="511.00" y="46.17" text-anchor="middle" font-family="trebuchet ms,verdana,arial,sans-serif" font-size="16" fill="#333333"><tspan x="511.00" dy="0.00">John</tspan></text><rect x="36.00" y="470.67" width="150.00" height="65.00" rx="3" ry="3" fill="#ECECFF" stroke="#D2C7E4" stroke-width="1.0"/><text x="111.00" y="507.17" text-anchor="middle" font-family="trebuchet ms,verdana,arial,sans-serif" font-size="16" fill="#333333"><tspan x="111.00" dy="0.00">Alice</tspan></text><rect x="236.00" y="470.67" width="150.00" height="65.00" rx="3" ry="3" fill="#ECECFF" stroke="#D2C7E4" stroke-width="1.0"/><text x="311.00" y="507.17" text-anchor="middle" font-family="trebuchet ms,verdana,arial,sans-serif" font-size="16" fill="#333333"><tspan x="311.00" dy="0.00">Bob</tspan></text><rect x="436.00" y="470.67" width="150.00" height="65.00" rx="3" ry="3" fill="#ECECFF" stroke="#D2C7E4" stroke-width="1.0"/><text x="511.00" y="507.17" text-anchor="middle" font-family="trebuchet ms,verdana,arial,sans-serif" font-size="16" fill="#333333"><tspan x="511.00" dy="0.00">John</tspan></text><rect x="649.39" y="470.67" width="150.00" height="65.00" rx="3" ry="3" fill="#ECECFF" stroke="#D2C7E4" stroke-width="1.0"/><text x="724.39" y="507.17" text-anchor="middle" font-family="trebuchet ms,verdana,arial,sans-serif" font-size="16" fill="#333333"><tspan x="724.39" dy="0.00">Charlie</tspan></text><rect x="849.39" y="470.67" width="150.00" height="65.00" rx="3" ry="3" fill="#ECECFF" stroke="#D2C7E4" stroke-width="1.0"/><text x="924.39" y="507.17" text-anchor="middle" font-family="trebuchet ms,verdana,arial,sans-serif" font-size="16" fill="#333333"><tspan x="924.39" dy="0.00">Diana</tspan></text></svg>