<svg xmlns="http://www.w3.org/2000/svg" width="569.19507" height="645.09924" viewBox="0 0 569.19507 645.09924"><rect x="0" y="0" width="569.19507" height="645.09924" fill="#FFFFFF"/><defs><marker id="arrow-0" viewBox="0 0 10 10" refX="5" refY="5" markerUnits="userSpaceOnUse" markerWidth="8" markerHeight="8" orient="auto"><path d="M 0 0 L 10 5 L 0 10 z" fill="#2F3B4D" stroke="#2F3B4D" stroke-width="1" stroke-dasharray="1,0"/></marker><marker id="arrow-start-0" viewBox="0 0 10 10" refX="4.5" refY="5" markerUnits="userSpaceOnUse" markerWidth="8" markerHeight="8" orient="auto"><path d="M 0 5 L 10 10 L 10 0 z" fill="#2F3B4D" stroke="#2F3B4D" stroke-width="1" stroke-dasharray="1,0"/></marker><marker id="arrow-state-0" viewBox="0 0 20 14" refX="19" refY="7" markerUnits="userSpaceOnUse" markerWidth="20" markerHeight="14" orient="auto"><path d="M 19 7 L 9 13 L 14 7 L 9 1 Z" fill="#2F3B4D" stroke="#2F3B4D" stroke-width="1" stroke-dasharray="1,0"/></marker></defs><rect x="8.00" y="47.20" width="450.59" height="36.00" rx="6" ry="6" fill="hsl(240.0000000000, 99.9999237061%, 92.2745056152%)" stroke="none"/><rect x="8.00" y="83.20" width="450.59" height="446.88" fill="hsl(240.0000000000, 87.9999237061%, 100.0000000000%)" stroke="none"/><line x1="8.00" y1="83.20" x2="458.59" y2="83.20" stroke="#7B88A8" stroke-width="1"/><rect x="8.00" y="47.20" width="450.59" height="482.88" rx="6" ry="6" fill="none" stroke="#7B88A8" stroke-width="1"/><text x="17.60" y="68.60" text-anchor="start" font-family="trebuchet ms,verdana,arial,sans-serif" font-size="13.6" fill="#333333" font-weight="600"><tspan x="17.60" dy="0.00">First</tspan></text><rect x="36.80" y="122.40" width="392.99" height="36.00" rx="6" ry="6" fill="hsl(240.0000000000, 99.9999237061%, 92.2745056152%)" stroke="none"/><rect x="36.80" y="158.40" width="392.99" height="342.88" fill="hsl(240.0000000000, 87.9999237061%, 100.0000000000%)" stroke="none"/><line x1="36.80" y1="158.40" x2="429.79" y2="158.40" stroke="#7B88A8" stroke-width="1"/><rect x="36.80" y="122.40" width="392.99" height="378.88" rx="6" ry="6" fill="none" stroke="#7B88A8" stroke-width="1"/><text x="46.40" y="143.80" text-anchor="start" font-family="trebuchet ms,verdana,arial,sans-serif" font-size="13.6" fill="#333333" font-weight="600"><tspan x="46.40" dy="0.00">Second</tspan></text><rect x="306.13" y="161.60" width="136.43" height="36.00" rx="6" ry="6" fill="hsl(240.0000000000, 99.9999237061%, 92.2745056152%)" stroke="none"/><rect x="306.13" y="197.60" width="136.43" height="299.52" fill="hsl(240.0000000000, 87.9999237061%, 100.0000000000%)" stroke="none"/><line x1="306.13" y1="197.60" x2="442.56" y2="197.60" stroke="#7B88A8" stroke-width="1"/><rect x="306.13" y="161.60" width="136.43" height="335.52" rx="6" ry="6" fill="none" stroke="#7B88A8" stroke-width="1"/><text x="315.73" y="183.00" text-anchor="start" font-family="trebuchet ms,verdana,arial,sans-serif" font-size="13.6" fill="#333333" font-weight="600"><tspan x="315.73" dy="0.00">End</tspan></text><rect x="65.60" y="268.64" width="100.87" height="36.00" rx="6" ry="6" fill="hsl(240.0000000000, 99.9999237061%, 92.2745056152%)" stroke="none"/><rect x="65.60" y="304.64" width="100.87" height="141.44" fill="hsl(240.0000000000, 87.9999237061%, 100.0000000000%)" stroke="none"/><line x1="65.60" y1="304.64" x2="166.47" y2="304.64" stroke="#7B88A8" stroke-width="1"/><rect x="65.60" y="268.64" width="100.87" height="177.44" rx="6" ry="6" fill="none" stroke="#7B88A8" stroke-width="1"/><text x="75.20" y="290.04" text-anchor="start" font-family="trebuchet ms,verdana,arial,sans-serif" font-size="13.6" fill="#333333" font-weight="600"><tspan x="75.20" dy="0.00">Third</tspan></text><path id="edge-0" class="edgePath" data-edge-id="edge-0" d="M 202.462,22.984 L 233.295,47.200" fill="none" stroke="#2F3B4D" stroke-width="1" marker-end="url(#arrow-state-0)"   stroke-linecap="round" stroke-linejoin="round" /><path id="edge-1" class="edgePath" data-edge-id="edge-1" d="M 64.767,91.507 L 232.295,123.400" fill="none" stroke="#2F3B4D" stroke-width="1" marker-end="url(#arrow-state-0)"   stroke-linecap="round" stroke-linejoin="round" /><path id="edge-2" class="edgePath" data-edge-id="edge-2" d="M 80.753,166.841 L 322.130,212.812" fill="none" stroke="#2F3B4D" stroke-width="1" marker-end="url(#arrow-state-0)"   stroke-linecap="round" stroke-linejoin="round" /><path id="edge-3" class="edgePath" data-edge-id="edge-3" d="M 322.130,229.474 L 117.034,269.640" fill="none" stroke="#2F3B4D" stroke-width="1" marker-end="url(#arrow-state-0)"   stroke-linecap="round" stroke-linejoin="round" /><path id="edge-4" class="edgePath" data-edge-id="edge-4" d="M 91.000,319.624 L 116.034,343.840" fill="none" stroke="#2F3B4D" stroke-width="1" marker-end="url(#arrow-state-0)"   stroke-linecap="round" stroke-linejoin="round" /><path id="edge-5" class="edgePath" data-edge-id="edge-5" d="M 116.034,390.880 L 91.000,415.096" fill="none" stroke="#2F3B4D" stroke-width="1" marker-end="url(#arrow-state-0)"   stroke-linecap="round" stroke-linejoin="round" /><path id="edge-6" class="edgePath" data-edge-id="edge-6" d="M 116.034,446.080 L 75.000,470.296" fill="none" stroke="#2F3B4D" stroke-width="1" marker-end="url(#arrow-state-0)"   stroke-linecap="round" stroke-linejoin="round" /><path id="edge-7" class="edgePath" data-edge-id="edge-7" d="M 233.295,499.280 L 183.869,409.864" fill="none" stroke="#2F3B4D" stroke-width="1" marker-end="url(#arrow-state-0)"   stroke-linecap="round" stroke-linejoin="round" /><path id="edge-8" class="edgePath" data-edge-id="edge-8" d="M 233.295,528.080 C 233.295,526.080 231.296,522.130 233.295,522.080 C 312.768,520.081 427.240,587.923 471.790,522.080 C 527.489,424.769 503.097,282.846 471.790,169.600 C 463.136,138.293 406.766,171.596 374.346,169.600 C 372.350,169.477 374.346,165.600 374.346,163.600" fill="none" stroke="#2F3B4D" stroke-width="1" marker-end="url(#arrow-state-0)"   stroke-linecap="round" stroke-linejoin="round" /><path id="edge-9" class="edgePath" data-edge-id="edge-9" d="M 417.330,355.858 L 383.960,244.640" fill="none" stroke="#2F3B4D" stroke-width="1" marker-end="url(#arrow-state-0)"   stroke-linecap="round" stroke-linejoin="round" /><path id="edge-10" class="edgePath" data-edge-id="edge-10" d="M 367.960,244.640 C 367.960,246.640 367.960,248.640 367.960,250.640 C 367.960,320.416 351.701,392.112 367.960,459.967 C 371.856,476.226 401.516,457.981 418.117,459.967 C 420.102,460.205 418.117,463.967 418.117,465.967" fill="none" stroke="#2F3B4D" stroke-width="1" marker-end="url(#arrow-state-0)"   stroke-linecap="round" stroke-linejoin="round" /><path id="edge-11" class="edgePath" data-edge-id="edge-11" d="M 373.346,496.120 L 208.231,528.003" fill="none" stroke="#2F3B4D" stroke-width="1" marker-end="url(#arrow-state-0)"   stroke-linecap="round" stroke-linejoin="round" /><circle cx="418.96" cy="473.52" r="7.60" fill="#7B88A8" stroke="#7B88A8" stroke-width="1" stroke-linejoin="round" stroke-linecap="round"/><circle cx="418.96" cy="473.52" r="3.60" fill="#FFFFFF" stroke="#FFFFFF" stroke-width="1.2" stroke-linejoin="round" stroke-linecap="round"/><circle cx="182.07" cy="402.48" r="7.60" fill="#7B88A8" stroke="#7B88A8" stroke-width="1" stroke-linejoin="round" stroke-linecap="round"/><circle cx="182.07" cy="402.48" r="3.60" fill="#FFFFFF" stroke="#FFFFFF" stroke-width="1.2" stroke-linejoin="round" stroke-linecap="round"/><circle cx="73.20" cy="477.68" r="7.60" fill="#7B88A8" stroke="#7B88A8" stroke-width="1" stroke-linejoin="round" stroke-linecap="round"/><circle cx="73.20" cy="477.68" r="3.60" fill="#FFFFFF" stroke="#FFFFFF" stroke-width="1.2" stroke-linejoin="round" stroke-linecap="round"/><circle cx="89.20" cy="422.48" r="7.60" fill="#7B88A8" stroke="#7B88A8" stroke-width="1" stroke-linejoin="round" stroke-linecap="round"/><circle cx="89.20" cy="422.48" r="3.60" fill="#FFFFFF" stroke="#FFFFFF" stroke-width="1.2" stroke-linejoin="round" stroke-linecap="round"/><circle cx="200.66" cy="528.72" r="7.60" fill="#7B88A8" stroke="#7B88A8" stroke-width="1" stroke-linejoin="round" stroke-linecap="round"/><circle cx="200.66" cy="528.72" r="3.60" fill="#FFFFFF" stroke="#FFFFFF" stroke-width="1.2" stroke-linejoin="round" stroke-linecap="round"/><circle cx="418.96" cy="363.28" r="7.60" fill="#2F3B4D" stroke="#2F3B4D" stroke-width="1" stroke-linejoin="round" stroke-linecap="round"/><circle cx="57.20" cy="90.80" r="7.60" fill="#2F3B4D" stroke="#2F3B4D" stroke-width="1" stroke-linejoin="round" stroke-linecap="round"/><circle cx="73.20" cy="166.00" r="7.60" fill="#2F3B4D" stroke="#2F3B4D" stroke-width="1" stroke-linejoin="round" stroke-linecap="round"/><circle cx="89.20" cy="312.24" r="7.60" fill="#2F3B4D" stroke="#2F3B4D" stroke-width="1" stroke-linejoin="round" stroke-linecap="round"/><circle cx="200.66" cy="15.60" r="7.60" fill="#2F3B4D" stroke="#2F3B4D" stroke-width="1" stroke-linejoin="round" stroke-linecap="round"/><rect x="322.13" y="197.60" width="91.66" height="47.04" rx="10" ry="10" fill="#ECECFF" stroke="#7B88A8" stroke-width="1" stroke-linejoin="round" stroke-linecap="round"/><text x="367.96" y="224.52" text-anchor="middle" font-family="trebuchet ms,verdana,arial,sans-serif" font-size="13.6" fill="#333333"><tspan x="367.96" dy="0.00">second</tspan></text><rect x="81.60" y="343.84" width="68.87" height="47.04" rx="10" ry="10" fill="#ECECFF" stroke="#7B88A8" stroke-width="1" stroke-linejoin="round" stroke-linecap="round"/><text x="116.03" y="370.76" text-anchor="middle" font-family="trebuchet ms,verdana,arial,sans-serif" font-size="13.6" fill="#333333"><tspan x="116.03" dy="0.00">third</tspan></text></svg>