<svg xmlns="http://www.w3.org/2000/svg" width="720" height="480" viewBox="0 0 720 480"><rect x="0" y="0" width="720" height="480" fill="#FFFFFF"/><defs><marker id="arrow-0" viewBox="0 0 10 10" refX="5" refY="5" markerUnits="userSpaceOnUse" markerWidth="8" markerHeight="8" orient="auto"><path d="M 0 0 L 10 5 L 0 10 z" fill="#2F3B4D" stroke="#2F3B4D" stroke-width="1" stroke-dasharray="1,0"/></marker><marker id="arrow-start-0" viewBox="0 0 10 10" refX="4.5" refY="5" markerUnits="userSpaceOnUse" markerWidth="8" markerHeight="8" orient="auto"><path d="M 0 5 L 10 10 L 10 0 z" fill="#2F3B4D" stroke="#2F3B4D" stroke-width="1" stroke-dasharray="1,0"/></marker></defs><rect x="281.91" y="0.00" width="423.94" height="480.00" rx="0" ry="0" fill="#ECECFF" stroke="#7B88A8" stroke-width="1" stroke-linejoin="round" stroke-linecap="round"/><text x="287.91" y="18.80" text-anchor="start" font-family="trebuchet ms,verdana,arial,sans-serif" font-size="11.2" fill="#333333"><tspan x="287.91" dy="0.00">Section 2</tspan></text><rect x="0.00" y="0.00" width="278.91" height="480.00" rx="0" ry="0" fill="#ECECFF" stroke="#7B88A8" stroke-width="1" stroke-linejoin="round" stroke-linecap="round"/><text x="6.00" y="18.80" text-anchor="start" font-family="trebuchet ms,verdana,arial,sans-serif" font-size="11.2" fill="#333333"><tspan x="6.00" dy="0.00">Section 1</tspan></text><rect x="289.91" y="54.21" width="407.94" height="280.26" rx="0" ry="0" fill="#FFFFDE" stroke="#7B88A8" stroke-width="1" stroke-linejoin="round" stroke-linecap="round"/><text x="493.88" y="186.34" text-anchor="middle" font-family="trebuchet ms,verdana,arial,sans-serif" font-size="16" fill="#333333"><tspan x="493.88" dy="0.00">Leaf 2.2</tspan></text><text x="493.88" y="211.34" text-anchor="middle" font-family="trebuchet ms,verdana,arial,sans-serif" font-size="12" fill="#333333"><tspan x="493.88" dy="0.00">25</tspan></text><rect x="289.91" y="337.47" width="407.94" height="134.53" rx="0" ry="0" fill="#FFFFDE" stroke="#7B88A8" stroke-width="1" stroke-linejoin="round" stroke-linecap="round"/><text x="493.88" y="396.74" text-anchor="middle" font-family="trebuchet ms,verdana,arial,sans-serif" font-size="16" fill="#333333"><tspan x="493.88" dy="0.00">Leaf 2.3</tspan></text><text x="493.88" y="421.74" text-anchor="middle" font-family="trebuchet ms,verdana,arial,sans-serif" font-size="12" fill="#333333"><tspan x="493.88" dy="0.00">12</tspan></text><rect x="8.00" y="40.00" width="262.91" height="204.48" rx="0" ry="0" fill="#FFFFDE" stroke="#7B88A8" stroke-width="1" stroke-linejoin="round" stroke-linecap="round"/><text x="139.45" y="134.24" text-anchor="middle" font-family="trebuchet ms,verdana,arial,sans-serif" font-size="16" fill="#333333"><tspan x="139.45" dy="0.00">Leaf 1.1</tspan></text><text x="139.45" y="159.24" text-anchor="middle" font-family="trebuchet ms,verdana,arial,sans-serif" font-size="12" fill="#333333"><tspan x="139.45" dy="0.00">12</tspan></text><rect x="8.00" y="267.52" width="262.91" height="204.48" rx="0" ry="0" fill="#FFFFDE" stroke="#7B88A8" stroke-width="1" stroke-linejoin="round" stroke-linecap="round"/><text x="139.45" y="361.76" text-anchor="middle" font-family="trebuchet ms,verdana,arial,sans-serif" font-size="16" fill="#333333"><tspan x="139.45" dy="0.00">Leaf 1.2.1</tspan></text><text x="139.45" y="386.76" text-anchor="middle" font-family="trebuchet ms,verdana,arial,sans-serif" font-size="12" fill="#333333"><tspan x="139.45" dy="0.00">12</tspan></text><rect x="708.84" y="0.00" width="11.16" height="480.00" rx="0" ry="0" fill="#ECECFF" stroke="#7B88A8" stroke-width="1" stroke-linejoin="round" stroke-linecap="round"/><rect x="289.91" y="40.00" width="407.94" height="11.21" rx="0" ry="0" fill="#FFFFDE" stroke="#7B88A8" stroke-width="1" stroke-linejoin="round" stroke-linecap="round"/><rect x="8.00" y="247.48" width="262.91" height="17.04" rx="0" ry="0" fill="#FFFFDE" stroke="#7B88A8" stroke-width="1" stroke-linejoin="round" stroke-linecap="round"/></svg>